%FSLAX24Y24*%
%MOIN*%
G70*
G01*
G75*
G04 Layer_Physical_Order=3*
G04 Layer_Color=128*
%ADD10R,0.0197X0.0197*%
%ADD11O,0.0295X0.0118*%
%ADD12O,0.0118X0.0295*%
%ADD13R,0.1102X0.1102*%
%ADD14R,0.0945X0.0295*%
%ADD15R,0.0098X0.0217*%
%ADD16R,0.0118X0.0118*%
%ADD17R,0.0118X0.0118*%
%ADD18R,0.0472X0.0394*%
%ADD19R,0.0472X0.0394*%
%ADD20C,0.0100*%
%ADD21C,0.0060*%
%ADD22C,0.0200*%
%ADD23C,0.0080*%
%ADD24C,0.0120*%
%ADD25C,0.0090*%
%ADD26C,0.0220*%
%ADD27C,0.0320*%
G36*
X20440Y19430D02*
X20400Y19430D01*
Y15950D01*
X18570D01*
Y18460D01*
X17850Y19180D01*
Y19452D01*
X15820Y19470D01*
X14940Y18020D01*
X14949Y21180D01*
X20440D01*
Y19430D01*
D02*
G37*
G36*
X10328Y24780D02*
X9110Y24777D01*
Y27165D01*
X8390Y27885D01*
Y28228D01*
X10311D01*
X10328Y24780D01*
D02*
G37*
G36*
X15438D02*
X14220Y24777D01*
Y27165D01*
X13500Y27885D01*
Y28228D01*
X15421D01*
X15438Y24780D01*
D02*
G37*
G36*
X20548D02*
X19330Y24777D01*
Y27165D01*
X18610Y27885D01*
Y28228D01*
X20531D01*
X20548Y24780D01*
D02*
G37*
G36*
X10328Y28720D02*
X9110Y28717D01*
Y31105D01*
X8390Y31825D01*
Y32168D01*
X10311D01*
X10328Y28720D01*
D02*
G37*
G36*
X15438D02*
X14220Y28717D01*
Y31105D01*
X13500Y31825D01*
Y32168D01*
X15421D01*
X15438Y28720D01*
D02*
G37*
G36*
X20548D02*
X19330Y28717D01*
Y31105D01*
X18610Y31825D01*
Y32168D01*
X20531D01*
X20548Y28720D01*
D02*
G37*
G36*
X10328Y32660D02*
X9110Y32657D01*
Y35045D01*
X8390Y35765D01*
Y36108D01*
X10311D01*
X10328Y32660D01*
D02*
G37*
G36*
X15438D02*
X14220Y32657D01*
Y35045D01*
X13500Y35765D01*
Y36108D01*
X15421D01*
X15438Y32660D01*
D02*
G37*
G36*
X20548D02*
X19330Y32657D01*
Y35045D01*
X18610Y35765D01*
Y36108D01*
X20531D01*
X20548Y32660D01*
D02*
G37*
D22*
X21518Y40058D02*
X33692Y40207D01*
Y22225D02*
Y40207D01*
Y22225D02*
X34064D01*
X21518D02*
X34064D01*
X21518D02*
Y40058D01*
X5718Y24795D02*
X10334D01*
Y28236D01*
X5718D02*
X10334D01*
X5718Y24795D02*
Y28236D01*
X10828Y24795D02*
X15444D01*
Y28236D01*
X10828D02*
X15444D01*
X10828Y24795D02*
Y28236D01*
X15938Y24795D02*
X20554D01*
Y28236D01*
X15938D02*
X20554D01*
X15938Y24795D02*
Y28236D01*
X5718Y28735D02*
X10334D01*
Y32176D01*
X5718D02*
X10334D01*
X5718Y28735D02*
Y32176D01*
X10828Y28735D02*
X15444D01*
Y32176D01*
X10828D02*
X15444D01*
X10828Y28735D02*
Y32176D01*
X15938Y28735D02*
X20554D01*
Y32176D01*
X15938D02*
X20554D01*
X15938Y28735D02*
Y32176D01*
X5718Y32675D02*
X10334D01*
Y36116D01*
X5718D02*
X10334D01*
X5718Y32675D02*
Y36116D01*
X10828Y32675D02*
X15444D01*
Y36116D01*
X10828D02*
X15444D01*
X10828Y32675D02*
Y36116D01*
X15938Y32675D02*
X20554D01*
Y36116D01*
X15938D02*
X20554D01*
X15938Y32675D02*
Y36116D01*
D27*
X16464Y16288D02*
D03*
X16174Y16286D02*
D03*
X15960Y19240D02*
D03*
X15380Y18010D02*
D03*
X17380Y18800D02*
D03*
X15440Y16680D02*
D03*
X17890Y16450D02*
D03*
X15670Y18220D02*
D03*
X18380Y18430D02*
D03*
X17650Y18020D02*
D03*
X16740Y17100D02*
D03*
X16350Y17740D02*
D03*
X17530Y16690D02*
D03*
X17520Y16330D02*
D03*
X15450Y16360D02*
D03*
X16750Y16290D02*
D03*
X17040Y16300D02*
D03*
X17930Y18080D02*
D03*
X8470Y26785D02*
D03*
X7580Y25005D02*
D03*
X7290Y24995D02*
D03*
X8060Y25035D02*
D03*
X6890Y26445D02*
D03*
X7280Y25805D02*
D03*
X8430Y25155D02*
D03*
X5980Y25385D02*
D03*
X7920Y27505D02*
D03*
X5920Y26715D02*
D03*
X6500Y27945D02*
D03*
X6714Y24991D02*
D03*
X7003Y24994D02*
D03*
X13580Y26785D02*
D03*
X12690Y25005D02*
D03*
X12400Y24995D02*
D03*
X13170Y25035D02*
D03*
X12000Y26445D02*
D03*
X12390Y25805D02*
D03*
X13540Y25155D02*
D03*
X11090Y25385D02*
D03*
X13030Y27505D02*
D03*
X11030Y26715D02*
D03*
X11610Y27945D02*
D03*
X11824Y24991D02*
D03*
X12113Y24994D02*
D03*
X18690Y26785D02*
D03*
X17800Y25005D02*
D03*
X17510Y24995D02*
D03*
X18280Y25035D02*
D03*
X17110Y26445D02*
D03*
X17500Y25805D02*
D03*
X18650Y25155D02*
D03*
X16200Y25385D02*
D03*
X18140Y27505D02*
D03*
X16140Y26715D02*
D03*
X16720Y27945D02*
D03*
X16934Y24991D02*
D03*
X17223Y24994D02*
D03*
X8470Y30725D02*
D03*
X7580Y28945D02*
D03*
X7290Y28935D02*
D03*
X8060Y28975D02*
D03*
X6890Y30385D02*
D03*
X7280Y29745D02*
D03*
X8430Y29095D02*
D03*
X5980Y29325D02*
D03*
X7920Y31445D02*
D03*
X5920Y30655D02*
D03*
X6500Y31885D02*
D03*
X6714Y28931D02*
D03*
X7003Y28934D02*
D03*
X13580Y30725D02*
D03*
X12690Y28945D02*
D03*
X12400Y28935D02*
D03*
X13170Y28975D02*
D03*
X12000Y30385D02*
D03*
X12390Y29745D02*
D03*
X13540Y29095D02*
D03*
X11090Y29325D02*
D03*
X13030Y31445D02*
D03*
X11030Y30655D02*
D03*
X11610Y31885D02*
D03*
X11824Y28931D02*
D03*
X12113Y28934D02*
D03*
X18690Y30725D02*
D03*
X17800Y28945D02*
D03*
X17510Y28935D02*
D03*
X18280Y28975D02*
D03*
X17110Y30385D02*
D03*
X17500Y29745D02*
D03*
X18650Y29095D02*
D03*
X16200Y29325D02*
D03*
X18140Y31445D02*
D03*
X16140Y30655D02*
D03*
X16720Y31885D02*
D03*
X16934Y28931D02*
D03*
X17223Y28934D02*
D03*
X8470Y34665D02*
D03*
X7580Y32885D02*
D03*
X7290Y32875D02*
D03*
X8060Y32915D02*
D03*
X6890Y34325D02*
D03*
X7280Y33685D02*
D03*
X8430Y33035D02*
D03*
X5980Y33265D02*
D03*
X7920Y35385D02*
D03*
X5920Y34595D02*
D03*
X6500Y35825D02*
D03*
X6714Y32871D02*
D03*
X7003Y32874D02*
D03*
X13580Y34665D02*
D03*
X12690Y32885D02*
D03*
X12400Y32875D02*
D03*
X13170Y32915D02*
D03*
X12000Y34325D02*
D03*
X12390Y33685D02*
D03*
X13540Y33035D02*
D03*
X11090Y33265D02*
D03*
X13030Y35385D02*
D03*
X11030Y34595D02*
D03*
X11610Y35825D02*
D03*
X11824Y32871D02*
D03*
X12113Y32874D02*
D03*
X18690Y34665D02*
D03*
X17800Y32885D02*
D03*
X17510Y32875D02*
D03*
X18280Y32915D02*
D03*
X17110Y34325D02*
D03*
X17500Y33685D02*
D03*
X18650Y33035D02*
D03*
X16200Y33265D02*
D03*
X18140Y35385D02*
D03*
X16140Y34595D02*
D03*
X16720Y35825D02*
D03*
X16934Y32871D02*
D03*
X17223Y32874D02*
D03*
M02*
