%FSLAX24Y24*%
%MOIN*%
G70*
G01*
G75*
G04 Layer_Physical_Order=4*
G04 Layer_Color=16711680*
%ADD10R,0.0197X0.0197*%
%ADD11O,0.0295X0.0118*%
%ADD12O,0.0118X0.0295*%
%ADD13R,0.1102X0.1102*%
%ADD14R,0.0945X0.0295*%
%ADD15R,0.0098X0.0217*%
%ADD16R,0.0118X0.0118*%
%ADD17R,0.0118X0.0118*%
%ADD18R,0.0472X0.0394*%
%ADD19R,0.0472X0.0394*%
%ADD20C,0.0100*%
%ADD21C,0.0060*%
%ADD22C,0.0200*%
%ADD23C,0.0080*%
%ADD24C,0.0120*%
%ADD25C,0.0090*%
%ADD26C,0.0220*%
%ADD27C,0.0320*%
%ADD28R,0.0520X0.1100*%
%ADD29R,0.0390X0.1100*%
%ADD30R,0.0354X0.0315*%
%ADD31R,0.0197X0.0197*%
G04:AMPARAMS|DCode=32|XSize=7.9mil|YSize=23.6mil|CornerRadius=0mil|HoleSize=0mil|Usage=FLASHONLY|Rotation=180.000|XOffset=0mil|YOffset=0mil|HoleType=Round|Shape=Octagon|*
%AMOCTAGOND32*
4,1,8,0.0020,-0.0118,-0.0020,-0.0118,-0.0039,-0.0098,-0.0039,0.0098,-0.0020,0.0118,0.0020,0.0118,0.0039,0.0098,0.0039,-0.0098,0.0020,-0.0118,0.0*
%
%ADD32OCTAGOND32*%

%ADD33O,0.0079X0.0276*%
G04:AMPARAMS|DCode=34|XSize=7.9mil|YSize=23.6mil|CornerRadius=0mil|HoleSize=0mil|Usage=FLASHONLY|Rotation=270.000|XOffset=0mil|YOffset=0mil|HoleType=Round|Shape=Octagon|*
%AMOCTAGOND34*
4,1,8,0.0118,0.0020,0.0118,-0.0020,0.0098,-0.0039,-0.0098,-0.0039,-0.0118,-0.0020,-0.0118,0.0020,-0.0098,0.0039,0.0098,0.0039,0.0118,0.0020,0.0*
%
%ADD34OCTAGOND34*%

G04:AMPARAMS|DCode=35|XSize=7.9mil|YSize=27.6mil|CornerRadius=2mil|HoleSize=0mil|Usage=FLASHONLY|Rotation=270.000|XOffset=0mil|YOffset=0mil|HoleType=Round|Shape=RoundedRectangle|*
%AMROUNDEDRECTD35*
21,1,0.0079,0.0236,0,0,270.0*
21,1,0.0039,0.0276,0,0,270.0*
1,1,0.0039,-0.0118,-0.0020*
1,1,0.0039,-0.0118,0.0020*
1,1,0.0039,0.0118,0.0020*
1,1,0.0039,0.0118,-0.0020*
%
%ADD35ROUNDEDRECTD35*%
%ADD36O,0.0276X0.0079*%
%ADD37C,0.0140*%
D10*
X17440Y16973D02*
D03*
Y17367D02*
D03*
X7980Y26072D02*
D03*
Y25678D02*
D03*
X13090Y26072D02*
D03*
Y25678D02*
D03*
X18200Y26072D02*
D03*
Y25678D02*
D03*
X7980Y30012D02*
D03*
Y29618D02*
D03*
X13090Y30012D02*
D03*
Y29618D02*
D03*
X18200Y30012D02*
D03*
Y29618D02*
D03*
X7980Y33952D02*
D03*
Y33558D02*
D03*
X13090Y33952D02*
D03*
Y33558D02*
D03*
X18200Y33952D02*
D03*
Y33558D02*
D03*
D20*
X15670Y18220D02*
Y18465D01*
X15635D02*
X15670D01*
X15400Y17846D02*
Y17990D01*
X15380Y18010D02*
X15400Y17990D01*
X15951Y17101D02*
Y17298D01*
Y17301D01*
X15400Y17846D02*
X15948Y17298D01*
X15952Y16830D02*
X16070Y16712D01*
X15951Y16830D02*
X15952D01*
X15951D02*
Y17101D01*
X17887Y18037D02*
X17930Y18080D01*
X17887Y17660D02*
Y18037D01*
X17493Y17863D02*
X17650Y18020D01*
X17493Y17660D02*
Y17863D01*
X16687Y17960D02*
X16727Y17920D01*
X17408Y17633D02*
X17460D01*
X17361Y17680D02*
X17408Y17633D01*
X16293Y17960D02*
X16350Y17903D01*
Y17740D02*
Y17903D01*
X17228Y17680D02*
X17361D01*
X17218Y17690D02*
X17228Y17680D01*
X16924Y17614D02*
X17000Y17690D01*
X16727Y17650D02*
Y17920D01*
X17000Y17690D02*
X17218D01*
X7540Y26395D02*
X7758D01*
X7267Y26355D02*
Y26625D01*
X7464Y26319D02*
X7540Y26395D01*
X7758D02*
X7768Y26385D01*
X7901D01*
X6890Y26445D02*
Y26608D01*
X6833Y26665D02*
X6890Y26608D01*
X7901Y26385D02*
X7947Y26338D01*
X8000D01*
X7227Y26665D02*
X7267Y26625D01*
X8033Y26365D02*
Y26568D01*
X8190Y26725D01*
X8427Y26365D02*
Y26742D01*
X8470Y26785D01*
X6491Y25535D02*
Y25806D01*
Y25535D02*
X6492D01*
X6610Y25417D01*
X5940Y26551D02*
X6488Y26003D01*
X6491D02*
Y26006D01*
Y25806D02*
Y26003D01*
X5920Y26715D02*
X5940Y26695D01*
Y26551D02*
Y26695D01*
X6175Y27170D02*
X6210D01*
Y26925D02*
Y27170D01*
X12650Y26395D02*
X12868D01*
X12377Y26355D02*
Y26625D01*
X12574Y26319D02*
X12650Y26395D01*
X12868D02*
X12878Y26385D01*
X13011D01*
X12000Y26445D02*
Y26608D01*
X11943Y26665D02*
X12000Y26608D01*
X13011Y26385D02*
X13057Y26338D01*
X13110D01*
X12337Y26665D02*
X12377Y26625D01*
X13143Y26365D02*
Y26568D01*
X13300Y26725D01*
X13537Y26365D02*
Y26742D01*
X13580Y26785D01*
X11601Y25535D02*
Y25806D01*
Y25535D02*
X11602D01*
X11720Y25417D01*
X11050Y26551D02*
X11598Y26003D01*
X11601D02*
Y26006D01*
Y25806D02*
Y26003D01*
X11030Y26715D02*
X11050Y26695D01*
Y26551D02*
Y26695D01*
X11285Y27170D02*
X11320D01*
Y26925D02*
Y27170D01*
X17760Y26395D02*
X17978D01*
X17487Y26355D02*
Y26625D01*
X17684Y26319D02*
X17760Y26395D01*
X17978D02*
X17988Y26385D01*
X18121D01*
X17110Y26445D02*
Y26608D01*
X17053Y26665D02*
X17110Y26608D01*
X18121Y26385D02*
X18167Y26338D01*
X18220D01*
X17447Y26665D02*
X17487Y26625D01*
X18253Y26365D02*
Y26568D01*
X18410Y26725D01*
X18647Y26365D02*
Y26742D01*
X18690Y26785D01*
X16711Y25535D02*
Y25806D01*
Y25535D02*
X16712D01*
X16830Y25417D01*
X16160Y26551D02*
X16708Y26003D01*
X16711D02*
Y26006D01*
Y25806D02*
Y26003D01*
X16140Y26715D02*
X16160Y26695D01*
Y26551D02*
Y26695D01*
X16395Y27170D02*
X16430D01*
Y26925D02*
Y27170D01*
X7540Y30335D02*
X7758D01*
X7267Y30295D02*
Y30565D01*
X7464Y30259D02*
X7540Y30335D01*
X7758D02*
X7768Y30325D01*
X7901D01*
X6890Y30385D02*
Y30548D01*
X6833Y30605D02*
X6890Y30548D01*
X7901Y30325D02*
X7947Y30278D01*
X8000D01*
X7227Y30605D02*
X7267Y30565D01*
X8033Y30305D02*
Y30508D01*
X8190Y30665D01*
X8427Y30305D02*
Y30682D01*
X8470Y30725D01*
X6491Y29475D02*
Y29746D01*
Y29475D02*
X6492D01*
X6610Y29357D01*
X5940Y30491D02*
X6488Y29943D01*
X6491D02*
Y29946D01*
Y29746D02*
Y29943D01*
X5920Y30655D02*
X5940Y30635D01*
Y30491D02*
Y30635D01*
X6175Y31110D02*
X6210D01*
Y30865D02*
Y31110D01*
X12650Y30335D02*
X12868D01*
X12377Y30295D02*
Y30565D01*
X12574Y30259D02*
X12650Y30335D01*
X12868D02*
X12878Y30325D01*
X13011D01*
X12000Y30385D02*
Y30548D01*
X11943Y30605D02*
X12000Y30548D01*
X13011Y30325D02*
X13057Y30278D01*
X13110D01*
X12337Y30605D02*
X12377Y30565D01*
X13143Y30305D02*
Y30508D01*
X13300Y30665D01*
X13537Y30305D02*
Y30682D01*
X13580Y30725D01*
X11601Y29475D02*
Y29746D01*
Y29475D02*
X11602D01*
X11720Y29357D01*
X11050Y30491D02*
X11598Y29943D01*
X11601D02*
Y29946D01*
Y29746D02*
Y29943D01*
X11030Y30655D02*
X11050Y30635D01*
Y30491D02*
Y30635D01*
X11285Y31110D02*
X11320D01*
Y30865D02*
Y31110D01*
X17760Y30335D02*
X17978D01*
X17487Y30295D02*
Y30565D01*
X17684Y30259D02*
X17760Y30335D01*
X17978D02*
X17988Y30325D01*
X18121D01*
X17110Y30385D02*
Y30548D01*
X17053Y30605D02*
X17110Y30548D01*
X18121Y30325D02*
X18167Y30278D01*
X18220D01*
X17447Y30605D02*
X17487Y30565D01*
X18253Y30305D02*
Y30508D01*
X18410Y30665D01*
X18647Y30305D02*
Y30682D01*
X18690Y30725D01*
X16711Y29475D02*
Y29746D01*
Y29475D02*
X16712D01*
X16830Y29357D01*
X16160Y30491D02*
X16708Y29943D01*
X16711D02*
Y29946D01*
Y29746D02*
Y29943D01*
X16140Y30655D02*
X16160Y30635D01*
Y30491D02*
Y30635D01*
X16395Y31110D02*
X16430D01*
Y30865D02*
Y31110D01*
X7540Y34275D02*
X7758D01*
X7267Y34235D02*
Y34505D01*
X7464Y34199D02*
X7540Y34275D01*
X7758D02*
X7768Y34265D01*
X7901D01*
X6890Y34325D02*
Y34488D01*
X6833Y34545D02*
X6890Y34488D01*
X7901Y34265D02*
X7947Y34218D01*
X8000D01*
X7227Y34545D02*
X7267Y34505D01*
X8033Y34245D02*
Y34448D01*
X8190Y34605D01*
X8427Y34245D02*
Y34622D01*
X8470Y34665D01*
X6491Y33415D02*
Y33686D01*
Y33415D02*
X6492D01*
X6610Y33297D01*
X5940Y34431D02*
X6488Y33883D01*
X6491D02*
Y33886D01*
Y33686D02*
Y33883D01*
X5920Y34595D02*
X5940Y34575D01*
Y34431D02*
Y34575D01*
X6175Y35050D02*
X6210D01*
Y34805D02*
Y35050D01*
X12650Y34275D02*
X12868D01*
X12377Y34235D02*
Y34505D01*
X12574Y34199D02*
X12650Y34275D01*
X12868D02*
X12878Y34265D01*
X13011D01*
X12000Y34325D02*
Y34488D01*
X11943Y34545D02*
X12000Y34488D01*
X13011Y34265D02*
X13057Y34218D01*
X13110D01*
X12337Y34545D02*
X12377Y34505D01*
X13143Y34245D02*
Y34448D01*
X13300Y34605D01*
X13537Y34245D02*
Y34622D01*
X13580Y34665D01*
X11601Y33415D02*
Y33686D01*
Y33415D02*
X11602D01*
X11720Y33297D01*
X11050Y34431D02*
X11598Y33883D01*
X11601D02*
Y33886D01*
Y33686D02*
Y33883D01*
X11030Y34595D02*
X11050Y34575D01*
Y34431D02*
Y34575D01*
X11285Y35050D02*
X11320D01*
Y34805D02*
Y35050D01*
X17760Y34275D02*
X17978D01*
X17487Y34235D02*
Y34505D01*
X17684Y34199D02*
X17760Y34275D01*
X17978D02*
X17988Y34265D01*
X18121D01*
X17110Y34325D02*
Y34488D01*
X17053Y34545D02*
X17110Y34488D01*
X18121Y34265D02*
X18167Y34218D01*
X18220D01*
X17447Y34545D02*
X17487Y34505D01*
X18253Y34245D02*
Y34448D01*
X18410Y34605D01*
X18647Y34245D02*
Y34622D01*
X18690Y34665D01*
X16711Y33415D02*
Y33686D01*
Y33415D02*
X16712D01*
X16830Y33297D01*
X16160Y34431D02*
X16708Y33883D01*
X16711D02*
Y33886D01*
Y33686D02*
Y33883D01*
X16140Y34595D02*
X16160Y34575D01*
Y34431D02*
Y34575D01*
X16395Y35050D02*
X16430D01*
Y34805D02*
Y35050D01*
D21*
X17493Y17633D02*
X17498D01*
X16010Y17580D02*
X16100Y17490D01*
X16530D01*
X15951Y17101D02*
X16338D01*
X15960Y16904D02*
X16338D01*
X16070Y16712D02*
X16530D01*
X17116Y16734D02*
X17520Y16330D01*
X17116Y16734D02*
Y16904D01*
X15951Y17298D02*
X16338D01*
X15948D02*
X15951D01*
X16924Y17490D02*
Y17614D01*
X17332Y17101D02*
X17460Y16973D01*
X17006Y16904D02*
X17116D01*
Y17298D02*
X17460D01*
X17116Y17101D02*
X17332D01*
X16530Y16712D02*
X16727D01*
X7070Y25417D02*
X7267D01*
X7655Y25806D02*
X7872D01*
X7655Y26003D02*
X8000D01*
X7545Y25609D02*
X7655D01*
X7872Y25806D02*
X8000Y25678D01*
X7464Y26195D02*
Y26319D01*
X6488Y26003D02*
X6491D01*
X6878D01*
X7655Y25439D02*
Y25609D01*
Y25439D02*
X8060Y25035D01*
X6610Y25417D02*
X7070D01*
X6500Y25609D02*
X6878D01*
X6491Y25806D02*
X6878D01*
X6640Y26195D02*
X7070D01*
X6550Y26285D02*
X6640Y26195D01*
X8033Y26338D02*
X8038D01*
X12180Y25417D02*
X12377D01*
X12765Y25806D02*
X12982D01*
X12765Y26003D02*
X13110D01*
X12655Y25609D02*
X12765D01*
X12982Y25806D02*
X13110Y25678D01*
X12574Y26195D02*
Y26319D01*
X11598Y26003D02*
X11601D01*
X11988D01*
X12765Y25439D02*
Y25609D01*
Y25439D02*
X13170Y25035D01*
X11720Y25417D02*
X12180D01*
X11610Y25609D02*
X11988D01*
X11601Y25806D02*
X11988D01*
X11750Y26195D02*
X12180D01*
X11660Y26285D02*
X11750Y26195D01*
X13143Y26338D02*
X13148D01*
X17290Y25417D02*
X17487D01*
X17875Y25806D02*
X18092D01*
X17875Y26003D02*
X18220D01*
X17765Y25609D02*
X17875D01*
X18092Y25806D02*
X18220Y25678D01*
X17684Y26195D02*
Y26319D01*
X16708Y26003D02*
X16711D01*
X17098D01*
X17875Y25439D02*
Y25609D01*
Y25439D02*
X18280Y25035D01*
X16830Y25417D02*
X17290D01*
X16720Y25609D02*
X17098D01*
X16711Y25806D02*
X17098D01*
X16860Y26195D02*
X17290D01*
X16770Y26285D02*
X16860Y26195D01*
X18253Y26338D02*
X18258D01*
X7070Y29357D02*
X7267D01*
X7655Y29746D02*
X7872D01*
X7655Y29943D02*
X8000D01*
X7545Y29549D02*
X7655D01*
X7872Y29746D02*
X8000Y29618D01*
X7464Y30135D02*
Y30259D01*
X6488Y29943D02*
X6491D01*
X6878D01*
X7655Y29379D02*
Y29549D01*
Y29379D02*
X8060Y28975D01*
X6610Y29357D02*
X7070D01*
X6500Y29549D02*
X6878D01*
X6491Y29746D02*
X6878D01*
X6640Y30135D02*
X7070D01*
X6550Y30225D02*
X6640Y30135D01*
X8033Y30278D02*
X8038D01*
X12180Y29357D02*
X12377D01*
X12765Y29746D02*
X12982D01*
X12765Y29943D02*
X13110D01*
X12655Y29549D02*
X12765D01*
X12982Y29746D02*
X13110Y29618D01*
X12574Y30135D02*
Y30259D01*
X11598Y29943D02*
X11601D01*
X11988D01*
X12765Y29379D02*
Y29549D01*
Y29379D02*
X13170Y28975D01*
X11720Y29357D02*
X12180D01*
X11610Y29549D02*
X11988D01*
X11601Y29746D02*
X11988D01*
X11750Y30135D02*
X12180D01*
X11660Y30225D02*
X11750Y30135D01*
X13143Y30278D02*
X13148D01*
X17290Y29357D02*
X17487D01*
X17875Y29746D02*
X18092D01*
X17875Y29943D02*
X18220D01*
X17765Y29549D02*
X17875D01*
X18092Y29746D02*
X18220Y29618D01*
X17684Y30135D02*
Y30259D01*
X16708Y29943D02*
X16711D01*
X17098D01*
X17875Y29379D02*
Y29549D01*
Y29379D02*
X18280Y28975D01*
X16830Y29357D02*
X17290D01*
X16720Y29549D02*
X17098D01*
X16711Y29746D02*
X17098D01*
X16860Y30135D02*
X17290D01*
X16770Y30225D02*
X16860Y30135D01*
X18253Y30278D02*
X18258D01*
X7070Y33297D02*
X7267D01*
X7655Y33686D02*
X7872D01*
X7655Y33883D02*
X8000D01*
X7545Y33489D02*
X7655D01*
X7872Y33686D02*
X8000Y33558D01*
X7464Y34075D02*
Y34199D01*
X6488Y33883D02*
X6491D01*
X6878D01*
X7655Y33319D02*
Y33489D01*
Y33319D02*
X8060Y32915D01*
X6610Y33297D02*
X7070D01*
X6500Y33489D02*
X6878D01*
X6491Y33686D02*
X6878D01*
X6640Y34075D02*
X7070D01*
X6550Y34165D02*
X6640Y34075D01*
X8033Y34218D02*
X8038D01*
X12180Y33297D02*
X12377D01*
X12765Y33686D02*
X12982D01*
X12765Y33883D02*
X13110D01*
X12655Y33489D02*
X12765D01*
X12982Y33686D02*
X13110Y33558D01*
X12574Y34075D02*
Y34199D01*
X11598Y33883D02*
X11601D01*
X11988D01*
X12765Y33319D02*
Y33489D01*
Y33319D02*
X13170Y32915D01*
X11720Y33297D02*
X12180D01*
X11610Y33489D02*
X11988D01*
X11601Y33686D02*
X11988D01*
X11750Y34075D02*
X12180D01*
X11660Y34165D02*
X11750Y34075D01*
X13143Y34218D02*
X13148D01*
X17290Y33297D02*
X17487D01*
X17875Y33686D02*
X18092D01*
X17875Y33883D02*
X18220D01*
X17765Y33489D02*
X17875D01*
X18092Y33686D02*
X18220Y33558D01*
X17684Y34075D02*
Y34199D01*
X16708Y33883D02*
X16711D01*
X17098D01*
X17875Y33319D02*
Y33489D01*
Y33319D02*
X18280Y32915D01*
X16830Y33297D02*
X17290D01*
X16720Y33489D02*
X17098D01*
X16711Y33686D02*
X17098D01*
X16860Y34075D02*
X17290D01*
X16770Y34165D02*
X16860Y34075D01*
X18253Y34218D02*
X18258D01*
D23*
X16740Y17076D02*
Y17100D01*
Y17076D02*
X16866Y16950D01*
Y16860D02*
Y16950D01*
Y16860D02*
X16924Y16802D01*
Y16712D02*
Y16802D01*
X16727Y17490D02*
Y17650D01*
X7267Y26195D02*
Y26355D01*
X7464Y25417D02*
Y25507D01*
X7406Y25565D02*
X7464Y25507D01*
X7406Y25565D02*
Y25655D01*
X7280Y25781D02*
X7406Y25655D01*
X7280Y25781D02*
Y25805D01*
X12377Y26195D02*
Y26355D01*
X12574Y25417D02*
Y25507D01*
X12516Y25565D02*
X12574Y25507D01*
X12516Y25565D02*
Y25655D01*
X12390Y25781D02*
X12516Y25655D01*
X12390Y25781D02*
Y25805D01*
X17487Y26195D02*
Y26355D01*
X17684Y25417D02*
Y25507D01*
X17626Y25565D02*
X17684Y25507D01*
X17626Y25565D02*
Y25655D01*
X17500Y25781D02*
X17626Y25655D01*
X17500Y25781D02*
Y25805D01*
X7267Y30135D02*
Y30295D01*
X7464Y29357D02*
Y29447D01*
X7406Y29505D02*
X7464Y29447D01*
X7406Y29505D02*
Y29595D01*
X7280Y29721D02*
X7406Y29595D01*
X7280Y29721D02*
Y29745D01*
X12377Y30135D02*
Y30295D01*
X12574Y29357D02*
Y29447D01*
X12516Y29505D02*
X12574Y29447D01*
X12516Y29505D02*
Y29595D01*
X12390Y29721D02*
X12516Y29595D01*
X12390Y29721D02*
Y29745D01*
X17487Y30135D02*
Y30295D01*
X17684Y29357D02*
Y29447D01*
X17626Y29505D02*
X17684Y29447D01*
X17626Y29505D02*
Y29595D01*
X17500Y29721D02*
X17626Y29595D01*
X17500Y29721D02*
Y29745D01*
X7267Y34075D02*
Y34235D01*
X7464Y33297D02*
Y33387D01*
X7406Y33445D02*
X7464Y33387D01*
X7406Y33445D02*
Y33535D01*
X7280Y33661D02*
X7406Y33535D01*
X7280Y33661D02*
Y33685D01*
X12377Y34075D02*
Y34235D01*
X12574Y33297D02*
Y33387D01*
X12516Y33445D02*
X12574Y33387D01*
X12516Y33445D02*
Y33535D01*
X12390Y33661D02*
X12516Y33535D01*
X12390Y33661D02*
Y33685D01*
X17487Y34075D02*
Y34235D01*
X17684Y33297D02*
Y33387D01*
X17626Y33445D02*
X17684Y33387D01*
X17626Y33445D02*
Y33535D01*
X17500Y33661D02*
X17626Y33535D01*
X17500Y33661D02*
Y33685D01*
D24*
X15650Y19046D02*
X15960Y19240D01*
X16025D01*
X16405Y18637D02*
X16667Y18900D01*
X16398Y18637D02*
X16405D01*
X16010Y18250D02*
X16398Y18637D01*
X16010Y17580D02*
Y18250D01*
X6550Y26285D02*
Y26955D01*
X6937Y27343D01*
X6945D01*
X7207Y27605D01*
X6500Y27945D02*
X6565D01*
X6190Y27751D02*
X6500Y27945D01*
X11660Y26285D02*
Y26955D01*
X12047Y27343D01*
X12055D01*
X12317Y27605D01*
X11610Y27945D02*
X11675D01*
X11300Y27751D02*
X11610Y27945D01*
X16770Y26285D02*
Y26955D01*
X17157Y27343D01*
X17165D01*
X17427Y27605D01*
X16720Y27945D02*
X16785D01*
X16410Y27751D02*
X16720Y27945D01*
X6550Y30225D02*
Y30895D01*
X6937Y31283D01*
X6945D01*
X7207Y31545D01*
X6500Y31885D02*
X6565D01*
X6190Y31691D02*
X6500Y31885D01*
X11660Y30225D02*
Y30895D01*
X12047Y31283D01*
X12055D01*
X12317Y31545D01*
X11610Y31885D02*
X11675D01*
X11300Y31691D02*
X11610Y31885D01*
X16770Y30225D02*
Y30895D01*
X17157Y31283D01*
X17165D01*
X17427Y31545D01*
X16720Y31885D02*
X16785D01*
X16410Y31691D02*
X16720Y31885D01*
X6550Y34165D02*
Y34835D01*
X6937Y35223D01*
X6945D01*
X7207Y35485D01*
X6500Y35825D02*
X6565D01*
X6190Y35631D02*
X6500Y35825D01*
X11660Y34165D02*
Y34835D01*
X12047Y35223D01*
X12055D01*
X12317Y35485D01*
X11610Y35825D02*
X11675D01*
X11300Y35631D02*
X11610Y35825D01*
X16770Y34165D02*
Y34835D01*
X17157Y35223D01*
X17165D01*
X17427Y35485D01*
X16720Y35825D02*
X16785D01*
X16410Y35631D02*
X16720Y35825D01*
D26*
X16464Y16288D02*
D03*
X16174Y16286D02*
D03*
X15960Y19240D02*
D03*
X15380Y18010D02*
D03*
X17380Y18800D02*
D03*
X15440Y16680D02*
D03*
X17890Y16450D02*
D03*
X15670Y18220D02*
D03*
X18380Y18430D02*
D03*
X17650Y18020D02*
D03*
X16740Y17100D02*
D03*
X16350Y17740D02*
D03*
X17530Y16690D02*
D03*
X17520Y16330D02*
D03*
X15450Y16360D02*
D03*
X16750Y16290D02*
D03*
X17040Y16300D02*
D03*
X17930Y18080D02*
D03*
X8470Y26785D02*
D03*
X7580Y25005D02*
D03*
X7290Y24995D02*
D03*
X5990Y25065D02*
D03*
X8060Y25035D02*
D03*
X8070Y25395D02*
D03*
X6890Y26445D02*
D03*
X7280Y25805D02*
D03*
X8190Y26725D02*
D03*
X8920Y27135D02*
D03*
X6210Y26925D02*
D03*
X8430Y25155D02*
D03*
X5980Y25385D02*
D03*
X7920Y27505D02*
D03*
X5920Y26715D02*
D03*
X6500Y27945D02*
D03*
X6714Y24991D02*
D03*
X7003Y24994D02*
D03*
X13580Y26785D02*
D03*
X12690Y25005D02*
D03*
X12400Y24995D02*
D03*
X11100Y25065D02*
D03*
X13170Y25035D02*
D03*
X13180Y25395D02*
D03*
X12000Y26445D02*
D03*
X12390Y25805D02*
D03*
X13300Y26725D02*
D03*
X14030Y27135D02*
D03*
X11320Y26925D02*
D03*
X13540Y25155D02*
D03*
X11090Y25385D02*
D03*
X13030Y27505D02*
D03*
X11030Y26715D02*
D03*
X11610Y27945D02*
D03*
X11824Y24991D02*
D03*
X12113Y24994D02*
D03*
X18690Y26785D02*
D03*
X17800Y25005D02*
D03*
X17510Y24995D02*
D03*
X16210Y25065D02*
D03*
X18280Y25035D02*
D03*
X18290Y25395D02*
D03*
X17110Y26445D02*
D03*
X17500Y25805D02*
D03*
X18410Y26725D02*
D03*
X19140Y27135D02*
D03*
X16430Y26925D02*
D03*
X18650Y25155D02*
D03*
X16200Y25385D02*
D03*
X18140Y27505D02*
D03*
X16140Y26715D02*
D03*
X16720Y27945D02*
D03*
X16934Y24991D02*
D03*
X17223Y24994D02*
D03*
X8470Y30725D02*
D03*
X7580Y28945D02*
D03*
X7290Y28935D02*
D03*
X5990Y29005D02*
D03*
X8060Y28975D02*
D03*
X8070Y29335D02*
D03*
X6890Y30385D02*
D03*
X7280Y29745D02*
D03*
X8190Y30665D02*
D03*
X8920Y31075D02*
D03*
X6210Y30865D02*
D03*
X8430Y29095D02*
D03*
X5980Y29325D02*
D03*
X7920Y31445D02*
D03*
X5920Y30655D02*
D03*
X6500Y31885D02*
D03*
X6714Y28931D02*
D03*
X7003Y28934D02*
D03*
X13580Y30725D02*
D03*
X12690Y28945D02*
D03*
X12400Y28935D02*
D03*
X11100Y29005D02*
D03*
X13170Y28975D02*
D03*
X13180Y29335D02*
D03*
X12000Y30385D02*
D03*
X12390Y29745D02*
D03*
X13300Y30665D02*
D03*
X14030Y31075D02*
D03*
X11320Y30865D02*
D03*
X13540Y29095D02*
D03*
X11090Y29325D02*
D03*
X13030Y31445D02*
D03*
X11030Y30655D02*
D03*
X11610Y31885D02*
D03*
X11824Y28931D02*
D03*
X12113Y28934D02*
D03*
X18690Y30725D02*
D03*
X17800Y28945D02*
D03*
X17510Y28935D02*
D03*
X16210Y29005D02*
D03*
X18280Y28975D02*
D03*
X18290Y29335D02*
D03*
X17110Y30385D02*
D03*
X17500Y29745D02*
D03*
X18410Y30665D02*
D03*
X19140Y31075D02*
D03*
X16430Y30865D02*
D03*
X18650Y29095D02*
D03*
X16200Y29325D02*
D03*
X18140Y31445D02*
D03*
X16140Y30655D02*
D03*
X16720Y31885D02*
D03*
X16934Y28931D02*
D03*
X17223Y28934D02*
D03*
X8470Y34665D02*
D03*
X7580Y32885D02*
D03*
X7290Y32875D02*
D03*
X5990Y32945D02*
D03*
X8060Y32915D02*
D03*
X8070Y33275D02*
D03*
X6890Y34325D02*
D03*
X7280Y33685D02*
D03*
X8190Y34605D02*
D03*
X8920Y35015D02*
D03*
X6210Y34805D02*
D03*
X8430Y33035D02*
D03*
X5980Y33265D02*
D03*
X7920Y35385D02*
D03*
X5920Y34595D02*
D03*
X6500Y35825D02*
D03*
X6714Y32871D02*
D03*
X7003Y32874D02*
D03*
X13580Y34665D02*
D03*
X12690Y32885D02*
D03*
X12400Y32875D02*
D03*
X11100Y32945D02*
D03*
X13170Y32915D02*
D03*
X13180Y33275D02*
D03*
X12000Y34325D02*
D03*
X12390Y33685D02*
D03*
X13300Y34605D02*
D03*
X14030Y35015D02*
D03*
X11320Y34805D02*
D03*
X13540Y33035D02*
D03*
X11090Y33265D02*
D03*
X13030Y35385D02*
D03*
X11030Y34595D02*
D03*
X11610Y35825D02*
D03*
X11824Y32871D02*
D03*
X12113Y32874D02*
D03*
X18690Y34665D02*
D03*
X17800Y32885D02*
D03*
X17510Y32875D02*
D03*
X16210Y32945D02*
D03*
X18280Y32915D02*
D03*
X18290Y33275D02*
D03*
X17110Y34325D02*
D03*
X17500Y33685D02*
D03*
X18410Y34605D02*
D03*
X19140Y35015D02*
D03*
X16430Y34805D02*
D03*
X18650Y33035D02*
D03*
X16200Y33265D02*
D03*
X18140Y35385D02*
D03*
X16140Y34595D02*
D03*
X16720Y35825D02*
D03*
X16934Y32871D02*
D03*
X17223Y32874D02*
D03*
D28*
X16667Y18900D02*
D03*
X17852D02*
D03*
X8392Y27605D02*
D03*
X7207D02*
D03*
X13502D02*
D03*
X12317D02*
D03*
X18612D02*
D03*
X17427D02*
D03*
X8392Y31545D02*
D03*
X7207D02*
D03*
X13502D02*
D03*
X12317D02*
D03*
X18612D02*
D03*
X17427D02*
D03*
X8392Y35485D02*
D03*
X7207D02*
D03*
X13502D02*
D03*
X12317D02*
D03*
X18612D02*
D03*
X17427D02*
D03*
D29*
X17260Y18900D02*
D03*
X7800Y27605D02*
D03*
X12910D02*
D03*
X18020D02*
D03*
X7800Y31545D02*
D03*
X12910D02*
D03*
X18020D02*
D03*
X7800Y35485D02*
D03*
X12910D02*
D03*
X18020D02*
D03*
D30*
X15650Y18494D02*
D03*
Y19046D02*
D03*
X6190Y27751D02*
D03*
Y27199D02*
D03*
X11300Y27751D02*
D03*
Y27199D02*
D03*
X16410Y27751D02*
D03*
Y27199D02*
D03*
X6190Y31691D02*
D03*
Y31139D02*
D03*
X11300Y31691D02*
D03*
Y31139D02*
D03*
X16410Y31691D02*
D03*
Y31139D02*
D03*
X6190Y35631D02*
D03*
Y35079D02*
D03*
X11300Y35631D02*
D03*
Y35079D02*
D03*
X16410Y35631D02*
D03*
Y35079D02*
D03*
D31*
X16293Y17960D02*
D03*
X16687D02*
D03*
X17493Y17660D02*
D03*
X17887D02*
D03*
X8427Y26365D02*
D03*
X8033D02*
D03*
X7227Y26665D02*
D03*
X6833D02*
D03*
X13537Y26365D02*
D03*
X13143D02*
D03*
X12337Y26665D02*
D03*
X11943D02*
D03*
X18647Y26365D02*
D03*
X18253D02*
D03*
X17447Y26665D02*
D03*
X17053D02*
D03*
X8427Y30305D02*
D03*
X8033D02*
D03*
X7227Y30605D02*
D03*
X6833D02*
D03*
X13537Y30305D02*
D03*
X13143D02*
D03*
X12337Y30605D02*
D03*
X11943D02*
D03*
X18647Y30305D02*
D03*
X18253D02*
D03*
X17447Y30605D02*
D03*
X17053D02*
D03*
X8427Y34245D02*
D03*
X8033D02*
D03*
X7227Y34545D02*
D03*
X6833D02*
D03*
X13537Y34245D02*
D03*
X13143D02*
D03*
X12337Y34545D02*
D03*
X11943D02*
D03*
X18647Y34245D02*
D03*
X18253D02*
D03*
X17447Y34545D02*
D03*
X17053D02*
D03*
D32*
X16530Y17490D02*
D03*
X16924D02*
D03*
Y16712D02*
D03*
X16530D02*
D03*
X7070Y25417D02*
D03*
X7464D02*
D03*
Y26195D02*
D03*
X7070D02*
D03*
X12180Y25417D02*
D03*
X12574D02*
D03*
Y26195D02*
D03*
X12180D02*
D03*
X17290Y25417D02*
D03*
X17684D02*
D03*
Y26195D02*
D03*
X17290D02*
D03*
X7070Y29357D02*
D03*
X7464D02*
D03*
Y30135D02*
D03*
X7070D02*
D03*
X12180Y29357D02*
D03*
X12574D02*
D03*
Y30135D02*
D03*
X12180D02*
D03*
X17290Y29357D02*
D03*
X17684D02*
D03*
Y30135D02*
D03*
X17290D02*
D03*
X7070Y33297D02*
D03*
X7464D02*
D03*
Y34075D02*
D03*
X7070D02*
D03*
X12180Y33297D02*
D03*
X12574D02*
D03*
Y34075D02*
D03*
X12180D02*
D03*
X17290Y33297D02*
D03*
X17684D02*
D03*
Y34075D02*
D03*
X17290D02*
D03*
D33*
X16727Y17490D02*
D03*
Y16712D02*
D03*
X7267Y25417D02*
D03*
Y26195D02*
D03*
X12377Y25417D02*
D03*
Y26195D02*
D03*
X17487Y25417D02*
D03*
Y26195D02*
D03*
X7267Y29357D02*
D03*
Y30135D02*
D03*
X12377Y29357D02*
D03*
Y30135D02*
D03*
X17487Y29357D02*
D03*
Y30135D02*
D03*
X7267Y33297D02*
D03*
Y34075D02*
D03*
X12377Y33297D02*
D03*
Y34075D02*
D03*
X17487Y33297D02*
D03*
Y34075D02*
D03*
D34*
X17116Y17298D02*
D03*
Y16904D02*
D03*
X16338D02*
D03*
Y17298D02*
D03*
X6878Y26003D02*
D03*
Y25609D02*
D03*
X7655D02*
D03*
Y26003D02*
D03*
X11988D02*
D03*
Y25609D02*
D03*
X12765D02*
D03*
Y26003D02*
D03*
X17098D02*
D03*
Y25609D02*
D03*
X17875D02*
D03*
Y26003D02*
D03*
X6878Y29943D02*
D03*
Y29549D02*
D03*
X7655D02*
D03*
Y29943D02*
D03*
X11988D02*
D03*
Y29549D02*
D03*
X12765D02*
D03*
Y29943D02*
D03*
X17098D02*
D03*
Y29549D02*
D03*
X17875D02*
D03*
Y29943D02*
D03*
X6878Y33883D02*
D03*
Y33489D02*
D03*
X7655D02*
D03*
Y33883D02*
D03*
X11988D02*
D03*
Y33489D02*
D03*
X12765D02*
D03*
Y33883D02*
D03*
X17098D02*
D03*
Y33489D02*
D03*
X17875D02*
D03*
Y33883D02*
D03*
D35*
X17116Y17101D02*
D03*
X7655Y25806D02*
D03*
X12765D02*
D03*
X17875D02*
D03*
X7655Y29746D02*
D03*
X12765D02*
D03*
X17875D02*
D03*
X7655Y33686D02*
D03*
X12765D02*
D03*
X17875D02*
D03*
D36*
X16338Y17101D02*
D03*
X6878Y25806D02*
D03*
X11988D02*
D03*
X17098D02*
D03*
X6878Y29746D02*
D03*
X11988D02*
D03*
X17098D02*
D03*
X6878Y33686D02*
D03*
X11988D02*
D03*
X17098D02*
D03*
D37*
X17249Y17960D02*
X17852Y18564D01*
X16687Y17960D02*
X17249D01*
X17852Y18564D02*
Y18900D01*
X8392Y27269D02*
Y27605D01*
X7227Y26665D02*
X7789D01*
X8392Y27269D01*
X13502D02*
Y27605D01*
X12337Y26665D02*
X12899D01*
X13502Y27269D01*
X18612D02*
Y27605D01*
X17447Y26665D02*
X18009D01*
X18612Y27269D01*
X8392Y31209D02*
Y31545D01*
X7227Y30605D02*
X7789D01*
X8392Y31209D01*
X13502D02*
Y31545D01*
X12337Y30605D02*
X12899D01*
X13502Y31209D01*
X18612D02*
Y31545D01*
X17447Y30605D02*
X18009D01*
X18612Y31209D01*
X8392Y35149D02*
Y35485D01*
X7227Y34545D02*
X7789D01*
X8392Y35149D01*
X13502D02*
Y35485D01*
X12337Y34545D02*
X12899D01*
X13502Y35149D01*
X18612D02*
Y35485D01*
X17447Y34545D02*
X18009D01*
X18612Y35149D01*
M02*
