%FSLAX24Y24*%
%MOIN*%
G70*
G01*
G75*
G04 Layer_Color=8388736*
%ADD10R,0.0472X0.0394*%
%ADD11R,0.0472X0.0394*%
%ADD12R,0.0118X0.0118*%
%ADD13R,0.0118X0.0118*%
%ADD14R,0.0098X0.0217*%
%ADD15R,0.0945X0.0295*%
%ADD16R,0.1102X0.1102*%
%ADD17O,0.0295X0.0118*%
%ADD18O,0.0118X0.0295*%
%ADD19R,0.0197X0.0197*%
%ADD20C,0.0080*%
%ADD21C,0.0100*%
%ADD22C,0.0060*%
%ADD23C,0.0200*%
%ADD24C,0.0120*%
%ADD25C,0.0090*%
%ADD26C,0.0220*%
%ADD27C,0.0320*%
G04:AMPARAMS|DCode=28|XSize=7.9mil|YSize=23.6mil|CornerRadius=0mil|HoleSize=0mil|Usage=FLASHONLY|Rotation=270.000|XOffset=0mil|YOffset=0mil|HoleType=Round|Shape=Octagon|*
%AMOCTAGOND28*
4,1,8,0.0118,0.0020,0.0118,-0.0020,0.0098,-0.0039,-0.0098,-0.0039,-0.0118,-0.0020,-0.0118,0.0020,-0.0098,0.0039,0.0098,0.0039,0.0118,0.0020,0.0*
%
%ADD28OCTAGOND28*%

%ADD29O,0.0276X0.0079*%
G04:AMPARAMS|DCode=30|XSize=7.9mil|YSize=23.6mil|CornerRadius=0mil|HoleSize=0mil|Usage=FLASHONLY|Rotation=180.000|XOffset=0mil|YOffset=0mil|HoleType=Round|Shape=Octagon|*
%AMOCTAGOND30*
4,1,8,0.0020,-0.0118,-0.0020,-0.0118,-0.0039,-0.0098,-0.0039,0.0098,-0.0020,0.0118,0.0020,0.0118,0.0039,0.0098,0.0039,-0.0098,0.0020,-0.0118,0.0*
%
%ADD30OCTAGOND30*%

%ADD31O,0.0079X0.0276*%
G04:AMPARAMS|DCode=32|XSize=7.9mil|YSize=27.6mil|CornerRadius=2mil|HoleSize=0mil|Usage=FLASHONLY|Rotation=270.000|XOffset=0mil|YOffset=0mil|HoleType=Round|Shape=RoundedRectangle|*
%AMROUNDEDRECTD32*
21,1,0.0079,0.0236,0,0,270.0*
21,1,0.0039,0.0276,0,0,270.0*
1,1,0.0039,-0.0118,-0.0020*
1,1,0.0039,-0.0118,0.0020*
1,1,0.0039,0.0118,0.0020*
1,1,0.0039,0.0118,-0.0020*
%
%ADD32ROUNDEDRECTD32*%
%ADD33R,0.0197X0.0197*%
%ADD34R,0.0354X0.0315*%
%ADD35R,0.0390X0.1100*%
%ADD36R,0.0520X0.1100*%
%ADD37C,0.0140*%
D10*
X17099Y18740D02*
D03*
Y19252D02*
D03*
X16430D02*
D03*
X23343Y25989D02*
D03*
X24012D02*
D03*
Y25478D02*
D03*
X29343Y25989D02*
D03*
X30012D02*
D03*
Y25478D02*
D03*
X23343Y31989D02*
D03*
X24012D02*
D03*
Y31478D02*
D03*
X29343Y31989D02*
D03*
X30012D02*
D03*
Y31478D02*
D03*
X23343Y37989D02*
D03*
X24012D02*
D03*
Y37478D02*
D03*
X29343Y37989D02*
D03*
X30012D02*
D03*
Y37478D02*
D03*
D11*
X16430Y18740D02*
D03*
X23343Y25478D02*
D03*
X29343D02*
D03*
X23343Y31478D02*
D03*
X29343D02*
D03*
X23343Y37478D02*
D03*
X29343D02*
D03*
D12*
X15342Y17060D02*
D03*
X15578D02*
D03*
X17682Y18250D02*
D03*
X17918D02*
D03*
X15578Y17290D02*
D03*
X15342D02*
D03*
Y17510D02*
D03*
X15578D02*
D03*
Y17730D02*
D03*
X15342D02*
D03*
X18030Y17910D02*
D03*
X18266D02*
D03*
X25179Y24648D02*
D03*
X24943D02*
D03*
X22255Y24468D02*
D03*
X22491D02*
D03*
Y24248D02*
D03*
X22255D02*
D03*
Y24028D02*
D03*
X22491D02*
D03*
X24831Y24988D02*
D03*
X24595D02*
D03*
X22491Y23798D02*
D03*
X22255D02*
D03*
X31179Y24648D02*
D03*
X30943D02*
D03*
X28255Y24468D02*
D03*
X28491D02*
D03*
Y24248D02*
D03*
X28255D02*
D03*
Y24028D02*
D03*
X28491D02*
D03*
X30831Y24988D02*
D03*
X30595D02*
D03*
X28491Y23798D02*
D03*
X28255D02*
D03*
X25179Y30648D02*
D03*
X24943D02*
D03*
X22255Y30468D02*
D03*
X22491D02*
D03*
Y30248D02*
D03*
X22255D02*
D03*
Y30028D02*
D03*
X22491D02*
D03*
X24831Y30988D02*
D03*
X24595D02*
D03*
X22491Y29798D02*
D03*
X22255D02*
D03*
X31179Y30648D02*
D03*
X30943D02*
D03*
X28255Y30468D02*
D03*
X28491D02*
D03*
Y30248D02*
D03*
X28255D02*
D03*
Y30028D02*
D03*
X28491D02*
D03*
X30831Y30988D02*
D03*
X30595D02*
D03*
X28491Y29798D02*
D03*
X28255D02*
D03*
X25179Y36648D02*
D03*
X24943D02*
D03*
X22255Y36468D02*
D03*
X22491D02*
D03*
Y36248D02*
D03*
X22255D02*
D03*
Y36028D02*
D03*
X22491D02*
D03*
X24831Y36988D02*
D03*
X24595D02*
D03*
X22491Y35798D02*
D03*
X22255D02*
D03*
X31179Y36648D02*
D03*
X30943D02*
D03*
X28255Y36468D02*
D03*
X28491D02*
D03*
Y36248D02*
D03*
X28255D02*
D03*
Y36028D02*
D03*
X28491D02*
D03*
X30831Y36988D02*
D03*
X30595D02*
D03*
X28491Y35798D02*
D03*
X28255D02*
D03*
D13*
X15700Y16568D02*
D03*
Y16332D02*
D03*
X17990Y16958D02*
D03*
Y16722D02*
D03*
X17590Y18452D02*
D03*
Y18688D02*
D03*
X15980Y18782D02*
D03*
Y19018D02*
D03*
X17500Y18932D02*
D03*
Y19168D02*
D03*
X24413Y25906D02*
D03*
Y25669D02*
D03*
X22893Y25756D02*
D03*
Y25519D02*
D03*
X24503Y25426D02*
D03*
Y25189D02*
D03*
X24903Y23459D02*
D03*
Y23696D02*
D03*
X22613Y23069D02*
D03*
Y23306D02*
D03*
X30413Y25906D02*
D03*
Y25669D02*
D03*
X28893Y25756D02*
D03*
Y25519D02*
D03*
X30503Y25426D02*
D03*
Y25189D02*
D03*
X30903Y23459D02*
D03*
Y23696D02*
D03*
X28613Y23069D02*
D03*
Y23306D02*
D03*
X24413Y31906D02*
D03*
Y31669D02*
D03*
X22893Y31756D02*
D03*
Y31519D02*
D03*
X24503Y31426D02*
D03*
Y31189D02*
D03*
X24903Y29459D02*
D03*
Y29696D02*
D03*
X22613Y29069D02*
D03*
Y29306D02*
D03*
X30413Y31906D02*
D03*
Y31669D02*
D03*
X28893Y31756D02*
D03*
Y31519D02*
D03*
X30503Y31426D02*
D03*
Y31189D02*
D03*
X30903Y29459D02*
D03*
Y29696D02*
D03*
X28613Y29069D02*
D03*
Y29306D02*
D03*
X24413Y37906D02*
D03*
Y37669D02*
D03*
X22893Y37756D02*
D03*
Y37519D02*
D03*
X24503Y37426D02*
D03*
Y37189D02*
D03*
X24903Y35459D02*
D03*
Y35696D02*
D03*
X22613Y35069D02*
D03*
Y35306D02*
D03*
X30413Y37906D02*
D03*
Y37669D02*
D03*
X28893Y37756D02*
D03*
Y37519D02*
D03*
X30503Y37426D02*
D03*
Y37189D02*
D03*
X30903Y35459D02*
D03*
Y35696D02*
D03*
X28613Y35069D02*
D03*
Y35306D02*
D03*
D14*
X17993Y17580D02*
D03*
X18190D02*
D03*
Y17245D02*
D03*
X17993D02*
D03*
X17796Y17580D02*
D03*
Y17245D02*
D03*
X24709Y23983D02*
D03*
Y24318D02*
D03*
X24906Y23983D02*
D03*
X25103D02*
D03*
Y24318D02*
D03*
X24906D02*
D03*
X30709Y23983D02*
D03*
Y24318D02*
D03*
X30906Y23983D02*
D03*
X31103D02*
D03*
Y24318D02*
D03*
X30906D02*
D03*
X24709Y29983D02*
D03*
Y30318D02*
D03*
X24906Y29983D02*
D03*
X25103D02*
D03*
Y30318D02*
D03*
X24906D02*
D03*
X30709Y29983D02*
D03*
Y30318D02*
D03*
X30906Y29983D02*
D03*
X31103D02*
D03*
Y30318D02*
D03*
X30906D02*
D03*
X24709Y35983D02*
D03*
Y36318D02*
D03*
X24906Y35983D02*
D03*
X25103D02*
D03*
Y36318D02*
D03*
X24906D02*
D03*
X30709Y35983D02*
D03*
Y36318D02*
D03*
X30906Y35983D02*
D03*
X31103D02*
D03*
Y36318D02*
D03*
X30906D02*
D03*
D15*
X19430Y17930D02*
D03*
Y19288D02*
D03*
X26343Y26026D02*
D03*
Y24668D02*
D03*
X32343Y26026D02*
D03*
Y24668D02*
D03*
X26343Y32026D02*
D03*
Y30668D02*
D03*
X32343Y32026D02*
D03*
Y30668D02*
D03*
X26343Y38026D02*
D03*
Y36668D02*
D03*
X32343Y38026D02*
D03*
Y36668D02*
D03*
D16*
X16650Y17410D02*
D03*
X23563Y24148D02*
D03*
X29563D02*
D03*
X23563Y30148D02*
D03*
X29563D02*
D03*
X23563Y36148D02*
D03*
X29563D02*
D03*
D17*
X15863Y17705D02*
D03*
Y17508D02*
D03*
Y17312D02*
D03*
Y17115D02*
D03*
Y16918D02*
D03*
X17437Y17115D02*
D03*
Y17312D02*
D03*
Y17508D02*
D03*
Y17705D02*
D03*
Y17902D02*
D03*
X15863D02*
D03*
X17437Y16918D02*
D03*
X24350Y23655D02*
D03*
X22776Y24640D02*
D03*
X24350D02*
D03*
Y24443D02*
D03*
Y24246D02*
D03*
Y24049D02*
D03*
Y23852D02*
D03*
X22776Y23655D02*
D03*
Y23852D02*
D03*
Y24049D02*
D03*
Y24246D02*
D03*
Y24443D02*
D03*
X30350Y23655D02*
D03*
X28776Y24640D02*
D03*
X30350D02*
D03*
Y24443D02*
D03*
Y24246D02*
D03*
Y24049D02*
D03*
Y23852D02*
D03*
X28776Y23655D02*
D03*
Y23852D02*
D03*
Y24049D02*
D03*
Y24246D02*
D03*
Y24443D02*
D03*
X24350Y29655D02*
D03*
X22776Y30640D02*
D03*
X24350D02*
D03*
Y30443D02*
D03*
Y30246D02*
D03*
Y30049D02*
D03*
Y29852D02*
D03*
X22776Y29655D02*
D03*
Y29852D02*
D03*
Y30049D02*
D03*
Y30246D02*
D03*
Y30443D02*
D03*
X30350Y29655D02*
D03*
X28776Y30640D02*
D03*
X30350D02*
D03*
Y30443D02*
D03*
Y30246D02*
D03*
Y30049D02*
D03*
Y29852D02*
D03*
X28776Y29655D02*
D03*
Y29852D02*
D03*
Y30049D02*
D03*
Y30246D02*
D03*
Y30443D02*
D03*
X24350Y35655D02*
D03*
X22776Y36640D02*
D03*
X24350D02*
D03*
Y36443D02*
D03*
Y36246D02*
D03*
Y36049D02*
D03*
Y35852D02*
D03*
X22776Y35655D02*
D03*
Y35852D02*
D03*
Y36049D02*
D03*
Y36246D02*
D03*
Y36443D02*
D03*
X30350Y35655D02*
D03*
X28776Y36640D02*
D03*
X30350D02*
D03*
Y36443D02*
D03*
Y36246D02*
D03*
Y36049D02*
D03*
Y35852D02*
D03*
X28776Y35655D02*
D03*
Y35852D02*
D03*
Y36049D02*
D03*
Y36246D02*
D03*
Y36443D02*
D03*
D18*
X16158Y16623D02*
D03*
X17142Y18197D02*
D03*
X16945D02*
D03*
X16748D02*
D03*
X16552D02*
D03*
X16355D02*
D03*
Y16623D02*
D03*
X16552D02*
D03*
X16748D02*
D03*
X16945D02*
D03*
X17142D02*
D03*
X16158Y18197D02*
D03*
X23071Y24935D02*
D03*
X24055Y23360D02*
D03*
X23858D02*
D03*
X23661D02*
D03*
X23465D02*
D03*
X23268D02*
D03*
Y24935D02*
D03*
X23465D02*
D03*
X23661D02*
D03*
X23858D02*
D03*
X24055D02*
D03*
X23071Y23360D02*
D03*
X29071Y24935D02*
D03*
X30055Y23360D02*
D03*
X29858D02*
D03*
X29661D02*
D03*
X29465D02*
D03*
X29268D02*
D03*
Y24935D02*
D03*
X29465D02*
D03*
X29661D02*
D03*
X29858D02*
D03*
X30055D02*
D03*
X29071Y23360D02*
D03*
X23071Y30935D02*
D03*
X24055Y29360D02*
D03*
X23858D02*
D03*
X23661D02*
D03*
X23465D02*
D03*
X23268D02*
D03*
Y30935D02*
D03*
X23465D02*
D03*
X23661D02*
D03*
X23858D02*
D03*
X24055D02*
D03*
X23071Y29360D02*
D03*
X29071Y30935D02*
D03*
X30055Y29360D02*
D03*
X29858D02*
D03*
X29661D02*
D03*
X29465D02*
D03*
X29268D02*
D03*
Y30935D02*
D03*
X29465D02*
D03*
X29661D02*
D03*
X29858D02*
D03*
X30055D02*
D03*
X29071Y29360D02*
D03*
X23071Y36935D02*
D03*
X24055Y35360D02*
D03*
X23858D02*
D03*
X23661D02*
D03*
X23465D02*
D03*
X23268D02*
D03*
Y36935D02*
D03*
X23465D02*
D03*
X23661D02*
D03*
X23858D02*
D03*
X24055D02*
D03*
X23071Y35360D02*
D03*
X29071Y36935D02*
D03*
X30055Y35360D02*
D03*
X29858D02*
D03*
X29661D02*
D03*
X29465D02*
D03*
X29268D02*
D03*
Y36935D02*
D03*
X29465D02*
D03*
X29661D02*
D03*
X29858D02*
D03*
X30055D02*
D03*
X29071Y35360D02*
D03*
D19*
X18460Y17607D02*
D03*
Y17213D02*
D03*
X25373Y23951D02*
D03*
Y24344D02*
D03*
X31373Y23951D02*
D03*
Y24344D02*
D03*
X25373Y29951D02*
D03*
Y30344D02*
D03*
X31373Y29951D02*
D03*
Y30344D02*
D03*
X25373Y35951D02*
D03*
Y36344D02*
D03*
X31373Y35951D02*
D03*
Y36344D02*
D03*
D26*
X17930Y18080D02*
D03*
X17040Y16300D02*
D03*
X16750Y16290D02*
D03*
X15450Y16360D02*
D03*
X17520Y16330D02*
D03*
X17530Y16690D02*
D03*
X16350Y17740D02*
D03*
X16740Y17100D02*
D03*
X17650Y18020D02*
D03*
X18380Y18430D02*
D03*
X15670Y18220D02*
D03*
X17890Y16450D02*
D03*
X15440Y16680D02*
D03*
X17380Y18800D02*
D03*
X15380Y18010D02*
D03*
X15960Y19240D02*
D03*
X16174Y16286D02*
D03*
X16464Y16288D02*
D03*
X23377Y23026D02*
D03*
X23087Y23024D02*
D03*
X22873Y25978D02*
D03*
X22293Y24748D02*
D03*
X24293Y25538D02*
D03*
X22353Y23418D02*
D03*
X24803Y23188D02*
D03*
X22583Y24958D02*
D03*
X25293Y25168D02*
D03*
X24563Y24758D02*
D03*
X23653Y23838D02*
D03*
X23263Y24478D02*
D03*
X24443Y23428D02*
D03*
X24433Y23068D02*
D03*
X22363Y23098D02*
D03*
X23663Y23028D02*
D03*
X23953Y23038D02*
D03*
X24843Y24818D02*
D03*
X29377Y23026D02*
D03*
X29087Y23024D02*
D03*
X28873Y25978D02*
D03*
X28293Y24748D02*
D03*
X30293Y25538D02*
D03*
X28353Y23418D02*
D03*
X30803Y23188D02*
D03*
X28583Y24958D02*
D03*
X31293Y25168D02*
D03*
X30563Y24758D02*
D03*
X29653Y23838D02*
D03*
X29263Y24478D02*
D03*
X30443Y23428D02*
D03*
X30433Y23068D02*
D03*
X28363Y23098D02*
D03*
X29663Y23028D02*
D03*
X29953Y23038D02*
D03*
X30843Y24818D02*
D03*
X23377Y29026D02*
D03*
X23087Y29024D02*
D03*
X22873Y31978D02*
D03*
X22293Y30748D02*
D03*
X24293Y31538D02*
D03*
X22353Y29418D02*
D03*
X24803Y29188D02*
D03*
X22583Y30958D02*
D03*
X25293Y31168D02*
D03*
X24563Y30758D02*
D03*
X23653Y29838D02*
D03*
X23263Y30478D02*
D03*
X24443Y29428D02*
D03*
X24433Y29068D02*
D03*
X22363Y29098D02*
D03*
X23663Y29028D02*
D03*
X23953Y29038D02*
D03*
X24843Y30818D02*
D03*
X29377Y29026D02*
D03*
X29087Y29024D02*
D03*
X28873Y31978D02*
D03*
X28293Y30748D02*
D03*
X30293Y31538D02*
D03*
X28353Y29418D02*
D03*
X30803Y29188D02*
D03*
X28583Y30958D02*
D03*
X31293Y31168D02*
D03*
X30563Y30758D02*
D03*
X29653Y29838D02*
D03*
X29263Y30478D02*
D03*
X30443Y29428D02*
D03*
X30433Y29068D02*
D03*
X28363Y29098D02*
D03*
X29663Y29028D02*
D03*
X29953Y29038D02*
D03*
X30843Y30818D02*
D03*
X23377Y35026D02*
D03*
X23087Y35024D02*
D03*
X22873Y37978D02*
D03*
X22293Y36748D02*
D03*
X24293Y37538D02*
D03*
X22353Y35418D02*
D03*
X24803Y35188D02*
D03*
X22583Y36958D02*
D03*
X25293Y37168D02*
D03*
X24563Y36758D02*
D03*
X23653Y35838D02*
D03*
X23263Y36478D02*
D03*
X24443Y35428D02*
D03*
X24433Y35068D02*
D03*
X22363Y35098D02*
D03*
X23663Y35028D02*
D03*
X23953Y35038D02*
D03*
X24843Y36818D02*
D03*
X29377Y35026D02*
D03*
X29087Y35024D02*
D03*
X28873Y37978D02*
D03*
X28293Y36748D02*
D03*
X30293Y37538D02*
D03*
X28353Y35418D02*
D03*
X30803Y35188D02*
D03*
X28583Y36958D02*
D03*
X31293Y37168D02*
D03*
X30563Y36758D02*
D03*
X29653Y35838D02*
D03*
X29263Y36478D02*
D03*
X30443Y35428D02*
D03*
X30433Y35068D02*
D03*
X28363Y35098D02*
D03*
X29663Y35028D02*
D03*
X29953Y35038D02*
D03*
X30843Y36818D02*
D03*
M02*
