%FSLAX24Y24*%
%MOIN*%
G70*
G01*
G75*
G04 Layer_Physical_Order=2*
G04 Layer_Color=32768*
%ADD10R,0.0197X0.0197*%
%ADD11O,0.0295X0.0118*%
%ADD12O,0.0118X0.0295*%
%ADD13R,0.1102X0.1102*%
%ADD14R,0.0945X0.0295*%
%ADD15R,0.0098X0.0217*%
%ADD16R,0.0118X0.0118*%
%ADD17R,0.0118X0.0118*%
%ADD18R,0.0472X0.0394*%
%ADD19R,0.0472X0.0394*%
%ADD20C,0.0100*%
%ADD21C,0.0060*%
%ADD22C,0.0200*%
%ADD23C,0.0080*%
%ADD24C,0.0120*%
%ADD25C,0.0090*%
%ADD26C,0.0220*%
%ADD27C,0.0320*%
G36*
X20440Y19940D02*
X20450Y19950D01*
Y15870D01*
X18570D01*
Y18460D01*
X17850Y19180D01*
Y19452D01*
X15820Y19470D01*
X14950Y18060D01*
Y21150D01*
X20440D01*
Y19940D01*
D02*
G37*
G36*
X10638Y28233D02*
Y24793D01*
X9110Y24803D01*
Y27165D01*
X8390Y27885D01*
X8382Y28242D01*
X10638Y28233D01*
D02*
G37*
G36*
X15748D02*
Y24793D01*
X14220Y24803D01*
Y27165D01*
X13500Y27885D01*
X13492Y28242D01*
X15748Y28233D01*
D02*
G37*
G36*
X20858D02*
Y24793D01*
X19330Y24803D01*
Y27165D01*
X18610Y27885D01*
X18602Y28242D01*
X20858Y28233D01*
D02*
G37*
G36*
X10638Y32173D02*
Y28733D01*
X9110Y28743D01*
Y31105D01*
X8390Y31825D01*
X8382Y32182D01*
X10638Y32173D01*
D02*
G37*
G36*
X15748D02*
Y28733D01*
X14220Y28743D01*
Y31105D01*
X13500Y31825D01*
X13492Y32182D01*
X15748Y32173D01*
D02*
G37*
G36*
X20858D02*
Y28733D01*
X19330Y28743D01*
Y31105D01*
X18610Y31825D01*
X18602Y32182D01*
X20858Y32173D01*
D02*
G37*
G36*
X10638Y36113D02*
Y32673D01*
X9110Y32683D01*
Y35045D01*
X8390Y35765D01*
X8382Y36122D01*
X10638Y36113D01*
D02*
G37*
G36*
X15748D02*
Y32673D01*
X14220Y32683D01*
Y35045D01*
X13500Y35765D01*
X13492Y36122D01*
X15748Y36113D01*
D02*
G37*
G36*
X20858D02*
Y32673D01*
X19330Y32683D01*
Y35045D01*
X18610Y35765D01*
X18602Y36122D01*
X20858Y36113D01*
D02*
G37*
D22*
X21518Y40058D02*
X33692Y40207D01*
Y22225D02*
Y40207D01*
Y22225D02*
X34064D01*
X21518D02*
X34064D01*
X21518D02*
Y40058D01*
X5718Y24795D02*
X10334D01*
Y28236D01*
X5718D02*
X10334D01*
X5718Y24795D02*
Y28236D01*
X10828Y24795D02*
X15444D01*
Y28236D01*
X10828D02*
X15444D01*
X10828Y24795D02*
Y28236D01*
X15938Y24795D02*
X20554D01*
Y28236D01*
X15938D02*
X20554D01*
X15938Y24795D02*
Y28236D01*
X5718Y28735D02*
X10334D01*
Y32176D01*
X5718D02*
X10334D01*
X5718Y28735D02*
Y32176D01*
X10828Y28735D02*
X15444D01*
Y32176D01*
X10828D02*
X15444D01*
X10828Y28735D02*
Y32176D01*
X15938Y28735D02*
X20554D01*
Y32176D01*
X15938D02*
X20554D01*
X15938Y28735D02*
Y32176D01*
X5718Y32675D02*
X10334D01*
Y36116D01*
X5718D02*
X10334D01*
X5718Y32675D02*
Y36116D01*
X10828Y32675D02*
X15444D01*
Y36116D01*
X10828D02*
X15444D01*
X10828Y32675D02*
Y36116D01*
X15938Y32675D02*
X20554D01*
Y36116D01*
X15938D02*
X20554D01*
X15938Y32675D02*
Y36116D01*
D27*
X16464Y16288D02*
D03*
X16174Y16286D02*
D03*
X15960Y19240D02*
D03*
X15380Y18010D02*
D03*
X17380Y18800D02*
D03*
X15440Y16680D02*
D03*
X17890Y16450D02*
D03*
X15670Y18220D02*
D03*
X18380Y18430D02*
D03*
X17650Y18020D02*
D03*
X16740Y17100D02*
D03*
X16350Y17740D02*
D03*
X17530Y16690D02*
D03*
X17520Y16330D02*
D03*
X15450Y16360D02*
D03*
X16750Y16290D02*
D03*
X17040Y16300D02*
D03*
X17930Y18080D02*
D03*
X7580Y25005D02*
D03*
X7290Y24995D02*
D03*
X5990Y25065D02*
D03*
X8060Y25035D02*
D03*
X8070Y25395D02*
D03*
X8190Y26725D02*
D03*
X8920Y27135D02*
D03*
X6210Y26925D02*
D03*
X5980Y25385D02*
D03*
X6714Y24991D02*
D03*
X7003Y24994D02*
D03*
X12690Y25005D02*
D03*
X12400Y24995D02*
D03*
X11100Y25065D02*
D03*
X13170Y25035D02*
D03*
X13180Y25395D02*
D03*
X13300Y26725D02*
D03*
X14030Y27135D02*
D03*
X11320Y26925D02*
D03*
X11090Y25385D02*
D03*
X11824Y24991D02*
D03*
X12113Y24994D02*
D03*
X17800Y25005D02*
D03*
X17510Y24995D02*
D03*
X16210Y25065D02*
D03*
X18280Y25035D02*
D03*
X18290Y25395D02*
D03*
X18410Y26725D02*
D03*
X19140Y27135D02*
D03*
X16430Y26925D02*
D03*
X16200Y25385D02*
D03*
X16934Y24991D02*
D03*
X17223Y24994D02*
D03*
X7580Y28945D02*
D03*
X7290Y28935D02*
D03*
X5990Y29005D02*
D03*
X8060Y28975D02*
D03*
X8070Y29335D02*
D03*
X8190Y30665D02*
D03*
X8920Y31075D02*
D03*
X6210Y30865D02*
D03*
X5980Y29325D02*
D03*
X6714Y28931D02*
D03*
X7003Y28934D02*
D03*
X12690Y28945D02*
D03*
X12400Y28935D02*
D03*
X11100Y29005D02*
D03*
X13170Y28975D02*
D03*
X13180Y29335D02*
D03*
X13300Y30665D02*
D03*
X14030Y31075D02*
D03*
X11320Y30865D02*
D03*
X11090Y29325D02*
D03*
X11824Y28931D02*
D03*
X12113Y28934D02*
D03*
X17800Y28945D02*
D03*
X17510Y28935D02*
D03*
X16210Y29005D02*
D03*
X18280Y28975D02*
D03*
X18290Y29335D02*
D03*
X18410Y30665D02*
D03*
X19140Y31075D02*
D03*
X16430Y30865D02*
D03*
X16200Y29325D02*
D03*
X16934Y28931D02*
D03*
X17223Y28934D02*
D03*
X7580Y32885D02*
D03*
X7290Y32875D02*
D03*
X5990Y32945D02*
D03*
X8060Y32915D02*
D03*
X8070Y33275D02*
D03*
X8190Y34605D02*
D03*
X8920Y35015D02*
D03*
X6210Y34805D02*
D03*
X5980Y33265D02*
D03*
X6714Y32871D02*
D03*
X7003Y32874D02*
D03*
X12690Y32885D02*
D03*
X12400Y32875D02*
D03*
X11100Y32945D02*
D03*
X13170Y32915D02*
D03*
X13180Y33275D02*
D03*
X13300Y34605D02*
D03*
X14030Y35015D02*
D03*
X11320Y34805D02*
D03*
X11090Y33265D02*
D03*
X11824Y32871D02*
D03*
X12113Y32874D02*
D03*
X17800Y32885D02*
D03*
X17510Y32875D02*
D03*
X16210Y32945D02*
D03*
X18280Y32915D02*
D03*
X18290Y33275D02*
D03*
X18410Y34605D02*
D03*
X19140Y35015D02*
D03*
X16430Y34805D02*
D03*
X16200Y33265D02*
D03*
X16934Y32871D02*
D03*
X17223Y32874D02*
D03*
M02*
