%FSLAX24Y24*%
%MOIN*%
G70*
G01*
G75*
G04 Layer_Color=16711935*
%ADD10R,0.0472X0.0394*%
%ADD11R,0.0472X0.0394*%
%ADD12R,0.0118X0.0118*%
%ADD13R,0.0118X0.0118*%
%ADD14R,0.0098X0.0217*%
%ADD15R,0.0945X0.0295*%
%ADD16R,0.1102X0.1102*%
%ADD17O,0.0295X0.0118*%
%ADD18O,0.0118X0.0295*%
%ADD19R,0.0197X0.0197*%
%ADD20C,0.0080*%
%ADD21C,0.0100*%
%ADD22C,0.0060*%
%ADD23C,0.0200*%
%ADD24C,0.0120*%
%ADD25C,0.0090*%
%ADD26C,0.0220*%
%ADD27C,0.0320*%
G04:AMPARAMS|DCode=28|XSize=7.9mil|YSize=23.6mil|CornerRadius=0mil|HoleSize=0mil|Usage=FLASHONLY|Rotation=270.000|XOffset=0mil|YOffset=0mil|HoleType=Round|Shape=Octagon|*
%AMOCTAGOND28*
4,1,8,0.0118,0.0020,0.0118,-0.0020,0.0098,-0.0039,-0.0098,-0.0039,-0.0118,-0.0020,-0.0118,0.0020,-0.0098,0.0039,0.0098,0.0039,0.0118,0.0020,0.0*
%
%ADD28OCTAGOND28*%

%ADD29O,0.0276X0.0079*%
G04:AMPARAMS|DCode=30|XSize=7.9mil|YSize=23.6mil|CornerRadius=0mil|HoleSize=0mil|Usage=FLASHONLY|Rotation=180.000|XOffset=0mil|YOffset=0mil|HoleType=Round|Shape=Octagon|*
%AMOCTAGOND30*
4,1,8,0.0020,-0.0118,-0.0020,-0.0118,-0.0039,-0.0098,-0.0039,0.0098,-0.0020,0.0118,0.0020,0.0118,0.0039,0.0098,0.0039,-0.0098,0.0020,-0.0118,0.0*
%
%ADD30OCTAGOND30*%

%ADD31O,0.0079X0.0276*%
G04:AMPARAMS|DCode=32|XSize=7.9mil|YSize=27.6mil|CornerRadius=2mil|HoleSize=0mil|Usage=FLASHONLY|Rotation=270.000|XOffset=0mil|YOffset=0mil|HoleType=Round|Shape=RoundedRectangle|*
%AMROUNDEDRECTD32*
21,1,0.0079,0.0236,0,0,270.0*
21,1,0.0039,0.0276,0,0,270.0*
1,1,0.0039,-0.0118,-0.0020*
1,1,0.0039,-0.0118,0.0020*
1,1,0.0039,0.0118,0.0020*
1,1,0.0039,0.0118,-0.0020*
%
%ADD32ROUNDEDRECTD32*%
%ADD33R,0.0197X0.0197*%
%ADD34R,0.0354X0.0315*%
%ADD35R,0.0390X0.1100*%
%ADD36R,0.0520X0.1100*%
%ADD37C,0.0140*%
D19*
X17440Y17367D02*
D03*
Y16973D02*
D03*
X24353Y23711D02*
D03*
Y24104D02*
D03*
X30353Y23711D02*
D03*
Y24104D02*
D03*
X24353Y29711D02*
D03*
Y30104D02*
D03*
X30353Y29711D02*
D03*
Y30104D02*
D03*
X24353Y35711D02*
D03*
Y36104D02*
D03*
X30353Y35711D02*
D03*
Y36104D02*
D03*
D26*
X17930Y18080D02*
D03*
X17040Y16300D02*
D03*
X16750Y16290D02*
D03*
X15450Y16360D02*
D03*
X17520Y16330D02*
D03*
X17530Y16690D02*
D03*
X16350Y17740D02*
D03*
X16740Y17100D02*
D03*
X17650Y18020D02*
D03*
X18380Y18430D02*
D03*
X15670Y18220D02*
D03*
X17890Y16450D02*
D03*
X15440Y16680D02*
D03*
X17380Y18800D02*
D03*
X15380Y18010D02*
D03*
X15960Y19240D02*
D03*
X16174Y16286D02*
D03*
X16464Y16288D02*
D03*
X23377Y23026D02*
D03*
X23087Y23024D02*
D03*
X22873Y25978D02*
D03*
X22293Y24748D02*
D03*
X24293Y25538D02*
D03*
X22353Y23418D02*
D03*
X24803Y23188D02*
D03*
X22583Y24958D02*
D03*
X25293Y25168D02*
D03*
X24563Y24758D02*
D03*
X23653Y23838D02*
D03*
X23263Y24478D02*
D03*
X24443Y23428D02*
D03*
X24433Y23068D02*
D03*
X22363Y23098D02*
D03*
X23663Y23028D02*
D03*
X23953Y23038D02*
D03*
X24843Y24818D02*
D03*
X29377Y23026D02*
D03*
X29087Y23024D02*
D03*
X28873Y25978D02*
D03*
X28293Y24748D02*
D03*
X30293Y25538D02*
D03*
X28353Y23418D02*
D03*
X30803Y23188D02*
D03*
X28583Y24958D02*
D03*
X31293Y25168D02*
D03*
X30563Y24758D02*
D03*
X29653Y23838D02*
D03*
X29263Y24478D02*
D03*
X30443Y23428D02*
D03*
X30433Y23068D02*
D03*
X28363Y23098D02*
D03*
X29663Y23028D02*
D03*
X29953Y23038D02*
D03*
X30843Y24818D02*
D03*
X23377Y29026D02*
D03*
X23087Y29024D02*
D03*
X22873Y31978D02*
D03*
X22293Y30748D02*
D03*
X24293Y31538D02*
D03*
X22353Y29418D02*
D03*
X24803Y29188D02*
D03*
X22583Y30958D02*
D03*
X25293Y31168D02*
D03*
X24563Y30758D02*
D03*
X23653Y29838D02*
D03*
X23263Y30478D02*
D03*
X24443Y29428D02*
D03*
X24433Y29068D02*
D03*
X22363Y29098D02*
D03*
X23663Y29028D02*
D03*
X23953Y29038D02*
D03*
X24843Y30818D02*
D03*
X29377Y29026D02*
D03*
X29087Y29024D02*
D03*
X28873Y31978D02*
D03*
X28293Y30748D02*
D03*
X30293Y31538D02*
D03*
X28353Y29418D02*
D03*
X30803Y29188D02*
D03*
X28583Y30958D02*
D03*
X31293Y31168D02*
D03*
X30563Y30758D02*
D03*
X29653Y29838D02*
D03*
X29263Y30478D02*
D03*
X30443Y29428D02*
D03*
X30433Y29068D02*
D03*
X28363Y29098D02*
D03*
X29663Y29028D02*
D03*
X29953Y29038D02*
D03*
X30843Y30818D02*
D03*
X23377Y35026D02*
D03*
X23087Y35024D02*
D03*
X22873Y37978D02*
D03*
X22293Y36748D02*
D03*
X24293Y37538D02*
D03*
X22353Y35418D02*
D03*
X24803Y35188D02*
D03*
X22583Y36958D02*
D03*
X25293Y37168D02*
D03*
X24563Y36758D02*
D03*
X23653Y35838D02*
D03*
X23263Y36478D02*
D03*
X24443Y35428D02*
D03*
X24433Y35068D02*
D03*
X22363Y35098D02*
D03*
X23663Y35028D02*
D03*
X23953Y35038D02*
D03*
X24843Y36818D02*
D03*
X29377Y35026D02*
D03*
X29087Y35024D02*
D03*
X28873Y37978D02*
D03*
X28293Y36748D02*
D03*
X30293Y37538D02*
D03*
X28353Y35418D02*
D03*
X30803Y35188D02*
D03*
X28583Y36958D02*
D03*
X31293Y37168D02*
D03*
X30563Y36758D02*
D03*
X29653Y35838D02*
D03*
X29263Y36478D02*
D03*
X30443Y35428D02*
D03*
X30433Y35068D02*
D03*
X28363Y35098D02*
D03*
X29663Y35028D02*
D03*
X29953Y35038D02*
D03*
X30843Y36818D02*
D03*
D28*
X16338Y17298D02*
D03*
Y16904D02*
D03*
X17116D02*
D03*
Y17298D02*
D03*
X24029Y24036D02*
D03*
Y23642D02*
D03*
X23251D02*
D03*
Y24036D02*
D03*
X30029D02*
D03*
Y23642D02*
D03*
X29251D02*
D03*
Y24036D02*
D03*
X24029Y30036D02*
D03*
Y29642D02*
D03*
X23251D02*
D03*
Y30036D02*
D03*
X30029D02*
D03*
Y29642D02*
D03*
X29251D02*
D03*
Y30036D02*
D03*
X24029Y36036D02*
D03*
Y35642D02*
D03*
X23251D02*
D03*
Y36036D02*
D03*
X30029D02*
D03*
Y35642D02*
D03*
X29251D02*
D03*
Y36036D02*
D03*
D29*
X16338Y17101D02*
D03*
X23251Y23839D02*
D03*
X29251D02*
D03*
X23251Y29839D02*
D03*
X29251D02*
D03*
X23251Y35839D02*
D03*
X29251D02*
D03*
D30*
X16530Y16712D02*
D03*
X16924D02*
D03*
Y17490D02*
D03*
X16530D02*
D03*
X23443Y24228D02*
D03*
X23837D02*
D03*
Y23450D02*
D03*
X23443D02*
D03*
X29443Y24228D02*
D03*
X29837D02*
D03*
Y23450D02*
D03*
X29443D02*
D03*
X23443Y30228D02*
D03*
X23837D02*
D03*
Y29450D02*
D03*
X23443D02*
D03*
X29443Y30228D02*
D03*
X29837D02*
D03*
Y29450D02*
D03*
X29443D02*
D03*
X23443Y36228D02*
D03*
X23837D02*
D03*
Y35450D02*
D03*
X23443D02*
D03*
X29443Y36228D02*
D03*
X29837D02*
D03*
Y35450D02*
D03*
X29443D02*
D03*
D31*
X16727Y16712D02*
D03*
Y17490D02*
D03*
X23640Y24228D02*
D03*
Y23450D02*
D03*
X29640Y24228D02*
D03*
Y23450D02*
D03*
X23640Y30228D02*
D03*
Y29450D02*
D03*
X29640Y30228D02*
D03*
Y29450D02*
D03*
X23640Y36228D02*
D03*
Y35450D02*
D03*
X29640Y36228D02*
D03*
Y35450D02*
D03*
D32*
X17116Y17101D02*
D03*
X24029Y23839D02*
D03*
X30029D02*
D03*
X24029Y29839D02*
D03*
X30029D02*
D03*
X24029Y35839D02*
D03*
X30029D02*
D03*
D33*
X17887Y17660D02*
D03*
X17493D02*
D03*
X16687Y17960D02*
D03*
X16293D02*
D03*
X23206Y24698D02*
D03*
X23600D02*
D03*
X24406Y24398D02*
D03*
X24800D02*
D03*
X29206Y24698D02*
D03*
X29600D02*
D03*
X30406Y24398D02*
D03*
X30800D02*
D03*
X23206Y30698D02*
D03*
X23600D02*
D03*
X24406Y30398D02*
D03*
X24800D02*
D03*
X29206Y30698D02*
D03*
X29600D02*
D03*
X30406Y30398D02*
D03*
X30800D02*
D03*
X23206Y36698D02*
D03*
X23600D02*
D03*
X24406Y36398D02*
D03*
X24800D02*
D03*
X29206Y36698D02*
D03*
X29600D02*
D03*
X30406Y36398D02*
D03*
X30800D02*
D03*
D34*
X15650Y19046D02*
D03*
Y18494D02*
D03*
X22563Y25232D02*
D03*
Y25783D02*
D03*
X28563Y25232D02*
D03*
Y25783D02*
D03*
X22563Y31232D02*
D03*
Y31783D02*
D03*
X28563Y31232D02*
D03*
Y31783D02*
D03*
X22563Y37232D02*
D03*
Y37783D02*
D03*
X28563Y37232D02*
D03*
Y37783D02*
D03*
D35*
X17260Y18900D02*
D03*
X24173Y25638D02*
D03*
X30173D02*
D03*
X24173Y31638D02*
D03*
X30173D02*
D03*
X24173Y37638D02*
D03*
X30173D02*
D03*
D36*
X17852Y18900D02*
D03*
X16667D02*
D03*
X23581Y25638D02*
D03*
X24766D02*
D03*
X29581D02*
D03*
X30766D02*
D03*
X23581Y31638D02*
D03*
X24766D02*
D03*
X29581D02*
D03*
X30766D02*
D03*
X23581Y37638D02*
D03*
X24766D02*
D03*
X29581D02*
D03*
X30766D02*
D03*
M02*
