%FSLAX24Y24*%
%MOIN*%
G70*
G01*
G75*
G04 Layer_Physical_Order=1*
G04 Layer_Color=255*
%ADD10R,0.0197X0.0197*%
%ADD11O,0.0295X0.0118*%
%ADD12O,0.0118X0.0295*%
%ADD13R,0.1102X0.1102*%
%ADD14R,0.0945X0.0295*%
%ADD15R,0.0098X0.0217*%
%ADD16R,0.0118X0.0118*%
%ADD17R,0.0118X0.0118*%
%ADD18R,0.0472X0.0394*%
%ADD19R,0.0472X0.0394*%
%ADD20C,0.0100*%
%ADD21C,0.0060*%
%ADD22C,0.0200*%
%ADD23C,0.0080*%
%ADD24C,0.0120*%
%ADD25C,0.0090*%
%ADD26C,0.0220*%
D10*
X18460Y17213D02*
D03*
Y17607D02*
D03*
X9000Y26312D02*
D03*
Y25918D02*
D03*
X14110Y26312D02*
D03*
Y25918D02*
D03*
X19220Y26312D02*
D03*
Y25918D02*
D03*
X9000Y30252D02*
D03*
Y29858D02*
D03*
X14110Y30252D02*
D03*
Y29858D02*
D03*
X19220Y30252D02*
D03*
Y29858D02*
D03*
X9000Y34192D02*
D03*
Y33798D02*
D03*
X14110Y34192D02*
D03*
Y33798D02*
D03*
X19220Y34192D02*
D03*
Y33798D02*
D03*
D11*
X17437Y16918D02*
D03*
X15863Y17902D02*
D03*
X17437D02*
D03*
Y17705D02*
D03*
Y17508D02*
D03*
Y17312D02*
D03*
Y17115D02*
D03*
X15863Y16918D02*
D03*
Y17115D02*
D03*
Y17312D02*
D03*
Y17508D02*
D03*
Y17705D02*
D03*
X6402Y26410D02*
D03*
Y26213D02*
D03*
Y26017D02*
D03*
Y25820D02*
D03*
Y25623D02*
D03*
X7977Y25820D02*
D03*
Y26017D02*
D03*
Y26213D02*
D03*
Y26410D02*
D03*
Y26607D02*
D03*
X6402D02*
D03*
X7977Y25623D02*
D03*
X11512Y26410D02*
D03*
Y26213D02*
D03*
Y26017D02*
D03*
Y25820D02*
D03*
Y25623D02*
D03*
X13087Y25820D02*
D03*
Y26017D02*
D03*
Y26213D02*
D03*
Y26410D02*
D03*
Y26607D02*
D03*
X11512D02*
D03*
X13087Y25623D02*
D03*
X16622Y26410D02*
D03*
Y26213D02*
D03*
Y26017D02*
D03*
Y25820D02*
D03*
Y25623D02*
D03*
X18197Y25820D02*
D03*
Y26017D02*
D03*
Y26213D02*
D03*
Y26410D02*
D03*
Y26607D02*
D03*
X16622D02*
D03*
X18197Y25623D02*
D03*
X6402Y30350D02*
D03*
Y30153D02*
D03*
Y29957D02*
D03*
Y29760D02*
D03*
Y29563D02*
D03*
X7977Y29760D02*
D03*
Y29957D02*
D03*
Y30153D02*
D03*
Y30350D02*
D03*
Y30547D02*
D03*
X6402D02*
D03*
X7977Y29563D02*
D03*
X11512Y30350D02*
D03*
Y30153D02*
D03*
Y29957D02*
D03*
Y29760D02*
D03*
Y29563D02*
D03*
X13087Y29760D02*
D03*
Y29957D02*
D03*
Y30153D02*
D03*
Y30350D02*
D03*
Y30547D02*
D03*
X11512D02*
D03*
X13087Y29563D02*
D03*
X16622Y30350D02*
D03*
Y30153D02*
D03*
Y29957D02*
D03*
Y29760D02*
D03*
Y29563D02*
D03*
X18197Y29760D02*
D03*
Y29957D02*
D03*
Y30153D02*
D03*
Y30350D02*
D03*
Y30547D02*
D03*
X16622D02*
D03*
X18197Y29563D02*
D03*
X6402Y34290D02*
D03*
Y34093D02*
D03*
Y33897D02*
D03*
Y33700D02*
D03*
Y33503D02*
D03*
X7977Y33700D02*
D03*
Y33897D02*
D03*
Y34093D02*
D03*
Y34290D02*
D03*
Y34487D02*
D03*
X6402D02*
D03*
X7977Y33503D02*
D03*
X11512Y34290D02*
D03*
Y34093D02*
D03*
Y33897D02*
D03*
Y33700D02*
D03*
Y33503D02*
D03*
X13087Y33700D02*
D03*
Y33897D02*
D03*
Y34093D02*
D03*
Y34290D02*
D03*
Y34487D02*
D03*
X11512D02*
D03*
X13087Y33503D02*
D03*
X16622Y34290D02*
D03*
Y34093D02*
D03*
Y33897D02*
D03*
Y33700D02*
D03*
Y33503D02*
D03*
X18197Y33700D02*
D03*
Y33897D02*
D03*
Y34093D02*
D03*
Y34290D02*
D03*
Y34487D02*
D03*
X16622D02*
D03*
X18197Y33503D02*
D03*
D12*
X16158Y18197D02*
D03*
X17142Y16623D02*
D03*
X16945D02*
D03*
X16748D02*
D03*
X16552D02*
D03*
X16355D02*
D03*
Y18197D02*
D03*
X16552D02*
D03*
X16748D02*
D03*
X16945D02*
D03*
X17142D02*
D03*
X16158Y16623D02*
D03*
X6698Y25328D02*
D03*
X7682Y26902D02*
D03*
X7485D02*
D03*
X7288D02*
D03*
X7091D02*
D03*
X6895D02*
D03*
Y25328D02*
D03*
X7091D02*
D03*
X7288D02*
D03*
X7485D02*
D03*
X7682D02*
D03*
X6698Y26902D02*
D03*
X11808Y25328D02*
D03*
X12792Y26902D02*
D03*
X12595D02*
D03*
X12398D02*
D03*
X12201D02*
D03*
X12005D02*
D03*
Y25328D02*
D03*
X12201D02*
D03*
X12398D02*
D03*
X12595D02*
D03*
X12792D02*
D03*
X11808Y26902D02*
D03*
X16918Y25328D02*
D03*
X17902Y26902D02*
D03*
X17705D02*
D03*
X17508D02*
D03*
X17311D02*
D03*
X17115D02*
D03*
Y25328D02*
D03*
X17311D02*
D03*
X17508D02*
D03*
X17705D02*
D03*
X17902D02*
D03*
X16918Y26902D02*
D03*
X6698Y29268D02*
D03*
X7682Y30842D02*
D03*
X7485D02*
D03*
X7288D02*
D03*
X7091D02*
D03*
X6895D02*
D03*
Y29268D02*
D03*
X7091D02*
D03*
X7288D02*
D03*
X7485D02*
D03*
X7682D02*
D03*
X6698Y30842D02*
D03*
X11808Y29268D02*
D03*
X12792Y30842D02*
D03*
X12595D02*
D03*
X12398D02*
D03*
X12201D02*
D03*
X12005D02*
D03*
Y29268D02*
D03*
X12201D02*
D03*
X12398D02*
D03*
X12595D02*
D03*
X12792D02*
D03*
X11808Y30842D02*
D03*
X16918Y29268D02*
D03*
X17902Y30842D02*
D03*
X17705D02*
D03*
X17508D02*
D03*
X17311D02*
D03*
X17115D02*
D03*
Y29268D02*
D03*
X17311D02*
D03*
X17508D02*
D03*
X17705D02*
D03*
X17902D02*
D03*
X16918Y30842D02*
D03*
X6698Y33208D02*
D03*
X7682Y34782D02*
D03*
X7485D02*
D03*
X7288D02*
D03*
X7091D02*
D03*
X6895D02*
D03*
Y33208D02*
D03*
X7091D02*
D03*
X7288D02*
D03*
X7485D02*
D03*
X7682D02*
D03*
X6698Y34782D02*
D03*
X11808Y33208D02*
D03*
X12792Y34782D02*
D03*
X12595D02*
D03*
X12398D02*
D03*
X12201D02*
D03*
X12005D02*
D03*
Y33208D02*
D03*
X12201D02*
D03*
X12398D02*
D03*
X12595D02*
D03*
X12792D02*
D03*
X11808Y34782D02*
D03*
X16918Y33208D02*
D03*
X17902Y34782D02*
D03*
X17705D02*
D03*
X17508D02*
D03*
X17311D02*
D03*
X17115D02*
D03*
Y33208D02*
D03*
X17311D02*
D03*
X17508D02*
D03*
X17705D02*
D03*
X17902D02*
D03*
X16918Y34782D02*
D03*
D13*
X16650Y17410D02*
D03*
X7190Y26115D02*
D03*
X12300D02*
D03*
X17410D02*
D03*
X7190Y30055D02*
D03*
X12300D02*
D03*
X17410D02*
D03*
X7190Y33995D02*
D03*
X12300D02*
D03*
X17410D02*
D03*
D14*
X19430Y19288D02*
D03*
Y17930D02*
D03*
X9814Y26627D02*
D03*
Y27986D02*
D03*
X14924Y26627D02*
D03*
Y27986D02*
D03*
X20034Y26627D02*
D03*
Y27986D02*
D03*
X9814Y30567D02*
D03*
Y31926D02*
D03*
X14924Y30567D02*
D03*
Y31926D02*
D03*
X20034Y30567D02*
D03*
Y31926D02*
D03*
X9814Y34507D02*
D03*
Y35866D02*
D03*
X14924Y34507D02*
D03*
Y35866D02*
D03*
X20034Y34507D02*
D03*
Y35866D02*
D03*
D15*
X17796Y17245D02*
D03*
Y17580D02*
D03*
X17993Y17245D02*
D03*
X18190D02*
D03*
Y17580D02*
D03*
X17993D02*
D03*
X8533Y26285D02*
D03*
X8730D02*
D03*
Y25950D02*
D03*
X8533D02*
D03*
X8336Y26285D02*
D03*
Y25950D02*
D03*
X13643Y26285D02*
D03*
X13840D02*
D03*
Y25950D02*
D03*
X13643D02*
D03*
X13446Y26285D02*
D03*
Y25950D02*
D03*
X18753Y26285D02*
D03*
X18950D02*
D03*
Y25950D02*
D03*
X18753D02*
D03*
X18556Y26285D02*
D03*
Y25950D02*
D03*
X8533Y30225D02*
D03*
X8730D02*
D03*
Y29890D02*
D03*
X8533D02*
D03*
X8336Y30225D02*
D03*
Y29890D02*
D03*
X13643Y30225D02*
D03*
X13840D02*
D03*
Y29890D02*
D03*
X13643D02*
D03*
X13446Y30225D02*
D03*
Y29890D02*
D03*
X18753Y30225D02*
D03*
X18950D02*
D03*
Y29890D02*
D03*
X18753D02*
D03*
X18556Y30225D02*
D03*
Y29890D02*
D03*
X8533Y34165D02*
D03*
X8730D02*
D03*
Y33830D02*
D03*
X8533D02*
D03*
X8336Y34165D02*
D03*
Y33830D02*
D03*
X13643Y34165D02*
D03*
X13840D02*
D03*
Y33830D02*
D03*
X13643D02*
D03*
X13446Y34165D02*
D03*
Y33830D02*
D03*
X18753Y34165D02*
D03*
X18950D02*
D03*
Y33830D02*
D03*
X18753D02*
D03*
X18556Y34165D02*
D03*
Y33830D02*
D03*
D16*
X17500Y19168D02*
D03*
Y18932D02*
D03*
X15980Y19018D02*
D03*
Y18782D02*
D03*
X17590Y18688D02*
D03*
Y18452D02*
D03*
X17990Y16722D02*
D03*
Y16958D02*
D03*
X15700Y16332D02*
D03*
Y16568D02*
D03*
X6240Y25273D02*
D03*
Y25037D02*
D03*
X8530Y25663D02*
D03*
Y25427D02*
D03*
X8130Y27157D02*
D03*
Y27393D02*
D03*
X6520Y27487D02*
D03*
Y27723D02*
D03*
X8040Y27637D02*
D03*
Y27873D02*
D03*
X11350Y25273D02*
D03*
Y25037D02*
D03*
X13640Y25663D02*
D03*
Y25427D02*
D03*
X13240Y27157D02*
D03*
Y27393D02*
D03*
X11630Y27487D02*
D03*
Y27723D02*
D03*
X13150Y27637D02*
D03*
Y27873D02*
D03*
X16460Y25273D02*
D03*
Y25037D02*
D03*
X18750Y25663D02*
D03*
Y25427D02*
D03*
X18350Y27157D02*
D03*
Y27393D02*
D03*
X16740Y27487D02*
D03*
Y27723D02*
D03*
X18260Y27637D02*
D03*
Y27873D02*
D03*
X6240Y29213D02*
D03*
Y28977D02*
D03*
X8530Y29603D02*
D03*
Y29367D02*
D03*
X8130Y31097D02*
D03*
Y31333D02*
D03*
X6520Y31427D02*
D03*
Y31663D02*
D03*
X8040Y31577D02*
D03*
Y31813D02*
D03*
X11350Y29213D02*
D03*
Y28977D02*
D03*
X13640Y29603D02*
D03*
Y29367D02*
D03*
X13240Y31097D02*
D03*
Y31333D02*
D03*
X11630Y31427D02*
D03*
Y31663D02*
D03*
X13150Y31577D02*
D03*
Y31813D02*
D03*
X16460Y29213D02*
D03*
Y28977D02*
D03*
X18750Y29603D02*
D03*
Y29367D02*
D03*
X18350Y31097D02*
D03*
Y31333D02*
D03*
X16740Y31427D02*
D03*
Y31663D02*
D03*
X18260Y31577D02*
D03*
Y31813D02*
D03*
X6240Y33153D02*
D03*
Y32917D02*
D03*
X8530Y33543D02*
D03*
Y33307D02*
D03*
X8130Y35037D02*
D03*
Y35273D02*
D03*
X6520Y35367D02*
D03*
Y35603D02*
D03*
X8040Y35517D02*
D03*
Y35753D02*
D03*
X11350Y33153D02*
D03*
Y32917D02*
D03*
X13640Y33543D02*
D03*
Y33307D02*
D03*
X13240Y35037D02*
D03*
Y35273D02*
D03*
X11630Y35367D02*
D03*
Y35603D02*
D03*
X13150Y35517D02*
D03*
Y35753D02*
D03*
X16460Y33153D02*
D03*
Y32917D02*
D03*
X18750Y33543D02*
D03*
Y33307D02*
D03*
X18350Y35037D02*
D03*
Y35273D02*
D03*
X16740Y35367D02*
D03*
Y35603D02*
D03*
X18260Y35517D02*
D03*
Y35753D02*
D03*
D17*
X18266Y17910D02*
D03*
X18030D02*
D03*
X15342Y17730D02*
D03*
X15578D02*
D03*
Y17510D02*
D03*
X15342D02*
D03*
Y17290D02*
D03*
X15578D02*
D03*
X17918Y18250D02*
D03*
X17682D02*
D03*
X15578Y17060D02*
D03*
X15342D02*
D03*
X5882Y25765D02*
D03*
X6118D02*
D03*
X8222Y26955D02*
D03*
X8458D02*
D03*
X6118Y25995D02*
D03*
X5882D02*
D03*
Y26215D02*
D03*
X6118D02*
D03*
Y26435D02*
D03*
X5882D02*
D03*
X8570Y26615D02*
D03*
X8806D02*
D03*
X10992Y25765D02*
D03*
X11228D02*
D03*
X13332Y26955D02*
D03*
X13568D02*
D03*
X11228Y25995D02*
D03*
X10992D02*
D03*
Y26215D02*
D03*
X11228D02*
D03*
Y26435D02*
D03*
X10992D02*
D03*
X13680Y26615D02*
D03*
X13916D02*
D03*
X16102Y25765D02*
D03*
X16338D02*
D03*
X18442Y26955D02*
D03*
X18678D02*
D03*
X16338Y25995D02*
D03*
X16102D02*
D03*
Y26215D02*
D03*
X16338D02*
D03*
Y26435D02*
D03*
X16102D02*
D03*
X18790Y26615D02*
D03*
X19026D02*
D03*
X5882Y29705D02*
D03*
X6118D02*
D03*
X8222Y30895D02*
D03*
X8458D02*
D03*
X6118Y29935D02*
D03*
X5882D02*
D03*
Y30155D02*
D03*
X6118D02*
D03*
Y30375D02*
D03*
X5882D02*
D03*
X8570Y30555D02*
D03*
X8806D02*
D03*
X10992Y29705D02*
D03*
X11228D02*
D03*
X13332Y30895D02*
D03*
X13568D02*
D03*
X11228Y29935D02*
D03*
X10992D02*
D03*
Y30155D02*
D03*
X11228D02*
D03*
Y30375D02*
D03*
X10992D02*
D03*
X13680Y30555D02*
D03*
X13916D02*
D03*
X16102Y29705D02*
D03*
X16338D02*
D03*
X18442Y30895D02*
D03*
X18678D02*
D03*
X16338Y29935D02*
D03*
X16102D02*
D03*
Y30155D02*
D03*
X16338D02*
D03*
Y30375D02*
D03*
X16102D02*
D03*
X18790Y30555D02*
D03*
X19026D02*
D03*
X5882Y33645D02*
D03*
X6118D02*
D03*
X8222Y34835D02*
D03*
X8458D02*
D03*
X6118Y33875D02*
D03*
X5882D02*
D03*
Y34095D02*
D03*
X6118D02*
D03*
Y34315D02*
D03*
X5882D02*
D03*
X8570Y34495D02*
D03*
X8806D02*
D03*
X10992Y33645D02*
D03*
X11228D02*
D03*
X13332Y34835D02*
D03*
X13568D02*
D03*
X11228Y33875D02*
D03*
X10992D02*
D03*
Y34095D02*
D03*
X11228D02*
D03*
Y34315D02*
D03*
X10992D02*
D03*
X13680Y34495D02*
D03*
X13916D02*
D03*
X16102Y33645D02*
D03*
X16338D02*
D03*
X18442Y34835D02*
D03*
X18678D02*
D03*
X16338Y33875D02*
D03*
X16102D02*
D03*
Y34095D02*
D03*
X16338D02*
D03*
Y34315D02*
D03*
X16102D02*
D03*
X18790Y34495D02*
D03*
X19026D02*
D03*
D18*
X16430Y19252D02*
D03*
X17099D02*
D03*
Y18740D02*
D03*
X7639Y27445D02*
D03*
Y27957D02*
D03*
X6970D02*
D03*
X12749Y27445D02*
D03*
Y27957D02*
D03*
X12080D02*
D03*
X17859Y27445D02*
D03*
Y27957D02*
D03*
X17190D02*
D03*
X7639Y31385D02*
D03*
Y31897D02*
D03*
X6970D02*
D03*
X12749Y31385D02*
D03*
Y31897D02*
D03*
X12080D02*
D03*
X17859Y31385D02*
D03*
Y31897D02*
D03*
X17190D02*
D03*
X7639Y35325D02*
D03*
Y35837D02*
D03*
X6970D02*
D03*
X12749Y35325D02*
D03*
Y35837D02*
D03*
X12080D02*
D03*
X17859Y35325D02*
D03*
Y35837D02*
D03*
X17190D02*
D03*
D19*
X16430Y18740D02*
D03*
X6970Y27445D02*
D03*
X12080D02*
D03*
X17190D02*
D03*
X6970Y31385D02*
D03*
X12080D02*
D03*
X17190D02*
D03*
X6970Y35325D02*
D03*
X12080D02*
D03*
X17190D02*
D03*
D20*
X15603Y17705D02*
X15863D01*
X15578Y17730D02*
X15603Y17705D01*
X17930Y18080D02*
X18030Y17980D01*
Y17910D02*
Y17980D01*
X17993Y17873D02*
X18021Y17901D01*
X17993Y17580D02*
Y17873D01*
X18210Y17580D02*
X18353D01*
X15600Y18160D02*
X15660Y18220D01*
X15600Y17752D02*
Y18160D01*
X15578Y17730D02*
X15600Y17752D01*
X17435Y16330D02*
X17520D01*
X17142Y16623D02*
X17435Y16330D01*
X15863Y16763D02*
Y16918D01*
X15700Y16600D02*
X15863Y16763D01*
X15700Y16568D02*
Y16600D01*
X16089Y16623D02*
X16158D01*
X15798Y16332D02*
X16089Y16623D01*
X15700Y16332D02*
X15798D01*
X15698Y16330D02*
X15700Y16332D01*
X15570Y16330D02*
X15698D01*
X15540Y16360D02*
X15570Y16330D01*
X15450Y16360D02*
X15540D01*
X18353Y17580D02*
X18390Y17617D01*
X17890Y16450D02*
Y16692D01*
X17930Y18080D02*
Y18238D01*
X17918Y18250D02*
X17930Y18238D01*
X8458Y26955D02*
X8470Y26943D01*
Y26785D02*
Y26943D01*
X8430Y25155D02*
Y25397D01*
X8893Y26285D02*
X8930Y26322D01*
X5990Y25065D02*
X6080D01*
X6110Y25035D01*
X6238D01*
X6240Y25037D01*
X6338D01*
X6629Y25328D01*
X6698D01*
X6240Y25273D02*
Y25305D01*
X6402Y25468D01*
Y25623D01*
X7682Y25328D02*
X7975Y25035D01*
X8060D01*
X6118Y26435D02*
X6140Y26457D01*
Y26865D01*
X6200Y26925D01*
X8750Y26285D02*
X8893D01*
X8533D02*
Y26578D01*
X8561Y26606D01*
X8570Y26615D02*
Y26685D01*
X8470Y26785D02*
X8570Y26685D01*
X6118Y26435D02*
X6143Y26410D01*
X6402D01*
X13568Y26955D02*
X13580Y26943D01*
Y26785D02*
Y26943D01*
X13540Y25155D02*
Y25397D01*
X14003Y26285D02*
X14040Y26322D01*
X11100Y25065D02*
X11190D01*
X11220Y25035D01*
X11348D01*
X11350Y25037D01*
X11448D01*
X11739Y25328D01*
X11808D01*
X11350Y25273D02*
Y25305D01*
X11512Y25468D01*
Y25623D01*
X12792Y25328D02*
X13085Y25035D01*
X13170D01*
X11228Y26435D02*
X11250Y26457D01*
Y26865D01*
X11310Y26925D01*
X13860Y26285D02*
X14003D01*
X13643D02*
Y26578D01*
X13671Y26606D01*
X13680Y26615D02*
Y26685D01*
X13580Y26785D02*
X13680Y26685D01*
X11228Y26435D02*
X11253Y26410D01*
X11512D01*
X18678Y26955D02*
X18690Y26943D01*
Y26785D02*
Y26943D01*
X18650Y25155D02*
Y25397D01*
X19113Y26285D02*
X19150Y26322D01*
X16210Y25065D02*
X16300D01*
X16330Y25035D01*
X16458D01*
X16460Y25037D01*
X16558D01*
X16849Y25328D01*
X16918D01*
X16460Y25273D02*
Y25305D01*
X16622Y25468D01*
Y25623D01*
X17902Y25328D02*
X18195Y25035D01*
X18280D01*
X16338Y26435D02*
X16360Y26457D01*
Y26865D01*
X16420Y26925D01*
X18970Y26285D02*
X19113D01*
X18753D02*
Y26578D01*
X18781Y26606D01*
X18790Y26615D02*
Y26685D01*
X18690Y26785D02*
X18790Y26685D01*
X16338Y26435D02*
X16363Y26410D01*
X16622D01*
X8458Y30895D02*
X8470Y30883D01*
Y30725D02*
Y30883D01*
X8430Y29095D02*
Y29337D01*
X8893Y30225D02*
X8930Y30262D01*
X5990Y29005D02*
X6080D01*
X6110Y28975D01*
X6238D01*
X6240Y28977D01*
X6338D01*
X6629Y29268D01*
X6698D01*
X6240Y29213D02*
Y29245D01*
X6402Y29408D01*
Y29563D01*
X7682Y29268D02*
X7975Y28975D01*
X8060D01*
X6118Y30375D02*
X6140Y30397D01*
Y30805D01*
X6200Y30865D01*
X8750Y30225D02*
X8893D01*
X8533D02*
Y30518D01*
X8561Y30546D01*
X8570Y30555D02*
Y30625D01*
X8470Y30725D02*
X8570Y30625D01*
X6118Y30375D02*
X6143Y30350D01*
X6402D01*
X13568Y30895D02*
X13580Y30883D01*
Y30725D02*
Y30883D01*
X13540Y29095D02*
Y29337D01*
X14003Y30225D02*
X14040Y30262D01*
X11100Y29005D02*
X11190D01*
X11220Y28975D01*
X11348D01*
X11350Y28977D01*
X11448D01*
X11739Y29268D01*
X11808D01*
X11350Y29213D02*
Y29245D01*
X11512Y29408D01*
Y29563D01*
X12792Y29268D02*
X13085Y28975D01*
X13170D01*
X11228Y30375D02*
X11250Y30397D01*
Y30805D01*
X11310Y30865D01*
X13860Y30225D02*
X14003D01*
X13643D02*
Y30518D01*
X13671Y30546D01*
X13680Y30555D02*
Y30625D01*
X13580Y30725D02*
X13680Y30625D01*
X11228Y30375D02*
X11253Y30350D01*
X11512D01*
X18678Y30895D02*
X18690Y30883D01*
Y30725D02*
Y30883D01*
X18650Y29095D02*
Y29337D01*
X19113Y30225D02*
X19150Y30262D01*
X16210Y29005D02*
X16300D01*
X16330Y28975D01*
X16458D01*
X16460Y28977D01*
X16558D01*
X16849Y29268D01*
X16918D01*
X16460Y29213D02*
Y29245D01*
X16622Y29408D01*
Y29563D01*
X17902Y29268D02*
X18195Y28975D01*
X18280D01*
X16338Y30375D02*
X16360Y30397D01*
Y30805D01*
X16420Y30865D01*
X18970Y30225D02*
X19113D01*
X18753D02*
Y30518D01*
X18781Y30546D01*
X18790Y30555D02*
Y30625D01*
X18690Y30725D02*
X18790Y30625D01*
X16338Y30375D02*
X16363Y30350D01*
X16622D01*
X8458Y34835D02*
X8470Y34823D01*
Y34665D02*
Y34823D01*
X8430Y33035D02*
Y33277D01*
X8893Y34165D02*
X8930Y34202D01*
X5990Y32945D02*
X6080D01*
X6110Y32915D01*
X6238D01*
X6240Y32917D01*
X6338D01*
X6629Y33208D01*
X6698D01*
X6240Y33153D02*
Y33185D01*
X6402Y33348D01*
Y33503D01*
X7682Y33208D02*
X7975Y32915D01*
X8060D01*
X6118Y34315D02*
X6140Y34337D01*
Y34745D01*
X6200Y34805D01*
X8750Y34165D02*
X8893D01*
X8533D02*
Y34458D01*
X8561Y34486D01*
X8570Y34495D02*
Y34565D01*
X8470Y34665D02*
X8570Y34565D01*
X6118Y34315D02*
X6143Y34290D01*
X6402D01*
X13568Y34835D02*
X13580Y34823D01*
Y34665D02*
Y34823D01*
X13540Y33035D02*
Y33277D01*
X14003Y34165D02*
X14040Y34202D01*
X11100Y32945D02*
X11190D01*
X11220Y32915D01*
X11348D01*
X11350Y32917D01*
X11448D01*
X11739Y33208D01*
X11808D01*
X11350Y33153D02*
Y33185D01*
X11512Y33348D01*
Y33503D01*
X12792Y33208D02*
X13085Y32915D01*
X13170D01*
X11228Y34315D02*
X11250Y34337D01*
Y34745D01*
X11310Y34805D01*
X13860Y34165D02*
X14003D01*
X13643D02*
Y34458D01*
X13671Y34486D01*
X13680Y34495D02*
Y34565D01*
X13580Y34665D02*
X13680Y34565D01*
X11228Y34315D02*
X11253Y34290D01*
X11512D01*
X18678Y34835D02*
X18690Y34823D01*
Y34665D02*
Y34823D01*
X18650Y33035D02*
Y33277D01*
X19113Y34165D02*
X19150Y34202D01*
X16210Y32945D02*
X16300D01*
X16330Y32915D01*
X16458D01*
X16460Y32917D01*
X16558D01*
X16849Y33208D01*
X16918D01*
X16460Y33153D02*
Y33185D01*
X16622Y33348D01*
Y33503D01*
X17902Y33208D02*
X18195Y32915D01*
X18280D01*
X16338Y34315D02*
X16360Y34337D01*
Y34745D01*
X16420Y34805D01*
X18970Y34165D02*
X19113D01*
X18753D02*
Y34458D01*
X18781Y34486D01*
X18790Y34495D02*
Y34565D01*
X18690Y34665D02*
X18790Y34565D01*
X16338Y34315D02*
X16363Y34290D01*
X16622D01*
D21*
X16552Y16415D02*
Y16623D01*
X16464Y16327D02*
X16552Y16415D01*
X16464Y16288D02*
Y16327D01*
X16355Y16467D02*
Y16623D01*
X16174Y16286D02*
X16355Y16467D01*
X17308Y18740D02*
X17500Y18932D01*
X15980Y19100D02*
X16132Y19252D01*
X17903Y17901D02*
X18021D01*
X18030Y17910D01*
X17478Y18800D02*
X17590Y18688D01*
X17380Y18800D02*
X17478D01*
X15500Y16740D02*
Y16982D01*
X15440Y16680D02*
X15500Y16740D01*
X17460Y18197D02*
X17513Y18250D01*
X17682D01*
X17590Y18452D02*
X18358D01*
X18380Y18430D01*
X17537Y18445D02*
X17542Y18440D01*
X16879Y18445D02*
X17537D01*
X17530Y16690D02*
Y16825D01*
X17437Y16918D02*
X17530Y16825D01*
X17142Y18197D02*
X17460D01*
X15980Y19018D02*
Y19100D01*
X16388Y18782D02*
X16430Y18740D01*
X15980Y18782D02*
X16388D01*
X15500Y16982D02*
X15578Y17060D01*
X15580Y17508D02*
X15863D01*
X15578Y17510D02*
X15580Y17508D01*
X15600Y17312D02*
X15863D01*
X15578Y17290D02*
X15600Y17312D01*
X15633Y17115D02*
X15863D01*
X15578Y17060D02*
X15633Y17115D01*
X16748Y18314D02*
X16879Y18445D01*
X16748Y18197D02*
Y18314D01*
X16552Y18197D02*
Y18300D01*
X16687Y18435D01*
X16695D01*
X16773Y18974D02*
X17051Y19252D01*
X16695Y18435D02*
X16773Y18513D01*
Y18974D01*
X17051Y19252D02*
X17099D01*
X16355Y18665D02*
X16430Y18740D01*
X16355Y18197D02*
Y18665D01*
X16132Y19252D02*
X16430D01*
X17099D02*
X17416D01*
X17500Y19168D01*
X17099Y18740D02*
X17308D01*
X17613Y17778D02*
X17780D01*
X17903Y17901D01*
X17437Y17705D02*
X17540D01*
X17613Y17778D01*
X8080Y26410D02*
X8153Y26483D01*
X7977Y26410D02*
X8080D01*
X8320Y26483D02*
X8443Y26606D01*
X8153Y26483D02*
X8320D01*
X7639Y27445D02*
X7848D01*
X7956Y27957D02*
X8040Y27873D01*
X7639Y27957D02*
X7956D01*
X6672D02*
X6970D01*
X6895Y26902D02*
Y27370D01*
X6970Y27445D01*
X7591Y27957D02*
X7639D01*
X7313Y27218D02*
Y27679D01*
X7235Y27140D02*
X7313Y27218D01*
Y27679D02*
X7591Y27957D01*
X7227Y27140D02*
X7235D01*
X7091Y27005D02*
X7227Y27140D01*
X7091Y26902D02*
Y27005D01*
X7288Y26902D02*
Y27019D01*
X7419Y27150D01*
X6118Y25765D02*
X6173Y25820D01*
X6402D01*
X6118Y25995D02*
X6140Y26017D01*
X6402D01*
X6118Y26215D02*
X6120Y26213D01*
X6402D01*
X6040Y25687D02*
X6118Y25765D01*
X6520Y27487D02*
X6928D01*
X6970Y27445D01*
X6520Y27723D02*
Y27805D01*
X7682Y26902D02*
X8000D01*
X7977Y25623D02*
X8070Y25530D01*
Y25395D02*
Y25530D01*
X7419Y27150D02*
X8077D01*
X8082Y27145D01*
X8898Y27157D02*
X8920Y27135D01*
X8130Y27157D02*
X8898D01*
X8052Y26955D02*
X8222D01*
X8000Y26902D02*
X8052Y26955D01*
X5980Y25385D02*
X6040Y25445D01*
Y25687D01*
X7920Y27505D02*
X8018D01*
X8130Y27393D01*
X8561Y26606D02*
X8570Y26615D01*
X8443Y26606D02*
X8561D01*
X6520Y27805D02*
X6672Y27957D01*
X7848Y27445D02*
X8040Y27637D01*
X6714Y24991D02*
X6895Y25172D01*
Y25328D01*
X7003Y24994D02*
Y25032D01*
X7091Y25120D01*
Y25328D01*
X13190Y26410D02*
X13263Y26483D01*
X13087Y26410D02*
X13190D01*
X13430Y26483D02*
X13553Y26606D01*
X13263Y26483D02*
X13430D01*
X12749Y27445D02*
X12958D01*
X13066Y27957D02*
X13150Y27873D01*
X12749Y27957D02*
X13066D01*
X11782D02*
X12080D01*
X12005Y26902D02*
Y27370D01*
X12080Y27445D01*
X12701Y27957D02*
X12749D01*
X12423Y27218D02*
Y27679D01*
X12345Y27140D02*
X12423Y27218D01*
Y27679D02*
X12701Y27957D01*
X12337Y27140D02*
X12345D01*
X12201Y27005D02*
X12337Y27140D01*
X12201Y26902D02*
Y27005D01*
X12398Y26902D02*
Y27019D01*
X12529Y27150D01*
X11228Y25765D02*
X11283Y25820D01*
X11512D01*
X11228Y25995D02*
X11250Y26017D01*
X11512D01*
X11228Y26215D02*
X11230Y26213D01*
X11512D01*
X11150Y25687D02*
X11228Y25765D01*
X11630Y27487D02*
X12038D01*
X12080Y27445D01*
X11630Y27723D02*
Y27805D01*
X12792Y26902D02*
X13110D01*
X13087Y25623D02*
X13180Y25530D01*
Y25395D02*
Y25530D01*
X12529Y27150D02*
X13187D01*
X13192Y27145D01*
X14008Y27157D02*
X14030Y27135D01*
X13240Y27157D02*
X14008D01*
X13162Y26955D02*
X13332D01*
X13110Y26902D02*
X13162Y26955D01*
X11090Y25385D02*
X11150Y25445D01*
Y25687D01*
X13030Y27505D02*
X13128D01*
X13240Y27393D01*
X13671Y26606D02*
X13680Y26615D01*
X13553Y26606D02*
X13671D01*
X11630Y27805D02*
X11782Y27957D01*
X12958Y27445D02*
X13150Y27637D01*
X11824Y24991D02*
X12005Y25172D01*
Y25328D01*
X12113Y24994D02*
Y25032D01*
X12201Y25120D01*
Y25328D01*
X18300Y26410D02*
X18373Y26483D01*
X18197Y26410D02*
X18300D01*
X18540Y26483D02*
X18663Y26606D01*
X18373Y26483D02*
X18540D01*
X17859Y27445D02*
X18068D01*
X18176Y27957D02*
X18260Y27873D01*
X17859Y27957D02*
X18176D01*
X16892D02*
X17190D01*
X17115Y26902D02*
Y27370D01*
X17190Y27445D01*
X17811Y27957D02*
X17859D01*
X17533Y27218D02*
Y27679D01*
X17455Y27140D02*
X17533Y27218D01*
Y27679D02*
X17811Y27957D01*
X17447Y27140D02*
X17455D01*
X17311Y27005D02*
X17447Y27140D01*
X17311Y26902D02*
Y27005D01*
X17508Y26902D02*
Y27019D01*
X17639Y27150D01*
X16338Y25765D02*
X16393Y25820D01*
X16622D01*
X16338Y25995D02*
X16360Y26017D01*
X16622D01*
X16338Y26215D02*
X16340Y26213D01*
X16622D01*
X16260Y25687D02*
X16338Y25765D01*
X16740Y27487D02*
X17148D01*
X17190Y27445D01*
X16740Y27723D02*
Y27805D01*
X17902Y26902D02*
X18220D01*
X18197Y25623D02*
X18290Y25530D01*
Y25395D02*
Y25530D01*
X17639Y27150D02*
X18297D01*
X18302Y27145D01*
X19118Y27157D02*
X19140Y27135D01*
X18350Y27157D02*
X19118D01*
X18272Y26955D02*
X18442D01*
X18220Y26902D02*
X18272Y26955D01*
X16200Y25385D02*
X16260Y25445D01*
Y25687D01*
X18140Y27505D02*
X18238D01*
X18350Y27393D01*
X18781Y26606D02*
X18790Y26615D01*
X18663Y26606D02*
X18781D01*
X16740Y27805D02*
X16892Y27957D01*
X18068Y27445D02*
X18260Y27637D01*
X16934Y24991D02*
X17115Y25172D01*
Y25328D01*
X17223Y24994D02*
Y25032D01*
X17311Y25120D01*
Y25328D01*
X8080Y30350D02*
X8153Y30423D01*
X7977Y30350D02*
X8080D01*
X8320Y30423D02*
X8443Y30546D01*
X8153Y30423D02*
X8320D01*
X7639Y31385D02*
X7848D01*
X7956Y31897D02*
X8040Y31813D01*
X7639Y31897D02*
X7956D01*
X6672D02*
X6970D01*
X6895Y30842D02*
Y31310D01*
X6970Y31385D01*
X7591Y31897D02*
X7639D01*
X7313Y31158D02*
Y31619D01*
X7235Y31080D02*
X7313Y31158D01*
Y31619D02*
X7591Y31897D01*
X7227Y31080D02*
X7235D01*
X7091Y30945D02*
X7227Y31080D01*
X7091Y30842D02*
Y30945D01*
X7288Y30842D02*
Y30959D01*
X7419Y31090D01*
X6118Y29705D02*
X6173Y29760D01*
X6402D01*
X6118Y29935D02*
X6140Y29957D01*
X6402D01*
X6118Y30155D02*
X6120Y30153D01*
X6402D01*
X6040Y29627D02*
X6118Y29705D01*
X6520Y31427D02*
X6928D01*
X6970Y31385D01*
X6520Y31663D02*
Y31745D01*
X7682Y30842D02*
X8000D01*
X7977Y29563D02*
X8070Y29470D01*
Y29335D02*
Y29470D01*
X7419Y31090D02*
X8077D01*
X8082Y31085D01*
X8898Y31097D02*
X8920Y31075D01*
X8130Y31097D02*
X8898D01*
X8052Y30895D02*
X8222D01*
X8000Y30842D02*
X8052Y30895D01*
X5980Y29325D02*
X6040Y29385D01*
Y29627D01*
X7920Y31445D02*
X8018D01*
X8130Y31333D01*
X8561Y30546D02*
X8570Y30555D01*
X8443Y30546D02*
X8561D01*
X6520Y31745D02*
X6672Y31897D01*
X7848Y31385D02*
X8040Y31577D01*
X6714Y28931D02*
X6895Y29112D01*
Y29268D01*
X7003Y28934D02*
Y28972D01*
X7091Y29060D01*
Y29268D01*
X13190Y30350D02*
X13263Y30423D01*
X13087Y30350D02*
X13190D01*
X13430Y30423D02*
X13553Y30546D01*
X13263Y30423D02*
X13430D01*
X12749Y31385D02*
X12958D01*
X13066Y31897D02*
X13150Y31813D01*
X12749Y31897D02*
X13066D01*
X11782D02*
X12080D01*
X12005Y30842D02*
Y31310D01*
X12080Y31385D01*
X12701Y31897D02*
X12749D01*
X12423Y31158D02*
Y31619D01*
X12345Y31080D02*
X12423Y31158D01*
Y31619D02*
X12701Y31897D01*
X12337Y31080D02*
X12345D01*
X12201Y30945D02*
X12337Y31080D01*
X12201Y30842D02*
Y30945D01*
X12398Y30842D02*
Y30959D01*
X12529Y31090D01*
X11228Y29705D02*
X11283Y29760D01*
X11512D01*
X11228Y29935D02*
X11250Y29957D01*
X11512D01*
X11228Y30155D02*
X11230Y30153D01*
X11512D01*
X11150Y29627D02*
X11228Y29705D01*
X11630Y31427D02*
X12038D01*
X12080Y31385D01*
X11630Y31663D02*
Y31745D01*
X12792Y30842D02*
X13110D01*
X13087Y29563D02*
X13180Y29470D01*
Y29335D02*
Y29470D01*
X12529Y31090D02*
X13187D01*
X13192Y31085D01*
X14008Y31097D02*
X14030Y31075D01*
X13240Y31097D02*
X14008D01*
X13162Y30895D02*
X13332D01*
X13110Y30842D02*
X13162Y30895D01*
X11090Y29325D02*
X11150Y29385D01*
Y29627D01*
X13030Y31445D02*
X13128D01*
X13240Y31333D01*
X13671Y30546D02*
X13680Y30555D01*
X13553Y30546D02*
X13671D01*
X11630Y31745D02*
X11782Y31897D01*
X12958Y31385D02*
X13150Y31577D01*
X11824Y28931D02*
X12005Y29112D01*
Y29268D01*
X12113Y28934D02*
Y28972D01*
X12201Y29060D01*
Y29268D01*
X18300Y30350D02*
X18373Y30423D01*
X18197Y30350D02*
X18300D01*
X18540Y30423D02*
X18663Y30546D01*
X18373Y30423D02*
X18540D01*
X17859Y31385D02*
X18068D01*
X18176Y31897D02*
X18260Y31813D01*
X17859Y31897D02*
X18176D01*
X16892D02*
X17190D01*
X17115Y30842D02*
Y31310D01*
X17190Y31385D01*
X17811Y31897D02*
X17859D01*
X17533Y31158D02*
Y31619D01*
X17455Y31080D02*
X17533Y31158D01*
Y31619D02*
X17811Y31897D01*
X17447Y31080D02*
X17455D01*
X17311Y30945D02*
X17447Y31080D01*
X17311Y30842D02*
Y30945D01*
X17508Y30842D02*
Y30959D01*
X17639Y31090D01*
X16338Y29705D02*
X16393Y29760D01*
X16622D01*
X16338Y29935D02*
X16360Y29957D01*
X16622D01*
X16338Y30155D02*
X16340Y30153D01*
X16622D01*
X16260Y29627D02*
X16338Y29705D01*
X16740Y31427D02*
X17148D01*
X17190Y31385D01*
X16740Y31663D02*
Y31745D01*
X17902Y30842D02*
X18220D01*
X18197Y29563D02*
X18290Y29470D01*
Y29335D02*
Y29470D01*
X17639Y31090D02*
X18297D01*
X18302Y31085D01*
X19118Y31097D02*
X19140Y31075D01*
X18350Y31097D02*
X19118D01*
X18272Y30895D02*
X18442D01*
X18220Y30842D02*
X18272Y30895D01*
X16200Y29325D02*
X16260Y29385D01*
Y29627D01*
X18140Y31445D02*
X18238D01*
X18350Y31333D01*
X18781Y30546D02*
X18790Y30555D01*
X18663Y30546D02*
X18781D01*
X16740Y31745D02*
X16892Y31897D01*
X18068Y31385D02*
X18260Y31577D01*
X16934Y28931D02*
X17115Y29112D01*
Y29268D01*
X17223Y28934D02*
Y28972D01*
X17311Y29060D01*
Y29268D01*
X8080Y34290D02*
X8153Y34363D01*
X7977Y34290D02*
X8080D01*
X8320Y34363D02*
X8443Y34486D01*
X8153Y34363D02*
X8320D01*
X7639Y35325D02*
X7848D01*
X7956Y35837D02*
X8040Y35753D01*
X7639Y35837D02*
X7956D01*
X6672D02*
X6970D01*
X6895Y34782D02*
Y35250D01*
X6970Y35325D01*
X7591Y35837D02*
X7639D01*
X7313Y35098D02*
Y35559D01*
X7235Y35020D02*
X7313Y35098D01*
Y35559D02*
X7591Y35837D01*
X7227Y35020D02*
X7235D01*
X7091Y34885D02*
X7227Y35020D01*
X7091Y34782D02*
Y34885D01*
X7288Y34782D02*
Y34899D01*
X7419Y35030D01*
X6118Y33645D02*
X6173Y33700D01*
X6402D01*
X6118Y33875D02*
X6140Y33897D01*
X6402D01*
X6118Y34095D02*
X6120Y34093D01*
X6402D01*
X6040Y33567D02*
X6118Y33645D01*
X6520Y35367D02*
X6928D01*
X6970Y35325D01*
X6520Y35603D02*
Y35685D01*
X7682Y34782D02*
X8000D01*
X7977Y33503D02*
X8070Y33410D01*
Y33275D02*
Y33410D01*
X7419Y35030D02*
X8077D01*
X8082Y35025D01*
X8898Y35037D02*
X8920Y35015D01*
X8130Y35037D02*
X8898D01*
X8052Y34835D02*
X8222D01*
X8000Y34782D02*
X8052Y34835D01*
X5980Y33265D02*
X6040Y33325D01*
Y33567D01*
X7920Y35385D02*
X8018D01*
X8130Y35273D01*
X8561Y34486D02*
X8570Y34495D01*
X8443Y34486D02*
X8561D01*
X6520Y35685D02*
X6672Y35837D01*
X7848Y35325D02*
X8040Y35517D01*
X6714Y32871D02*
X6895Y33052D01*
Y33208D01*
X7003Y32874D02*
Y32912D01*
X7091Y33000D01*
Y33208D01*
X13190Y34290D02*
X13263Y34363D01*
X13087Y34290D02*
X13190D01*
X13430Y34363D02*
X13553Y34486D01*
X13263Y34363D02*
X13430D01*
X12749Y35325D02*
X12958D01*
X13066Y35837D02*
X13150Y35753D01*
X12749Y35837D02*
X13066D01*
X11782D02*
X12080D01*
X12005Y34782D02*
Y35250D01*
X12080Y35325D01*
X12701Y35837D02*
X12749D01*
X12423Y35098D02*
Y35559D01*
X12345Y35020D02*
X12423Y35098D01*
Y35559D02*
X12701Y35837D01*
X12337Y35020D02*
X12345D01*
X12201Y34885D02*
X12337Y35020D01*
X12201Y34782D02*
Y34885D01*
X12398Y34782D02*
Y34899D01*
X12529Y35030D01*
X11228Y33645D02*
X11283Y33700D01*
X11512D01*
X11228Y33875D02*
X11250Y33897D01*
X11512D01*
X11228Y34095D02*
X11230Y34093D01*
X11512D01*
X11150Y33567D02*
X11228Y33645D01*
X11630Y35367D02*
X12038D01*
X12080Y35325D01*
X11630Y35603D02*
Y35685D01*
X12792Y34782D02*
X13110D01*
X13087Y33503D02*
X13180Y33410D01*
Y33275D02*
Y33410D01*
X12529Y35030D02*
X13187D01*
X13192Y35025D01*
X14008Y35037D02*
X14030Y35015D01*
X13240Y35037D02*
X14008D01*
X13162Y34835D02*
X13332D01*
X13110Y34782D02*
X13162Y34835D01*
X11090Y33265D02*
X11150Y33325D01*
Y33567D01*
X13030Y35385D02*
X13128D01*
X13240Y35273D01*
X13671Y34486D02*
X13680Y34495D01*
X13553Y34486D02*
X13671D01*
X11630Y35685D02*
X11782Y35837D01*
X12958Y35325D02*
X13150Y35517D01*
X11824Y32871D02*
X12005Y33052D01*
Y33208D01*
X12113Y32874D02*
Y32912D01*
X12201Y33000D01*
Y33208D01*
X18300Y34290D02*
X18373Y34363D01*
X18197Y34290D02*
X18300D01*
X18540Y34363D02*
X18663Y34486D01*
X18373Y34363D02*
X18540D01*
X17859Y35325D02*
X18068D01*
X18176Y35837D02*
X18260Y35753D01*
X17859Y35837D02*
X18176D01*
X16892D02*
X17190D01*
X17115Y34782D02*
Y35250D01*
X17190Y35325D01*
X17811Y35837D02*
X17859D01*
X17533Y35098D02*
Y35559D01*
X17455Y35020D02*
X17533Y35098D01*
Y35559D02*
X17811Y35837D01*
X17447Y35020D02*
X17455D01*
X17311Y34885D02*
X17447Y35020D01*
X17311Y34782D02*
Y34885D01*
X17508Y34782D02*
Y34899D01*
X17639Y35030D01*
X16338Y33645D02*
X16393Y33700D01*
X16622D01*
X16338Y33875D02*
X16360Y33897D01*
X16622D01*
X16338Y34095D02*
X16340Y34093D01*
X16622D01*
X16260Y33567D02*
X16338Y33645D01*
X16740Y35367D02*
X17148D01*
X17190Y35325D01*
X16740Y35603D02*
Y35685D01*
X17902Y34782D02*
X18220D01*
X18197Y33503D02*
X18290Y33410D01*
Y33275D02*
Y33410D01*
X17639Y35030D02*
X18297D01*
X18302Y35025D01*
X19118Y35037D02*
X19140Y35015D01*
X18350Y35037D02*
X19118D01*
X18272Y34835D02*
X18442D01*
X18220Y34782D02*
X18272Y34835D01*
X16200Y33265D02*
X16260Y33325D01*
Y33567D01*
X18140Y35385D02*
X18238D01*
X18350Y35273D01*
X18781Y34486D02*
X18790Y34495D01*
X18663Y34486D02*
X18781D01*
X16740Y35685D02*
X16892Y35837D01*
X18068Y35325D02*
X18260Y35517D01*
X16934Y32871D02*
X17115Y33052D01*
Y33208D01*
X17223Y32874D02*
Y32912D01*
X17311Y33000D01*
Y33208D01*
D22*
X19063Y17213D02*
X19160Y17310D01*
X18460Y17213D02*
X19063D01*
X19160Y17310D02*
X19410Y17560D01*
Y17910D01*
X19430Y17930D01*
X9814Y26480D02*
X9970Y26635D01*
X9814Y26130D02*
Y26480D01*
X9603Y25918D02*
X9814Y26130D01*
X9000Y25918D02*
X9603D01*
X14924Y26480D02*
X15080Y26635D01*
X14924Y26130D02*
Y26480D01*
X14713Y25918D02*
X14924Y26130D01*
X14110Y25918D02*
X14713D01*
X20034Y26480D02*
X20190Y26635D01*
X20034Y26130D02*
Y26480D01*
X19823Y25918D02*
X20034Y26130D01*
X19220Y25918D02*
X19823D01*
X9814Y30420D02*
X9970Y30575D01*
X9814Y30070D02*
Y30420D01*
X9603Y29858D02*
X9814Y30070D01*
X9000Y29858D02*
X9603D01*
X14924Y30420D02*
X15080Y30575D01*
X14924Y30070D02*
Y30420D01*
X14713Y29858D02*
X14924Y30070D01*
X14110Y29858D02*
X14713D01*
X20034Y30420D02*
X20190Y30575D01*
X20034Y30070D02*
Y30420D01*
X19823Y29858D02*
X20034Y30070D01*
X19220Y29858D02*
X19823D01*
X9814Y34360D02*
X9970Y34515D01*
X9814Y34010D02*
Y34360D01*
X9603Y33798D02*
X9814Y34010D01*
X9000Y33798D02*
X9603D01*
X14924Y34360D02*
X15080Y34515D01*
X14924Y34010D02*
Y34360D01*
X14713Y33798D02*
X14924Y34010D01*
X14110Y33798D02*
X14713D01*
X20034Y34360D02*
X20190Y34515D01*
X20034Y34010D02*
Y34360D01*
X19823Y33798D02*
X20034Y34010D01*
X19220Y33798D02*
X19823D01*
D23*
X17730Y17312D02*
X17796Y17245D01*
X17437Y17312D02*
X17730D01*
X17725Y17508D02*
X17796Y17580D01*
X17437Y17508D02*
X17725D01*
X18210Y17580D02*
Y17766D01*
X18266Y17822D02*
Y17910D01*
X18210Y17766D02*
X18266Y17822D01*
X17732Y16968D02*
X17990D01*
X17585Y17115D02*
X17732Y16968D01*
X17437Y17115D02*
X17585D01*
X15380Y17940D02*
Y18010D01*
Y17940D02*
X15400Y17920D01*
X15660Y18220D02*
X15670D01*
X16945Y16395D02*
X17040Y16300D01*
X16945Y16395D02*
Y16623D01*
X16748Y16292D02*
X16750Y16290D01*
X16748Y16292D02*
Y16623D01*
X15863Y16918D02*
X16158D01*
X16945Y17705D02*
X17437D01*
X16945D02*
Y18197D01*
X15342Y17510D02*
Y17730D01*
Y17290D02*
Y17510D01*
Y17060D02*
Y17290D01*
Y17730D02*
Y17862D01*
X15400Y17920D01*
X16158Y16918D02*
X16650Y17410D01*
X16945Y17705D01*
X17437Y17902D02*
X17532D01*
X17650Y18020D01*
X8072Y26607D02*
X8190Y26725D01*
X7977Y26607D02*
X8072D01*
X7190Y26115D02*
X7485Y26410D01*
X6698Y25623D02*
X7190Y26115D01*
X5882Y26567D02*
X5940Y26625D01*
X5882Y26435D02*
Y26567D01*
Y25765D02*
Y25995D01*
Y26215D01*
Y26435D01*
X7485Y26410D02*
Y26902D01*
Y26410D02*
X7977D01*
X6402Y25623D02*
X6698D01*
X7288Y24997D02*
Y25328D01*
Y24997D02*
X7290Y24995D01*
X7485Y25100D02*
Y25328D01*
Y25100D02*
X7580Y25005D01*
X6200Y26925D02*
X6210D01*
X5920Y26645D02*
X5940Y26625D01*
X5920Y26645D02*
Y26715D01*
X7977Y25820D02*
X8125D01*
X8272Y25673D01*
X8530D01*
X8750Y26471D02*
X8806Y26527D01*
Y26615D01*
X8750Y26285D02*
Y26471D01*
X7977Y26213D02*
X8265D01*
X8336Y26285D01*
X7977Y26017D02*
X8270D01*
X8336Y25950D01*
X13182Y26607D02*
X13300Y26725D01*
X13087Y26607D02*
X13182D01*
X12300Y26115D02*
X12595Y26410D01*
X11808Y25623D02*
X12300Y26115D01*
X10992Y26567D02*
X11050Y26625D01*
X10992Y26435D02*
Y26567D01*
Y25765D02*
Y25995D01*
Y26215D01*
Y26435D01*
X12595Y26410D02*
Y26902D01*
Y26410D02*
X13087D01*
X11512Y25623D02*
X11808D01*
X12398Y24997D02*
Y25328D01*
Y24997D02*
X12400Y24995D01*
X12595Y25100D02*
Y25328D01*
Y25100D02*
X12690Y25005D01*
X11310Y26925D02*
X11320D01*
X11030Y26645D02*
X11050Y26625D01*
X11030Y26645D02*
Y26715D01*
X13087Y25820D02*
X13235D01*
X13382Y25673D01*
X13640D01*
X13860Y26471D02*
X13916Y26527D01*
Y26615D01*
X13860Y26285D02*
Y26471D01*
X13087Y26213D02*
X13375D01*
X13446Y26285D01*
X13087Y26017D02*
X13380D01*
X13446Y25950D01*
X18292Y26607D02*
X18410Y26725D01*
X18197Y26607D02*
X18292D01*
X17410Y26115D02*
X17705Y26410D01*
X16918Y25623D02*
X17410Y26115D01*
X16102Y26567D02*
X16160Y26625D01*
X16102Y26435D02*
Y26567D01*
Y25765D02*
Y25995D01*
Y26215D01*
Y26435D01*
X17705Y26410D02*
Y26902D01*
Y26410D02*
X18197D01*
X16622Y25623D02*
X16918D01*
X17508Y24997D02*
Y25328D01*
Y24997D02*
X17510Y24995D01*
X17705Y25100D02*
Y25328D01*
Y25100D02*
X17800Y25005D01*
X16420Y26925D02*
X16430D01*
X16140Y26645D02*
X16160Y26625D01*
X16140Y26645D02*
Y26715D01*
X18197Y25820D02*
X18345D01*
X18492Y25673D01*
X18750D01*
X18970Y26471D02*
X19026Y26527D01*
Y26615D01*
X18970Y26285D02*
Y26471D01*
X18197Y26213D02*
X18485D01*
X18556Y26285D01*
X18197Y26017D02*
X18490D01*
X18556Y25950D01*
X8072Y30547D02*
X8190Y30665D01*
X7977Y30547D02*
X8072D01*
X7190Y30055D02*
X7485Y30350D01*
X6698Y29563D02*
X7190Y30055D01*
X5882Y30507D02*
X5940Y30565D01*
X5882Y30375D02*
Y30507D01*
Y29705D02*
Y29935D01*
Y30155D01*
Y30375D01*
X7485Y30350D02*
Y30842D01*
Y30350D02*
X7977D01*
X6402Y29563D02*
X6698D01*
X7288Y28937D02*
Y29268D01*
Y28937D02*
X7290Y28935D01*
X7485Y29040D02*
Y29268D01*
Y29040D02*
X7580Y28945D01*
X6200Y30865D02*
X6210D01*
X5920Y30585D02*
X5940Y30565D01*
X5920Y30585D02*
Y30655D01*
X7977Y29760D02*
X8125D01*
X8272Y29613D01*
X8530D01*
X8750Y30411D02*
X8806Y30467D01*
Y30555D01*
X8750Y30225D02*
Y30411D01*
X7977Y30153D02*
X8265D01*
X8336Y30225D01*
X7977Y29957D02*
X8270D01*
X8336Y29890D01*
X13182Y30547D02*
X13300Y30665D01*
X13087Y30547D02*
X13182D01*
X12300Y30055D02*
X12595Y30350D01*
X11808Y29563D02*
X12300Y30055D01*
X10992Y30507D02*
X11050Y30565D01*
X10992Y30375D02*
Y30507D01*
Y29705D02*
Y29935D01*
Y30155D01*
Y30375D01*
X12595Y30350D02*
Y30842D01*
Y30350D02*
X13087D01*
X11512Y29563D02*
X11808D01*
X12398Y28937D02*
Y29268D01*
Y28937D02*
X12400Y28935D01*
X12595Y29040D02*
Y29268D01*
Y29040D02*
X12690Y28945D01*
X11310Y30865D02*
X11320D01*
X11030Y30585D02*
X11050Y30565D01*
X11030Y30585D02*
Y30655D01*
X13087Y29760D02*
X13235D01*
X13382Y29613D01*
X13640D01*
X13860Y30411D02*
X13916Y30467D01*
Y30555D01*
X13860Y30225D02*
Y30411D01*
X13087Y30153D02*
X13375D01*
X13446Y30225D01*
X13087Y29957D02*
X13380D01*
X13446Y29890D01*
X18292Y30547D02*
X18410Y30665D01*
X18197Y30547D02*
X18292D01*
X17410Y30055D02*
X17705Y30350D01*
X16918Y29563D02*
X17410Y30055D01*
X16102Y30507D02*
X16160Y30565D01*
X16102Y30375D02*
Y30507D01*
Y29705D02*
Y29935D01*
Y30155D01*
Y30375D01*
X17705Y30350D02*
Y30842D01*
Y30350D02*
X18197D01*
X16622Y29563D02*
X16918D01*
X17508Y28937D02*
Y29268D01*
Y28937D02*
X17510Y28935D01*
X17705Y29040D02*
Y29268D01*
Y29040D02*
X17800Y28945D01*
X16420Y30865D02*
X16430D01*
X16140Y30585D02*
X16160Y30565D01*
X16140Y30585D02*
Y30655D01*
X18197Y29760D02*
X18345D01*
X18492Y29613D01*
X18750D01*
X18970Y30411D02*
X19026Y30467D01*
Y30555D01*
X18970Y30225D02*
Y30411D01*
X18197Y30153D02*
X18485D01*
X18556Y30225D01*
X18197Y29957D02*
X18490D01*
X18556Y29890D01*
X8072Y34487D02*
X8190Y34605D01*
X7977Y34487D02*
X8072D01*
X7190Y33995D02*
X7485Y34290D01*
X6698Y33503D02*
X7190Y33995D01*
X5882Y34447D02*
X5940Y34505D01*
X5882Y34315D02*
Y34447D01*
Y33645D02*
Y33875D01*
Y34095D01*
Y34315D01*
X7485Y34290D02*
Y34782D01*
Y34290D02*
X7977D01*
X6402Y33503D02*
X6698D01*
X7288Y32877D02*
Y33208D01*
Y32877D02*
X7290Y32875D01*
X7485Y32980D02*
Y33208D01*
Y32980D02*
X7580Y32885D01*
X6200Y34805D02*
X6210D01*
X5920Y34525D02*
X5940Y34505D01*
X5920Y34525D02*
Y34595D01*
X7977Y33700D02*
X8125D01*
X8272Y33553D01*
X8530D01*
X8750Y34351D02*
X8806Y34407D01*
Y34495D01*
X8750Y34165D02*
Y34351D01*
X7977Y34093D02*
X8265D01*
X8336Y34165D01*
X7977Y33897D02*
X8270D01*
X8336Y33830D01*
X13182Y34487D02*
X13300Y34605D01*
X13087Y34487D02*
X13182D01*
X12300Y33995D02*
X12595Y34290D01*
X11808Y33503D02*
X12300Y33995D01*
X10992Y34447D02*
X11050Y34505D01*
X10992Y34315D02*
Y34447D01*
Y33645D02*
Y33875D01*
Y34095D01*
Y34315D01*
X12595Y34290D02*
Y34782D01*
Y34290D02*
X13087D01*
X11512Y33503D02*
X11808D01*
X12398Y32877D02*
Y33208D01*
Y32877D02*
X12400Y32875D01*
X12595Y32980D02*
Y33208D01*
Y32980D02*
X12690Y32885D01*
X11310Y34805D02*
X11320D01*
X11030Y34525D02*
X11050Y34505D01*
X11030Y34525D02*
Y34595D01*
X13087Y33700D02*
X13235D01*
X13382Y33553D01*
X13640D01*
X13860Y34351D02*
X13916Y34407D01*
Y34495D01*
X13860Y34165D02*
Y34351D01*
X13087Y34093D02*
X13375D01*
X13446Y34165D01*
X13087Y33897D02*
X13380D01*
X13446Y33830D01*
X18292Y34487D02*
X18410Y34605D01*
X18197Y34487D02*
X18292D01*
X17410Y33995D02*
X17705Y34290D01*
X16918Y33503D02*
X17410Y33995D01*
X16102Y34447D02*
X16160Y34505D01*
X16102Y34315D02*
Y34447D01*
Y33645D02*
Y33875D01*
Y34095D01*
Y34315D01*
X17705Y34290D02*
Y34782D01*
Y34290D02*
X18197D01*
X16622Y33503D02*
X16918D01*
X17508Y32877D02*
Y33208D01*
Y32877D02*
X17510Y32875D01*
X17705Y32980D02*
Y33208D01*
Y32980D02*
X17800Y32885D01*
X16420Y34805D02*
X16430D01*
X16140Y34525D02*
X16160Y34505D01*
X16140Y34525D02*
Y34595D01*
X18197Y33700D02*
X18345D01*
X18492Y33553D01*
X18750D01*
X18970Y34351D02*
X19026Y34407D01*
Y34495D01*
X18970Y34165D02*
Y34351D01*
X18197Y34093D02*
X18485D01*
X18556Y34165D01*
X18197Y33897D02*
X18490D01*
X18556Y33830D01*
D24*
X15960Y19100D02*
X15980D01*
X15960D02*
Y19240D01*
X6500Y27805D02*
Y27945D01*
Y27805D02*
X6520D01*
X11610D02*
Y27945D01*
Y27805D02*
X11630D01*
X16720D02*
Y27945D01*
Y27805D02*
X16740D01*
X6500Y31745D02*
Y31885D01*
Y31745D02*
X6520D01*
X11610D02*
Y31885D01*
Y31745D02*
X11630D01*
X16720D02*
Y31885D01*
Y31745D02*
X16740D01*
X6500Y35685D02*
Y35825D01*
Y35685D02*
X6520D01*
X11610D02*
Y35825D01*
Y35685D02*
X11630D01*
X16720D02*
Y35825D01*
Y35685D02*
X16740D01*
D25*
X17990Y16968D02*
Y17242D01*
X8530Y25673D02*
Y25947D01*
X13640Y25673D02*
Y25947D01*
X18750Y25673D02*
Y25947D01*
X8530Y29613D02*
Y29887D01*
X13640Y29613D02*
Y29887D01*
X18750Y29613D02*
Y29887D01*
X8530Y33553D02*
Y33827D01*
X13640Y33553D02*
Y33827D01*
X18750Y33553D02*
Y33827D01*
D26*
X16464Y16288D02*
D03*
X16174Y16286D02*
D03*
X15960Y19240D02*
D03*
X15380Y18010D02*
D03*
X17380Y18800D02*
D03*
X15440Y16680D02*
D03*
X17890Y16450D02*
D03*
X15670Y18220D02*
D03*
X18380Y18430D02*
D03*
X17650Y18020D02*
D03*
X16740Y17100D02*
D03*
X16350Y17740D02*
D03*
X17530Y16690D02*
D03*
X17520Y16330D02*
D03*
X15450Y16360D02*
D03*
X16750Y16290D02*
D03*
X17040Y16300D02*
D03*
X17930Y18080D02*
D03*
X8470Y26785D02*
D03*
X7580Y25005D02*
D03*
X7290Y24995D02*
D03*
X5990Y25065D02*
D03*
X8060Y25035D02*
D03*
X8070Y25395D02*
D03*
X6890Y26445D02*
D03*
X7280Y25805D02*
D03*
X8190Y26725D02*
D03*
X8920Y27135D02*
D03*
X6210Y26925D02*
D03*
X8430Y25155D02*
D03*
X5980Y25385D02*
D03*
X7920Y27505D02*
D03*
X5920Y26715D02*
D03*
X6500Y27945D02*
D03*
X6714Y24991D02*
D03*
X7003Y24994D02*
D03*
X13580Y26785D02*
D03*
X12690Y25005D02*
D03*
X12400Y24995D02*
D03*
X11100Y25065D02*
D03*
X13170Y25035D02*
D03*
X13180Y25395D02*
D03*
X12000Y26445D02*
D03*
X12390Y25805D02*
D03*
X13300Y26725D02*
D03*
X14030Y27135D02*
D03*
X11320Y26925D02*
D03*
X13540Y25155D02*
D03*
X11090Y25385D02*
D03*
X13030Y27505D02*
D03*
X11030Y26715D02*
D03*
X11610Y27945D02*
D03*
X11824Y24991D02*
D03*
X12113Y24994D02*
D03*
X18690Y26785D02*
D03*
X17800Y25005D02*
D03*
X17510Y24995D02*
D03*
X16210Y25065D02*
D03*
X18280Y25035D02*
D03*
X18290Y25395D02*
D03*
X17110Y26445D02*
D03*
X17500Y25805D02*
D03*
X18410Y26725D02*
D03*
X19140Y27135D02*
D03*
X16430Y26925D02*
D03*
X18650Y25155D02*
D03*
X16200Y25385D02*
D03*
X18140Y27505D02*
D03*
X16140Y26715D02*
D03*
X16720Y27945D02*
D03*
X16934Y24991D02*
D03*
X17223Y24994D02*
D03*
X8470Y30725D02*
D03*
X7580Y28945D02*
D03*
X7290Y28935D02*
D03*
X5990Y29005D02*
D03*
X8060Y28975D02*
D03*
X8070Y29335D02*
D03*
X6890Y30385D02*
D03*
X7280Y29745D02*
D03*
X8190Y30665D02*
D03*
X8920Y31075D02*
D03*
X6210Y30865D02*
D03*
X8430Y29095D02*
D03*
X5980Y29325D02*
D03*
X7920Y31445D02*
D03*
X5920Y30655D02*
D03*
X6500Y31885D02*
D03*
X6714Y28931D02*
D03*
X7003Y28934D02*
D03*
X13580Y30725D02*
D03*
X12690Y28945D02*
D03*
X12400Y28935D02*
D03*
X11100Y29005D02*
D03*
X13170Y28975D02*
D03*
X13180Y29335D02*
D03*
X12000Y30385D02*
D03*
X12390Y29745D02*
D03*
X13300Y30665D02*
D03*
X14030Y31075D02*
D03*
X11320Y30865D02*
D03*
X13540Y29095D02*
D03*
X11090Y29325D02*
D03*
X13030Y31445D02*
D03*
X11030Y30655D02*
D03*
X11610Y31885D02*
D03*
X11824Y28931D02*
D03*
X12113Y28934D02*
D03*
X18690Y30725D02*
D03*
X17800Y28945D02*
D03*
X17510Y28935D02*
D03*
X16210Y29005D02*
D03*
X18280Y28975D02*
D03*
X18290Y29335D02*
D03*
X17110Y30385D02*
D03*
X17500Y29745D02*
D03*
X18410Y30665D02*
D03*
X19140Y31075D02*
D03*
X16430Y30865D02*
D03*
X18650Y29095D02*
D03*
X16200Y29325D02*
D03*
X18140Y31445D02*
D03*
X16140Y30655D02*
D03*
X16720Y31885D02*
D03*
X16934Y28931D02*
D03*
X17223Y28934D02*
D03*
X8470Y34665D02*
D03*
X7580Y32885D02*
D03*
X7290Y32875D02*
D03*
X5990Y32945D02*
D03*
X8060Y32915D02*
D03*
X8070Y33275D02*
D03*
X6890Y34325D02*
D03*
X7280Y33685D02*
D03*
X8190Y34605D02*
D03*
X8920Y35015D02*
D03*
X6210Y34805D02*
D03*
X8430Y33035D02*
D03*
X5980Y33265D02*
D03*
X7920Y35385D02*
D03*
X5920Y34595D02*
D03*
X6500Y35825D02*
D03*
X6714Y32871D02*
D03*
X7003Y32874D02*
D03*
X13580Y34665D02*
D03*
X12690Y32885D02*
D03*
X12400Y32875D02*
D03*
X11100Y32945D02*
D03*
X13170Y32915D02*
D03*
X13180Y33275D02*
D03*
X12000Y34325D02*
D03*
X12390Y33685D02*
D03*
X13300Y34605D02*
D03*
X14030Y35015D02*
D03*
X11320Y34805D02*
D03*
X13540Y33035D02*
D03*
X11090Y33265D02*
D03*
X13030Y35385D02*
D03*
X11030Y34595D02*
D03*
X11610Y35825D02*
D03*
X11824Y32871D02*
D03*
X12113Y32874D02*
D03*
X18690Y34665D02*
D03*
X17800Y32885D02*
D03*
X17510Y32875D02*
D03*
X16210Y32945D02*
D03*
X18280Y32915D02*
D03*
X18290Y33275D02*
D03*
X17110Y34325D02*
D03*
X17500Y33685D02*
D03*
X18410Y34605D02*
D03*
X19140Y35015D02*
D03*
X16430Y34805D02*
D03*
X18650Y33035D02*
D03*
X16200Y33265D02*
D03*
X18140Y35385D02*
D03*
X16140Y34595D02*
D03*
X16720Y35825D02*
D03*
X16934Y32871D02*
D03*
X17223Y32874D02*
D03*
M02*
