%FSLAX24Y24*%
%MOIN*%
G70*
G01*
G75*
G04 Layer_Physical_Order=3*
G04 Layer_Color=128*
%ADD10R,0.0472X0.0394*%
%ADD11R,0.0472X0.0394*%
%ADD12R,0.0118X0.0118*%
%ADD13R,0.0118X0.0118*%
%ADD14R,0.0098X0.0217*%
%ADD15R,0.0945X0.0295*%
%ADD16R,0.1102X0.1102*%
%ADD17O,0.0295X0.0118*%
%ADD18O,0.0118X0.0295*%
%ADD19R,0.0197X0.0197*%
%ADD20C,0.0080*%
%ADD21C,0.0100*%
%ADD22C,0.0060*%
%ADD23C,0.0200*%
%ADD24C,0.0120*%
%ADD25C,0.0090*%
%ADD26C,0.0220*%
%ADD27C,0.0320*%
G36*
X20440Y19430D02*
X20400Y19430D01*
Y15950D01*
X18570D01*
Y18460D01*
X17850Y19180D01*
Y19452D01*
X15820Y19470D01*
X14940Y18020D01*
X14949Y21180D01*
X20440D01*
Y19430D01*
D02*
G37*
G36*
X27353Y26168D02*
X27313Y26168D01*
Y22688D01*
X25483D01*
Y25198D01*
X24763Y25918D01*
Y26190D01*
X22733Y26208D01*
X21853Y24758D01*
X21863Y27918D01*
X27353D01*
Y26168D01*
D02*
G37*
G36*
X33353D02*
X33313Y26168D01*
Y22688D01*
X31483D01*
Y25198D01*
X30763Y25918D01*
Y26190D01*
X28733Y26208D01*
X27853Y24758D01*
X27863Y27918D01*
X33353D01*
Y26168D01*
D02*
G37*
G36*
X27353Y32168D02*
X27313Y32168D01*
Y28688D01*
X25483D01*
Y31198D01*
X24763Y31918D01*
Y32190D01*
X22733Y32208D01*
X21853Y30758D01*
X21863Y33918D01*
X27353D01*
Y32168D01*
D02*
G37*
G36*
X33353D02*
X33313Y32168D01*
Y28688D01*
X31483D01*
Y31198D01*
X30763Y31918D01*
Y32190D01*
X28733Y32208D01*
X27853Y30758D01*
X27863Y33918D01*
X33353D01*
Y32168D01*
D02*
G37*
G36*
X27353Y38168D02*
X27313Y38168D01*
Y34688D01*
X25483D01*
Y37198D01*
X24763Y37918D01*
Y38190D01*
X22733Y38208D01*
X21853Y36758D01*
X21863Y39918D01*
X27353D01*
Y38168D01*
D02*
G37*
G36*
X33353D02*
X33313Y38168D01*
Y34688D01*
X31483D01*
Y37198D01*
X30763Y37918D01*
Y38190D01*
X28733Y38208D01*
X27853Y36758D01*
X27863Y39918D01*
X33353D01*
Y38168D01*
D02*
G37*
D23*
X21518Y40058D02*
X33692Y40207D01*
Y22225D02*
Y40207D01*
Y22225D02*
X34064D01*
X21518D02*
X34064D01*
X21518D02*
Y40058D01*
X21853Y22598D02*
X27383D01*
Y27918D01*
X21853D02*
X27383D01*
X21853Y22598D02*
Y27918D01*
X27853Y22598D02*
X33383D01*
Y27918D01*
X27853D02*
X33383D01*
X27853Y22598D02*
Y27918D01*
X21853Y28598D02*
X27383D01*
Y33918D01*
X21853D02*
X27383D01*
X21853Y28598D02*
Y33918D01*
X27853Y28598D02*
X33383D01*
Y33918D01*
X27853D02*
X33383D01*
X27853Y28598D02*
Y33918D01*
X21853Y34598D02*
X27383D01*
Y39918D01*
X21853D02*
X27383D01*
X21853Y34598D02*
Y39918D01*
X27853Y34598D02*
X33383D01*
Y39918D01*
X27853D02*
X33383D01*
X27853Y34598D02*
Y39918D01*
D27*
X17930Y18080D02*
D03*
X17040Y16300D02*
D03*
X16750Y16290D02*
D03*
X15450Y16360D02*
D03*
X17520Y16330D02*
D03*
X17530Y16690D02*
D03*
X16350Y17740D02*
D03*
X16740Y17100D02*
D03*
X17650Y18020D02*
D03*
X18380Y18430D02*
D03*
X15670Y18220D02*
D03*
X17890Y16450D02*
D03*
X15440Y16680D02*
D03*
X17380Y18800D02*
D03*
X15380Y18010D02*
D03*
X15960Y19240D02*
D03*
X16174Y16286D02*
D03*
X16464Y16288D02*
D03*
X23377Y23026D02*
D03*
X23087Y23024D02*
D03*
X22873Y25978D02*
D03*
X22293Y24748D02*
D03*
X24293Y25538D02*
D03*
X22353Y23418D02*
D03*
X24803Y23188D02*
D03*
X23653Y23838D02*
D03*
X23263Y24478D02*
D03*
X24433Y23068D02*
D03*
X23663Y23028D02*
D03*
X23953Y23038D02*
D03*
X24843Y24818D02*
D03*
X29377Y23026D02*
D03*
X29087Y23024D02*
D03*
X28873Y25978D02*
D03*
X28293Y24748D02*
D03*
X30293Y25538D02*
D03*
X28353Y23418D02*
D03*
X30803Y23188D02*
D03*
X29653Y23838D02*
D03*
X29263Y24478D02*
D03*
X30433Y23068D02*
D03*
X29663Y23028D02*
D03*
X29953Y23038D02*
D03*
X30843Y24818D02*
D03*
X23377Y29026D02*
D03*
X23087Y29024D02*
D03*
X22873Y31978D02*
D03*
X22293Y30748D02*
D03*
X24293Y31538D02*
D03*
X22353Y29418D02*
D03*
X24803Y29188D02*
D03*
X23653Y29838D02*
D03*
X23263Y30478D02*
D03*
X24433Y29068D02*
D03*
X23663Y29028D02*
D03*
X23953Y29038D02*
D03*
X24843Y30818D02*
D03*
X29377Y29026D02*
D03*
X29087Y29024D02*
D03*
X28873Y31978D02*
D03*
X28293Y30748D02*
D03*
X30293Y31538D02*
D03*
X28353Y29418D02*
D03*
X30803Y29188D02*
D03*
X29653Y29838D02*
D03*
X29263Y30478D02*
D03*
X30433Y29068D02*
D03*
X29663Y29028D02*
D03*
X29953Y29038D02*
D03*
X30843Y30818D02*
D03*
X23377Y35026D02*
D03*
X23087Y35024D02*
D03*
X22873Y37978D02*
D03*
X22293Y36748D02*
D03*
X24293Y37538D02*
D03*
X22353Y35418D02*
D03*
X24803Y35188D02*
D03*
X23653Y35838D02*
D03*
X23263Y36478D02*
D03*
X24433Y35068D02*
D03*
X23663Y35028D02*
D03*
X23953Y35038D02*
D03*
X24843Y36818D02*
D03*
X29377Y35026D02*
D03*
X29087Y35024D02*
D03*
X28873Y37978D02*
D03*
X28293Y36748D02*
D03*
X30293Y37538D02*
D03*
X28353Y35418D02*
D03*
X30803Y35188D02*
D03*
X29653Y35838D02*
D03*
X29263Y36478D02*
D03*
X30433Y35068D02*
D03*
X29663Y35028D02*
D03*
X29953Y35038D02*
D03*
X30843Y36818D02*
D03*
M02*
