%FSLAX24Y24*%
%MOIN*%
G70*
G01*
G75*
G04 Layer_Physical_Order=1*
G04 Layer_Color=255*
%ADD10R,0.0472X0.0394*%
%ADD11R,0.0472X0.0394*%
%ADD12R,0.0118X0.0118*%
%ADD13R,0.0118X0.0118*%
%ADD14R,0.0098X0.0217*%
%ADD15R,0.0945X0.0295*%
%ADD16R,0.1102X0.1102*%
%ADD17O,0.0295X0.0118*%
%ADD18O,0.0118X0.0295*%
%ADD19R,0.0197X0.0197*%
%ADD20C,0.0080*%
%ADD21C,0.0100*%
%ADD22C,0.0060*%
%ADD23C,0.0200*%
%ADD24C,0.0120*%
%ADD25C,0.0090*%
%ADD26C,0.0220*%
D10*
X17099Y18740D02*
D03*
Y19252D02*
D03*
X16430D02*
D03*
X23343Y25989D02*
D03*
X24012D02*
D03*
Y25478D02*
D03*
X29343Y25989D02*
D03*
X30012D02*
D03*
Y25478D02*
D03*
X23343Y31989D02*
D03*
X24012D02*
D03*
Y31478D02*
D03*
X29343Y31989D02*
D03*
X30012D02*
D03*
Y31478D02*
D03*
X23343Y37989D02*
D03*
X24012D02*
D03*
Y37478D02*
D03*
X29343Y37989D02*
D03*
X30012D02*
D03*
Y37478D02*
D03*
D11*
X16430Y18740D02*
D03*
X23343Y25478D02*
D03*
X29343D02*
D03*
X23343Y31478D02*
D03*
X29343D02*
D03*
X23343Y37478D02*
D03*
X29343D02*
D03*
D12*
X15342Y17060D02*
D03*
X15578D02*
D03*
X17682Y18250D02*
D03*
X17918D02*
D03*
X15578Y17290D02*
D03*
X15342D02*
D03*
Y17510D02*
D03*
X15578D02*
D03*
Y17730D02*
D03*
X15342D02*
D03*
X18030Y17910D02*
D03*
X18266D02*
D03*
X25179Y24648D02*
D03*
X24943D02*
D03*
X22255Y24468D02*
D03*
X22491D02*
D03*
Y24248D02*
D03*
X22255D02*
D03*
Y24028D02*
D03*
X22491D02*
D03*
X24831Y24988D02*
D03*
X24595D02*
D03*
X22491Y23798D02*
D03*
X22255D02*
D03*
X31179Y24648D02*
D03*
X30943D02*
D03*
X28255Y24468D02*
D03*
X28491D02*
D03*
Y24248D02*
D03*
X28255D02*
D03*
Y24028D02*
D03*
X28491D02*
D03*
X30831Y24988D02*
D03*
X30595D02*
D03*
X28491Y23798D02*
D03*
X28255D02*
D03*
X25179Y30648D02*
D03*
X24943D02*
D03*
X22255Y30468D02*
D03*
X22491D02*
D03*
Y30248D02*
D03*
X22255D02*
D03*
Y30028D02*
D03*
X22491D02*
D03*
X24831Y30988D02*
D03*
X24595D02*
D03*
X22491Y29798D02*
D03*
X22255D02*
D03*
X31179Y30648D02*
D03*
X30943D02*
D03*
X28255Y30468D02*
D03*
X28491D02*
D03*
Y30248D02*
D03*
X28255D02*
D03*
Y30028D02*
D03*
X28491D02*
D03*
X30831Y30988D02*
D03*
X30595D02*
D03*
X28491Y29798D02*
D03*
X28255D02*
D03*
X25179Y36648D02*
D03*
X24943D02*
D03*
X22255Y36468D02*
D03*
X22491D02*
D03*
Y36248D02*
D03*
X22255D02*
D03*
Y36028D02*
D03*
X22491D02*
D03*
X24831Y36988D02*
D03*
X24595D02*
D03*
X22491Y35798D02*
D03*
X22255D02*
D03*
X31179Y36648D02*
D03*
X30943D02*
D03*
X28255Y36468D02*
D03*
X28491D02*
D03*
Y36248D02*
D03*
X28255D02*
D03*
Y36028D02*
D03*
X28491D02*
D03*
X30831Y36988D02*
D03*
X30595D02*
D03*
X28491Y35798D02*
D03*
X28255D02*
D03*
D13*
X15700Y16568D02*
D03*
Y16332D02*
D03*
X17990Y16958D02*
D03*
Y16722D02*
D03*
X17590Y18452D02*
D03*
Y18688D02*
D03*
X15980Y18782D02*
D03*
Y19018D02*
D03*
X17500Y18932D02*
D03*
Y19168D02*
D03*
X24413Y25906D02*
D03*
Y25669D02*
D03*
X22893Y25756D02*
D03*
Y25519D02*
D03*
X24503Y25426D02*
D03*
Y25189D02*
D03*
X24903Y23459D02*
D03*
Y23696D02*
D03*
X22613Y23069D02*
D03*
Y23306D02*
D03*
X30413Y25906D02*
D03*
Y25669D02*
D03*
X28893Y25756D02*
D03*
Y25519D02*
D03*
X30503Y25426D02*
D03*
Y25189D02*
D03*
X30903Y23459D02*
D03*
Y23696D02*
D03*
X28613Y23069D02*
D03*
Y23306D02*
D03*
X24413Y31906D02*
D03*
Y31669D02*
D03*
X22893Y31756D02*
D03*
Y31519D02*
D03*
X24503Y31426D02*
D03*
Y31189D02*
D03*
X24903Y29459D02*
D03*
Y29696D02*
D03*
X22613Y29069D02*
D03*
Y29306D02*
D03*
X30413Y31906D02*
D03*
Y31669D02*
D03*
X28893Y31756D02*
D03*
Y31519D02*
D03*
X30503Y31426D02*
D03*
Y31189D02*
D03*
X30903Y29459D02*
D03*
Y29696D02*
D03*
X28613Y29069D02*
D03*
Y29306D02*
D03*
X24413Y37906D02*
D03*
Y37669D02*
D03*
X22893Y37756D02*
D03*
Y37519D02*
D03*
X24503Y37426D02*
D03*
Y37189D02*
D03*
X24903Y35459D02*
D03*
Y35696D02*
D03*
X22613Y35069D02*
D03*
Y35306D02*
D03*
X30413Y37906D02*
D03*
Y37669D02*
D03*
X28893Y37756D02*
D03*
Y37519D02*
D03*
X30503Y37426D02*
D03*
Y37189D02*
D03*
X30903Y35459D02*
D03*
Y35696D02*
D03*
X28613Y35069D02*
D03*
Y35306D02*
D03*
D14*
X17993Y17580D02*
D03*
X18190D02*
D03*
Y17245D02*
D03*
X17993D02*
D03*
X17796Y17580D02*
D03*
Y17245D02*
D03*
X24709Y23983D02*
D03*
Y24318D02*
D03*
X24906Y23983D02*
D03*
X25103D02*
D03*
Y24318D02*
D03*
X24906D02*
D03*
X30709Y23983D02*
D03*
Y24318D02*
D03*
X30906Y23983D02*
D03*
X31103D02*
D03*
Y24318D02*
D03*
X30906D02*
D03*
X24709Y29983D02*
D03*
Y30318D02*
D03*
X24906Y29983D02*
D03*
X25103D02*
D03*
Y30318D02*
D03*
X24906D02*
D03*
X30709Y29983D02*
D03*
Y30318D02*
D03*
X30906Y29983D02*
D03*
X31103D02*
D03*
Y30318D02*
D03*
X30906D02*
D03*
X24709Y35983D02*
D03*
Y36318D02*
D03*
X24906Y35983D02*
D03*
X25103D02*
D03*
Y36318D02*
D03*
X24906D02*
D03*
X30709Y35983D02*
D03*
Y36318D02*
D03*
X30906Y35983D02*
D03*
X31103D02*
D03*
Y36318D02*
D03*
X30906D02*
D03*
D15*
X19430Y17930D02*
D03*
Y19288D02*
D03*
X26343Y26026D02*
D03*
Y24668D02*
D03*
X32343Y26026D02*
D03*
Y24668D02*
D03*
X26343Y32026D02*
D03*
Y30668D02*
D03*
X32343Y32026D02*
D03*
Y30668D02*
D03*
X26343Y38026D02*
D03*
Y36668D02*
D03*
X32343Y38026D02*
D03*
Y36668D02*
D03*
D16*
X16650Y17410D02*
D03*
X23563Y24148D02*
D03*
X29563D02*
D03*
X23563Y30148D02*
D03*
X29563D02*
D03*
X23563Y36148D02*
D03*
X29563D02*
D03*
D17*
X15863Y17705D02*
D03*
Y17508D02*
D03*
Y17312D02*
D03*
Y17115D02*
D03*
Y16918D02*
D03*
X17437Y17115D02*
D03*
Y17312D02*
D03*
Y17508D02*
D03*
Y17705D02*
D03*
Y17902D02*
D03*
X15863D02*
D03*
X17437Y16918D02*
D03*
X24350Y23655D02*
D03*
X22776Y24640D02*
D03*
X24350D02*
D03*
Y24443D02*
D03*
Y24246D02*
D03*
Y24049D02*
D03*
Y23852D02*
D03*
X22776Y23655D02*
D03*
Y23852D02*
D03*
Y24049D02*
D03*
Y24246D02*
D03*
Y24443D02*
D03*
X30350Y23655D02*
D03*
X28776Y24640D02*
D03*
X30350D02*
D03*
Y24443D02*
D03*
Y24246D02*
D03*
Y24049D02*
D03*
Y23852D02*
D03*
X28776Y23655D02*
D03*
Y23852D02*
D03*
Y24049D02*
D03*
Y24246D02*
D03*
Y24443D02*
D03*
X24350Y29655D02*
D03*
X22776Y30640D02*
D03*
X24350D02*
D03*
Y30443D02*
D03*
Y30246D02*
D03*
Y30049D02*
D03*
Y29852D02*
D03*
X22776Y29655D02*
D03*
Y29852D02*
D03*
Y30049D02*
D03*
Y30246D02*
D03*
Y30443D02*
D03*
X30350Y29655D02*
D03*
X28776Y30640D02*
D03*
X30350D02*
D03*
Y30443D02*
D03*
Y30246D02*
D03*
Y30049D02*
D03*
Y29852D02*
D03*
X28776Y29655D02*
D03*
Y29852D02*
D03*
Y30049D02*
D03*
Y30246D02*
D03*
Y30443D02*
D03*
X24350Y35655D02*
D03*
X22776Y36640D02*
D03*
X24350D02*
D03*
Y36443D02*
D03*
Y36246D02*
D03*
Y36049D02*
D03*
Y35852D02*
D03*
X22776Y35655D02*
D03*
Y35852D02*
D03*
Y36049D02*
D03*
Y36246D02*
D03*
Y36443D02*
D03*
X30350Y35655D02*
D03*
X28776Y36640D02*
D03*
X30350D02*
D03*
Y36443D02*
D03*
Y36246D02*
D03*
Y36049D02*
D03*
Y35852D02*
D03*
X28776Y35655D02*
D03*
Y35852D02*
D03*
Y36049D02*
D03*
Y36246D02*
D03*
Y36443D02*
D03*
D18*
X16158Y16623D02*
D03*
X17142Y18197D02*
D03*
X16945D02*
D03*
X16748D02*
D03*
X16552D02*
D03*
X16355D02*
D03*
Y16623D02*
D03*
X16552D02*
D03*
X16748D02*
D03*
X16945D02*
D03*
X17142D02*
D03*
X16158Y18197D02*
D03*
X23071Y24935D02*
D03*
X24055Y23360D02*
D03*
X23858D02*
D03*
X23661D02*
D03*
X23465D02*
D03*
X23268D02*
D03*
Y24935D02*
D03*
X23465D02*
D03*
X23661D02*
D03*
X23858D02*
D03*
X24055D02*
D03*
X23071Y23360D02*
D03*
X29071Y24935D02*
D03*
X30055Y23360D02*
D03*
X29858D02*
D03*
X29661D02*
D03*
X29465D02*
D03*
X29268D02*
D03*
Y24935D02*
D03*
X29465D02*
D03*
X29661D02*
D03*
X29858D02*
D03*
X30055D02*
D03*
X29071Y23360D02*
D03*
X23071Y30935D02*
D03*
X24055Y29360D02*
D03*
X23858D02*
D03*
X23661D02*
D03*
X23465D02*
D03*
X23268D02*
D03*
Y30935D02*
D03*
X23465D02*
D03*
X23661D02*
D03*
X23858D02*
D03*
X24055D02*
D03*
X23071Y29360D02*
D03*
X29071Y30935D02*
D03*
X30055Y29360D02*
D03*
X29858D02*
D03*
X29661D02*
D03*
X29465D02*
D03*
X29268D02*
D03*
Y30935D02*
D03*
X29465D02*
D03*
X29661D02*
D03*
X29858D02*
D03*
X30055D02*
D03*
X29071Y29360D02*
D03*
X23071Y36935D02*
D03*
X24055Y35360D02*
D03*
X23858D02*
D03*
X23661D02*
D03*
X23465D02*
D03*
X23268D02*
D03*
Y36935D02*
D03*
X23465D02*
D03*
X23661D02*
D03*
X23858D02*
D03*
X24055D02*
D03*
X23071Y35360D02*
D03*
X29071Y36935D02*
D03*
X30055Y35360D02*
D03*
X29858D02*
D03*
X29661D02*
D03*
X29465D02*
D03*
X29268D02*
D03*
Y36935D02*
D03*
X29465D02*
D03*
X29661D02*
D03*
X29858D02*
D03*
X30055D02*
D03*
X29071Y35360D02*
D03*
D19*
X18460Y17607D02*
D03*
Y17213D02*
D03*
X25373Y23951D02*
D03*
Y24344D02*
D03*
X31373Y23951D02*
D03*
Y24344D02*
D03*
X25373Y29951D02*
D03*
Y30344D02*
D03*
X31373Y29951D02*
D03*
Y30344D02*
D03*
X25373Y35951D02*
D03*
Y36344D02*
D03*
X31373Y35951D02*
D03*
Y36344D02*
D03*
D20*
X17532Y17902D02*
X17650Y18020D01*
X17437Y17902D02*
X17532D01*
X16650Y17410D02*
X16945Y17705D01*
X16158Y16918D02*
X16650Y17410D01*
X15342Y17862D02*
X15400Y17920D01*
X15342Y17730D02*
Y17862D01*
Y17060D02*
Y17290D01*
Y17510D01*
Y17730D01*
X16945Y17705D02*
Y18197D01*
Y17705D02*
X17437D01*
X15863Y16918D02*
X16158D01*
X16748Y16292D02*
Y16623D01*
Y16292D02*
X16750Y16290D01*
X16945Y16395D02*
Y16623D01*
Y16395D02*
X17040Y16300D01*
X15660Y18220D02*
X15670D01*
X15380Y17940D02*
X15400Y17920D01*
X15380Y17940D02*
Y18010D01*
X17437Y17115D02*
X17585D01*
X17732Y16968D01*
X17990D01*
X18210Y17766D02*
X18266Y17822D01*
Y17910D01*
X18210Y17580D02*
Y17766D01*
X17437Y17508D02*
X17725D01*
X17796Y17580D01*
X17437Y17312D02*
X17730D01*
X17796Y17245D01*
X24643Y24049D02*
X24709Y23983D01*
X24350Y24049D02*
X24643D01*
X24638Y24246D02*
X24709Y24318D01*
X24350Y24246D02*
X24638D01*
X25123Y24318D02*
Y24504D01*
X25179Y24560D02*
Y24648D01*
X25123Y24504D02*
X25179Y24560D01*
X24645Y23706D02*
X24903D01*
X24498Y23852D02*
X24645Y23706D01*
X24350Y23852D02*
X24498D01*
X22293Y24678D02*
Y24748D01*
Y24678D02*
X22313Y24658D01*
X22573Y24958D02*
X22583D01*
X23858Y23132D02*
X23953Y23038D01*
X23858Y23132D02*
Y23360D01*
X23661Y23029D02*
X23663Y23028D01*
X23661Y23029D02*
Y23360D01*
X22776Y23655D02*
X23071D01*
X23858Y24443D02*
X24350D01*
X23858D02*
Y24935D01*
X22255Y24248D02*
Y24468D01*
Y24028D02*
Y24248D01*
Y23798D02*
Y24028D01*
Y24468D02*
Y24599D01*
X22313Y24658D01*
X23071Y23655D02*
X23563Y24148D01*
X23858Y24443D01*
X24350Y24640D02*
X24445D01*
X24563Y24758D01*
X30643Y24049D02*
X30709Y23983D01*
X30350Y24049D02*
X30643D01*
X30638Y24246D02*
X30709Y24318D01*
X30350Y24246D02*
X30638D01*
X31123Y24318D02*
Y24504D01*
X31179Y24560D02*
Y24648D01*
X31123Y24504D02*
X31179Y24560D01*
X30645Y23706D02*
X30903D01*
X30498Y23852D02*
X30645Y23706D01*
X30350Y23852D02*
X30498D01*
X28293Y24678D02*
Y24748D01*
Y24678D02*
X28313Y24658D01*
X28573Y24958D02*
X28583D01*
X29858Y23132D02*
X29953Y23038D01*
X29858Y23132D02*
Y23360D01*
X29661Y23029D02*
X29663Y23028D01*
X29661Y23029D02*
Y23360D01*
X28776Y23655D02*
X29071D01*
X29858Y24443D02*
X30350D01*
X29858D02*
Y24935D01*
X28255Y24248D02*
Y24468D01*
Y24028D02*
Y24248D01*
Y23798D02*
Y24028D01*
Y24468D02*
Y24599D01*
X28313Y24658D01*
X29071Y23655D02*
X29563Y24148D01*
X29858Y24443D01*
X30350Y24640D02*
X30445D01*
X30563Y24758D01*
X24643Y30049D02*
X24709Y29983D01*
X24350Y30049D02*
X24643D01*
X24638Y30246D02*
X24709Y30318D01*
X24350Y30246D02*
X24638D01*
X25123Y30318D02*
Y30504D01*
X25179Y30560D02*
Y30648D01*
X25123Y30504D02*
X25179Y30560D01*
X24645Y29706D02*
X24903D01*
X24498Y29852D02*
X24645Y29706D01*
X24350Y29852D02*
X24498D01*
X22293Y30678D02*
Y30748D01*
Y30678D02*
X22313Y30658D01*
X22573Y30958D02*
X22583D01*
X23858Y29132D02*
X23953Y29038D01*
X23858Y29132D02*
Y29360D01*
X23661Y29029D02*
X23663Y29028D01*
X23661Y29029D02*
Y29360D01*
X22776Y29655D02*
X23071D01*
X23858Y30443D02*
X24350D01*
X23858D02*
Y30935D01*
X22255Y30248D02*
Y30468D01*
Y30028D02*
Y30248D01*
Y29798D02*
Y30028D01*
Y30468D02*
Y30599D01*
X22313Y30658D01*
X23071Y29655D02*
X23563Y30148D01*
X23858Y30443D01*
X24350Y30640D02*
X24445D01*
X24563Y30758D01*
X30643Y30049D02*
X30709Y29983D01*
X30350Y30049D02*
X30643D01*
X30638Y30246D02*
X30709Y30318D01*
X30350Y30246D02*
X30638D01*
X31123Y30318D02*
Y30504D01*
X31179Y30560D02*
Y30648D01*
X31123Y30504D02*
X31179Y30560D01*
X30645Y29706D02*
X30903D01*
X30498Y29852D02*
X30645Y29706D01*
X30350Y29852D02*
X30498D01*
X28293Y30678D02*
Y30748D01*
Y30678D02*
X28313Y30658D01*
X28573Y30958D02*
X28583D01*
X29858Y29132D02*
X29953Y29038D01*
X29858Y29132D02*
Y29360D01*
X29661Y29029D02*
X29663Y29028D01*
X29661Y29029D02*
Y29360D01*
X28776Y29655D02*
X29071D01*
X29858Y30443D02*
X30350D01*
X29858D02*
Y30935D01*
X28255Y30248D02*
Y30468D01*
Y30028D02*
Y30248D01*
Y29798D02*
Y30028D01*
Y30468D02*
Y30599D01*
X28313Y30658D01*
X29071Y29655D02*
X29563Y30148D01*
X29858Y30443D01*
X30350Y30640D02*
X30445D01*
X30563Y30758D01*
X24643Y36049D02*
X24709Y35983D01*
X24350Y36049D02*
X24643D01*
X24638Y36246D02*
X24709Y36318D01*
X24350Y36246D02*
X24638D01*
X25123Y36318D02*
Y36504D01*
X25179Y36560D02*
Y36648D01*
X25123Y36504D02*
X25179Y36560D01*
X24645Y35706D02*
X24903D01*
X24498Y35852D02*
X24645Y35706D01*
X24350Y35852D02*
X24498D01*
X22293Y36678D02*
Y36748D01*
Y36678D02*
X22313Y36658D01*
X22573Y36958D02*
X22583D01*
X23858Y35132D02*
X23953Y35038D01*
X23858Y35132D02*
Y35360D01*
X23661Y35029D02*
X23663Y35028D01*
X23661Y35029D02*
Y35360D01*
X22776Y35655D02*
X23071D01*
X23858Y36443D02*
X24350D01*
X23858D02*
Y36935D01*
X22255Y36248D02*
Y36468D01*
Y36028D02*
Y36248D01*
Y35798D02*
Y36028D01*
Y36468D02*
Y36599D01*
X22313Y36658D01*
X23071Y35655D02*
X23563Y36148D01*
X23858Y36443D01*
X24350Y36640D02*
X24445D01*
X24563Y36758D01*
X30643Y36049D02*
X30709Y35983D01*
X30350Y36049D02*
X30643D01*
X30638Y36246D02*
X30709Y36318D01*
X30350Y36246D02*
X30638D01*
X31123Y36318D02*
Y36504D01*
X31179Y36560D02*
Y36648D01*
X31123Y36504D02*
X31179Y36560D01*
X30645Y35706D02*
X30903D01*
X30498Y35852D02*
X30645Y35706D01*
X30350Y35852D02*
X30498D01*
X28293Y36678D02*
Y36748D01*
Y36678D02*
X28313Y36658D01*
X28573Y36958D02*
X28583D01*
X29858Y35132D02*
X29953Y35038D01*
X29858Y35132D02*
Y35360D01*
X29661Y35029D02*
X29663Y35028D01*
X29661Y35029D02*
Y35360D01*
X28776Y35655D02*
X29071D01*
X29858Y36443D02*
X30350D01*
X29858D02*
Y36935D01*
X28255Y36248D02*
Y36468D01*
Y36028D02*
Y36248D01*
Y35798D02*
Y36028D01*
Y36468D02*
Y36599D01*
X28313Y36658D01*
X29071Y35655D02*
X29563Y36148D01*
X29858Y36443D01*
X30350Y36640D02*
X30445D01*
X30563Y36758D01*
D21*
X17918Y18250D02*
X17930Y18238D01*
Y18080D02*
Y18238D01*
X17890Y16450D02*
Y16692D01*
X18353Y17580D02*
X18390Y17617D01*
X15450Y16360D02*
X15540D01*
X15570Y16330D01*
X15698D01*
X15700Y16332D01*
X15798D01*
X16089Y16623D01*
X16158D01*
X15700Y16568D02*
Y16600D01*
X15863Y16763D01*
Y16918D01*
X17142Y16623D02*
X17435Y16330D01*
X17520D01*
X15578Y17730D02*
X15600Y17752D01*
Y18160D01*
X15660Y18220D01*
X18210Y17580D02*
X18353D01*
X17993D02*
Y17873D01*
X18021Y17901D01*
X18030Y17910D02*
Y17980D01*
X17930Y18080D02*
X18030Y17980D01*
X15578Y17730D02*
X15603Y17705D01*
X15863D01*
X22516Y24443D02*
X22776D01*
X22491Y24468D02*
X22516Y24443D01*
X24843Y24818D02*
X24943Y24718D01*
Y24648D02*
Y24718D01*
X24906Y24611D02*
X24934Y24639D01*
X24906Y24318D02*
Y24611D01*
X25123Y24318D02*
X25266D01*
X22513Y24898D02*
X22573Y24958D01*
X22513Y24489D02*
Y24898D01*
X22491Y24468D02*
X22513Y24489D01*
X24348Y23068D02*
X24433D01*
X24055Y23360D02*
X24348Y23068D01*
X22776Y23500D02*
Y23655D01*
X22613Y23338D02*
X22776Y23500D01*
X22613Y23306D02*
Y23338D01*
X23002Y23360D02*
X23071D01*
X22711Y23069D02*
X23002Y23360D01*
X22613Y23069D02*
X22711D01*
X22611Y23068D02*
X22613Y23069D01*
X22483Y23068D02*
X22611D01*
X22453Y23098D02*
X22483Y23068D01*
X22363Y23098D02*
X22453D01*
X25266Y24318D02*
X25303Y24354D01*
X24803Y23188D02*
Y23429D01*
X24843Y24818D02*
Y24976D01*
X24831Y24988D02*
X24843Y24976D01*
X28516Y24443D02*
X28776D01*
X28491Y24468D02*
X28516Y24443D01*
X30843Y24818D02*
X30943Y24718D01*
Y24648D02*
Y24718D01*
X30906Y24611D02*
X30934Y24639D01*
X30906Y24318D02*
Y24611D01*
X31123Y24318D02*
X31266D01*
X28513Y24898D02*
X28573Y24958D01*
X28513Y24489D02*
Y24898D01*
X28491Y24468D02*
X28513Y24489D01*
X30348Y23068D02*
X30433D01*
X30055Y23360D02*
X30348Y23068D01*
X28776Y23500D02*
Y23655D01*
X28613Y23338D02*
X28776Y23500D01*
X28613Y23306D02*
Y23338D01*
X29002Y23360D02*
X29071D01*
X28711Y23069D02*
X29002Y23360D01*
X28613Y23069D02*
X28711D01*
X28611Y23068D02*
X28613Y23069D01*
X28483Y23068D02*
X28611D01*
X28453Y23098D02*
X28483Y23068D01*
X28363Y23098D02*
X28453D01*
X31266Y24318D02*
X31303Y24354D01*
X30803Y23188D02*
Y23429D01*
X30843Y24818D02*
Y24976D01*
X30831Y24988D02*
X30843Y24976D01*
X22516Y30443D02*
X22776D01*
X22491Y30468D02*
X22516Y30443D01*
X24843Y30818D02*
X24943Y30718D01*
Y30648D02*
Y30718D01*
X24906Y30611D02*
X24934Y30639D01*
X24906Y30318D02*
Y30611D01*
X25123Y30318D02*
X25266D01*
X22513Y30898D02*
X22573Y30958D01*
X22513Y30489D02*
Y30898D01*
X22491Y30468D02*
X22513Y30489D01*
X24348Y29068D02*
X24433D01*
X24055Y29360D02*
X24348Y29068D01*
X22776Y29500D02*
Y29655D01*
X22613Y29338D02*
X22776Y29500D01*
X22613Y29306D02*
Y29338D01*
X23002Y29360D02*
X23071D01*
X22711Y29069D02*
X23002Y29360D01*
X22613Y29069D02*
X22711D01*
X22611Y29068D02*
X22613Y29069D01*
X22483Y29068D02*
X22611D01*
X22453Y29098D02*
X22483Y29068D01*
X22363Y29098D02*
X22453D01*
X25266Y30318D02*
X25303Y30354D01*
X24803Y29188D02*
Y29429D01*
X24843Y30818D02*
Y30976D01*
X24831Y30988D02*
X24843Y30976D01*
X28516Y30443D02*
X28776D01*
X28491Y30468D02*
X28516Y30443D01*
X30843Y30818D02*
X30943Y30718D01*
Y30648D02*
Y30718D01*
X30906Y30611D02*
X30934Y30639D01*
X30906Y30318D02*
Y30611D01*
X31123Y30318D02*
X31266D01*
X28513Y30898D02*
X28573Y30958D01*
X28513Y30489D02*
Y30898D01*
X28491Y30468D02*
X28513Y30489D01*
X30348Y29068D02*
X30433D01*
X30055Y29360D02*
X30348Y29068D01*
X28776Y29500D02*
Y29655D01*
X28613Y29338D02*
X28776Y29500D01*
X28613Y29306D02*
Y29338D01*
X29002Y29360D02*
X29071D01*
X28711Y29069D02*
X29002Y29360D01*
X28613Y29069D02*
X28711D01*
X28611Y29068D02*
X28613Y29069D01*
X28483Y29068D02*
X28611D01*
X28453Y29098D02*
X28483Y29068D01*
X28363Y29098D02*
X28453D01*
X31266Y30318D02*
X31303Y30354D01*
X30803Y29188D02*
Y29429D01*
X30843Y30818D02*
Y30976D01*
X30831Y30988D02*
X30843Y30976D01*
X22516Y36443D02*
X22776D01*
X22491Y36468D02*
X22516Y36443D01*
X24843Y36818D02*
X24943Y36718D01*
Y36648D02*
Y36718D01*
X24906Y36611D02*
X24934Y36639D01*
X24906Y36318D02*
Y36611D01*
X25123Y36318D02*
X25266D01*
X22513Y36898D02*
X22573Y36958D01*
X22513Y36489D02*
Y36898D01*
X22491Y36468D02*
X22513Y36489D01*
X24348Y35068D02*
X24433D01*
X24055Y35360D02*
X24348Y35068D01*
X22776Y35500D02*
Y35655D01*
X22613Y35338D02*
X22776Y35500D01*
X22613Y35306D02*
Y35338D01*
X23002Y35360D02*
X23071D01*
X22711Y35069D02*
X23002Y35360D01*
X22613Y35069D02*
X22711D01*
X22611Y35068D02*
X22613Y35069D01*
X22483Y35068D02*
X22611D01*
X22453Y35098D02*
X22483Y35068D01*
X22363Y35098D02*
X22453D01*
X25266Y36318D02*
X25303Y36354D01*
X24803Y35188D02*
Y35429D01*
X24843Y36818D02*
Y36976D01*
X24831Y36988D02*
X24843Y36976D01*
X28516Y36443D02*
X28776D01*
X28491Y36468D02*
X28516Y36443D01*
X30843Y36818D02*
X30943Y36718D01*
Y36648D02*
Y36718D01*
X30906Y36611D02*
X30934Y36639D01*
X30906Y36318D02*
Y36611D01*
X31123Y36318D02*
X31266D01*
X28513Y36898D02*
X28573Y36958D01*
X28513Y36489D02*
Y36898D01*
X28491Y36468D02*
X28513Y36489D01*
X30348Y35068D02*
X30433D01*
X30055Y35360D02*
X30348Y35068D01*
X28776Y35500D02*
Y35655D01*
X28613Y35338D02*
X28776Y35500D01*
X28613Y35306D02*
Y35338D01*
X29002Y35360D02*
X29071D01*
X28711Y35069D02*
X29002Y35360D01*
X28613Y35069D02*
X28711D01*
X28611Y35068D02*
X28613Y35069D01*
X28483Y35068D02*
X28611D01*
X28453Y35098D02*
X28483Y35068D01*
X28363Y35098D02*
X28453D01*
X31266Y36318D02*
X31303Y36354D01*
X30803Y35188D02*
Y35429D01*
X30843Y36818D02*
Y36976D01*
X30831Y36988D02*
X30843Y36976D01*
D22*
X17540Y17705D02*
X17613Y17778D01*
X17437Y17705D02*
X17540D01*
X17780Y17778D02*
X17903Y17901D01*
X17613Y17778D02*
X17780D01*
X17099Y18740D02*
X17308D01*
X17416Y19252D02*
X17500Y19168D01*
X17099Y19252D02*
X17416D01*
X16132D02*
X16430D01*
X16355Y18197D02*
Y18665D01*
X16430Y18740D01*
X17051Y19252D02*
X17099D01*
X16773Y18513D02*
Y18974D01*
X16695Y18435D02*
X16773Y18513D01*
Y18974D02*
X17051Y19252D01*
X16687Y18435D02*
X16695D01*
X16552Y18300D02*
X16687Y18435D01*
X16552Y18197D02*
Y18300D01*
X16748Y18197D02*
Y18314D01*
X16879Y18445D01*
X15578Y17060D02*
X15633Y17115D01*
X15863D01*
X15578Y17290D02*
X15600Y17312D01*
X15863D01*
X15578Y17510D02*
X15580Y17508D01*
X15863D01*
X15500Y16982D02*
X15578Y17060D01*
X15980Y18782D02*
X16388D01*
X16430Y18740D01*
X15980Y19018D02*
Y19100D01*
X17142Y18197D02*
X17460D01*
X17437Y16918D02*
X17530Y16825D01*
Y16690D02*
Y16825D01*
X16879Y18445D02*
X17537D01*
X17542Y18440D01*
X18358Y18452D02*
X18380Y18430D01*
X17590Y18452D02*
X18358D01*
X17513Y18250D02*
X17682D01*
X17460Y18197D02*
X17513Y18250D01*
X15440Y16680D02*
X15500Y16740D01*
Y16982D01*
X17380Y18800D02*
X17478D01*
X17590Y18688D01*
X18021Y17901D02*
X18030Y17910D01*
X17903Y17901D02*
X18021D01*
X15980Y19100D02*
X16132Y19252D01*
X17308Y18740D02*
X17500Y18932D01*
X16174Y16286D02*
X16355Y16467D01*
Y16623D01*
X16464Y16288D02*
Y16327D01*
X16552Y16415D01*
Y16623D01*
X23465Y23152D02*
Y23360D01*
X23377Y23064D02*
X23465Y23152D01*
X23377Y23026D02*
Y23064D01*
X23268Y23205D02*
Y23360D01*
X23087Y23024D02*
X23268Y23205D01*
X24221Y25478D02*
X24413Y25669D01*
X22893Y25838D02*
X23045Y25989D01*
X24816Y24639D02*
X24934D01*
X24943Y24648D01*
X24391Y25538D02*
X24503Y25426D01*
X24293Y25538D02*
X24391D01*
X22413Y23478D02*
Y23719D01*
X22353Y23418D02*
X22413Y23478D01*
X24373Y24935D02*
X24426Y24988D01*
X24595D01*
X24503Y25189D02*
X25271D01*
X25293Y25168D01*
X24450Y25183D02*
X24455Y25178D01*
X23792Y25183D02*
X24450D01*
X24443Y23428D02*
Y23563D01*
X24350Y23655D02*
X24443Y23563D01*
X24055Y24935D02*
X24373D01*
X22893Y25756D02*
Y25838D01*
X23301Y25519D02*
X23343Y25478D01*
X22893Y25519D02*
X23301D01*
X22413Y23719D02*
X22491Y23798D01*
X22493Y24246D02*
X22776D01*
X22491Y24248D02*
X22493Y24246D01*
X22513Y24049D02*
X22776D01*
X22491Y24028D02*
X22513Y24049D01*
X22546Y23852D02*
X22776D01*
X22491Y23798D02*
X22546Y23852D01*
X23661Y25052D02*
X23792Y25183D01*
X23661Y24935D02*
Y25052D01*
X23465Y24935D02*
Y25038D01*
X23600Y25173D01*
X23608D01*
X23686Y25712D02*
X23964Y25989D01*
X23608Y25173D02*
X23686Y25251D01*
Y25712D01*
X23964Y25989D02*
X24012D01*
X23268Y25402D02*
X23343Y25478D01*
X23268Y24935D02*
Y25402D01*
X23045Y25989D02*
X23343D01*
X24012D02*
X24329D01*
X24413Y25906D01*
X24012Y25478D02*
X24221D01*
X24526Y24516D02*
X24693D01*
X24816Y24639D01*
X24350Y24443D02*
X24453D01*
X24526Y24516D01*
X29465Y23152D02*
Y23360D01*
X29377Y23064D02*
X29465Y23152D01*
X29377Y23026D02*
Y23064D01*
X29268Y23205D02*
Y23360D01*
X29087Y23024D02*
X29268Y23205D01*
X30221Y25478D02*
X30413Y25669D01*
X28893Y25838D02*
X29045Y25989D01*
X30816Y24639D02*
X30934D01*
X30943Y24648D01*
X30391Y25538D02*
X30503Y25426D01*
X30293Y25538D02*
X30391D01*
X28413Y23478D02*
Y23719D01*
X28353Y23418D02*
X28413Y23478D01*
X30373Y24935D02*
X30426Y24988D01*
X30595D01*
X30503Y25189D02*
X31271D01*
X31293Y25168D01*
X30450Y25183D02*
X30455Y25178D01*
X29792Y25183D02*
X30450D01*
X30443Y23428D02*
Y23563D01*
X30350Y23655D02*
X30443Y23563D01*
X30055Y24935D02*
X30373D01*
X28893Y25756D02*
Y25838D01*
X29301Y25519D02*
X29343Y25478D01*
X28893Y25519D02*
X29301D01*
X28413Y23719D02*
X28491Y23798D01*
X28493Y24246D02*
X28776D01*
X28491Y24248D02*
X28493Y24246D01*
X28513Y24049D02*
X28776D01*
X28491Y24028D02*
X28513Y24049D01*
X28546Y23852D02*
X28776D01*
X28491Y23798D02*
X28546Y23852D01*
X29661Y25052D02*
X29792Y25183D01*
X29661Y24935D02*
Y25052D01*
X29465Y24935D02*
Y25038D01*
X29600Y25173D01*
X29608D01*
X29686Y25712D02*
X29964Y25989D01*
X29608Y25173D02*
X29686Y25251D01*
Y25712D01*
X29964Y25989D02*
X30012D01*
X29268Y25402D02*
X29343Y25478D01*
X29268Y24935D02*
Y25402D01*
X29045Y25989D02*
X29343D01*
X30012D02*
X30329D01*
X30413Y25906D01*
X30012Y25478D02*
X30221D01*
X30526Y24516D02*
X30693D01*
X30816Y24639D01*
X30350Y24443D02*
X30453D01*
X30526Y24516D01*
X23465Y29152D02*
Y29360D01*
X23377Y29064D02*
X23465Y29152D01*
X23377Y29026D02*
Y29064D01*
X23268Y29205D02*
Y29360D01*
X23087Y29024D02*
X23268Y29205D01*
X24221Y31478D02*
X24413Y31669D01*
X22893Y31838D02*
X23045Y31989D01*
X24816Y30639D02*
X24934D01*
X24943Y30648D01*
X24391Y31538D02*
X24503Y31426D01*
X24293Y31538D02*
X24391D01*
X22413Y29478D02*
Y29719D01*
X22353Y29418D02*
X22413Y29478D01*
X24373Y30935D02*
X24426Y30988D01*
X24595D01*
X24503Y31189D02*
X25271D01*
X25293Y31168D01*
X24450Y31183D02*
X24455Y31178D01*
X23792Y31183D02*
X24450D01*
X24443Y29428D02*
Y29563D01*
X24350Y29655D02*
X24443Y29563D01*
X24055Y30935D02*
X24373D01*
X22893Y31756D02*
Y31838D01*
X23301Y31519D02*
X23343Y31478D01*
X22893Y31519D02*
X23301D01*
X22413Y29719D02*
X22491Y29798D01*
X22493Y30246D02*
X22776D01*
X22491Y30248D02*
X22493Y30246D01*
X22513Y30049D02*
X22776D01*
X22491Y30028D02*
X22513Y30049D01*
X22546Y29852D02*
X22776D01*
X22491Y29798D02*
X22546Y29852D01*
X23661Y31052D02*
X23792Y31183D01*
X23661Y30935D02*
Y31052D01*
X23465Y30935D02*
Y31038D01*
X23600Y31173D01*
X23608D01*
X23686Y31712D02*
X23964Y31989D01*
X23608Y31173D02*
X23686Y31251D01*
Y31712D01*
X23964Y31989D02*
X24012D01*
X23268Y31402D02*
X23343Y31478D01*
X23268Y30935D02*
Y31402D01*
X23045Y31989D02*
X23343D01*
X24012D02*
X24329D01*
X24413Y31906D01*
X24012Y31478D02*
X24221D01*
X24526Y30516D02*
X24693D01*
X24816Y30639D01*
X24350Y30443D02*
X24453D01*
X24526Y30516D01*
X29465Y29152D02*
Y29360D01*
X29377Y29064D02*
X29465Y29152D01*
X29377Y29026D02*
Y29064D01*
X29268Y29205D02*
Y29360D01*
X29087Y29024D02*
X29268Y29205D01*
X30221Y31478D02*
X30413Y31669D01*
X28893Y31838D02*
X29045Y31989D01*
X30816Y30639D02*
X30934D01*
X30943Y30648D01*
X30391Y31538D02*
X30503Y31426D01*
X30293Y31538D02*
X30391D01*
X28413Y29478D02*
Y29719D01*
X28353Y29418D02*
X28413Y29478D01*
X30373Y30935D02*
X30426Y30988D01*
X30595D01*
X30503Y31189D02*
X31271D01*
X31293Y31168D01*
X30450Y31183D02*
X30455Y31178D01*
X29792Y31183D02*
X30450D01*
X30443Y29428D02*
Y29563D01*
X30350Y29655D02*
X30443Y29563D01*
X30055Y30935D02*
X30373D01*
X28893Y31756D02*
Y31838D01*
X29301Y31519D02*
X29343Y31478D01*
X28893Y31519D02*
X29301D01*
X28413Y29719D02*
X28491Y29798D01*
X28493Y30246D02*
X28776D01*
X28491Y30248D02*
X28493Y30246D01*
X28513Y30049D02*
X28776D01*
X28491Y30028D02*
X28513Y30049D01*
X28546Y29852D02*
X28776D01*
X28491Y29798D02*
X28546Y29852D01*
X29661Y31052D02*
X29792Y31183D01*
X29661Y30935D02*
Y31052D01*
X29465Y30935D02*
Y31038D01*
X29600Y31173D01*
X29608D01*
X29686Y31712D02*
X29964Y31989D01*
X29608Y31173D02*
X29686Y31251D01*
Y31712D01*
X29964Y31989D02*
X30012D01*
X29268Y31402D02*
X29343Y31478D01*
X29268Y30935D02*
Y31402D01*
X29045Y31989D02*
X29343D01*
X30012D02*
X30329D01*
X30413Y31906D01*
X30012Y31478D02*
X30221D01*
X30526Y30516D02*
X30693D01*
X30816Y30639D01*
X30350Y30443D02*
X30453D01*
X30526Y30516D01*
X23465Y35152D02*
Y35360D01*
X23377Y35064D02*
X23465Y35152D01*
X23377Y35026D02*
Y35064D01*
X23268Y35205D02*
Y35360D01*
X23087Y35024D02*
X23268Y35205D01*
X24221Y37478D02*
X24413Y37669D01*
X22893Y37838D02*
X23045Y37989D01*
X24816Y36639D02*
X24934D01*
X24943Y36648D01*
X24391Y37538D02*
X24503Y37426D01*
X24293Y37538D02*
X24391D01*
X22413Y35478D02*
Y35719D01*
X22353Y35418D02*
X22413Y35478D01*
X24373Y36935D02*
X24426Y36988D01*
X24595D01*
X24503Y37189D02*
X25271D01*
X25293Y37168D01*
X24450Y37183D02*
X24455Y37178D01*
X23792Y37183D02*
X24450D01*
X24443Y35428D02*
Y35563D01*
X24350Y35655D02*
X24443Y35563D01*
X24055Y36935D02*
X24373D01*
X22893Y37756D02*
Y37838D01*
X23301Y37519D02*
X23343Y37478D01*
X22893Y37519D02*
X23301D01*
X22413Y35719D02*
X22491Y35798D01*
X22493Y36246D02*
X22776D01*
X22491Y36248D02*
X22493Y36246D01*
X22513Y36049D02*
X22776D01*
X22491Y36028D02*
X22513Y36049D01*
X22546Y35852D02*
X22776D01*
X22491Y35798D02*
X22546Y35852D01*
X23661Y37052D02*
X23792Y37183D01*
X23661Y36935D02*
Y37052D01*
X23465Y36935D02*
Y37038D01*
X23600Y37173D01*
X23608D01*
X23686Y37712D02*
X23964Y37989D01*
X23608Y37173D02*
X23686Y37251D01*
Y37712D01*
X23964Y37989D02*
X24012D01*
X23268Y37402D02*
X23343Y37478D01*
X23268Y36935D02*
Y37402D01*
X23045Y37989D02*
X23343D01*
X24012D02*
X24329D01*
X24413Y37906D01*
X24012Y37478D02*
X24221D01*
X24526Y36516D02*
X24693D01*
X24816Y36639D01*
X24350Y36443D02*
X24453D01*
X24526Y36516D01*
X29465Y35152D02*
Y35360D01*
X29377Y35064D02*
X29465Y35152D01*
X29377Y35026D02*
Y35064D01*
X29268Y35205D02*
Y35360D01*
X29087Y35024D02*
X29268Y35205D01*
X30221Y37478D02*
X30413Y37669D01*
X28893Y37838D02*
X29045Y37989D01*
X30816Y36639D02*
X30934D01*
X30943Y36648D01*
X30391Y37538D02*
X30503Y37426D01*
X30293Y37538D02*
X30391D01*
X28413Y35478D02*
Y35719D01*
X28353Y35418D02*
X28413Y35478D01*
X30373Y36935D02*
X30426Y36988D01*
X30595D01*
X30503Y37189D02*
X31271D01*
X31293Y37168D01*
X30450Y37183D02*
X30455Y37178D01*
X29792Y37183D02*
X30450D01*
X30443Y35428D02*
Y35563D01*
X30350Y35655D02*
X30443Y35563D01*
X30055Y36935D02*
X30373D01*
X28893Y37756D02*
Y37838D01*
X29301Y37519D02*
X29343Y37478D01*
X28893Y37519D02*
X29301D01*
X28413Y35719D02*
X28491Y35798D01*
X28493Y36246D02*
X28776D01*
X28491Y36248D02*
X28493Y36246D01*
X28513Y36049D02*
X28776D01*
X28491Y36028D02*
X28513Y36049D01*
X28546Y35852D02*
X28776D01*
X28491Y35798D02*
X28546Y35852D01*
X29661Y37052D02*
X29792Y37183D01*
X29661Y36935D02*
Y37052D01*
X29465Y36935D02*
Y37038D01*
X29600Y37173D01*
X29608D01*
X29686Y37712D02*
X29964Y37989D01*
X29608Y37173D02*
X29686Y37251D01*
Y37712D01*
X29964Y37989D02*
X30012D01*
X29268Y37402D02*
X29343Y37478D01*
X29268Y36935D02*
Y37402D01*
X29045Y37989D02*
X29343D01*
X30012D02*
X30329D01*
X30413Y37906D01*
X30012Y37478D02*
X30221D01*
X30526Y36516D02*
X30693D01*
X30816Y36639D01*
X30350Y36443D02*
X30453D01*
X30526Y36516D01*
D23*
X19410Y17910D02*
X19430Y17930D01*
X19410Y17560D02*
Y17910D01*
X19160Y17310D02*
X19410Y17560D01*
X18460Y17213D02*
X19063D01*
X19160Y17310D01*
X25976Y23951D02*
X26073Y24048D01*
X25373Y23951D02*
X25976D01*
X26073Y24048D02*
X26323Y24298D01*
Y24648D01*
X26343Y24668D01*
X31976Y23951D02*
X32073Y24048D01*
X31373Y23951D02*
X31976D01*
X32073Y24048D02*
X32323Y24298D01*
Y24648D01*
X32343Y24668D01*
X25976Y29951D02*
X26073Y30048D01*
X25373Y29951D02*
X25976D01*
X26073Y30048D02*
X26323Y30298D01*
Y30648D01*
X26343Y30668D01*
X31976Y29951D02*
X32073Y30048D01*
X31373Y29951D02*
X31976D01*
X32073Y30048D02*
X32323Y30298D01*
Y30648D01*
X32343Y30668D01*
X25976Y35951D02*
X26073Y36048D01*
X25373Y35951D02*
X25976D01*
X26073Y36048D02*
X26323Y36298D01*
Y36648D01*
X26343Y36668D01*
X31976Y35951D02*
X32073Y36048D01*
X31373Y35951D02*
X31976D01*
X32073Y36048D02*
X32323Y36298D01*
Y36648D01*
X32343Y36668D01*
D24*
X15960Y19100D02*
Y19240D01*
Y19100D02*
X15980D01*
X22873Y25838D02*
X22893D01*
X22873D02*
Y25978D01*
X28873Y25838D02*
X28893D01*
X28873D02*
Y25978D01*
X22873Y31838D02*
X22893D01*
X22873D02*
Y31978D01*
X28873Y31838D02*
X28893D01*
X28873D02*
Y31978D01*
X22873Y37838D02*
X22893D01*
X22873D02*
Y37978D01*
X28873Y37838D02*
X28893D01*
X28873D02*
Y37978D01*
D25*
X17990Y16968D02*
Y17242D01*
X24903Y23706D02*
Y23980D01*
X30903Y23706D02*
Y23980D01*
X24903Y29706D02*
Y29980D01*
X30903Y29706D02*
Y29980D01*
X24903Y35706D02*
Y35980D01*
X30903Y35706D02*
Y35980D01*
D26*
X17930Y18080D02*
D03*
X17040Y16300D02*
D03*
X16750Y16290D02*
D03*
X15450Y16360D02*
D03*
X17520Y16330D02*
D03*
X17530Y16690D02*
D03*
X16350Y17740D02*
D03*
X16740Y17100D02*
D03*
X17650Y18020D02*
D03*
X18380Y18430D02*
D03*
X15670Y18220D02*
D03*
X17890Y16450D02*
D03*
X15440Y16680D02*
D03*
X17380Y18800D02*
D03*
X15380Y18010D02*
D03*
X15960Y19240D02*
D03*
X16174Y16286D02*
D03*
X16464Y16288D02*
D03*
X23377Y23026D02*
D03*
X23087Y23024D02*
D03*
X22873Y25978D02*
D03*
X22293Y24748D02*
D03*
X24293Y25538D02*
D03*
X22353Y23418D02*
D03*
X24803Y23188D02*
D03*
X22583Y24958D02*
D03*
X25293Y25168D02*
D03*
X24563Y24758D02*
D03*
X23653Y23838D02*
D03*
X23263Y24478D02*
D03*
X24443Y23428D02*
D03*
X24433Y23068D02*
D03*
X22363Y23098D02*
D03*
X23663Y23028D02*
D03*
X23953Y23038D02*
D03*
X24843Y24818D02*
D03*
X29377Y23026D02*
D03*
X29087Y23024D02*
D03*
X28873Y25978D02*
D03*
X28293Y24748D02*
D03*
X30293Y25538D02*
D03*
X28353Y23418D02*
D03*
X30803Y23188D02*
D03*
X28583Y24958D02*
D03*
X31293Y25168D02*
D03*
X30563Y24758D02*
D03*
X29653Y23838D02*
D03*
X29263Y24478D02*
D03*
X30443Y23428D02*
D03*
X30433Y23068D02*
D03*
X28363Y23098D02*
D03*
X29663Y23028D02*
D03*
X29953Y23038D02*
D03*
X30843Y24818D02*
D03*
X23377Y29026D02*
D03*
X23087Y29024D02*
D03*
X22873Y31978D02*
D03*
X22293Y30748D02*
D03*
X24293Y31538D02*
D03*
X22353Y29418D02*
D03*
X24803Y29188D02*
D03*
X22583Y30958D02*
D03*
X25293Y31168D02*
D03*
X24563Y30758D02*
D03*
X23653Y29838D02*
D03*
X23263Y30478D02*
D03*
X24443Y29428D02*
D03*
X24433Y29068D02*
D03*
X22363Y29098D02*
D03*
X23663Y29028D02*
D03*
X23953Y29038D02*
D03*
X24843Y30818D02*
D03*
X29377Y29026D02*
D03*
X29087Y29024D02*
D03*
X28873Y31978D02*
D03*
X28293Y30748D02*
D03*
X30293Y31538D02*
D03*
X28353Y29418D02*
D03*
X30803Y29188D02*
D03*
X28583Y30958D02*
D03*
X31293Y31168D02*
D03*
X30563Y30758D02*
D03*
X29653Y29838D02*
D03*
X29263Y30478D02*
D03*
X30443Y29428D02*
D03*
X30433Y29068D02*
D03*
X28363Y29098D02*
D03*
X29663Y29028D02*
D03*
X29953Y29038D02*
D03*
X30843Y30818D02*
D03*
X23377Y35026D02*
D03*
X23087Y35024D02*
D03*
X22873Y37978D02*
D03*
X22293Y36748D02*
D03*
X24293Y37538D02*
D03*
X22353Y35418D02*
D03*
X24803Y35188D02*
D03*
X22583Y36958D02*
D03*
X25293Y37168D02*
D03*
X24563Y36758D02*
D03*
X23653Y35838D02*
D03*
X23263Y36478D02*
D03*
X24443Y35428D02*
D03*
X24433Y35068D02*
D03*
X22363Y35098D02*
D03*
X23663Y35028D02*
D03*
X23953Y35038D02*
D03*
X24843Y36818D02*
D03*
X29377Y35026D02*
D03*
X29087Y35024D02*
D03*
X28873Y37978D02*
D03*
X28293Y36748D02*
D03*
X30293Y37538D02*
D03*
X28353Y35418D02*
D03*
X30803Y35188D02*
D03*
X28583Y36958D02*
D03*
X31293Y37168D02*
D03*
X30563Y36758D02*
D03*
X29653Y35838D02*
D03*
X29263Y36478D02*
D03*
X30443Y35428D02*
D03*
X30433Y35068D02*
D03*
X28363Y35098D02*
D03*
X29663Y35028D02*
D03*
X29953Y35038D02*
D03*
X30843Y36818D02*
D03*
M02*
