%FSLAX24Y24*%
%MOIN*%
G70*
G01*
G75*
G04 Layer_Physical_Order=2*
G04 Layer_Color=16711680*
%ADD10R,0.0197X0.0197*%
%ADD11R,0.0197X0.0197*%
%ADD12R,0.0118X0.0118*%
%ADD13R,0.0118X0.0118*%
%ADD14R,0.0413X0.0157*%
%ADD15R,0.0354X0.0315*%
%ADD16R,0.0630X0.0315*%
%ADD17R,0.0496X0.0197*%
%ADD18O,0.0098X0.0236*%
%ADD19C,0.0150*%
%ADD20C,0.0060*%
%ADD21C,0.0100*%
%ADD22C,0.0250*%
%ADD23C,0.0220*%
%ADD24R,0.0512X0.0335*%
%ADD25R,0.0060X0.0079*%
%ADD26R,0.0079X0.0060*%
G36*
X16698Y19562D02*
X16692Y19558D01*
X16655Y19502D01*
X16641Y19436D01*
X16655Y19369D01*
X16692Y19313D01*
X16741Y19281D01*
Y18902D01*
X16741D01*
Y18802D01*
X16741Y18802D01*
X16649D01*
X16649Y18802D01*
X16647Y18811D01*
Y18902D01*
X16587D01*
X16505Y18984D01*
Y19157D01*
X16570D01*
Y19474D01*
X16253D01*
Y19157D01*
X16321D01*
Y18946D01*
X16328Y18911D01*
X16348Y18881D01*
X16467Y18763D01*
Y18703D01*
X16603D01*
Y18560D01*
X16459D01*
Y18696D01*
X16369D01*
X16360Y18697D01*
X16233D01*
X16205Y18692D01*
X16187Y18706D01*
X16166Y18738D01*
Y18777D01*
X15849D01*
Y18460D01*
X15853D01*
Y18431D01*
X15853D01*
Y18364D01*
X15852D01*
X15816Y18357D01*
X15787Y18337D01*
X15755Y18305D01*
X15735Y18275D01*
X15728Y18240D01*
Y17291D01*
X15735Y17256D01*
X15755Y17226D01*
X15820Y17161D01*
X15850Y17141D01*
X15885Y17134D01*
X15979D01*
X16002Y17090D01*
X15980Y17056D01*
X15967Y16990D01*
X15980Y16924D01*
X16017Y16867D01*
X16074Y16830D01*
X16140Y16817D01*
X16206Y16830D01*
X16263Y16867D01*
X16309Y16872D01*
X16620Y16561D01*
X16650Y16541D01*
X16685Y16534D01*
X17156D01*
Y16290D01*
X15370D01*
Y19610D01*
X16684D01*
X16698Y19562D01*
D02*
G37*
G36*
X16459Y17964D02*
X16459D01*
X16465Y17959D01*
Y17858D01*
Y17776D01*
X16343Y17654D01*
X16477D01*
Y17571D01*
X16560D01*
Y17611D01*
X16622Y17673D01*
X16642Y17702D01*
X16649Y17738D01*
Y17758D01*
X16741D01*
Y17049D01*
X16693Y17040D01*
X16631Y16999D01*
X16590Y16938D01*
X16586Y16916D01*
X16538Y16902D01*
X16150Y17290D01*
X16120Y17310D01*
X16085Y17317D01*
X16105Y17337D01*
X16166D01*
Y17654D01*
X16103D01*
Y17720D01*
X16170D01*
Y17787D01*
X16184D01*
X16219Y17794D01*
X16249Y17814D01*
X16400Y17964D01*
X16459D01*
D01*
D02*
G37*
G36*
X20120Y16290D02*
X17221D01*
Y16534D01*
X17239D01*
X17274Y16541D01*
X17304Y16561D01*
X17495Y16752D01*
X17515Y16781D01*
X17522Y16817D01*
Y17070D01*
X17516Y17099D01*
X17515Y17105D01*
X17495Y17135D01*
X17220Y17410D01*
Y17766D01*
X17348D01*
X17383Y17773D01*
X17412Y17793D01*
X17528Y17908D01*
X17548Y17938D01*
X17549Y17944D01*
X17555Y17973D01*
Y18127D01*
Y18418D01*
X17548Y18453D01*
X17528Y18483D01*
X17478Y18533D01*
X17449Y18553D01*
X17413Y18560D01*
X17404D01*
Y18696D01*
X17314D01*
X17305Y18697D01*
X17220D01*
Y19211D01*
X17245Y19248D01*
X17258Y19314D01*
X17245Y19380D01*
X17220Y19418D01*
Y19505D01*
X17221Y19506D01*
X17220Y19509D01*
Y19510D01*
X17221Y19513D01*
Y19580D01*
X20120D01*
Y16290D01*
D02*
G37*
%LPC*%
G36*
X16327Y17421D02*
X16243D01*
Y17337D01*
X16327D01*
Y17421D01*
D02*
G37*
G36*
X16560D02*
X16477D01*
Y17337D01*
X16560D01*
Y17421D01*
D02*
G37*
G36*
X16176Y19474D02*
X16093D01*
Y19391D01*
X16176D01*
Y19474D01*
D02*
G37*
G36*
X15943D02*
X15859D01*
Y19391D01*
X15943D01*
Y19474D01*
D02*
G37*
G36*
X15933Y18937D02*
X15849D01*
Y18854D01*
X15933D01*
Y18937D01*
D02*
G37*
G36*
X16166D02*
X16083D01*
Y18854D01*
X16166D01*
Y18937D01*
D02*
G37*
G36*
X16327Y17654D02*
X16243D01*
Y17571D01*
X16327D01*
Y17654D01*
D02*
G37*
G36*
X15700Y19293D02*
X15634Y19280D01*
X15577Y19243D01*
X15540Y19186D01*
X15527Y19120D01*
X15540Y19054D01*
X15577Y18997D01*
X15634Y18960D01*
X15700Y18947D01*
X15766Y18960D01*
X15805Y18986D01*
X15849Y18962D01*
Y19038D01*
X15860Y19054D01*
X15867Y19087D01*
X16166D01*
Y19157D01*
X16176D01*
Y19241D01*
X15859D01*
Y19271D01*
X15815Y19247D01*
X15766Y19280D01*
X15700Y19293D01*
D02*
G37*
%LPD*%
D10*
X16412Y19316D02*
D03*
X16018D02*
D03*
X16402Y17496D02*
D03*
X16008D02*
D03*
D11*
Y18619D02*
D03*
Y19012D02*
D03*
X16011Y17879D02*
D03*
Y18272D02*
D03*
D19*
X16008Y19012D02*
Y19306D01*
X16018Y19316D01*
D20*
X16765Y16866D02*
X16832Y16933D01*
Y17858D01*
X16980Y16980D02*
X17090Y16870D01*
X16085Y17226D02*
X16685Y16626D01*
X16011Y18282D02*
X16165D01*
X17305Y18468D02*
X17413D01*
X17463Y18418D01*
Y18127D02*
Y18418D01*
X17398Y18192D02*
X17463Y18127D01*
Y17973D02*
Y18127D01*
X17348Y17858D02*
X17463Y17973D01*
X17108Y17858D02*
X17348D01*
X17430Y16817D02*
Y17070D01*
X17108Y17392D02*
X17430Y17070D01*
X17108Y17392D02*
Y17858D01*
X17239Y16626D02*
X17430Y16817D01*
X16695Y18330D02*
Y18468D01*
X16557Y17858D02*
Y18041D01*
Y17738D02*
Y17858D01*
X16695Y18468D02*
Y18802D01*
X16970Y17266D02*
Y17858D01*
X16557Y18041D02*
X16601Y18086D01*
X16360Y18468D02*
X16695D01*
X16601Y18086D02*
Y18192D01*
X16695D01*
X16360D02*
X16601D01*
X17305D02*
X17398D01*
X16413Y18946D02*
X16557Y18802D01*
X16213Y18330D02*
X16360D01*
X16165Y18282D02*
X16213Y18330D01*
X16233Y18606D02*
X16360D01*
X16175Y18547D02*
X16233Y18606D01*
X16695Y18330D02*
X16832D01*
X16695Y18192D02*
X16832Y18330D01*
X16918D01*
X16919D01*
X17193Y18054D02*
X17305D01*
X16918Y18330D02*
X17193Y18054D01*
X17195Y18606D02*
X17305D01*
X16919Y18330D02*
X17195Y18606D01*
X16184Y17879D02*
X16360Y18054D01*
X16011Y17879D02*
X16184D01*
X16011Y17586D02*
Y17879D01*
X16402Y17582D02*
X16557Y17738D01*
X16016Y18547D02*
X16175D01*
X15945Y18619D02*
X16016Y18547D01*
X16413Y18946D02*
Y19314D01*
X16412Y19316D02*
X16413Y19314D01*
X15852Y18272D02*
X16011D01*
X15819Y18240D02*
X15852Y18272D01*
X16402Y17496D02*
Y17582D01*
X16970Y18802D02*
Y19200D01*
X17085Y19314D01*
X16832Y18802D02*
Y19418D01*
X16815Y19436D02*
X16832Y19418D01*
X16970Y17266D02*
X16980Y17256D01*
Y16980D02*
Y17256D01*
X15885Y17226D02*
X16085D01*
X15819Y17291D02*
X15885Y17226D01*
X15819Y17291D02*
Y18240D01*
X16685Y16626D02*
X17239D01*
D22*
X17090Y16870D02*
D03*
X19040Y16682D02*
D03*
X17670Y17900D02*
D03*
X16477Y17206D02*
D03*
X16765Y16866D02*
D03*
D23*
X16140Y16990D02*
D03*
X15700Y19120D02*
D03*
X17085Y19314D02*
D03*
X16815Y19436D02*
D03*
D24*
X16832Y18330D02*
D03*
D25*
X17108Y18802D02*
D03*
X16970D02*
D03*
X16832D02*
D03*
X16695D02*
D03*
X16557D02*
D03*
Y17858D02*
D03*
X16695D02*
D03*
X16832D02*
D03*
X16970D02*
D03*
X17108D02*
D03*
D26*
X16360Y18606D02*
D03*
Y18468D02*
D03*
Y18330D02*
D03*
Y18192D02*
D03*
Y18054D02*
D03*
X17305D02*
D03*
Y18192D02*
D03*
Y18330D02*
D03*
Y18468D02*
D03*
Y18606D02*
D03*
M02*
