M48
;Layer_Color=9474304
;FILE_FORMAT=2:4
INCH,LZ
;TYPE=PLATED
T1F00S00C0.0100
T2F00S00C0.0118
T3F00S00C0.0120
T4F00S00C0.0290
T5F00S00C0.0814
%
T01
X016328Y017002
X01753Y01669
X01752Y01633
X01789Y01645
X01769Y01802
X01799Y01854
X01765Y01883
X01707Y01874
X01611Y01925
X01869Y01794
X01546Y01813
Y01835
T02
X01916Y01265
T03
X01623Y0163
X01648
X01675Y01629
X01704Y0163
X01545Y01636
X0155Y01682
T04
X01844Y01661
X01815Y01889
T05
X02202Y01715
M30
