%FSLAX24Y24*%
%MOIN*%
G70*
G01*
G75*
G04 Layer_Physical_Order=2*
G04 Layer_Color=32768*
%ADD10R,0.0197X0.0197*%
%ADD11O,0.0295X0.0118*%
%ADD12O,0.0118X0.0295*%
%ADD13R,0.1102X0.1102*%
%ADD14R,0.0945X0.0295*%
%ADD15R,0.0098X0.0217*%
%ADD16R,0.0118X0.0118*%
%ADD17R,0.0118X0.0118*%
%ADD18R,0.0472X0.0394*%
%ADD19R,0.0472X0.0394*%
%ADD20C,0.0220*%
%ADD21C,0.0100*%
%ADD22C,0.0060*%
%ADD23C,0.0200*%
%ADD24C,0.0080*%
%ADD25C,0.0120*%
%ADD26C,0.0090*%
%ADD27C,0.0320*%
G36*
X20440Y19940D02*
X20450Y19950D01*
Y15870D01*
X18570D01*
Y18460D01*
X17850Y19180D01*
Y19452D01*
X15820Y19470D01*
X14950Y18060D01*
Y21150D01*
X20440D01*
Y19940D01*
D02*
G37*
D23*
X14940Y15860D02*
X20470D01*
Y21180D01*
X14940D02*
X20470D01*
X14940Y15860D02*
Y21180D01*
D27*
X16464Y16288D02*
D03*
X16174Y16286D02*
D03*
X15440Y16680D02*
D03*
X15670Y18220D02*
D03*
X18380Y18430D02*
D03*
X17650Y18020D02*
D03*
X17530Y16690D02*
D03*
X17520Y16330D02*
D03*
X15450Y16360D02*
D03*
X16750Y16290D02*
D03*
X17040Y16300D02*
D03*
M02*
