%FSLAX24Y24*%
%MOIN*%
G70*
G01*
G75*
G04 Layer_Color=8388736*
%ADD10R,0.0197X0.0197*%
%ADD11O,0.0295X0.0118*%
%ADD12O,0.0118X0.0295*%
%ADD13R,0.1102X0.1102*%
%ADD14R,0.0945X0.0295*%
%ADD15R,0.0098X0.0217*%
%ADD16R,0.0118X0.0118*%
%ADD17R,0.0118X0.0118*%
%ADD18R,0.0472X0.0394*%
%ADD19R,0.0472X0.0394*%
%ADD20C,0.0220*%
D10*
X18460Y17213D02*
D03*
Y17607D02*
D03*
D11*
X17437Y16918D02*
D03*
X15863Y17902D02*
D03*
X17437D02*
D03*
Y17705D02*
D03*
Y17508D02*
D03*
Y17312D02*
D03*
Y17115D02*
D03*
X15863Y16918D02*
D03*
Y17115D02*
D03*
Y17312D02*
D03*
Y17508D02*
D03*
Y17705D02*
D03*
D12*
X16158Y18197D02*
D03*
X17142Y16623D02*
D03*
X16945D02*
D03*
X16748D02*
D03*
X16552D02*
D03*
X16355D02*
D03*
Y18197D02*
D03*
X16552D02*
D03*
X16748D02*
D03*
X16945D02*
D03*
X17142D02*
D03*
X16158Y16623D02*
D03*
D13*
X16650Y17410D02*
D03*
D14*
X19430Y19288D02*
D03*
Y17930D02*
D03*
D15*
X17796Y17245D02*
D03*
Y17580D02*
D03*
X17993Y17245D02*
D03*
X18190D02*
D03*
Y17580D02*
D03*
X17993D02*
D03*
D16*
X17500Y19168D02*
D03*
Y18932D02*
D03*
X15980Y19018D02*
D03*
Y18782D02*
D03*
X17590Y18688D02*
D03*
Y18452D02*
D03*
X17990Y16722D02*
D03*
Y16958D02*
D03*
X15700Y16332D02*
D03*
Y16568D02*
D03*
D17*
X18266Y17910D02*
D03*
X18030D02*
D03*
X15342Y17730D02*
D03*
X15578D02*
D03*
Y17510D02*
D03*
X15342D02*
D03*
Y17290D02*
D03*
X15578D02*
D03*
X17918Y18250D02*
D03*
X17682D02*
D03*
X15578Y17060D02*
D03*
X15342D02*
D03*
D18*
X16430Y19252D02*
D03*
X17099D02*
D03*
Y18740D02*
D03*
D19*
X16430D02*
D03*
D20*
X16464Y16288D02*
D03*
X16174Y16286D02*
D03*
X15960Y19240D02*
D03*
X15380Y18010D02*
D03*
X17380Y18800D02*
D03*
X15440Y16680D02*
D03*
X17890Y16450D02*
D03*
X15670Y18220D02*
D03*
X18380Y18430D02*
D03*
X17650Y18020D02*
D03*
X16740Y17100D02*
D03*
X16350Y17740D02*
D03*
X17530Y16690D02*
D03*
X17520Y16330D02*
D03*
X15450Y16360D02*
D03*
X16750Y16290D02*
D03*
X17040Y16300D02*
D03*
X17930Y18080D02*
D03*
M02*
