%FSLAX24Y24*%
%MOIN*%
G70*
G01*
G75*
G04 Layer_Physical_Order=1*
G04 Layer_Color=255*
%ADD10R,0.0197X0.0197*%
%ADD11O,0.0295X0.0118*%
%ADD12O,0.0118X0.0295*%
%ADD13R,0.1102X0.1102*%
%ADD14R,0.0945X0.0295*%
%ADD15R,0.0098X0.0217*%
%ADD16R,0.0118X0.0118*%
%ADD17R,0.0118X0.0118*%
%ADD18R,0.0472X0.0394*%
%ADD19R,0.0472X0.0394*%
%ADD20C,0.0060*%
%ADD21C,0.0100*%
%ADD22C,0.0080*%
%ADD23C,0.0200*%
%ADD24C,0.0090*%
%ADD25C,0.0853*%
%ADD26C,0.0400*%
%ADD27C,0.0200*%
%ADD28C,0.0220*%
D10*
X18390Y17223D02*
D03*
Y17617D02*
D03*
D11*
X17437Y16918D02*
D03*
X15863Y17902D02*
D03*
X17437D02*
D03*
Y17705D02*
D03*
Y17508D02*
D03*
Y17312D02*
D03*
Y17115D02*
D03*
X15863Y16918D02*
D03*
Y17115D02*
D03*
Y17312D02*
D03*
Y17508D02*
D03*
Y17705D02*
D03*
D12*
X16158Y18197D02*
D03*
X17142Y16623D02*
D03*
X16945D02*
D03*
X16748D02*
D03*
X16552D02*
D03*
X16355D02*
D03*
Y18197D02*
D03*
X16552D02*
D03*
X16748D02*
D03*
X16945D02*
D03*
X17142D02*
D03*
X16158Y16623D02*
D03*
D13*
X16650Y17410D02*
D03*
D14*
X19430Y19288D02*
D03*
Y17930D02*
D03*
D15*
X17706Y17245D02*
D03*
Y17580D02*
D03*
X17903Y17245D02*
D03*
X18100D02*
D03*
Y17580D02*
D03*
X17903D02*
D03*
D16*
X17500Y19168D02*
D03*
Y18932D02*
D03*
X15980Y19018D02*
D03*
Y18782D02*
D03*
X17590Y18688D02*
D03*
Y18452D02*
D03*
X17900Y16732D02*
D03*
Y16968D02*
D03*
X15700Y16332D02*
D03*
Y16568D02*
D03*
D17*
X18148Y17910D02*
D03*
X17912D02*
D03*
X15342Y17730D02*
D03*
X15578D02*
D03*
Y17510D02*
D03*
X15342D02*
D03*
Y17290D02*
D03*
X15578D02*
D03*
X17918Y18250D02*
D03*
X17682D02*
D03*
X15578Y17060D02*
D03*
X15342D02*
D03*
D18*
X16430Y19252D02*
D03*
X17099D02*
D03*
Y18740D02*
D03*
D19*
X16430D02*
D03*
D20*
X17590Y18452D02*
X17978D01*
X17602Y18830D02*
X17650D01*
X17537Y18445D02*
X17542Y18440D01*
X16879Y18445D02*
X17537D01*
X17530Y16690D02*
Y16825D01*
X17437Y16918D02*
X17530Y16825D01*
X17142Y18197D02*
X17682D01*
X17500Y18932D02*
X17602Y18830D01*
X15980Y19018D02*
Y19100D01*
X16388Y18782D02*
X16430Y18740D01*
X15980Y18782D02*
X16388D01*
X15500Y16840D02*
Y16982D01*
X15578Y17060D01*
X15580Y17508D02*
X15863D01*
X15578Y17510D02*
X15580Y17508D01*
X15600Y17312D02*
X15863D01*
X15578Y17290D02*
X15600Y17312D01*
X15633Y17115D02*
X15863D01*
X15578Y17060D02*
X15633Y17115D01*
X16748Y18314D02*
X16879Y18445D01*
X16748Y18197D02*
Y18314D01*
X16552Y18197D02*
Y18300D01*
X16687Y18435D01*
X16695D01*
X16773Y18974D02*
X17051Y19252D01*
X16695Y18435D02*
X16773Y18513D01*
Y18974D01*
X17051Y19252D02*
X17099D01*
X16355Y18665D02*
X16430Y18740D01*
X16355Y18197D02*
Y18665D01*
X16552Y16502D02*
Y16623D01*
X16480Y16430D02*
X16552Y16502D01*
X16480Y16300D02*
Y16430D01*
X16355Y16485D02*
Y16623D01*
X16230Y16360D02*
X16355Y16485D01*
X16132Y19252D02*
X16430D01*
X17099D02*
X17416D01*
X17500Y19168D01*
X17308Y18740D02*
X17500Y18932D01*
X17099Y18740D02*
X17308D01*
X17613Y17778D02*
X17780D01*
X17903Y17901D01*
X17912Y17910D01*
X17437Y17705D02*
X17540D01*
X17613Y17778D01*
X15980Y19100D02*
X16132Y19252D01*
D21*
X17590Y18758D02*
X17632Y18800D01*
X17590Y18688D02*
Y18758D01*
X17632Y18800D02*
X17650Y18818D01*
X17632Y18800D02*
X17647D01*
X17435Y16330D02*
X17520D01*
X17142Y16623D02*
X17435Y16330D01*
X15863Y16763D02*
Y16918D01*
X15700Y16600D02*
X15863Y16763D01*
X15700Y16568D02*
Y16600D01*
X16089Y16623D02*
X16158D01*
X15798Y16332D02*
X16089Y16623D01*
X15700Y16332D02*
X15798D01*
X15698Y16330D02*
X15700Y16332D01*
X15570Y16330D02*
X15698D01*
X15540Y16360D02*
X15570Y16330D01*
X15450Y16360D02*
X15540D01*
X15603Y17705D02*
X15863D01*
X15578Y17730D02*
X15603Y17705D01*
X18100Y17580D02*
X18353D01*
X18390Y17617D01*
X17890Y16450D02*
Y16692D01*
X17903Y17580D02*
Y17901D01*
X17912Y17910D02*
Y18032D01*
X17930Y18050D01*
Y18080D02*
Y18238D01*
X17918Y18250D02*
X17930Y18238D01*
D22*
X17437Y17115D02*
X17555D01*
X16945Y16395D02*
X17040Y16300D01*
X16945Y16395D02*
Y16623D01*
X16748Y16292D02*
X16750Y16290D01*
X16748Y16292D02*
Y16623D01*
X15863Y16918D02*
X16158D01*
X16945Y17705D02*
X17437D01*
X16945D02*
Y18197D01*
X15342Y17510D02*
Y17730D01*
Y17290D02*
Y17510D01*
Y17060D02*
Y17290D01*
Y17730D02*
Y17862D01*
X15400Y17920D01*
X15578Y17730D02*
X15600Y17752D01*
X15460Y18130D02*
X15473D01*
X15600Y17752D02*
Y18003D01*
X15473Y18130D02*
X15600Y18003D01*
X17437Y17508D02*
X17635D01*
X17706Y17580D01*
X17437Y17312D02*
X17640D01*
X17706Y17245D01*
X18100Y17580D02*
Y17780D01*
X18148Y17828D01*
Y17910D01*
X17555Y17115D02*
X17702Y16968D01*
X17900D01*
X16158Y16918D02*
X16650Y17410D01*
X16945Y17705D01*
X17437Y17902D02*
X17532D01*
X17650Y18020D01*
D23*
X19083Y17233D02*
X19410Y17560D01*
X18390Y17233D02*
X19083D01*
X19410Y17560D02*
Y17910D01*
X19430Y17930D01*
D24*
X17900Y16968D02*
Y17242D01*
D25*
X22020Y17150D02*
D03*
D26*
X18150Y18890D02*
D03*
X18440Y16610D02*
D03*
D27*
X17990Y18540D02*
D03*
X17650Y18830D02*
D03*
X18690Y17940D02*
D03*
X17530Y16690D02*
D03*
X17070Y18740D02*
D03*
X16328Y17002D02*
D03*
X15460Y18350D02*
D03*
X17520Y16330D02*
D03*
X15400Y17920D02*
D03*
X16420Y17620D02*
D03*
X16910Y17210D02*
D03*
X16940Y17610D02*
D03*
X16110Y19250D02*
D03*
X15460Y18130D02*
D03*
X17890Y16450D02*
D03*
X17930Y18080D02*
D03*
X17690Y18020D02*
D03*
D28*
X15450Y16360D02*
D03*
X15500Y16820D02*
D03*
X19160Y12650D02*
D03*
X16750Y16290D02*
D03*
X17040Y16300D02*
D03*
X16480D02*
D03*
X16230D02*
D03*
M02*
