%FSLAX24Y24*%
%MOIN*%
G70*
G01*
G75*
G04 Layer_Physical_Order=1*
G04 Layer_Color=255*
%ADD10R,0.0197X0.0197*%
%ADD11O,0.0295X0.0118*%
%ADD12O,0.0118X0.0295*%
%ADD13R,0.1102X0.1102*%
%ADD14R,0.0945X0.0295*%
%ADD15R,0.0098X0.0217*%
%ADD16R,0.0118X0.0118*%
%ADD17R,0.0118X0.0118*%
%ADD18R,0.0472X0.0394*%
%ADD19R,0.0472X0.0394*%
%ADD20C,0.0220*%
%ADD21C,0.0100*%
%ADD22C,0.0060*%
%ADD23C,0.0200*%
%ADD24C,0.0080*%
%ADD25C,0.0120*%
%ADD26C,0.0090*%
D10*
X18460Y17213D02*
D03*
Y17607D02*
D03*
D11*
X17437Y16918D02*
D03*
X15863Y17902D02*
D03*
X17437D02*
D03*
Y17705D02*
D03*
Y17508D02*
D03*
Y17312D02*
D03*
Y17115D02*
D03*
X15863Y16918D02*
D03*
Y17115D02*
D03*
Y17312D02*
D03*
Y17508D02*
D03*
Y17705D02*
D03*
D12*
X16158Y18197D02*
D03*
X17142Y16623D02*
D03*
X16945D02*
D03*
X16748D02*
D03*
X16552D02*
D03*
X16355D02*
D03*
Y18197D02*
D03*
X16552D02*
D03*
X16748D02*
D03*
X16945D02*
D03*
X17142D02*
D03*
X16158Y16623D02*
D03*
D13*
X16650Y17410D02*
D03*
D14*
X19430Y19288D02*
D03*
Y17930D02*
D03*
D15*
X17796Y17245D02*
D03*
Y17580D02*
D03*
X17993Y17245D02*
D03*
X18190D02*
D03*
Y17580D02*
D03*
X17993D02*
D03*
D16*
X17500Y19168D02*
D03*
Y18932D02*
D03*
X15980Y19018D02*
D03*
Y18782D02*
D03*
X17590Y18688D02*
D03*
Y18452D02*
D03*
X17990Y16722D02*
D03*
Y16958D02*
D03*
X15700Y16332D02*
D03*
Y16568D02*
D03*
D17*
X18266Y17910D02*
D03*
X18030D02*
D03*
X15342Y17730D02*
D03*
X15578D02*
D03*
Y17510D02*
D03*
X15342D02*
D03*
Y17290D02*
D03*
X15578D02*
D03*
X17918Y18250D02*
D03*
X17682D02*
D03*
X15578Y17060D02*
D03*
X15342D02*
D03*
D18*
X16430Y19252D02*
D03*
X17099D02*
D03*
Y18740D02*
D03*
D19*
X16430D02*
D03*
D20*
X16464Y16288D02*
D03*
X16174Y16286D02*
D03*
X15960Y19240D02*
D03*
X15380Y18010D02*
D03*
X17380Y18800D02*
D03*
X15440Y16680D02*
D03*
X17890Y16450D02*
D03*
X15670Y18220D02*
D03*
X18380Y18430D02*
D03*
X17650Y18020D02*
D03*
X16740Y17100D02*
D03*
X16350Y17740D02*
D03*
X17530Y16690D02*
D03*
X17520Y16330D02*
D03*
X15450Y16360D02*
D03*
X16750Y16290D02*
D03*
X17040Y16300D02*
D03*
X17930Y18080D02*
D03*
D21*
X15603Y17705D02*
X15863D01*
X15578Y17730D02*
X15603Y17705D01*
X17930Y18080D02*
X18030Y17980D01*
Y17910D02*
Y17980D01*
X17993Y17873D02*
X18021Y17901D01*
X17993Y17580D02*
Y17873D01*
X18210Y17580D02*
X18353D01*
X15600Y18160D02*
X15660Y18220D01*
X15600Y17752D02*
Y18160D01*
X15578Y17730D02*
X15600Y17752D01*
X17435Y16330D02*
X17520D01*
X17142Y16623D02*
X17435Y16330D01*
X15863Y16763D02*
Y16918D01*
X15700Y16600D02*
X15863Y16763D01*
X15700Y16568D02*
Y16600D01*
X16089Y16623D02*
X16158D01*
X15798Y16332D02*
X16089Y16623D01*
X15700Y16332D02*
X15798D01*
X15698Y16330D02*
X15700Y16332D01*
X15570Y16330D02*
X15698D01*
X15540Y16360D02*
X15570Y16330D01*
X15450Y16360D02*
X15540D01*
X18353Y17580D02*
X18390Y17617D01*
X17890Y16450D02*
Y16692D01*
X17930Y18080D02*
Y18238D01*
X17918Y18250D02*
X17930Y18238D01*
D22*
X16552Y16415D02*
Y16623D01*
X16464Y16327D02*
X16552Y16415D01*
X16464Y16288D02*
Y16327D01*
X16355Y16467D02*
Y16623D01*
X16174Y16286D02*
X16355Y16467D01*
X17308Y18740D02*
X17500Y18932D01*
X15980Y19100D02*
X16132Y19252D01*
X17903Y17901D02*
X18021D01*
X18030Y17910D01*
X17478Y18800D02*
X17590Y18688D01*
X17380Y18800D02*
X17478D01*
X15500Y16740D02*
Y16982D01*
X15440Y16680D02*
X15500Y16740D01*
X17460Y18197D02*
X17513Y18250D01*
X17682D01*
X17590Y18452D02*
X18358D01*
X18380Y18430D01*
X17537Y18445D02*
X17542Y18440D01*
X16879Y18445D02*
X17537D01*
X17530Y16690D02*
Y16825D01*
X17437Y16918D02*
X17530Y16825D01*
X17142Y18197D02*
X17460D01*
X15980Y19018D02*
Y19100D01*
X16388Y18782D02*
X16430Y18740D01*
X15980Y18782D02*
X16388D01*
X15500Y16982D02*
X15578Y17060D01*
X15580Y17508D02*
X15863D01*
X15578Y17510D02*
X15580Y17508D01*
X15600Y17312D02*
X15863D01*
X15578Y17290D02*
X15600Y17312D01*
X15633Y17115D02*
X15863D01*
X15578Y17060D02*
X15633Y17115D01*
X16748Y18314D02*
X16879Y18445D01*
X16748Y18197D02*
Y18314D01*
X16552Y18197D02*
Y18300D01*
X16687Y18435D01*
X16695D01*
X16773Y18974D02*
X17051Y19252D01*
X16695Y18435D02*
X16773Y18513D01*
Y18974D01*
X17051Y19252D02*
X17099D01*
X16355Y18665D02*
X16430Y18740D01*
X16355Y18197D02*
Y18665D01*
X16132Y19252D02*
X16430D01*
X17099D02*
X17416D01*
X17500Y19168D01*
X17099Y18740D02*
X17308D01*
X17613Y17778D02*
X17780D01*
X17903Y17901D01*
X17437Y17705D02*
X17540D01*
X17613Y17778D01*
D23*
X19063Y17213D02*
X19160Y17310D01*
X18460Y17213D02*
X19063D01*
X19160Y17310D02*
X19410Y17560D01*
Y17910D01*
X19430Y17930D01*
D24*
X17730Y17312D02*
X17796Y17245D01*
X17437Y17312D02*
X17730D01*
X17725Y17508D02*
X17796Y17580D01*
X17437Y17508D02*
X17725D01*
X18210Y17580D02*
Y17766D01*
X18266Y17822D02*
Y17910D01*
X18210Y17766D02*
X18266Y17822D01*
X17732Y16968D02*
X17990D01*
X17585Y17115D02*
X17732Y16968D01*
X17437Y17115D02*
X17585D01*
X15380Y17940D02*
Y18010D01*
Y17940D02*
X15400Y17920D01*
X15660Y18220D02*
X15670D01*
X16945Y16395D02*
X17040Y16300D01*
X16945Y16395D02*
Y16623D01*
X16748Y16292D02*
X16750Y16290D01*
X16748Y16292D02*
Y16623D01*
X15863Y16918D02*
X16158D01*
X16945Y17705D02*
X17437D01*
X16945D02*
Y18197D01*
X15342Y17510D02*
Y17730D01*
Y17290D02*
Y17510D01*
Y17060D02*
Y17290D01*
Y17730D02*
Y17862D01*
X15400Y17920D01*
X16158Y16918D02*
X16650Y17410D01*
X16945Y17705D01*
X17437Y17902D02*
X17532D01*
X17650Y18020D01*
D25*
X15960Y19100D02*
X15980D01*
X15960D02*
Y19240D01*
D26*
X17990Y16968D02*
Y17242D01*
M02*
