%FSLAX24Y24*%
%MOIN*%
G70*
G01*
G75*
G04 Layer_Color=8388736*
%ADD10R,0.0197X0.0197*%
%ADD11R,0.0197X0.0197*%
%ADD12R,0.0118X0.0118*%
%ADD13R,0.0118X0.0118*%
%ADD14R,0.0413X0.0157*%
%ADD15R,0.0354X0.0315*%
%ADD16R,0.0630X0.0315*%
%ADD17R,0.0496X0.0197*%
%ADD18O,0.0098X0.0236*%
%ADD19C,0.0150*%
%ADD20C,0.0060*%
%ADD21C,0.0100*%
%ADD22C,0.0250*%
%ADD23C,0.0220*%
%ADD24R,0.0512X0.0335*%
%ADD25R,0.0060X0.0079*%
%ADD26R,0.0079X0.0060*%
D10*
X19207Y17930D02*
D03*
X18813D02*
D03*
X18283D02*
D03*
X18677D02*
D03*
X13513Y17307D02*
D03*
X13907D02*
D03*
X27457Y19390D02*
D03*
X27063D02*
D03*
X16263Y18950D02*
D03*
X16657D02*
D03*
X16030Y18640D02*
D03*
X16423D02*
D03*
D11*
X19320Y17290D02*
D03*
Y17684D02*
D03*
X25360Y19387D02*
D03*
Y18993D02*
D03*
X23660Y19387D02*
D03*
Y18993D02*
D03*
X21950Y19387D02*
D03*
Y18993D02*
D03*
D12*
X18628Y19210D02*
D03*
X18392D02*
D03*
X18168Y18100D02*
D03*
X17932D02*
D03*
X17802Y19130D02*
D03*
X18038D02*
D03*
X17762Y16710D02*
D03*
X17998D02*
D03*
X18156Y17750D02*
D03*
X17920D02*
D03*
X18578Y16670D02*
D03*
X18342D02*
D03*
D13*
X18820Y18382D02*
D03*
Y18618D02*
D03*
X18780Y17232D02*
D03*
Y17468D02*
D03*
D14*
X18414Y18344D02*
D03*
Y18600D02*
D03*
Y18856D02*
D03*
X17666D02*
D03*
Y18600D02*
D03*
Y18344D02*
D03*
X18394Y16974D02*
D03*
Y17230D02*
D03*
Y17486D02*
D03*
X17646D02*
D03*
Y17230D02*
D03*
Y16974D02*
D03*
D15*
X16850Y18256D02*
D03*
Y17704D02*
D03*
D16*
X19790Y19445D02*
D03*
Y18106D02*
D03*
D17*
X16172Y17925D02*
D03*
D18*
X15975Y17630D02*
D03*
X16172D02*
D03*
X16369D02*
D03*
X15975Y18221D02*
D03*
X16172D02*
D03*
X16369D02*
D03*
D22*
X17090Y16870D02*
D03*
X19040Y16682D02*
D03*
X17670Y17900D02*
D03*
X16477Y17206D02*
D03*
X16765Y16866D02*
D03*
D23*
X16140Y16990D02*
D03*
X15700Y19120D02*
D03*
X17085Y19314D02*
D03*
X16815Y19436D02*
D03*
M02*
