%FSLAX24Y24*%
%MOIN*%
G70*
G01*
G75*
G04 Layer_Physical_Order=1*
G04 Layer_Color=255*
%ADD10R,0.0197X0.0197*%
%ADD11R,0.0197X0.0197*%
%ADD12R,0.0118X0.0118*%
%ADD13R,0.0118X0.0118*%
%ADD14R,0.0413X0.0157*%
%ADD15R,0.0354X0.0315*%
%ADD16R,0.0630X0.0315*%
%ADD17R,0.0496X0.0197*%
%ADD18O,0.0098X0.0236*%
%ADD19C,0.0150*%
%ADD20C,0.0060*%
%ADD21C,0.0100*%
%ADD22C,0.0250*%
%ADD23C,0.0220*%
G36*
X16679Y19578D02*
X16691Y19556D01*
X16655Y19502D01*
X16641Y19436D01*
X16655Y19369D01*
X16692Y19313D01*
X16748Y19275D01*
X16815Y19262D01*
X16881Y19275D01*
X16923Y19258D01*
X16925Y19248D01*
X16956Y19200D01*
Y18482D01*
X16939D01*
X16895Y18473D01*
X16925D01*
Y18255D01*
X16850D01*
Y18181D01*
X16618D01*
X16615Y18195D01*
X16613Y18198D01*
Y18272D01*
X16567Y18253D01*
X16534Y18285D01*
X16505Y18305D01*
X16476Y18311D01*
X16472Y18332D01*
X16448Y18368D01*
X16411Y18392D01*
X16369Y18401D01*
X16326Y18392D01*
X16317Y18386D01*
X16285Y18425D01*
X16300Y18439D01*
X16320Y18469D01*
X16322Y18482D01*
X16348D01*
Y18640D01*
Y18771D01*
X16352Y18792D01*
X16422D01*
Y18798D01*
X16422D01*
Y19108D01*
X16235D01*
X15908Y19435D01*
X15878Y19455D01*
X15843Y19462D01*
X15570D01*
X15535Y19455D01*
X15505Y19435D01*
X15425Y19355D01*
X15405Y19325D01*
X15398Y19290D01*
Y18900D01*
X15398Y18900D01*
X15398D01*
X15405Y18865D01*
X15425Y18835D01*
X15598Y18662D01*
Y17320D01*
X15598Y17320D01*
X15598D01*
X15605Y17285D01*
X15625Y17255D01*
X15955Y16925D01*
X15985Y16905D01*
X15991Y16904D01*
X15993Y16904D01*
X16017Y16867D01*
X16074Y16830D01*
X16140Y16817D01*
X16206Y16830D01*
X16263Y16867D01*
X16300Y16924D01*
X16313Y16990D01*
X16300Y17056D01*
X16263Y17113D01*
X16206Y17150D01*
X16140Y17163D01*
X16074Y17150D01*
X16023Y17116D01*
X15782Y17358D01*
Y18693D01*
X15815Y18707D01*
X15830Y18710D01*
X15871Y18669D01*
Y18482D01*
X15883D01*
Y18349D01*
X15872Y18332D01*
X15864Y18289D01*
Y18152D01*
X15872Y18109D01*
X15875Y18105D01*
X15864Y18084D01*
X15864D01*
X15864Y18084D01*
Y18000D01*
X16172D01*
Y17850D01*
X15864D01*
Y17767D01*
X15864Y17767D01*
X15864D01*
X15875Y17746D01*
X15872Y17742D01*
X15864Y17699D01*
Y17634D01*
X15863Y17630D01*
Y17425D01*
X15863Y17425D01*
X15871Y17382D01*
X15896Y17346D01*
X15961Y17280D01*
X15961Y17280D01*
X15998Y17256D01*
X15998Y17256D01*
X15998Y17256D01*
D01*
X15998Y17256D01*
X15998Y17256D01*
X16040Y17247D01*
X16041Y17247D01*
X16289D01*
X16290Y17247D01*
X16332Y17256D01*
X16369Y17280D01*
X16448Y17360D01*
X16448Y17360D01*
X16472Y17396D01*
X16481Y17439D01*
Y17453D01*
X16520Y17484D01*
X16530Y17482D01*
X16766D01*
X16789Y17487D01*
X16956D01*
Y17017D01*
X16937Y17003D01*
X16934Y16999D01*
X16898D01*
X16837Y17040D01*
X16765Y17054D01*
X16693Y17040D01*
X16631Y16999D01*
X16590Y16938D01*
X16576Y16866D01*
X16590Y16793D01*
X16631Y16732D01*
X16693Y16691D01*
X16765Y16677D01*
X16837Y16691D01*
X16898Y16732D01*
X16901Y16737D01*
X16937D01*
X16956Y16723D01*
Y16260D01*
X15240D01*
Y19600D01*
X16664D01*
X16679Y19578D01*
D02*
G37*
G36*
X17399Y18205D02*
X17813D01*
Y17981D01*
X18093D01*
Y18100D01*
X18243D01*
Y18005D01*
X18283D01*
Y17855D01*
X18231D01*
Y17750D01*
X18081D01*
Y17869D01*
X17947D01*
X17922Y17874D01*
X17897Y17869D01*
X17801D01*
Y17799D01*
X17626Y17624D01*
X17393D01*
X17216Y17802D01*
X17171Y17832D01*
X17119Y17842D01*
X17087D01*
Y17922D01*
X17070D01*
Y18038D01*
X17087D01*
Y18206D01*
X17399D01*
Y18205D01*
D02*
G37*
G36*
X19080Y18331D02*
Y18088D01*
X19048D01*
Y17772D01*
X19080D01*
Y17525D01*
X20130D01*
Y16280D01*
X17070D01*
Y16665D01*
X17090Y16681D01*
X17162Y16696D01*
X17223Y16737D01*
X17228Y16743D01*
X17277Y16753D01*
X17286Y16746D01*
X17307Y16742D01*
X17673Y16376D01*
X17703Y16356D01*
X17738Y16349D01*
X18240D01*
X18275Y16356D01*
X18304Y16376D01*
X18407Y16478D01*
X18427Y16508D01*
X18434Y16543D01*
Y16551D01*
X18697D01*
Y16630D01*
X19028Y16962D01*
X19028Y16962D01*
X19053Y16998D01*
X19061Y17041D01*
Y17337D01*
X19053Y17379D01*
X19028Y17416D01*
X19028Y17416D01*
X18939Y17505D01*
X18942Y17518D01*
X18942Y17518D01*
Y17772D01*
X18972D01*
Y18088D01*
X18942D01*
Y18260D01*
X18947Y18263D01*
X19034Y18350D01*
X19080Y18331D01*
D02*
G37*
G36*
X18628Y19452D02*
X18705Y19375D01*
X18686Y19329D01*
X18465D01*
X18457Y19341D01*
X18393Y19405D01*
X18363Y19425D01*
X18328Y19432D01*
X18281D01*
X18249Y19464D01*
X18219Y19484D01*
X18184Y19491D01*
X17892D01*
X17863Y19485D01*
X17857Y19484D01*
X17827Y19464D01*
X17795Y19432D01*
X17709D01*
X17674Y19425D01*
X17644Y19405D01*
X17327Y19088D01*
X17306Y19084D01*
X17270Y19060D01*
X17246Y19023D01*
X17237Y18980D01*
Y18667D01*
X17237Y18667D01*
X17246Y18624D01*
X17270Y18588D01*
X17309Y18549D01*
X17304Y18499D01*
X17279Y18482D01*
X17070D01*
Y19129D01*
X17085Y19141D01*
X17151Y19154D01*
X17207Y19192D01*
X17245Y19248D01*
X17258Y19314D01*
X17245Y19380D01*
X17207Y19437D01*
X17151Y19474D01*
X17085Y19487D01*
X17070Y19500D01*
Y19590D01*
X18628D01*
Y19452D01*
D02*
G37*
%LPC*%
G36*
X19478Y17449D02*
X19395D01*
Y17365D01*
X19478D01*
Y17449D01*
D02*
G37*
G36*
X16815Y19108D02*
X16732D01*
Y19025D01*
X16815D01*
Y19108D01*
D02*
G37*
G36*
X19245Y17449D02*
X19162D01*
Y17365D01*
X19245D01*
Y17449D01*
D02*
G37*
G36*
Y17215D02*
X19162D01*
Y17132D01*
X19245D01*
Y17215D01*
D02*
G37*
G36*
X19478D02*
X19395D01*
Y17132D01*
X19478D01*
Y17215D01*
D02*
G37*
G36*
X16582Y18565D02*
X16498D01*
Y18482D01*
X16582D01*
Y18565D01*
D02*
G37*
G36*
X16582Y18875D02*
X16498D01*
Y18798D01*
X16498D01*
Y18715D01*
X16582D01*
Y18792D01*
X16582D01*
Y18875D01*
D02*
G37*
G36*
X16815D02*
X16732D01*
Y18792D01*
X16815D01*
Y18875D01*
D02*
G37*
G36*
X18125Y17876D02*
X18115Y17874D01*
X18108Y17869D01*
X18125D01*
Y17876D01*
D02*
G37*
G36*
X16582Y19108D02*
X16498D01*
Y19025D01*
X16582D01*
Y19108D01*
D02*
G37*
G36*
X16775Y18473D02*
X16613D01*
Y18331D01*
X16775D01*
Y18473D01*
D02*
G37*
%LPD*%
D10*
X19207Y17930D02*
D03*
X18813D02*
D03*
X18283D02*
D03*
X18677D02*
D03*
X13513Y17307D02*
D03*
X13907D02*
D03*
X27457Y19390D02*
D03*
X27063D02*
D03*
X16263Y18950D02*
D03*
X16657D02*
D03*
X16030Y18640D02*
D03*
X16423D02*
D03*
D11*
X19320Y17290D02*
D03*
Y17684D02*
D03*
X25360Y19387D02*
D03*
Y18993D02*
D03*
X23660Y19387D02*
D03*
Y18993D02*
D03*
X21950Y19387D02*
D03*
Y18993D02*
D03*
D12*
X18628Y19210D02*
D03*
X18392D02*
D03*
X18168Y18100D02*
D03*
X17932D02*
D03*
X17802Y19130D02*
D03*
X18038D02*
D03*
X17762Y16710D02*
D03*
X17998D02*
D03*
X18156Y17750D02*
D03*
X17920D02*
D03*
X18578Y16670D02*
D03*
X18342D02*
D03*
D13*
X18820Y18382D02*
D03*
Y18618D02*
D03*
X18780Y17232D02*
D03*
Y17468D02*
D03*
D14*
X18414Y18344D02*
D03*
Y18600D02*
D03*
Y18856D02*
D03*
X17666D02*
D03*
Y18600D02*
D03*
Y18344D02*
D03*
X18394Y16974D02*
D03*
Y17230D02*
D03*
Y17486D02*
D03*
X17646D02*
D03*
Y17230D02*
D03*
Y16974D02*
D03*
D15*
X16850Y18256D02*
D03*
Y17704D02*
D03*
D16*
X19790Y19445D02*
D03*
Y18106D02*
D03*
D17*
X16172Y17925D02*
D03*
D18*
X15975Y17630D02*
D03*
X16172D02*
D03*
X16369D02*
D03*
X15975Y18221D02*
D03*
X16172D02*
D03*
X16369D02*
D03*
D19*
X19207Y17930D02*
X19320Y17817D01*
X19566Y18106D02*
X19790D01*
X19400Y17941D02*
X19566Y18106D01*
X19218Y17941D02*
X19400D01*
X19207Y17930D02*
X19218Y17941D01*
X19320Y17684D02*
Y17817D01*
X16530Y17620D02*
X16766D01*
X16850Y17704D01*
X16939Y18344D02*
X17666D01*
X16850Y18256D02*
X16939Y18344D01*
X16850Y17704D02*
X17119D01*
X17338Y17486D01*
X17646D01*
D20*
X16530Y17620D02*
Y18160D01*
X16469Y18221D02*
X16530Y18160D01*
X16369Y18221D02*
X16469D01*
X16020Y16990D02*
X16140D01*
X15690Y17320D02*
X16020Y16990D01*
X15690Y17320D02*
Y18700D01*
X15490Y18900D02*
X15690Y18700D01*
X15490Y18900D02*
Y19290D01*
X15570Y19370D01*
X15843D01*
X16263Y18950D01*
X15700Y19120D02*
X15883Y18937D01*
Y18786D02*
Y18937D01*
Y18786D02*
X16030Y18640D01*
X16172Y18221D02*
Y18441D01*
X16235Y18504D01*
X16263Y18804D02*
Y18950D01*
X16235Y18776D02*
X16263Y18804D01*
X16235Y18504D02*
Y18776D01*
X15975Y18221D02*
Y18585D01*
X16030Y18640D01*
X18210Y19060D02*
X18414Y18856D01*
X18392Y19210D02*
Y19276D01*
X18628Y19202D02*
Y19210D01*
X16761Y18167D02*
X16850Y18256D01*
X17349Y18980D02*
X17709Y19340D01*
X18328D02*
X18392Y19276D01*
X17802Y19167D02*
X17854Y19220D01*
X18210Y19060D02*
Y19220D01*
X17854D02*
X17889D01*
Y19226D01*
X17942Y19279D01*
X18134D01*
X18187Y19226D01*
Y19220D02*
Y19226D01*
Y19220D02*
X18210D01*
X17709Y19340D02*
X17833D01*
X17892Y19399D01*
X18184D01*
X18243Y19340D01*
X18328D01*
X17762Y16673D02*
X17842Y16593D01*
X17870D01*
X18173Y16775D02*
X18372Y16974D01*
X18173Y16639D02*
Y16775D01*
X18342Y16543D02*
Y16670D01*
X17902Y16561D02*
X18094D01*
X17870Y16593D02*
X17902Y16561D01*
X18094D02*
X18173Y16639D01*
X17738Y16441D02*
X18240D01*
X17329Y16850D02*
X17738Y16441D01*
X18240D02*
X18342Y16543D01*
D21*
X17646Y17486D02*
X17922Y17762D01*
X16369Y17439D02*
Y17630D01*
X16290Y17360D02*
X16369Y17439D01*
X16040Y17360D02*
X16290D01*
X15975Y17425D02*
X16040Y17360D01*
X15975Y17425D02*
Y17630D01*
X16172D02*
Y17925D01*
X16369Y17630D02*
X16379Y17620D01*
X16530D01*
X18780Y17468D02*
X18830Y17518D01*
X17998Y16710D02*
Y17275D01*
X17762Y16710D02*
Y16858D01*
X17646Y16974D02*
X17762Y16858D01*
X18372Y16974D02*
X18394D01*
X18396Y17232D02*
X18780D01*
X18394Y17230D02*
X18396Y17232D01*
X18817Y17468D02*
X18949Y17337D01*
X18578Y16670D02*
X18949Y17041D01*
Y17337D01*
X18780Y17468D02*
X18817D01*
X17998Y17275D02*
X18209Y17486D01*
X18158Y17552D02*
Y17770D01*
X18168Y18100D02*
Y18278D01*
X18158Y17552D02*
X18224Y17486D01*
X18209D02*
X18224D01*
X18394D01*
X17930Y18102D02*
X17932Y18100D01*
X17930Y18102D02*
Y18270D01*
X17856Y18344D02*
X17930Y18270D01*
X17666Y18344D02*
X17856D01*
X18050Y18470D02*
X18176Y18344D01*
X18050Y18470D02*
Y19110D01*
X18168Y18278D02*
X18234Y18344D01*
X18176D02*
X18234D01*
X18414D01*
X17802Y18992D02*
Y19130D01*
X17666Y18856D02*
X17802Y18992D01*
X17349Y18667D02*
Y18980D01*
Y18667D02*
X17416Y18600D01*
X17666D01*
X18830Y18342D02*
X18867D01*
X18999Y18473D01*
X18628Y19202D02*
X18999Y18831D01*
Y18473D02*
Y18831D01*
X18414Y18600D02*
X18802D01*
X18820Y18618D01*
X18830Y17518D02*
Y18342D01*
X17802Y19130D02*
Y19167D01*
X17762Y16673D02*
Y16710D01*
X17400Y17230D02*
X17646D01*
X17329Y17159D02*
X17400Y17230D01*
X17329Y16850D02*
Y17159D01*
D22*
X17090Y16870D02*
D03*
X19040Y16682D02*
D03*
X17670Y17900D02*
D03*
X16477Y17206D02*
D03*
X16765Y16866D02*
D03*
D23*
X16140Y16990D02*
D03*
X15700Y19120D02*
D03*
X17085Y19314D02*
D03*
X16815Y19436D02*
D03*
M02*
