%FSLAX24Y24*%
%MOIN*%
G70*
G01*
G75*
G04 Layer_Physical_Order=4*
G04 Layer_Color=16711680*
%ADD10R,0.0197X0.0197*%
%ADD11O,0.0295X0.0118*%
%ADD12O,0.0118X0.0295*%
%ADD13R,0.1102X0.1102*%
%ADD14R,0.0945X0.0295*%
%ADD15R,0.0098X0.0217*%
%ADD16R,0.0118X0.0118*%
%ADD17R,0.0118X0.0118*%
%ADD18R,0.0472X0.0394*%
%ADD19R,0.0472X0.0394*%
%ADD20C,0.0220*%
%ADD21C,0.0100*%
%ADD22C,0.0060*%
%ADD23C,0.0200*%
%ADD24C,0.0080*%
%ADD25C,0.0120*%
%ADD26C,0.0090*%
%ADD27C,0.0320*%
%ADD28R,0.0520X0.1100*%
%ADD29R,0.0390X0.1100*%
%ADD30R,0.0354X0.0315*%
%ADD31R,0.0197X0.0197*%
G04:AMPARAMS|DCode=32|XSize=7.9mil|YSize=23.6mil|CornerRadius=0mil|HoleSize=0mil|Usage=FLASHONLY|Rotation=180.000|XOffset=0mil|YOffset=0mil|HoleType=Round|Shape=Octagon|*
%AMOCTAGOND32*
4,1,8,0.0020,-0.0118,-0.0020,-0.0118,-0.0039,-0.0098,-0.0039,0.0098,-0.0020,0.0118,0.0020,0.0118,0.0039,0.0098,0.0039,-0.0098,0.0020,-0.0118,0.0*
%
%ADD32OCTAGOND32*%

%ADD33O,0.0079X0.0276*%
G04:AMPARAMS|DCode=34|XSize=7.9mil|YSize=23.6mil|CornerRadius=0mil|HoleSize=0mil|Usage=FLASHONLY|Rotation=270.000|XOffset=0mil|YOffset=0mil|HoleType=Round|Shape=Octagon|*
%AMOCTAGOND34*
4,1,8,0.0118,0.0020,0.0118,-0.0020,0.0098,-0.0039,-0.0098,-0.0039,-0.0118,-0.0020,-0.0118,0.0020,-0.0098,0.0039,0.0098,0.0039,0.0118,0.0020,0.0*
%
%ADD34OCTAGOND34*%

G04:AMPARAMS|DCode=35|XSize=7.9mil|YSize=27.6mil|CornerRadius=2mil|HoleSize=0mil|Usage=FLASHONLY|Rotation=270.000|XOffset=0mil|YOffset=0mil|HoleType=Round|Shape=RoundedRectangle|*
%AMROUNDEDRECTD35*
21,1,0.0079,0.0236,0,0,270.0*
21,1,0.0039,0.0276,0,0,270.0*
1,1,0.0039,-0.0118,-0.0020*
1,1,0.0039,-0.0118,0.0020*
1,1,0.0039,0.0118,0.0020*
1,1,0.0039,0.0118,-0.0020*
%
%ADD35ROUNDEDRECTD35*%
%ADD36O,0.0276X0.0079*%
%ADD37C,0.0140*%
D10*
X17440Y16973D02*
D03*
Y17367D02*
D03*
D20*
X16464Y16288D02*
D03*
X16174Y16286D02*
D03*
X15960Y19240D02*
D03*
X15380Y18010D02*
D03*
X17380Y18800D02*
D03*
X15440Y16680D02*
D03*
X17890Y16450D02*
D03*
X15670Y18220D02*
D03*
X18380Y18430D02*
D03*
X17650Y18020D02*
D03*
X16740Y17100D02*
D03*
X16350Y17740D02*
D03*
X17530Y16690D02*
D03*
X17520Y16330D02*
D03*
X15450Y16360D02*
D03*
X16750Y16290D02*
D03*
X17040Y16300D02*
D03*
X17930Y18080D02*
D03*
D21*
X15670Y18220D02*
Y18465D01*
X15635D02*
X15670D01*
X15400Y17846D02*
Y17990D01*
X15380Y18010D02*
X15400Y17990D01*
X15951Y17101D02*
Y17298D01*
Y17301D01*
X15400Y17846D02*
X15948Y17298D01*
X15952Y16830D02*
X16070Y16712D01*
X15951Y16830D02*
X15952D01*
X15951D02*
Y17101D01*
X17887Y18037D02*
X17930Y18080D01*
X17887Y17660D02*
Y18037D01*
X17493Y17863D02*
X17650Y18020D01*
X17493Y17660D02*
Y17863D01*
X16687Y17960D02*
X16727Y17920D01*
X17408Y17633D02*
X17460D01*
X17361Y17680D02*
X17408Y17633D01*
X16293Y17960D02*
X16350Y17903D01*
Y17740D02*
Y17903D01*
X17228Y17680D02*
X17361D01*
X17218Y17690D02*
X17228Y17680D01*
X16924Y17614D02*
X17000Y17690D01*
X16727Y17650D02*
Y17920D01*
X17000Y17690D02*
X17218D01*
D22*
X17493Y17633D02*
X17498D01*
X16010Y17580D02*
X16100Y17490D01*
X16530D01*
X15951Y17101D02*
X16338D01*
X15960Y16904D02*
X16338D01*
X16070Y16712D02*
X16530D01*
X17116Y16734D02*
X17520Y16330D01*
X17116Y16734D02*
Y16904D01*
X15951Y17298D02*
X16338D01*
X15948D02*
X15951D01*
X16924Y17490D02*
Y17614D01*
X17332Y17101D02*
X17460Y16973D01*
X17006Y16904D02*
X17116D01*
Y17298D02*
X17460D01*
X17116Y17101D02*
X17332D01*
X16530Y16712D02*
X16727D01*
D24*
X16740Y17076D02*
Y17100D01*
Y17076D02*
X16866Y16950D01*
Y16860D02*
Y16950D01*
Y16860D02*
X16924Y16802D01*
Y16712D02*
Y16802D01*
X16727Y17490D02*
Y17650D01*
D25*
X15650Y19046D02*
X15960Y19240D01*
X16025D01*
X16405Y18637D02*
X16667Y18900D01*
X16398Y18637D02*
X16405D01*
X16010Y18250D02*
X16398Y18637D01*
X16010Y17580D02*
Y18250D01*
D28*
X16667Y18900D02*
D03*
X17852D02*
D03*
D29*
X17260D02*
D03*
D30*
X15650Y18494D02*
D03*
Y19046D02*
D03*
D31*
X16293Y17960D02*
D03*
X16687D02*
D03*
X17493Y17660D02*
D03*
X17887D02*
D03*
D32*
X16530Y17490D02*
D03*
X16924D02*
D03*
Y16712D02*
D03*
X16530D02*
D03*
D33*
X16727Y17490D02*
D03*
Y16712D02*
D03*
D34*
X17116Y17298D02*
D03*
Y16904D02*
D03*
X16338D02*
D03*
Y17298D02*
D03*
D35*
X17116Y17101D02*
D03*
D36*
X16338D02*
D03*
D37*
X17249Y17960D02*
X17852Y18564D01*
X16687Y17960D02*
X17249D01*
X17852Y18564D02*
Y18900D01*
M02*
