%FSLAX25Y25*%
%MOIN*%
G70*
G01*
G75*
G04 Layer_Physical_Order=1*
G04 Layer_Color=255*
%ADD10R,0.03150X0.02362*%
%ADD11R,0.11024X0.11024*%
%ADD12O,0.02953X0.01181*%
%ADD13O,0.01181X0.02953*%
%ADD14R,0.02362X0.01969*%
%ADD15R,0.02500X0.02000*%
%ADD16R,0.02000X0.02500*%
%ADD17R,0.00984X0.02165*%
G04:AMPARAMS|DCode=18|XSize=7.87mil|YSize=23.62mil|CornerRadius=0mil|HoleSize=0mil|Usage=FLASHONLY|Rotation=180.000|XOffset=0mil|YOffset=0mil|HoleType=Round|Shape=Octagon|*
%AMOCTAGOND18*
4,1,8,0.00197,-0.01181,-0.00197,-0.01181,-0.00394,-0.00984,-0.00394,0.00984,-0.00197,0.01181,0.00197,0.01181,0.00394,0.00984,0.00394,-0.00984,0.00197,-0.01181,0.0*
%
%ADD18OCTAGOND18*%

%ADD19O,0.00787X0.02756*%
G04:AMPARAMS|DCode=20|XSize=7.87mil|YSize=23.62mil|CornerRadius=0mil|HoleSize=0mil|Usage=FLASHONLY|Rotation=90.000|XOffset=0mil|YOffset=0mil|HoleType=Round|Shape=Octagon|*
%AMOCTAGOND20*
4,1,8,-0.01181,-0.00197,-0.01181,0.00197,-0.00984,0.00394,0.00984,0.00394,0.01181,0.00197,0.01181,-0.00197,0.00984,-0.00394,-0.00984,-0.00394,-0.01181,-0.00197,0.0*
%
%ADD20OCTAGOND20*%

G04:AMPARAMS|DCode=21|XSize=7.87mil|YSize=27.56mil|CornerRadius=1.97mil|HoleSize=0mil|Usage=FLASHONLY|Rotation=90.000|XOffset=0mil|YOffset=0mil|HoleType=Round|Shape=RoundedRectangle|*
%AMROUNDEDRECTD21*
21,1,0.00787,0.02362,0,0,90.0*
21,1,0.00394,0.02756,0,0,90.0*
1,1,0.00394,0.01181,0.00197*
1,1,0.00394,0.01181,-0.00197*
1,1,0.00394,-0.01181,-0.00197*
1,1,0.00394,-0.01181,0.00197*
%
%ADD21ROUNDEDRECTD21*%
%ADD22O,0.02756X0.00787*%
%ADD23R,0.04724X0.03937*%
%ADD24R,0.04724X0.03937*%
%ADD25R,0.09449X0.02953*%
%ADD26C,0.01000*%
%ADD27C,0.00600*%
%ADD28C,0.00800*%
%ADD29C,0.01200*%
%ADD30C,0.00900*%
%ADD31C,0.02000*%
%ADD32C,0.01500*%
%ADD33C,0.08268*%
%ADD34C,0.02200*%
%ADD35C,0.05600*%
%ADD36C,0.02500*%
G36*
X583871Y156300D02*
Y154500D01*
X583871Y154500D01*
X583871D01*
Y152800D01*
X583987Y152215D01*
X584319Y151719D01*
X584815Y151387D01*
X584969Y151356D01*
X585363Y150963D01*
X585793Y150675D01*
X586300Y150575D01*
X588639D01*
X588806Y150325D01*
Y150316D01*
X588825Y150297D01*
X588917Y150159D01*
X588739Y149729D01*
X585371D01*
X584786Y149613D01*
X584289Y149281D01*
X581327Y146319D01*
X581117Y146278D01*
X580939Y146159D01*
X578375D01*
Y146395D01*
X578200D01*
X577979Y146844D01*
X578783Y147891D01*
X579320Y149189D01*
X579503Y150581D01*
X579320Y151973D01*
X578783Y153271D01*
X577928Y154385D01*
X576814Y155240D01*
X575609Y155739D01*
Y157842D01*
X583871D01*
Y156300D01*
D02*
G37*
G36*
X616900Y221000D02*
X616900Y221000D01*
X616900Y221000D01*
X617000Y220900D01*
Y214700D01*
X617200D01*
X624200Y207700D01*
Y195500D01*
X627054Y192646D01*
X626862Y192184D01*
X623600D01*
Y196596D01*
X623600Y196596D01*
D01*
D01*
X623600Y196850D01*
Y196857D01*
Y196900D01*
X623600Y196950D01*
X623600Y197204D01*
X623600Y197204D01*
X623600D01*
Y198400D01*
X619200D01*
Y197204D01*
X619200Y197204D01*
X619200D01*
X619200Y196950D01*
Y196850D01*
D01*
D01*
X619200D01*
Y192483D01*
X619200D01*
Y191950D01*
X619208D01*
Y190199D01*
X618655D01*
Y192483D01*
X615793D01*
X615476Y192869D01*
X615586Y193421D01*
X615494Y193879D01*
X617981Y196366D01*
X618313Y196862D01*
X618429Y197447D01*
Y209800D01*
X618313Y210385D01*
X617981Y210881D01*
X616581Y212281D01*
X616085Y212613D01*
X615500Y212729D01*
X611236D01*
X611178Y213019D01*
X610714Y213714D01*
X610019Y214178D01*
X609200Y214341D01*
X608381Y214178D01*
X607686Y213714D01*
X607222Y213019D01*
X607059Y212200D01*
X607222Y211381D01*
X607686Y210686D01*
X607772Y210629D01*
X607627Y210150D01*
X607600D01*
Y207663D01*
X606738Y206801D01*
X606260Y206946D01*
X606180Y207348D01*
X605892Y207779D01*
X605365Y208306D01*
X605255Y208379D01*
Y212787D01*
X602825D01*
Y213300D01*
X603950D01*
Y217700D01*
X599304D01*
X599304Y217700D01*
Y217700D01*
X599050Y217700D01*
X599000D01*
X598950D01*
X598696Y217700D01*
X598696Y217700D01*
Y217700D01*
X597500D01*
Y215499D01*
Y213300D01*
X598950D01*
Y213300D01*
X599050D01*
X599304Y213300D01*
X599304Y213300D01*
Y213300D01*
X600175D01*
Y212787D01*
X596000D01*
Y209617D01*
X594000D01*
Y212787D01*
X591438D01*
Y211950D01*
X591438D01*
X591200D01*
X591084Y211950D01*
X591084Y211950D01*
Y211950D01*
X590000D01*
Y209499D01*
X589001D01*
Y208500D01*
X586800D01*
Y207304D01*
X586800Y207304D01*
X586800D01*
X586800Y207050D01*
Y206950D01*
D01*
D01*
X586800D01*
Y202050D01*
X591200D01*
D01*
X591200D01*
X591438Y201812D01*
Y201331D01*
X596294D01*
X598813Y198812D01*
X598788Y198551D01*
X598392Y197959D01*
X598253Y197260D01*
Y195488D01*
Y195488D01*
X598290Y195214D01*
X598012Y195247D01*
X598012Y195247D01*
Y195247D01*
X596240D01*
X595541Y195108D01*
X594949Y194712D01*
X594554Y194120D01*
X594415Y193421D01*
X594425Y193369D01*
X594108Y192982D01*
X593450D01*
Y193700D01*
X592529D01*
Y195000D01*
X592413Y195585D01*
X592081Y196081D01*
X591136Y197027D01*
X590978Y197819D01*
X590514Y198514D01*
X589819Y198978D01*
X589000Y199141D01*
X588181Y198978D01*
X587486Y198514D01*
X587022Y197819D01*
X586859Y197000D01*
X587022Y196181D01*
X587486Y195486D01*
X588181Y195022D01*
X588973Y194864D01*
X589471Y194367D01*
Y193700D01*
X588550D01*
D01*
D01*
X588550Y193700D01*
X588450D01*
Y193700D01*
X587000D01*
Y191499D01*
X586001D01*
Y190500D01*
X583550D01*
Y189300D01*
Y188800D01*
X586001D01*
Y186800D01*
X583550D01*
Y185600D01*
Y185500D01*
X586001D01*
Y183500D01*
X583550D01*
Y182300D01*
Y182000D01*
X586001D01*
Y181001D01*
X587000D01*
Y178800D01*
X587813D01*
X588049Y178359D01*
X587822Y178019D01*
X587659Y177200D01*
X587822Y176381D01*
X588286Y175686D01*
X588981Y175222D01*
X589800Y175059D01*
X590619Y175222D01*
X591314Y175686D01*
X591778Y176381D01*
X591941Y177200D01*
X591778Y178019D01*
X591704Y178130D01*
X591937Y178363D01*
X592225Y178793D01*
X592226Y178800D01*
X593450D01*
Y181368D01*
X594439Y182356D01*
X594936Y182307D01*
X594949Y182288D01*
X595541Y181892D01*
X596126Y181776D01*
Y183580D01*
X598126D01*
Y181776D01*
X598015Y181754D01*
X598286Y181790D01*
X598253Y181512D01*
X598253Y181512D01*
X598253D01*
Y179740D01*
X598392Y179042D01*
X598471Y178924D01*
Y177450D01*
X597600D01*
Y175929D01*
X596800D01*
X596215Y175813D01*
X595719Y175481D01*
X595336Y175099D01*
X594919Y175378D01*
X594100Y175541D01*
X593281Y175378D01*
X592586Y174914D01*
X592122Y174219D01*
X591959Y173400D01*
X592122Y172581D01*
X592586Y171886D01*
X593281Y171422D01*
X594100Y171259D01*
X594919Y171422D01*
X595591Y171871D01*
X595800D01*
X596385Y171987D01*
X596881Y172319D01*
X597113Y172550D01*
X597199D01*
X597600Y172384D01*
Y171000D01*
X602000D01*
Y172196D01*
X602000Y172196D01*
D01*
D01*
X602000Y172450D01*
Y172457D01*
Y172500D01*
X602000Y172550D01*
X602000Y172803D01*
X602462Y173064D01*
X602462Y173064D01*
X606703Y168822D01*
X606659Y168600D01*
X606822Y167781D01*
X607286Y167086D01*
X607981Y166622D01*
X608800Y166459D01*
X609619Y166622D01*
X610314Y167086D01*
X610778Y167781D01*
X610941Y168600D01*
X610778Y169419D01*
X610314Y170114D01*
X610214Y170181D01*
Y170286D01*
X610446Y170633D01*
X610944Y170682D01*
X618468Y163157D01*
X618468Y163157D01*
X618468D01*
X618468Y163157D01*
X618468D01*
X618468Y163157D01*
Y163157D01*
Y163157D01*
D01*
D01*
X618468D01*
Y163157D01*
X618898Y162870D01*
X619406Y162769D01*
X629402D01*
X629591Y162486D01*
X630286Y162022D01*
X631105Y161859D01*
X631925Y162022D01*
X632619Y162486D01*
X633083Y163181D01*
X633246Y164000D01*
X633142Y164527D01*
X633619Y164622D01*
X634314Y165086D01*
X634778Y165781D01*
X634941Y166600D01*
X634864Y166988D01*
X634976Y167125D01*
X635476Y167150D01*
X637075Y165551D01*
Y155649D01*
X635051Y153626D01*
X604849D01*
X599781Y158694D01*
X599351Y158981D01*
X598844Y159082D01*
X598109D01*
X597840Y159350D01*
X595931D01*
Y159350D01*
X594672D01*
X594336Y159014D01*
Y159675D01*
X593994D01*
Y160660D01*
X593870Y161282D01*
X593694Y161545D01*
Y162057D01*
X593694D01*
Y162531D01*
X593593Y163039D01*
X593306Y163469D01*
X592876Y163756D01*
X592369Y163857D01*
X590400D01*
X589893Y163756D01*
X589835Y163717D01*
X589417D01*
X588832Y163601D01*
X588336Y163269D01*
X587166Y162100D01*
X585393Y161482D01*
X585109Y161425D01*
X584818Y161368D01*
X583681Y160900D01*
X577776D01*
X577744Y161383D01*
D01*
X577743Y161399D01*
X578492Y161498D01*
X579416Y161881D01*
X580210Y162490D01*
X580819Y163284D01*
X581202Y164208D01*
X581213Y164290D01*
X581463Y164394D01*
X581701Y164457D01*
X582290Y163690D01*
X583084Y163081D01*
X584008Y162698D01*
X585000Y162567D01*
X585992Y162698D01*
X586916Y163081D01*
X587710Y163690D01*
X588319Y164484D01*
X588702Y165408D01*
X588833Y166400D01*
X588702Y167392D01*
X588319Y168316D01*
X587710Y169110D01*
X586916Y169719D01*
X585992Y170102D01*
X585000Y170233D01*
X584008Y170102D01*
X583084Y169719D01*
X582290Y169110D01*
X581681Y168316D01*
X581298Y167392D01*
X581287Y167310D01*
X581037Y167206D01*
X580799Y167143D01*
X580210Y167910D01*
X579416Y168519D01*
X578492Y168902D01*
X577500Y169033D01*
X576508Y168902D01*
X575584Y168519D01*
X574790Y167910D01*
X574181Y167116D01*
X573798Y166192D01*
X573667Y165200D01*
X573798Y164208D01*
X574181Y163284D01*
X574790Y162490D01*
X575584Y161881D01*
X576508Y161498D01*
X577257Y161399D01*
X577230Y160984D01*
X577146Y160900D01*
X574805D01*
X574220Y160784D01*
X573724Y160452D01*
X573053Y159781D01*
X570059D01*
Y155019D01*
X570367D01*
X570528Y154545D01*
X570320Y154385D01*
X569464Y153271D01*
X568927Y151973D01*
X568744Y150581D01*
X568927Y149189D01*
X569464Y147891D01*
X570320Y146777D01*
X571434Y145922D01*
X572731Y145385D01*
X572825Y145372D01*
Y141633D01*
X578375D01*
Y143100D01*
X580750D01*
Y139500D01*
X585650D01*
Y139500D01*
X585650D01*
X585650Y139500D01*
X585750D01*
Y139500D01*
X587200D01*
Y141701D01*
X588199D01*
Y142700D01*
X590650D01*
Y142800D01*
X589100D01*
Y145001D01*
X591100D01*
Y142800D01*
X592550D01*
Y142800D01*
X592550D01*
X592550Y142800D01*
X592650D01*
Y142800D01*
X593199D01*
X593435Y142359D01*
X593181Y141978D01*
X593006Y141100D01*
X593181Y140222D01*
X593678Y139478D01*
X594422Y138980D01*
X595300Y138806D01*
X596178Y138980D01*
X596612Y139271D01*
X598750D01*
Y138600D01*
X603650D01*
X603650Y138600D01*
Y138600D01*
X603650D01*
X603750D01*
X604004Y138600D01*
X604004Y138600D01*
Y138600D01*
X605200D01*
Y140799D01*
Y143000D01*
X604004D01*
X604004Y143000D01*
Y143000D01*
X603750Y143000D01*
X603700D01*
X603650D01*
X603396Y143000D01*
X603396Y143000D01*
Y143000D01*
X602900D01*
Y147850D01*
D01*
Y147850D01*
X602900Y147850D01*
Y147950D01*
X602900D01*
Y151172D01*
X603362Y151364D01*
X603363Y151363D01*
X603793Y151075D01*
X604300Y150975D01*
X635600D01*
X636107Y151075D01*
X636537Y151363D01*
X636537Y151363D01*
X636537Y151363D01*
X639337Y154163D01*
X639625Y154593D01*
X639725Y155100D01*
Y166100D01*
X639725Y166100D01*
X639625Y166607D01*
X639337Y167037D01*
X636737Y169637D01*
X636307Y169925D01*
X635800Y170026D01*
X627142D01*
X626950Y170487D01*
X627627Y171164D01*
X628419Y171322D01*
X629114Y171786D01*
X629578Y172481D01*
X629741Y173300D01*
X629578Y174119D01*
X629114Y174814D01*
X628419Y175278D01*
X627600Y175441D01*
X626781Y175278D01*
X626086Y174814D01*
X625622Y174119D01*
X625464Y173327D01*
X624667Y172529D01*
X619134D01*
X617575Y174088D01*
X617766Y174550D01*
X618000D01*
Y177001D01*
X618999D01*
Y178000D01*
X621200D01*
Y179450D01*
D01*
Y179450D01*
X621200Y179450D01*
Y179550D01*
X621200D01*
Y184450D01*
D01*
Y184450D01*
X621321Y184571D01*
X622592D01*
Y187917D01*
Y188569D01*
X623150D01*
Y187816D01*
X627200D01*
Y178700D01*
X630867Y175033D01*
X644724D01*
Y136800D01*
X564858D01*
X564668Y137262D01*
X565376Y137963D01*
Y221100D01*
X616859D01*
X616900Y221000D01*
D02*
G37*
%LPC*%
G36*
X631100Y142757D02*
Y141900D01*
X631957D01*
X631614Y142414D01*
X631100Y142757D01*
D02*
G37*
G36*
X627500Y159757D02*
X626986Y159414D01*
X626643Y158900D01*
X627500D01*
Y159757D01*
D02*
G37*
G36*
X630358Y156900D02*
X629500D01*
Y156043D01*
X630014Y156386D01*
X630358Y156900D01*
D02*
G37*
G36*
X627500D02*
X626643D01*
X626986Y156386D01*
X627500Y156043D01*
Y156900D01*
D02*
G37*
G36*
X631957Y139900D02*
X631100D01*
Y139042D01*
X631614Y139386D01*
X631957Y139900D01*
D02*
G37*
G36*
X629100D02*
X628242D01*
X628586Y139386D01*
X629100Y139042D01*
Y139900D01*
D02*
G37*
G36*
X608650Y139800D02*
X607200D01*
Y138600D01*
X608650D01*
Y139800D01*
D02*
G37*
G36*
X629100Y142757D02*
X628586Y142414D01*
X628242Y141900D01*
X629100D01*
Y142757D01*
D02*
G37*
G36*
X608650Y143000D02*
X607200D01*
Y141800D01*
X608650D01*
Y143000D01*
D02*
G37*
G36*
X590650Y140700D02*
X589200D01*
Y139500D01*
X590650D01*
Y140700D01*
D02*
G37*
G36*
X629500Y159757D02*
Y158900D01*
X630358D01*
X630014Y159414D01*
X629500Y159757D01*
D02*
G37*
G36*
X623600Y201850D02*
X622400D01*
Y200400D01*
X623600D01*
Y201850D01*
D02*
G37*
G36*
X620400D02*
X619200D01*
Y200400D01*
X620400D01*
Y201850D01*
D02*
G37*
G36*
X588000Y211950D02*
X586800D01*
Y210500D01*
X588000D01*
Y211950D01*
D02*
G37*
G36*
X595500Y217700D02*
X594050D01*
Y216500D01*
X595500D01*
Y217700D01*
D02*
G37*
G36*
Y214500D02*
X594050D01*
Y213300D01*
X595500D01*
Y214500D01*
D02*
G37*
G36*
X585000Y193700D02*
X583550D01*
Y192500D01*
X585000D01*
Y193700D01*
D02*
G37*
G36*
X598800Y169000D02*
X597600D01*
Y167550D01*
X598800D01*
Y169000D01*
D02*
G37*
G36*
X595337Y161854D02*
Y160676D01*
X595931D01*
Y161260D01*
X595337Y161854D01*
D02*
G37*
G36*
X602000Y169000D02*
X600800D01*
Y167550D01*
X602000D01*
Y169000D01*
D02*
G37*
G36*
X585000Y180000D02*
X583550D01*
Y178800D01*
X585000D01*
Y180000D01*
D02*
G37*
G36*
X621200Y176000D02*
X620000D01*
Y174550D01*
X621200D01*
Y176000D01*
D02*
G37*
%LPD*%
D10*
X572834Y157400D02*
D03*
X575600Y144014D02*
D03*
D11*
X605000Y188500D02*
D03*
D12*
X597126Y191453D02*
D03*
Y189484D02*
D03*
Y187516D02*
D03*
Y185547D02*
D03*
Y183579D02*
D03*
X612874Y185547D02*
D03*
Y187516D02*
D03*
Y189484D02*
D03*
Y191453D02*
D03*
Y193421D02*
D03*
X597126D02*
D03*
X612874Y183579D02*
D03*
D13*
X600079Y180626D02*
D03*
X609921Y196374D02*
D03*
X607953D02*
D03*
X605984D02*
D03*
X604016D02*
D03*
X602047D02*
D03*
Y180626D02*
D03*
X604016D02*
D03*
X605984D02*
D03*
X607953D02*
D03*
X609921D02*
D03*
X600079Y196374D02*
D03*
D14*
X625531Y190000D02*
D03*
X629468D02*
D03*
D15*
X595100Y145000D02*
D03*
X590100D02*
D03*
X591000Y181000D02*
D03*
X586000D02*
D03*
Y184500D02*
D03*
X591000D02*
D03*
Y187800D02*
D03*
X586000D02*
D03*
Y191500D02*
D03*
X591000D02*
D03*
X601500Y215500D02*
D03*
X596500D02*
D03*
X601200Y140800D02*
D03*
X606200D02*
D03*
X583200Y141700D02*
D03*
X588200D02*
D03*
D16*
X600700Y150400D02*
D03*
Y145400D02*
D03*
X613800Y207500D02*
D03*
Y202500D02*
D03*
X619000Y177000D02*
D03*
Y182000D02*
D03*
X621400Y194400D02*
D03*
Y199400D02*
D03*
X609800Y202700D02*
D03*
Y207700D02*
D03*
X589000Y209500D02*
D03*
Y204500D02*
D03*
X599800Y175000D02*
D03*
Y170000D02*
D03*
X706000Y130400D02*
D03*
Y125400D02*
D03*
D17*
X620900Y190200D02*
D03*
X618931D02*
D03*
X616963D02*
D03*
X620900Y186854D02*
D03*
X618931D02*
D03*
X616963D02*
D03*
D18*
X590400Y151900D02*
D03*
X594337D02*
D03*
Y159676D02*
D03*
X590400D02*
D03*
D19*
X592369Y151900D02*
D03*
Y159676D02*
D03*
D20*
X596256Y153819D02*
D03*
Y157756D02*
D03*
X588481D02*
D03*
Y153819D02*
D03*
D21*
X596256Y155788D02*
D03*
D22*
X588481D02*
D03*
D23*
X595000Y209618D02*
D03*
X601693D02*
D03*
Y204500D02*
D03*
D24*
X595000D02*
D03*
D25*
X639472Y199800D02*
D03*
Y213383D02*
D03*
D26*
X585400Y159865D02*
X588000Y160771D01*
X583983Y159371D02*
X585400Y159865D01*
Y159954D01*
Y158500D02*
Y159865D01*
X572834Y157400D02*
X574805Y159371D01*
X591047Y191453D02*
X597126D01*
X591000Y191500D02*
X591047Y191453D01*
X589000Y197000D02*
X591000Y195000D01*
Y191500D02*
Y195000D01*
X600000Y180547D02*
X600079Y180626D01*
X596800Y174400D02*
X599400D01*
X594100Y173400D02*
X595800D01*
X596800Y174400D01*
X585400Y156300D02*
Y158500D01*
Y154500D02*
Y156300D01*
Y152800D02*
Y154500D01*
X594337Y148263D02*
X595300Y147300D01*
X605984Y196374D02*
Y200070D01*
X607000Y201086D01*
Y204900D01*
X609800Y207700D01*
X609200Y212200D02*
X609800Y211600D01*
X610900Y211200D02*
X615500D01*
X616900Y209800D01*
Y197447D02*
Y209800D01*
X612874Y193421D02*
X616900Y197447D01*
X609800Y207700D02*
Y210100D01*
Y211600D01*
Y210100D02*
X610900Y211200D01*
X609921Y196374D02*
X613800Y200253D01*
Y202500D01*
X612874Y183579D02*
X613800Y182653D01*
Y175700D02*
Y182653D01*
Y175700D02*
X618500Y171000D01*
X618931Y182069D02*
Y186854D01*
X583983Y159371D02*
X585400Y159954D01*
X618500Y171000D02*
X625300D01*
X627600Y173300D01*
X574805Y159371D02*
X583983D01*
X589417Y162188D02*
X590400D01*
X588000Y160771D02*
X589417Y162188D01*
X591400Y148200D02*
X592369Y149169D01*
X581800Y144629D02*
X585371Y148200D01*
X591400D01*
X576700Y144629D02*
X581800D01*
X595600Y140800D02*
X601200D01*
X595300Y141100D02*
X595600Y140800D01*
X595300Y141100D02*
Y147300D01*
X599400Y174400D02*
X600000Y175000D01*
Y180547D01*
D27*
X609921Y177079D02*
X618300Y168700D01*
X589000Y209500D02*
X594882D01*
X595000Y209618D01*
Y210500D01*
X596500Y212000D01*
Y215500D01*
X601500Y209811D02*
Y215500D01*
X603942Y207368D02*
X604428D01*
X604955Y206841D01*
Y201631D02*
Y206841D01*
X604016Y200692D02*
X604955Y201631D01*
X604016Y196374D02*
Y200692D01*
X601500Y209811D02*
X601693Y209618D01*
X589000Y204500D02*
X595000D01*
X600000Y199500D01*
X601500D01*
X602047Y198953D01*
Y196374D02*
Y198953D01*
X600603Y204500D02*
X601693D01*
X595000Y209618D02*
X595485D01*
X600603Y204500D01*
X600079Y183579D02*
X605000Y188500D01*
X591000Y184500D02*
X591550D01*
X594550Y187500D01*
X595500D01*
X595516Y187516D01*
X597126D01*
X595755Y185547D02*
X597126D01*
X591208Y181000D02*
X595755Y185547D01*
X591000Y181000D02*
X591208D01*
X616547Y189484D02*
X617063Y190000D01*
X605984Y177516D02*
Y180626D01*
Y177516D02*
X619406Y164094D01*
X628800D01*
X604016Y176484D02*
Y180626D01*
X590200Y180200D02*
X591000Y181000D01*
X602047Y175353D02*
Y180626D01*
X604016Y176484D02*
X608700Y171800D01*
X602047Y175353D02*
X608800Y168600D01*
X591000Y179300D02*
Y181000D01*
X596256Y157756D02*
X598844D01*
X586144D02*
X588481D01*
X585400Y158500D02*
X586144Y157756D01*
X585912Y155788D02*
X588481D01*
X585400Y156300D02*
X585912Y155788D01*
X586081Y153819D02*
X588481D01*
X585400Y154500D02*
X586081Y153819D01*
X586300Y151900D02*
X590400D01*
X585400Y152800D02*
X586300Y151900D01*
X596256Y155788D02*
X598812D01*
X600700Y153900D01*
Y150400D02*
Y153900D01*
X598200Y147900D02*
X600700Y145400D01*
X598200Y147900D02*
Y153400D01*
X597781Y153819D02*
X598200Y153400D01*
X596256Y153819D02*
X597781D01*
X601693Y209618D02*
X603942Y207368D01*
X607953Y177247D02*
Y180626D01*
Y177247D02*
X618400Y166800D01*
X632800D01*
X609921Y177079D02*
Y180626D01*
X635800Y168700D02*
X638400Y166100D01*
X618300Y168700D02*
X635800D01*
X591000Y187800D02*
X592100D01*
X593784Y189484D01*
X597126D01*
X589200Y177200D02*
X589800Y177800D01*
Y178100D01*
X591000Y179300D01*
X592369Y159676D02*
Y162531D01*
X590400D02*
X592369D01*
X590400Y159676D02*
Y162188D01*
Y162531D01*
X628800Y164094D02*
X631011D01*
X631105Y164000D01*
X598844Y157756D02*
X604300Y152300D01*
X635600D01*
X638400Y155100D02*
Y166100D01*
X635600Y152300D02*
X638400Y155100D01*
D28*
X597126Y183579D02*
X600079D01*
X607953Y191453D02*
Y196374D01*
Y191453D02*
X612874D01*
Y189484D02*
X616547D01*
X612874Y187516D02*
X616201D01*
X617063Y186653D01*
X612874Y185547D02*
X615280D01*
X612874Y191453D02*
X614453D01*
X615600Y192600D01*
X618000D01*
X618931Y191668D01*
Y190200D02*
Y191668D01*
X620900Y193900D02*
X621400Y194400D01*
X618000Y196000D02*
X621400Y199400D01*
X618000Y192600D02*
Y196000D01*
X586000Y181000D02*
Y184500D01*
Y187800D01*
Y191500D01*
X592369Y149169D02*
Y151900D01*
X607953Y196374D02*
Y198353D01*
X609800Y200200D01*
Y202700D01*
X615280Y185547D02*
X616057Y184771D01*
X616229D01*
X620900Y190200D02*
Y193900D01*
X616229Y184771D02*
X618931Y182069D01*
X609800Y202700D02*
Y203500D01*
X613800Y207500D01*
D29*
X620900Y190200D02*
X625331D01*
X625531Y190000D01*
D30*
X594337Y148263D02*
Y151900D01*
D31*
X629468Y190000D02*
X636700D01*
X639472Y192772D01*
Y199800D01*
D32*
X583200Y141700D02*
Y143229D01*
X581800Y144629D02*
X583200Y143229D01*
D33*
X574124Y150581D02*
D03*
D34*
X594100Y173400D02*
D03*
X589000Y197000D02*
D03*
X608800Y168600D02*
D03*
X608700Y171800D02*
D03*
X609200Y212200D02*
D03*
X589800Y177200D02*
D03*
X632800Y166600D02*
D03*
X627600Y173300D02*
D03*
X631105Y164000D02*
D03*
X630100Y140900D02*
D03*
X628500Y157900D02*
D03*
D35*
X577500Y165200D02*
D03*
X585000Y166400D02*
D03*
D36*
X595300Y141100D02*
D03*
M02*
