%FSLAX25Y25*%
%MOIN*%
G70*
G01*
G75*
G04 Layer_Physical_Order=1*
G04 Layer_Color=255*
%ADD10R,0.02874X0.04961*%
%ADD11R,0.07205X0.11260*%
%ADD12R,0.02500X0.02000*%
%ADD13R,0.02000X0.02500*%
%ADD14R,0.09449X0.02953*%
%ADD15R,0.04724X0.03937*%
%ADD16R,0.04724X0.03937*%
G04:AMPARAMS|DCode=17|XSize=7.87mil|YSize=23.62mil|CornerRadius=0mil|HoleSize=0mil|Usage=FLASHONLY|Rotation=90.000|XOffset=0mil|YOffset=0mil|HoleType=Round|Shape=Octagon|*
%AMOCTAGOND17*
4,1,8,-0.01181,-0.00197,-0.01181,0.00197,-0.00984,0.00394,0.00984,0.00394,0.01181,0.00197,0.01181,-0.00197,0.00984,-0.00394,-0.00984,-0.00394,-0.01181,-0.00197,0.0*
%
%ADD17OCTAGOND17*%

%ADD18O,0.02756X0.00787*%
G04:AMPARAMS|DCode=19|XSize=7.87mil|YSize=23.62mil|CornerRadius=0mil|HoleSize=0mil|Usage=FLASHONLY|Rotation=180.000|XOffset=0mil|YOffset=0mil|HoleType=Round|Shape=Octagon|*
%AMOCTAGOND19*
4,1,8,0.00197,-0.01181,-0.00197,-0.01181,-0.00394,-0.00984,-0.00394,0.00984,-0.00197,0.01181,0.00197,0.01181,0.00394,0.00984,0.00394,-0.00984,0.00197,-0.01181,0.0*
%
%ADD19OCTAGOND19*%

%ADD20O,0.00787X0.02756*%
G04:AMPARAMS|DCode=21|XSize=7.87mil|YSize=27.56mil|CornerRadius=1.97mil|HoleSize=0mil|Usage=FLASHONLY|Rotation=90.000|XOffset=0mil|YOffset=0mil|HoleType=Round|Shape=RoundedRectangle|*
%AMROUNDEDRECTD21*
21,1,0.00787,0.02362,0,0,90.0*
21,1,0.00394,0.02756,0,0,90.0*
1,1,0.00394,0.01181,0.00197*
1,1,0.00394,0.01181,-0.00197*
1,1,0.00394,-0.01181,-0.00197*
1,1,0.00394,-0.01181,0.00197*
%
%ADD21ROUNDEDRECTD21*%
%ADD22R,0.00984X0.02165*%
%ADD23R,0.02362X0.01969*%
%ADD24O,0.02953X0.01181*%
%ADD25O,0.01181X0.02953*%
%ADD26R,0.11024X0.11024*%
%ADD27C,0.01000*%
%ADD28C,0.00600*%
%ADD29C,0.01500*%
%ADD30C,0.02000*%
%ADD31C,0.00800*%
%ADD32C,0.00900*%
%ADD33C,0.01200*%
%ADD34C,0.02200*%
%ADD35C,0.02500*%
%ADD36C,0.05600*%
G36*
X616900Y221000D02*
X616900Y221000D01*
X616900Y221000D01*
X617000Y220900D01*
Y214700D01*
X617200D01*
X624200Y207700D01*
Y201850D01*
X623600D01*
Y201850D01*
X621900D01*
Y199399D01*
X620900D01*
Y201850D01*
X619200D01*
Y201850D01*
X618995D01*
X618429Y202416D01*
Y209800D01*
X618313Y210385D01*
X617981Y210881D01*
X616581Y212281D01*
X616085Y212613D01*
X615500Y212729D01*
X611236D01*
X611178Y213019D01*
X610714Y213714D01*
X610019Y214178D01*
X609200Y214341D01*
X608381Y214178D01*
X607686Y213714D01*
X607222Y213019D01*
X607059Y212200D01*
X607222Y211381D01*
X607686Y210686D01*
X607700Y210677D01*
X607600Y210150D01*
X607600Y210150D01*
Y207663D01*
X606963Y207026D01*
X606198Y207258D01*
X606180Y207348D01*
X605892Y207779D01*
X605365Y208306D01*
X605255Y208379D01*
Y212787D01*
X603950D01*
Y213300D01*
X603950D01*
Y217700D01*
X599516D01*
Y217700D01*
X599516Y217700D01*
X599050Y217700D01*
X599000D01*
X598950D01*
X598484Y217700D01*
X598484Y217700D01*
Y217700D01*
X597000D01*
Y215499D01*
X596501D01*
Y215000D01*
X594050D01*
Y213352D01*
X594050D01*
X594050Y213352D01*
X594050Y213300D01*
X593537Y212787D01*
X591438D01*
Y211950D01*
X591438D01*
X591200D01*
X590872Y211950D01*
X590872Y211950D01*
Y211950D01*
X589500D01*
Y209499D01*
X589001D01*
Y209000D01*
X586800D01*
Y207516D01*
X586800D01*
X586800Y207516D01*
X586800Y207050D01*
Y206950D01*
D01*
D01*
X586800D01*
Y202050D01*
X591200D01*
D01*
X591200D01*
X591438Y201812D01*
Y201331D01*
X596294D01*
X598813Y198812D01*
X598788Y198551D01*
X598392Y197959D01*
X598253Y197260D01*
Y195488D01*
Y195488D01*
X598290Y195214D01*
X598012Y195247D01*
X598012Y195247D01*
Y195247D01*
X596240D01*
X595541Y195108D01*
X595467Y195058D01*
X595078Y195219D01*
X594614Y195914D01*
X593919Y196378D01*
X593100Y196541D01*
X592281Y196378D01*
X591586Y195914D01*
X591122Y195219D01*
X590959Y194400D01*
X590975Y194318D01*
X590468Y193700D01*
X588550D01*
D01*
D01*
X588550Y193700D01*
X588450D01*
Y193700D01*
X586500D01*
Y191499D01*
X586001D01*
Y191000D01*
X583550D01*
Y189300D01*
Y188300D01*
X586001D01*
Y187300D01*
X583550D01*
Y185600D01*
Y185000D01*
X586001D01*
Y184000D01*
X583550D01*
Y182300D01*
Y181500D01*
X586001D01*
Y181001D01*
X586500D01*
Y178800D01*
X587495D01*
X587872Y178094D01*
X587822Y178019D01*
X587659Y177200D01*
X587822Y176381D01*
X588286Y175686D01*
X588981Y175222D01*
X589800Y175059D01*
X590619Y175222D01*
X591314Y175686D01*
X591778Y176381D01*
X591941Y177200D01*
X591778Y178019D01*
X591704Y178130D01*
X591937Y178363D01*
X592225Y178793D01*
X592226Y178800D01*
X593450D01*
Y181368D01*
X594422Y182340D01*
X594949Y182288D01*
X595541Y181892D01*
X596240Y181753D01*
X596626D01*
Y183580D01*
X597626D01*
Y181753D01*
X598012D01*
X598012D01*
X598286Y181790D01*
X598253Y181512D01*
X598253Y181512D01*
X598253D01*
Y179740D01*
X598392Y179042D01*
X598471Y178924D01*
Y177450D01*
X597600D01*
Y175929D01*
X596800D01*
X596215Y175813D01*
X595719Y175481D01*
X595336Y175099D01*
X594919Y175378D01*
X594100Y175541D01*
X593281Y175378D01*
X592586Y174914D01*
X592122Y174219D01*
X591959Y173400D01*
X592122Y172581D01*
X592586Y171886D01*
X593281Y171422D01*
X594100Y171259D01*
X594919Y171422D01*
X595591Y171871D01*
X595800D01*
X596385Y171987D01*
X596881Y172319D01*
X597600Y171600D01*
Y170500D01*
X602000D01*
Y171984D01*
X602000D01*
Y171984D01*
D01*
X602000Y172450D01*
Y172454D01*
Y172480D01*
X602048Y172500D01*
X603025Y172500D01*
X606703Y168822D01*
X606659Y168600D01*
X606822Y167781D01*
X607286Y167086D01*
X607981Y166622D01*
X608800Y166459D01*
X609619Y166622D01*
X610314Y167086D01*
X610778Y167781D01*
X610941Y168600D01*
X610778Y169419D01*
X610314Y170114D01*
X610214Y170181D01*
Y170286D01*
X610315Y170436D01*
X611111Y170515D01*
X618468Y163157D01*
X618898Y162870D01*
X619406Y162769D01*
X629402D01*
X629591Y162486D01*
X630286Y162022D01*
X631105Y161859D01*
X631925Y162022D01*
X632619Y162486D01*
X633083Y163181D01*
X633246Y164000D01*
X633142Y164527D01*
X633619Y164622D01*
X634314Y165086D01*
X634778Y165781D01*
X634941Y166600D01*
X634941Y166602D01*
X635646Y166979D01*
X637075Y165551D01*
Y155649D01*
X635051Y153626D01*
X604849D01*
X599781Y158694D01*
X599351Y158981D01*
X598844Y159082D01*
X598109D01*
X597840Y159350D01*
X595931D01*
Y159350D01*
X594672D01*
X594497Y159176D01*
X594336D01*
Y159675D01*
X593837D01*
Y162057D01*
X593540D01*
X593383Y161899D01*
X592990Y162161D01*
X592869Y162185D01*
Y159675D01*
X591868D01*
Y162185D01*
X591747Y162161D01*
X591355Y161899D01*
X591197Y162057D01*
X590900D01*
Y159675D01*
X590401D01*
Y159176D01*
X588981D01*
Y157755D01*
X588482D01*
Y157256D01*
X586100D01*
Y156959D01*
X586257Y156802D01*
X585995Y156410D01*
X585971Y156288D01*
X588482D01*
Y155413D01*
X586896D01*
X586771Y155288D01*
X585971D01*
X585871Y155788D01*
X585427Y155343D01*
X585400Y155349D01*
X584815Y155232D01*
X584319Y154901D01*
X583987Y154405D01*
X583871Y153819D01*
Y153596D01*
X583205Y153151D01*
X582737Y153345D01*
Y159430D01*
X577463D01*
Y155636D01*
X574938Y153111D01*
X574551Y152532D01*
X574416Y151850D01*
Y142800D01*
X574416Y142800D01*
X574416D01*
X574551Y142117D01*
X574938Y141538D01*
X576038Y140438D01*
X576038Y140438D01*
X576617Y140051D01*
X577300Y139916D01*
X580950D01*
Y139300D01*
X585850D01*
Y139300D01*
X585850D01*
X585850Y139300D01*
X585950D01*
Y139300D01*
X587900D01*
Y141501D01*
X588399D01*
Y142000D01*
X590850D01*
Y142800D01*
X592550D01*
Y142800D01*
X592550D01*
X592550Y142800D01*
X592650D01*
Y142800D01*
X592881D01*
X593258Y142095D01*
X593181Y141978D01*
X593006Y141100D01*
X593181Y140222D01*
X593678Y139478D01*
X594422Y138980D01*
X595300Y138806D01*
X596178Y138980D01*
X596612Y139271D01*
X598750D01*
Y138600D01*
X603650D01*
X603650Y138600D01*
Y138600D01*
X603650D01*
X603750D01*
X604216Y138600D01*
X604216Y138600D01*
Y138600D01*
X605700D01*
Y140799D01*
Y143000D01*
X604216D01*
Y143000D01*
X604216Y143000D01*
X603750Y143000D01*
X603700D01*
X603650D01*
X603466D01*
X602900Y143566D01*
Y147850D01*
D01*
Y147850D01*
X602900Y147850D01*
Y147950D01*
X602900D01*
Y150823D01*
X603606Y151200D01*
X603793Y151075D01*
X604300Y150975D01*
X635600D01*
X636107Y151075D01*
X636537Y151363D01*
X636537Y151363D01*
X636537Y151363D01*
X639337Y154163D01*
X639625Y154593D01*
X639725Y155100D01*
Y166100D01*
X639725Y166100D01*
X639625Y166607D01*
X639337Y167037D01*
X636737Y169637D01*
X636307Y169925D01*
X635800Y170026D01*
X627534D01*
X627227Y170765D01*
X627627Y171164D01*
X628419Y171322D01*
X629114Y171786D01*
X629578Y172481D01*
X629741Y173300D01*
X629578Y174119D01*
X629114Y174814D01*
X628419Y175278D01*
X627600Y175441D01*
X626781Y175278D01*
X626086Y174814D01*
X625622Y174119D01*
X625464Y173327D01*
X624667Y172529D01*
X619134D01*
X617852Y173811D01*
X618158Y174550D01*
X618500D01*
Y177001D01*
X618999D01*
Y177500D01*
X621200D01*
Y179450D01*
D01*
Y179450D01*
X621200Y179450D01*
Y179550D01*
X621200D01*
Y184450D01*
D01*
Y184450D01*
X621321Y184571D01*
X622592D01*
Y187816D01*
X623150D01*
Y187816D01*
X627200D01*
Y178700D01*
X630867Y175033D01*
X644573D01*
Y136800D01*
X554836D01*
X554554Y137549D01*
X555027Y137963D01*
Y202600D01*
X583500D01*
X583700Y213200D01*
X591200Y215200D01*
X592464Y221100D01*
X616859D01*
X616900Y221000D01*
D02*
G37*
%LPC*%
G36*
X573091Y159430D02*
X568789D01*
Y153100D01*
X573091D01*
Y159430D01*
D02*
G37*
G36*
Y152100D02*
X568789D01*
Y145770D01*
X573091D01*
Y152100D01*
D02*
G37*
G36*
X567789Y159430D02*
X563487D01*
Y153100D01*
X567789D01*
Y159430D01*
D02*
G37*
G36*
X628000Y157400D02*
X626458D01*
X626522Y157081D01*
X626986Y156386D01*
X627681Y155922D01*
X628000Y155858D01*
Y157400D01*
D02*
G37*
G36*
Y159942D02*
X627681Y159878D01*
X626986Y159414D01*
X626522Y158719D01*
X626458Y158400D01*
X628000D01*
Y159942D01*
D02*
G37*
G36*
X587981Y159350D02*
X586897D01*
X586100Y158553D01*
Y158256D01*
X587981D01*
Y159350D01*
D02*
G37*
G36*
X630542Y157400D02*
X629000D01*
Y155858D01*
X629319Y155922D01*
X630014Y156386D01*
X630478Y157081D01*
X630542Y157400D01*
D02*
G37*
G36*
X567789Y152100D02*
X563487D01*
Y145770D01*
X567789D01*
Y152100D01*
D02*
G37*
G36*
X632142Y140400D02*
X630600D01*
Y138858D01*
X630919Y138922D01*
X631614Y139386D01*
X632078Y140081D01*
X632142Y140400D01*
D02*
G37*
G36*
X629600D02*
X628058D01*
X628122Y140081D01*
X628586Y139386D01*
X629281Y138922D01*
X629600Y138858D01*
Y140400D01*
D02*
G37*
G36*
X608650Y140300D02*
X606700D01*
Y138600D01*
X608650D01*
Y140300D01*
D02*
G37*
G36*
X590850Y141000D02*
X588900D01*
Y139300D01*
X590850D01*
Y141000D01*
D02*
G37*
G36*
X630600Y142942D02*
Y141400D01*
X632142D01*
X632078Y141719D01*
X631614Y142414D01*
X630919Y142878D01*
X630600Y142942D01*
D02*
G37*
G36*
X629600D02*
X629281Y142878D01*
X628586Y142414D01*
X628122Y141719D01*
X628058Y141400D01*
X629600D01*
Y142942D01*
D02*
G37*
G36*
X608650Y143000D02*
X606700D01*
Y141300D01*
X608650D01*
Y143000D01*
D02*
G37*
G36*
X621200Y176500D02*
X619500D01*
Y174550D01*
X621200D01*
Y176500D01*
D02*
G37*
G36*
X572581Y175442D02*
Y173900D01*
X574123D01*
X574059Y174219D01*
X573595Y174914D01*
X572900Y175378D01*
X572581Y175442D01*
D02*
G37*
G36*
X571581D02*
X571262Y175378D01*
X570567Y174914D01*
X570103Y174219D01*
X570039Y173900D01*
X571581D01*
Y175442D01*
D02*
G37*
G36*
X585500Y180500D02*
X583550D01*
Y178800D01*
X585500D01*
Y180500D01*
D02*
G37*
G36*
X596000Y217700D02*
X594050D01*
Y216000D01*
X596000D01*
Y217700D01*
D02*
G37*
G36*
X588500Y211950D02*
X586800D01*
Y210000D01*
X588500D01*
Y211950D01*
D02*
G37*
G36*
X585500Y193700D02*
X583550D01*
Y192000D01*
X585500D01*
Y193700D01*
D02*
G37*
G36*
X574123Y172900D02*
X572581D01*
Y171358D01*
X572900Y171422D01*
X573595Y171886D01*
X574059Y172581D01*
X574123Y172900D01*
D02*
G37*
G36*
X595134Y162057D02*
X594837D01*
Y160176D01*
X595931D01*
Y161260D01*
X595134Y162057D01*
D02*
G37*
G36*
X589900D02*
X589603D01*
X588806Y161260D01*
Y160176D01*
X589900D01*
Y162057D01*
D02*
G37*
G36*
X629000Y159942D02*
Y158400D01*
X630542D01*
X630478Y158719D01*
X630014Y159414D01*
X629319Y159878D01*
X629000Y159942D01*
D02*
G37*
G36*
X585000Y170233D02*
X584008Y170102D01*
X583084Y169719D01*
X582290Y169110D01*
X581681Y168316D01*
X581362Y167547D01*
X580741Y167465D01*
X580530Y167493D01*
X580210Y167910D01*
X579416Y168519D01*
X578492Y168902D01*
X577500Y169033D01*
X576508Y168902D01*
X575584Y168519D01*
X574790Y167910D01*
X574181Y167116D01*
X573798Y166192D01*
X573667Y165200D01*
X573798Y164208D01*
X574181Y163284D01*
X574790Y162490D01*
X575584Y161881D01*
X576508Y161498D01*
X577500Y161367D01*
X578492Y161498D01*
X579416Y161881D01*
X580210Y162490D01*
X580819Y163284D01*
X581138Y164053D01*
X581759Y164135D01*
X581970Y164107D01*
X582290Y163690D01*
X583084Y163081D01*
X584008Y162698D01*
X585000Y162567D01*
X585992Y162698D01*
X586916Y163081D01*
X587710Y163690D01*
X588319Y164484D01*
X588702Y165408D01*
X588833Y166400D01*
X588702Y167392D01*
X588319Y168316D01*
X587710Y169110D01*
X586916Y169719D01*
X585992Y170102D01*
X585000Y170233D01*
D02*
G37*
G36*
X571581Y172900D02*
X570039D01*
X570103Y172581D01*
X570567Y171886D01*
X571262Y171422D01*
X571581Y171358D01*
Y172900D01*
D02*
G37*
G36*
X602000Y169500D02*
X600300D01*
Y167550D01*
X602000D01*
Y169500D01*
D02*
G37*
G36*
X599300D02*
X597600D01*
Y167550D01*
X599300D01*
Y169500D01*
D02*
G37*
%LPD*%
D10*
X580100Y155750D02*
D03*
Y149450D02*
D03*
D11*
X568289Y152600D02*
D03*
D12*
X588400Y141500D02*
D03*
X583400D02*
D03*
X606200Y140800D02*
D03*
X601200D02*
D03*
X596500Y215500D02*
D03*
X601500D02*
D03*
X591000Y191500D02*
D03*
X586000D02*
D03*
Y187800D02*
D03*
X591000D02*
D03*
Y184500D02*
D03*
X586000D02*
D03*
Y181000D02*
D03*
X591000D02*
D03*
X590100Y145000D02*
D03*
X595100D02*
D03*
D13*
X694500Y114100D02*
D03*
Y109100D02*
D03*
X599800Y170000D02*
D03*
Y175000D02*
D03*
X589000Y204500D02*
D03*
Y209500D02*
D03*
X609800Y207700D02*
D03*
Y202700D02*
D03*
X621400Y199400D02*
D03*
Y194400D02*
D03*
X619000Y182000D02*
D03*
Y177000D02*
D03*
X613800Y202500D02*
D03*
Y207500D02*
D03*
X600700Y145400D02*
D03*
Y150400D02*
D03*
D14*
X639472Y213383D02*
D03*
Y199800D02*
D03*
D15*
X601693Y204500D02*
D03*
Y209618D02*
D03*
X595000D02*
D03*
D16*
Y204500D02*
D03*
D17*
X588481Y153819D02*
D03*
Y157756D02*
D03*
X596256D02*
D03*
Y153819D02*
D03*
D18*
X588481Y155788D02*
D03*
D19*
X590400Y159676D02*
D03*
X594337D02*
D03*
Y151900D02*
D03*
X590400D02*
D03*
D20*
X592369Y159676D02*
D03*
Y151900D02*
D03*
D21*
X596256Y155788D02*
D03*
D22*
X616963Y186854D02*
D03*
X618931D02*
D03*
X620900D02*
D03*
X616963Y190200D02*
D03*
X618931D02*
D03*
X620900D02*
D03*
D23*
X629468Y190000D02*
D03*
X625531D02*
D03*
D24*
X612874Y183579D02*
D03*
X597126Y193421D02*
D03*
X612874D02*
D03*
Y191453D02*
D03*
Y189484D02*
D03*
Y187516D02*
D03*
Y185547D02*
D03*
X597126Y183579D02*
D03*
Y185547D02*
D03*
Y187516D02*
D03*
Y189484D02*
D03*
Y191453D02*
D03*
D25*
X600079Y196374D02*
D03*
X609921Y180626D02*
D03*
X607953D02*
D03*
X605984D02*
D03*
X604016D02*
D03*
X602047D02*
D03*
Y196374D02*
D03*
X604016D02*
D03*
X605984D02*
D03*
X607953D02*
D03*
X609921D02*
D03*
X600079Y180626D02*
D03*
D26*
X605000Y188500D02*
D03*
D27*
X588300Y143200D02*
X590100Y145000D01*
X588300Y140600D02*
Y143200D01*
X600000Y175000D02*
Y180547D01*
X599400Y174400D02*
X600000Y175000D01*
X595300Y141100D02*
Y147300D01*
X582050Y149450D02*
X585400Y152800D01*
X580100Y149450D02*
X582050D01*
X588171Y148200D02*
X591400D01*
X583200Y143229D02*
X588171Y148200D01*
X591000Y191500D02*
X593100Y193600D01*
Y194400D01*
X595300Y141100D02*
X595600Y140800D01*
X601200D01*
X591400Y148200D02*
X592369Y149169D01*
X625300Y171000D02*
X627600Y173300D01*
X618500Y171000D02*
X625300D01*
X618931Y182069D02*
Y186854D01*
X613800Y175700D02*
X618500Y171000D01*
X613800Y175700D02*
Y182653D01*
X612874Y183579D02*
X613800Y182653D01*
Y200253D02*
Y202500D01*
X609921Y196374D02*
X613800Y200253D01*
X609800Y210100D02*
X610900Y211200D01*
X609800Y210100D02*
Y211600D01*
Y207700D02*
Y210100D01*
X612874Y193421D02*
X616900Y197447D01*
Y209800D01*
X615500Y211200D02*
X616900Y209800D01*
X610900Y211200D02*
X615500D01*
X609200Y212200D02*
X609800Y211600D01*
X607000Y204900D02*
X609800Y207700D01*
X607000Y201086D02*
Y204900D01*
X605984Y200070D02*
X607000Y201086D01*
X605984Y196374D02*
Y200070D01*
X594337Y148263D02*
X595300Y147300D01*
X585400Y152800D02*
Y153819D01*
X595800Y173400D02*
X596800Y174400D01*
X594100Y173400D02*
X595800D01*
X596800Y174400D02*
X599400D01*
X600000Y180547D02*
X600079Y180626D01*
X591000Y191500D02*
X591047Y191453D01*
X597126D01*
D28*
X590300Y164600D02*
X590400D01*
X635600Y152300D02*
X638400Y155100D01*
Y166100D01*
X604300Y152300D02*
X635600D01*
X598844Y157756D02*
X604300Y152300D01*
X631011Y164094D02*
X631105Y164000D01*
X628800Y164094D02*
X631011D01*
X589800Y178100D02*
X591000Y179300D01*
X589800Y177800D02*
Y178100D01*
X589200Y177200D02*
X589800Y177800D01*
X593784Y189484D02*
X597126D01*
X592100Y187800D02*
X593784Y189484D01*
X591000Y187800D02*
X592100D01*
X618300Y168700D02*
X635800D01*
X638400Y166100D01*
X609921Y177079D02*
Y180626D01*
X618400Y166800D02*
X632800D01*
X607953Y177247D02*
X618400Y166800D01*
X607953Y177247D02*
Y180626D01*
X601693Y209618D02*
X603942Y207368D01*
X596256Y153819D02*
X597781D01*
X598200Y153400D01*
Y147900D02*
Y153400D01*
Y147900D02*
X600700Y145400D01*
Y150400D02*
Y153900D01*
X598812Y155788D02*
X600700Y153900D01*
X596256Y155788D02*
X598812D01*
X585400Y152800D02*
X586300Y151900D01*
X590400D01*
X585400Y153819D02*
X588481D01*
X596256Y157756D02*
X598844D01*
X591000Y179300D02*
Y181000D01*
X602047Y175353D02*
X608800Y168600D01*
X604016Y176484D02*
X608700Y171800D01*
X602047Y175353D02*
Y180626D01*
X590200Y180200D02*
X591000Y181000D01*
X604016Y176484D02*
Y180626D01*
X619406Y164094D02*
X628800D01*
X605984Y177516D02*
X619406Y164094D01*
X605984Y177516D02*
Y180626D01*
X616547Y189484D02*
X617063Y190000D01*
X591000Y181000D02*
X591208D01*
X595755Y185547D01*
X597126D01*
X595516Y187516D02*
X597126D01*
X595500Y187500D02*
X595516Y187516D01*
X594550Y187500D02*
X595500D01*
X591550Y184500D02*
X594550Y187500D01*
X591000Y184500D02*
X591550D01*
X600079Y183579D02*
X605000Y188500D01*
X595485Y209618D02*
X600603Y204500D01*
X595000Y209618D02*
X595485D01*
X600603Y204500D02*
X601693D01*
X602047Y196374D02*
Y198953D01*
X601500Y199500D02*
X602047Y198953D01*
X600000Y199500D02*
X601500D01*
X595000Y204500D02*
X600000Y199500D01*
X589000Y204500D02*
X595000D01*
X601500Y209811D02*
X601693Y209618D01*
X604016Y196374D02*
Y200692D01*
X604955Y201631D01*
Y206841D01*
X604428Y207368D02*
X604955Y206841D01*
X603942Y207368D02*
X604428D01*
X601500Y209811D02*
Y215500D01*
X596500Y212000D02*
Y215500D01*
X595000Y210500D02*
X596500Y212000D01*
X595000Y209618D02*
Y210500D01*
X594882Y209500D02*
X595000Y209618D01*
X589000Y209500D02*
X594882D01*
X609921Y177079D02*
X618300Y168700D01*
D29*
X576200Y151850D02*
X580100Y155750D01*
X576200Y142800D02*
Y151850D01*
Y142800D02*
X577300Y141700D01*
X583200D01*
Y143229D01*
D30*
X639472Y192772D02*
Y199800D01*
X636700Y190000D02*
X639472Y192772D01*
X629468Y190000D02*
X636700D01*
D31*
X609800Y203500D02*
X613800Y207500D01*
X609800Y202700D02*
Y203500D01*
X616229Y184771D02*
X618931Y182069D01*
X620900Y190200D02*
Y193900D01*
X616057Y184771D02*
X616229D01*
X615280Y185547D02*
X616057Y184771D01*
X609800Y200200D02*
Y202700D01*
X607953Y198353D02*
X609800Y200200D01*
X607953Y196374D02*
Y198353D01*
X592369Y149169D02*
Y151900D01*
X586000Y187800D02*
Y191500D01*
Y184500D02*
Y187800D01*
Y181000D02*
Y184500D01*
X618000Y192600D02*
Y196000D01*
X621400Y199400D01*
X620900Y193900D02*
X621400Y194400D01*
X618931Y190200D02*
Y191668D01*
X618000Y192600D02*
X618931Y191668D01*
X615600Y192600D02*
X618000D01*
X614453Y191453D02*
X615600Y192600D01*
X612874Y191453D02*
X614453D01*
X612874Y185547D02*
X615280D01*
X616201Y187516D02*
X617063Y186653D01*
X612874Y187516D02*
X616201D01*
X612874Y189484D02*
X616547D01*
X607953Y191453D02*
X612874D01*
X607953D02*
Y196374D01*
X597126Y183579D02*
X600079D01*
D32*
X594337Y148263D02*
Y151900D01*
D33*
X625331Y190200D02*
X625531Y190000D01*
X620900Y190200D02*
X625331D01*
D34*
X572081Y173400D02*
D03*
X593100Y194400D02*
D03*
X628500Y157900D02*
D03*
X630100Y140900D02*
D03*
X631105Y164000D02*
D03*
X627600Y173300D02*
D03*
X632800Y166600D02*
D03*
X589800Y177200D02*
D03*
X609200Y212200D02*
D03*
X608700Y171800D02*
D03*
X608800Y168600D02*
D03*
X594100Y173400D02*
D03*
D35*
X595300Y141100D02*
D03*
D36*
X585000Y166400D02*
D03*
X577500Y165200D02*
D03*
M02*
