%FSLAX25Y25*%
%MOIN*%
G70*
G01*
G75*
G04 Layer_Physical_Order=2*
G04 Layer_Color=16711680*
%ADD10R,0.05906X0.01969*%
%ADD11R,0.02500X0.02000*%
%ADD12R,0.02000X0.02500*%
%ADD13R,0.09449X0.02953*%
%ADD14R,0.04724X0.03937*%
%ADD15R,0.04724X0.03937*%
G04:AMPARAMS|DCode=16|XSize=7.87mil|YSize=23.62mil|CornerRadius=0mil|HoleSize=0mil|Usage=FLASHONLY|Rotation=90.000|XOffset=0mil|YOffset=0mil|HoleType=Round|Shape=Octagon|*
%AMOCTAGOND16*
4,1,8,-0.01181,-0.00197,-0.01181,0.00197,-0.00984,0.00394,0.00984,0.00394,0.01181,0.00197,0.01181,-0.00197,0.00984,-0.00394,-0.00984,-0.00394,-0.01181,-0.00197,0.0*
%
%ADD16OCTAGOND16*%

%ADD17O,0.02756X0.00787*%
G04:AMPARAMS|DCode=18|XSize=7.87mil|YSize=23.62mil|CornerRadius=0mil|HoleSize=0mil|Usage=FLASHONLY|Rotation=180.000|XOffset=0mil|YOffset=0mil|HoleType=Round|Shape=Octagon|*
%AMOCTAGOND18*
4,1,8,0.00197,-0.01181,-0.00197,-0.01181,-0.00394,-0.00984,-0.00394,0.00984,-0.00197,0.01181,0.00197,0.01181,0.00394,0.00984,0.00394,-0.00984,0.00197,-0.01181,0.0*
%
%ADD18OCTAGOND18*%

%ADD19O,0.00787X0.02756*%
G04:AMPARAMS|DCode=20|XSize=7.87mil|YSize=27.56mil|CornerRadius=1.97mil|HoleSize=0mil|Usage=FLASHONLY|Rotation=90.000|XOffset=0mil|YOffset=0mil|HoleType=Round|Shape=RoundedRectangle|*
%AMROUNDEDRECTD20*
21,1,0.00787,0.02362,0,0,90.0*
21,1,0.00394,0.02756,0,0,90.0*
1,1,0.00394,0.01181,0.00197*
1,1,0.00394,0.01181,-0.00197*
1,1,0.00394,-0.01181,-0.00197*
1,1,0.00394,-0.01181,0.00197*
%
%ADD20ROUNDEDRECTD20*%
%ADD21R,0.00984X0.02165*%
%ADD22R,0.02362X0.01969*%
%ADD23O,0.02953X0.01181*%
%ADD24O,0.01181X0.02953*%
%ADD25R,0.11024X0.11024*%
%ADD26C,0.00600*%
%ADD27C,0.01000*%
%ADD28C,0.01500*%
%ADD29C,0.02000*%
%ADD30C,0.00800*%
%ADD31C,0.00900*%
%ADD32C,0.01200*%
%ADD33C,0.08532*%
%ADD34C,0.02500*%
%ADD35C,0.05600*%
%ADD36C,0.02200*%
%ADD37R,0.02559X0.04331*%
%ADD38R,0.03347X0.05118*%
%ADD39R,0.00787X0.00591*%
%ADD40R,0.00591X0.00787*%
G36*
X617000Y214700D02*
X617200D01*
X624200Y207700D01*
Y195500D01*
X627200Y192500D01*
Y178700D01*
X630867Y175033D01*
X646600D01*
Y137845D01*
X646495Y137800D01*
Y137800D01*
X646495Y137800D01*
X566405D01*
X566300Y137900D01*
Y220259D01*
X566720Y220701D01*
X617000D01*
Y214700D01*
D02*
G37*
%LPC*%
G36*
X631100Y142757D02*
Y141900D01*
X631957D01*
X631614Y142414D01*
X631100Y142757D01*
D02*
G37*
G36*
X635900Y143400D02*
X634450D01*
Y142200D01*
X635900D01*
Y143400D01*
D02*
G37*
G36*
X643720Y150841D02*
X638761D01*
Y144110D01*
X639711D01*
Y143400D01*
X639704D01*
X639704Y143400D01*
Y143400D01*
X639450Y143400D01*
X639450D01*
X639400D01*
X639350D01*
X639096Y143400D01*
X639096Y143400D01*
Y143400D01*
X637900D01*
Y141199D01*
Y139000D01*
X639350D01*
Y139000D01*
X639450D01*
X639704Y139000D01*
X639704Y139000D01*
Y139000D01*
X644350D01*
Y143400D01*
X642769D01*
Y144110D01*
X643720D01*
Y150841D01*
D02*
G37*
G36*
X629100Y142757D02*
X628586Y142414D01*
X628242Y141900D01*
X629100D01*
Y142757D01*
D02*
G37*
G36*
X635900Y140200D02*
X634450D01*
Y139000D01*
X635900D01*
Y140200D01*
D02*
G37*
G36*
X629100Y139900D02*
X628242D01*
X628586Y139386D01*
X629100Y139042D01*
Y139900D01*
D02*
G37*
G36*
X631957D02*
X631100D01*
Y139042D01*
X631614Y139386D01*
X631957Y139900D01*
D02*
G37*
G36*
X632800Y168741D02*
X631981Y168578D01*
X631286Y168114D01*
X630822Y167419D01*
X630659Y166600D01*
X630764Y166073D01*
X630286Y165978D01*
X629591Y165514D01*
X629127Y164819D01*
X628964Y164000D01*
X629127Y163181D01*
X629591Y162486D01*
X630286Y162022D01*
X631105Y161859D01*
X631925Y162022D01*
X632619Y162486D01*
X633083Y163181D01*
X633246Y164000D01*
X633142Y164527D01*
X633619Y164622D01*
X634314Y165086D01*
X634671Y165621D01*
X634721Y165606D01*
X635093Y165493D01*
X635093Y165493D01*
X635150Y165476D01*
Y164500D01*
X636600D01*
Y165700D01*
X635156D01*
Y165700D01*
X635156D01*
X634839Y166086D01*
X634941Y166600D01*
X634778Y167419D01*
X634314Y168114D01*
X633619Y168578D01*
X632800Y168741D01*
D02*
G37*
G36*
X600600Y167150D02*
X599400D01*
Y165700D01*
X600600D01*
Y167150D01*
D02*
G37*
G36*
X603800D02*
X602600D01*
Y165700D01*
X603800D01*
Y167150D01*
D02*
G37*
G36*
X629500Y159757D02*
Y158900D01*
X630358D01*
X630014Y159414D01*
X629500Y159757D01*
D02*
G37*
G36*
X609200Y214341D02*
X608381Y214178D01*
X607709Y213729D01*
X604200D01*
X603615Y213613D01*
X603119Y213281D01*
X588973Y199136D01*
X588181Y198978D01*
X587486Y198514D01*
X587022Y197819D01*
X586864Y197027D01*
X585319Y195481D01*
X584987Y194985D01*
X584871Y194400D01*
Y177629D01*
X574600D01*
X574015Y177513D01*
X573519Y177181D01*
X568119Y171781D01*
X567787Y171285D01*
X567671Y170700D01*
Y144500D01*
X567787Y143915D01*
X568119Y143419D01*
X571519Y140019D01*
X571519D01*
X571519Y140019D01*
X571519Y140018D01*
Y140019D01*
X572015Y139687D01*
X572600Y139571D01*
X593616D01*
X593678Y139478D01*
X594422Y138980D01*
X595300Y138806D01*
X596178Y138980D01*
X596922Y139478D01*
X597419Y140222D01*
X597594Y141100D01*
X597419Y141978D01*
X596922Y142722D01*
X596178Y143219D01*
X595300Y143394D01*
X594422Y143219D01*
X593678Y142722D01*
X593616Y142629D01*
X573234D01*
X570729Y145133D01*
Y151295D01*
X571228Y151327D01*
X571275Y150973D01*
X571826Y149644D01*
X572702Y148502D01*
X573843Y147626D01*
X575173Y147075D01*
X576600Y146887D01*
X578027Y147075D01*
X579356Y147626D01*
X580498Y148502D01*
X581374Y149644D01*
X581925Y150973D01*
X582113Y152400D01*
X581925Y153827D01*
X581374Y155157D01*
X580498Y156298D01*
X579356Y157174D01*
X578027Y157725D01*
X576600Y157913D01*
X575173Y157725D01*
X573843Y157174D01*
X572702Y156298D01*
X571826Y155157D01*
X571275Y153827D01*
X571228Y153473D01*
X570729Y153505D01*
Y170066D01*
X575234Y174571D01*
X585767D01*
X588019Y172319D01*
X588515Y171987D01*
X588836Y171923D01*
X588792Y171471D01*
X588746Y171425D01*
X581600D01*
X581093Y171325D01*
X580663Y171037D01*
X578517Y168892D01*
X578492Y168902D01*
X577500Y169033D01*
X576508Y168902D01*
X575584Y168519D01*
X574790Y167910D01*
X574181Y167116D01*
X573798Y166192D01*
X573667Y165200D01*
X573798Y164208D01*
X574181Y163284D01*
X574790Y162490D01*
X575584Y161881D01*
X576508Y161498D01*
X577500Y161367D01*
X578492Y161498D01*
X579416Y161881D01*
X580210Y162490D01*
X580819Y163284D01*
X581202Y164208D01*
X581213Y164290D01*
X581463Y164394D01*
X581701Y164457D01*
X582290Y163690D01*
X583084Y163081D01*
X584008Y162698D01*
X585000Y162567D01*
X585992Y162698D01*
X586916Y163081D01*
X587710Y163690D01*
X588312Y164474D01*
X592651D01*
X597175Y159951D01*
Y158800D01*
X597275Y158293D01*
X597563Y157863D01*
X597563Y157863D01*
X597563Y157863D01*
X599387Y156038D01*
X599387Y156038D01*
X599387D01*
X599387Y156038D01*
X599387D01*
X599387Y156038D01*
Y156038D01*
Y156038D01*
D01*
D01*
X599387D01*
Y156038D01*
X599817Y155751D01*
X600324Y155650D01*
X603738D01*
Y155480D01*
Y154500D01*
X603463Y154226D01*
X603175Y153795D01*
X603075Y153288D01*
Y146500D01*
X603175Y145993D01*
X603463Y145563D01*
X603463Y145563D01*
X603463Y145563D01*
X605150Y143876D01*
Y141100D01*
X608759D01*
X608831Y140737D01*
X609119Y140307D01*
X610163Y139263D01*
X610163Y139263D01*
X610163D01*
X610163Y139263D01*
X610163D01*
X610163Y139263D01*
Y139263D01*
Y139263D01*
D01*
D01*
X610163D01*
Y139263D01*
X610593Y138975D01*
X611100Y138874D01*
X615600D01*
X615632Y138881D01*
X615665Y138876D01*
X615885Y138931D01*
X616107Y138975D01*
X616135Y138994D01*
X616167Y139002D01*
X616349Y139137D01*
X616537Y139263D01*
X616556Y139290D01*
X616582Y139310D01*
X618069Y140950D01*
X619075D01*
X619433Y140592D01*
X619433D01*
X619433Y140592D01*
X619433Y140592D01*
Y140592D01*
X619863Y140305D01*
X620371Y140204D01*
X623629D01*
X624137Y140305D01*
X624567Y140592D01*
X626137Y142163D01*
X626425Y142593D01*
X626525Y143100D01*
Y144650D01*
X629800D01*
Y145737D01*
X630137Y145963D01*
X630137Y145963D01*
X630137Y145963D01*
X630325Y146150D01*
X631280D01*
Y144110D01*
X636239D01*
Y150841D01*
X631280D01*
Y148801D01*
X629800D01*
Y149550D01*
D01*
Y149550D01*
X629800Y149550D01*
Y149650D01*
X629800D01*
Y151100D01*
X627599D01*
Y152099D01*
X626600D01*
Y154550D01*
X626525D01*
Y156246D01*
X626986Y156386D01*
X627500Y156043D01*
Y157899D01*
Y159757D01*
X626986Y159414D01*
X626525Y159554D01*
Y160400D01*
X626425Y160907D01*
X626137Y161337D01*
X625100Y162374D01*
Y166450D01*
X623725D01*
X618237Y171937D01*
X617807Y172225D01*
X617700Y172246D01*
Y173450D01*
X613300D01*
Y172326D01*
X610737D01*
X610678Y172619D01*
X610214Y173314D01*
X609519Y173778D01*
X608700Y173941D01*
X607881Y173778D01*
X607186Y173314D01*
X606722Y172619D01*
X606559Y171800D01*
X606722Y170981D01*
X607186Y170286D01*
X607186Y170286D01*
X607186D01*
X607286Y170114D01*
X607286Y170114D01*
X607286D01*
X606822Y169419D01*
X606659Y168600D01*
X606822Y167781D01*
X607286Y167086D01*
X607981Y166622D01*
X608800Y166459D01*
X609619Y166622D01*
X610314Y167086D01*
X610774Y167774D01*
X611851D01*
X613300Y166325D01*
Y165226D01*
X609500D01*
X608993Y165125D01*
X608563Y164837D01*
X607741Y164015D01*
X607664Y163901D01*
X607167Y163852D01*
X605959Y165059D01*
X605496Y165369D01*
X604950Y165477D01*
X604950Y165477D01*
X603800D01*
Y163700D01*
X599475D01*
X599400Y163775D01*
Y164428D01*
X598938Y164236D01*
X592137Y171037D01*
X591707Y171325D01*
X591200Y171425D01*
Y171517D01*
X591554Y171871D01*
X592609D01*
X593281Y171422D01*
X594100Y171259D01*
X594919Y171422D01*
X595614Y171886D01*
X596078Y172581D01*
X596241Y173400D01*
X596078Y174219D01*
X595614Y174914D01*
X594919Y175378D01*
X594100Y175541D01*
X593281Y175378D01*
X592609Y174929D01*
X591043D01*
X590898Y175408D01*
X591314Y175686D01*
X591778Y176381D01*
X591941Y177200D01*
X591778Y178019D01*
X591314Y178714D01*
X590619Y179178D01*
X589800Y179341D01*
X588981Y179178D01*
X588370Y178770D01*
X587929Y179006D01*
Y193766D01*
X589027Y194864D01*
X589819Y195022D01*
X590514Y195486D01*
X590978Y196181D01*
X591136Y196973D01*
X604834Y210671D01*
X607709D01*
X608381Y210222D01*
X609173Y210064D01*
X618571Y200666D01*
Y180700D01*
X618571Y180700D01*
X618571D01*
X618687Y180115D01*
X619019Y179619D01*
X625489Y173148D01*
X625622Y172481D01*
X626086Y171786D01*
X626781Y171322D01*
X627448Y171189D01*
X627519Y171119D01*
X628015Y170787D01*
X628600Y170671D01*
X637667D01*
X641071Y167266D01*
Y165700D01*
X640150D01*
D01*
D01*
X640150Y165700D01*
X640050D01*
Y165700D01*
X638600D01*
Y163499D01*
X637601D01*
Y162500D01*
X635150D01*
Y162260D01*
X634915Y162213D01*
X634419Y161881D01*
X632827Y160290D01*
X631280D01*
Y153559D01*
X636500D01*
Y156925D01*
X638500D01*
Y153559D01*
X643720D01*
Y160290D01*
X642623D01*
X642322Y160741D01*
Y161059D01*
X642563Y161300D01*
X645050D01*
Y165700D01*
X644129D01*
Y167900D01*
X644013Y168485D01*
X643681Y168981D01*
X639381Y173281D01*
X638885Y173613D01*
X638300Y173729D01*
X629656D01*
X629578Y174119D01*
X629114Y174814D01*
X628419Y175278D01*
X627600Y175441D01*
X627535Y175428D01*
X621629Y181333D01*
Y201300D01*
X621513Y201885D01*
X621181Y202381D01*
X611336Y212227D01*
X611178Y213019D01*
X610714Y213714D01*
X610019Y214178D01*
X609200Y214341D01*
D02*
G37*
G36*
X629800Y154550D02*
X628600D01*
Y153100D01*
X629800D01*
Y154550D01*
D02*
G37*
G36*
X630358Y156900D02*
X629500D01*
Y156043D01*
X630014Y156386D01*
X630358Y156900D01*
D02*
G37*
%LPD*%
G36*
X623875Y151150D02*
X623200D01*
Y148699D01*
X621200D01*
Y151150D01*
X622868D01*
X618790Y155229D01*
X618415Y155479D01*
X618415Y155479D01*
X618415D01*
X618327Y155538D01*
Y155538D01*
X618335Y155624D01*
X621173D01*
X621680Y155725D01*
X622110Y156013D01*
X622647Y156550D01*
X623875D01*
Y151150D01*
D02*
G37*
D11*
X636900Y141200D02*
D03*
X641900D02*
D03*
X637600Y163500D02*
D03*
X642600D02*
D03*
X607600Y143300D02*
D03*
X612600D02*
D03*
X607800Y147600D02*
D03*
X612800D02*
D03*
D12*
X627600Y147100D02*
D03*
Y152100D02*
D03*
X615500Y166000D02*
D03*
Y171000D02*
D03*
X601600Y164700D02*
D03*
Y159700D02*
D03*
X618500Y148400D02*
D03*
Y143400D02*
D03*
X622200Y148700D02*
D03*
Y143700D02*
D03*
X619800Y164100D02*
D03*
Y159100D02*
D03*
X622900Y164000D02*
D03*
Y159000D02*
D03*
D26*
Y164000D02*
Y165400D01*
X617300Y171000D02*
X622900Y165400D01*
X615500Y171000D02*
X617300D01*
X591200Y170100D02*
X601600Y159700D01*
X577300Y165800D02*
X581600Y170100D01*
X591200D01*
X585000Y166200D02*
Y166400D01*
X584600Y165800D02*
X585000Y166200D01*
X577300Y165200D02*
Y165800D01*
X584600D02*
X593200D01*
X577300Y165200D02*
X577500D01*
X625200Y146900D02*
X629200D01*
X629776Y147476D01*
X633760D01*
X625200Y146900D02*
Y160400D01*
Y143100D02*
Y146900D01*
X624100Y161500D02*
X625200Y160400D01*
X623629Y141529D02*
X625200Y143100D01*
X620371Y141529D02*
X623629D01*
X618500Y143400D02*
X620371Y141529D01*
X616000Y161500D02*
X624100D01*
X614780Y162720D02*
X616000Y161500D01*
X622900Y158677D02*
Y159000D01*
X621173Y156950D02*
X622900Y158677D01*
X614806Y156950D02*
X621173D01*
X612812Y152251D02*
X614649D01*
X618500Y148400D01*
Y147400D02*
X622200Y143700D01*
X618500Y147400D02*
Y148400D01*
X593200Y165800D02*
X598500Y160500D01*
Y158800D02*
Y160500D01*
X604400Y153288D02*
X605332Y154220D01*
X604400Y146500D02*
Y153288D01*
Y146500D02*
X607600Y143300D01*
X615600Y140200D02*
X618500Y143400D01*
X611100Y140200D02*
X615600D01*
X610056Y141244D02*
X611100Y140200D01*
X610056Y141244D02*
Y152251D01*
X607300Y148100D02*
X607800Y147600D01*
X607300Y148100D02*
Y152251D01*
X598500Y158800D02*
X600324Y156976D01*
X603036D01*
X602947Y157065D02*
X603036Y156976D01*
X605332D01*
X611434Y163784D02*
X611550Y163900D01*
X613600D01*
X609500D02*
X611550D01*
X611434Y161700D02*
Y163784D01*
X608678Y161700D02*
Y163078D01*
X609500Y163900D01*
X613600D02*
X614780Y162720D01*
Y159731D02*
Y162720D01*
X601600Y159700D02*
X602947Y158353D01*
X605332D01*
X614780Y156976D02*
X614806Y156950D01*
X614780Y158353D02*
X617154D01*
X617900Y159100D01*
X619800D01*
X609100Y168300D02*
X609900Y169100D01*
X617900Y166000D02*
X619800Y164100D01*
X615500Y166000D02*
X617900D01*
X612400Y169100D02*
X615500Y166000D01*
X609900Y169100D02*
X612400D01*
X609500Y171000D02*
X615500D01*
D27*
X620100Y180700D02*
X628600Y172200D01*
X569200Y144500D02*
Y170700D01*
Y144500D02*
X572600Y141100D01*
X595300D01*
X574600Y176100D02*
X586400D01*
X569200Y170700D02*
X574600Y176100D01*
X638300Y172200D02*
X642600Y167900D01*
X628600Y172200D02*
X638300D01*
X609200Y212200D02*
X620100Y201300D01*
Y180700D02*
Y201300D01*
X604200Y212200D02*
X609200D01*
X589000Y197000D02*
X604200Y212200D01*
X586400Y176100D02*
X589100Y173400D01*
X586400Y176100D02*
Y194400D01*
X589000Y197000D01*
X589100Y173400D02*
X594100D01*
X640100Y160800D02*
X641240Y159660D01*
X640100Y160800D02*
X640200D01*
X635500D02*
X640100D01*
X640200D02*
Y161100D01*
X642600Y163500D01*
Y167900D01*
X641240Y141860D02*
X641900Y141200D01*
X641240Y141860D02*
Y147476D01*
Y156924D02*
Y159660D01*
X633760Y159060D02*
X635500Y160800D01*
X633760Y156924D02*
Y159060D01*
D30*
X622200Y148700D02*
Y149800D01*
X617780Y154220D02*
X622200Y149800D01*
X614780Y154220D02*
X617780D01*
X636899Y141199D02*
X636900Y141200D01*
X612600Y147400D02*
X612800Y147600D01*
X612600Y143300D02*
Y147400D01*
X611434Y154220D02*
X614780D01*
X611434D02*
Y155598D01*
Y152251D02*
Y154220D01*
X612800Y147600D02*
Y149700D01*
X611434Y151066D02*
X612800Y149700D01*
X611434Y151066D02*
Y152251D01*
X610056Y156976D02*
X611434Y155598D01*
X601600Y164700D02*
X602250Y164050D01*
X604950D01*
X607300Y161700D01*
X612812Y159731D02*
Y161700D01*
X610056Y156976D02*
X612812Y159731D01*
X607300D02*
X610056Y156976D01*
X607300Y159731D02*
Y161700D01*
X608678Y155598D02*
X610056Y156976D01*
X608678Y152251D02*
Y155598D01*
X605332D02*
X608678D01*
D33*
X576600Y152400D02*
D03*
D34*
X595300Y141100D02*
D03*
D35*
X585000Y166400D02*
D03*
X577500Y165200D02*
D03*
D36*
X628500Y157900D02*
D03*
X630100Y140900D02*
D03*
X631105Y164000D02*
D03*
X627600Y173300D02*
D03*
X632800Y166600D02*
D03*
X589800Y177200D02*
D03*
X609200Y212200D02*
D03*
X608700Y171800D02*
D03*
X608800Y168600D02*
D03*
X589000Y197000D02*
D03*
X594100Y173400D02*
D03*
D37*
X633760Y156924D02*
D03*
X637500D02*
D03*
X641240D02*
D03*
Y147476D02*
D03*
X633760D02*
D03*
D38*
X610056Y156976D02*
D03*
D39*
X605332Y159731D02*
D03*
Y158353D02*
D03*
Y156976D02*
D03*
Y155598D02*
D03*
Y154220D02*
D03*
X614780D02*
D03*
Y155598D02*
D03*
Y156976D02*
D03*
Y158353D02*
D03*
Y159731D02*
D03*
D40*
X607300Y152251D02*
D03*
X608678D02*
D03*
X610056D02*
D03*
X611434D02*
D03*
X612812D02*
D03*
Y161700D02*
D03*
X611434D02*
D03*
X610056D02*
D03*
X608678D02*
D03*
X607300D02*
D03*
M02*
