%FSLAX24Y24*%
%MOIN*%
G70*
G01*
G75*
G04 Layer_Physical_Order=1*
G04 Layer_Color=255*
%ADD10O,0.0091X0.0276*%
%ADD11R,0.0091X0.0276*%
%ADD12C,0.0060*%
%ADD13R,0.0591X0.0591*%
%ADD14C,0.0591*%
D10*
X44667Y22438D02*
D03*
X44510D02*
D03*
X44352D02*
D03*
X44195D02*
D03*
X44037D02*
D03*
X43880D02*
D03*
X43722D02*
D03*
X43565D02*
D03*
X43407D02*
D03*
X43250D02*
D03*
X44667Y20800D02*
D03*
X44510D02*
D03*
X44352D02*
D03*
X44195D02*
D03*
X44037D02*
D03*
X43880D02*
D03*
X43722D02*
D03*
X43565D02*
D03*
X43407D02*
D03*
D11*
X43250D02*
D03*
D12*
X48700Y22000D02*
Y31900D01*
X47150Y33450D02*
X48700Y31900D01*
X46550Y33450D02*
X47150D01*
X48150Y22350D02*
Y30500D01*
X47300Y31350D02*
X48150Y30500D01*
X46550Y31350D02*
X47300D01*
X44450Y19700D02*
X46400D01*
X44195Y19955D02*
X44450Y19700D01*
X44195Y19955D02*
Y20800D01*
X45050Y20450D02*
X47350Y22750D01*
X44750Y20450D02*
X45050D01*
X44667Y20533D02*
X44750Y20450D01*
X44667Y20533D02*
Y20800D01*
X47350Y22750D02*
Y27200D01*
X41450Y33350D02*
X41500Y33400D01*
X40750Y33350D02*
X41450D01*
X40750Y31400D02*
X41500D01*
X41450Y29350D02*
X41500Y29400D01*
X40700Y29350D02*
X41450D01*
Y27350D02*
X41500Y27400D01*
X40750Y27350D02*
X41450D01*
X46500Y27400D02*
X46550Y27450D01*
X47100D01*
X46500Y29400D02*
X46550Y29450D01*
X47250D01*
X46500Y31400D02*
X46550Y31350D01*
X46500Y33400D02*
X46550Y33450D01*
X41450Y34350D02*
X41500Y34400D01*
X40750Y34350D02*
X41450D01*
X45700Y32400D02*
X46500D01*
X44195Y30895D02*
X45700Y32400D01*
X44195Y22438D02*
Y30895D01*
X45302Y30400D02*
X46500D01*
X44352Y29450D02*
X45302Y30400D01*
X45360Y28400D02*
X46500D01*
X44510Y27550D02*
X45360Y28400D01*
X45800Y26400D02*
X46500D01*
X44667Y25267D02*
X45800Y26400D01*
X44667Y22438D02*
Y25267D01*
X41500Y32400D02*
X41550Y32450D01*
X42150D01*
X41500Y30400D02*
X41550Y30450D01*
X42650D01*
X41500Y28400D02*
X41550Y28450D01*
X42550D01*
X41500Y26400D02*
X41550Y26350D01*
X42200D01*
X43407Y22438D02*
Y27593D01*
X42550Y28450D02*
X43407Y27593D01*
X43565Y22438D02*
Y29535D01*
X42650Y30450D02*
X43565Y29535D01*
X43722Y22438D02*
Y30878D01*
X42150Y32450D02*
X43722Y30878D01*
X43250Y22438D02*
Y25300D01*
X42200Y26350D02*
X43250Y25300D01*
X44352Y22438D02*
Y29450D01*
X44510Y22438D02*
Y27550D01*
X47100Y27450D02*
X47350Y27200D01*
X44510Y20340D02*
Y20800D01*
Y20340D02*
X44600Y20250D01*
X45350D01*
X47800Y22700D01*
Y28900D01*
X47250Y29450D02*
X47800Y28900D01*
X44352Y20098D02*
Y20800D01*
Y20098D02*
X44500Y19950D01*
X45750D01*
X48150Y22350D01*
X46400Y19700D02*
X48700Y22000D01*
X43250Y20550D02*
Y20800D01*
X43150Y20450D02*
X43250Y20550D01*
X41350Y20450D02*
X43150D01*
X40450Y21350D02*
X41350Y20450D01*
X40450Y21350D02*
Y27050D01*
X40750Y27350D01*
X43407Y20357D02*
Y20800D01*
X43150Y20100D02*
X43407Y20357D01*
X41150Y20100D02*
X43150D01*
X40000Y21250D02*
X41150Y20100D01*
X40000Y21250D02*
Y28650D01*
X40700Y29350D01*
X43565Y20215D02*
Y20800D01*
X43150Y19800D02*
X43565Y20215D01*
X41000Y19800D02*
X43150D01*
X39600Y21200D02*
X41000Y19800D01*
X39600Y21200D02*
Y30250D01*
X40750Y31400D01*
X43722Y20072D02*
Y20800D01*
X43200Y19550D02*
X43722Y20072D01*
X40750Y19550D02*
X43200D01*
X39200Y21100D02*
X40750Y19550D01*
X39200Y21100D02*
Y31800D01*
X40750Y33350D01*
X44037Y19863D02*
Y20800D01*
Y19863D02*
X44450Y19450D01*
X46650D01*
X49000Y21800D01*
Y32650D01*
X47250Y34400D02*
X49000Y32650D01*
X46500Y34400D02*
X47250D01*
X43880Y19980D02*
Y20800D01*
X43150Y19250D02*
X43880Y19980D01*
X40550Y19250D02*
X43150D01*
X38850Y20950D02*
X40550Y19250D01*
X38850Y20950D02*
Y32450D01*
X40750Y34350D01*
D13*
X41500Y26400D02*
D03*
X46500D02*
D03*
D14*
X41500Y27400D02*
D03*
Y28400D02*
D03*
Y29400D02*
D03*
Y30400D02*
D03*
Y31400D02*
D03*
Y32400D02*
D03*
Y33400D02*
D03*
Y34400D02*
D03*
Y35400D02*
D03*
X46500Y27400D02*
D03*
Y29400D02*
D03*
Y30400D02*
D03*
Y31400D02*
D03*
Y32400D02*
D03*
Y33400D02*
D03*
Y34400D02*
D03*
Y35400D02*
D03*
Y28400D02*
D03*
M02*
