%FSTAX24Y24*%
%MOIN*%
G70*
G01*
G75*
G04 Layer_Physical_Order=4*
G04 Layer_Color=16711680*
%ADD10R,0.0250X0.0200*%
%ADD11R,0.0200X0.0250*%
%ADD12R,0.0098X0.0217*%
%ADD13O,0.0110X0.0335*%
%ADD14O,0.0335X0.0110*%
%ADD15R,0.2008X0.2008*%
%ADD16R,0.0472X0.0394*%
%ADD17R,0.0472X0.0394*%
%ADD18R,0.0945X0.0295*%
%ADD19R,0.0236X0.0197*%
%ADD20R,0.0157X0.0276*%
%ADD21R,0.0276X0.0157*%
%ADD22R,0.1457X0.1457*%
%ADD23O,0.0335X0.0118*%
%ADD24O,0.0118X0.0335*%
%ADD25R,0.0276X0.0354*%
%ADD26C,0.0100*%
%ADD27C,0.0060*%
%ADD28C,0.0080*%
%ADD29C,0.0200*%
%ADD30C,0.0150*%
%ADD31C,0.0591*%
%ADD32R,0.0591X0.0591*%
%ADD33C,0.0200*%
%ADD34C,0.0250*%
%ADD35C,0.0330*%
%ADD36C,0.0400*%
%ADD37C,0.0300*%
%ADD38C,0.0590*%
%ADD39C,0.0300*%
%ADD40C,0.0350*%
%ADD41C,0.0400*%
%ADD42R,0.0236X0.0472*%
%ADD43O,0.0280X0.0091*%
%ADD44R,0.0280X0.0091*%
G36*
X01768Y01332D02*
Y012612D01*
X017662D01*
Y012612D01*
X017306D01*
Y012292D01*
X017297Y012287D01*
X017262Y012268D01*
X017212Y012301D01*
X0172Y012303D01*
Y01215D01*
Y011997D01*
X017212Y011999D01*
X017265Y012035D01*
D01*
X017265Y012035D01*
X017265Y012035D01*
X017265Y012035D01*
X017265Y012035D01*
D01*
X017265Y012035D01*
X017306Y012087D01*
Y012019D01*
X017337D01*
X017369Y011981D01*
X017367Y01197D01*
X017379Y011908D01*
X017415Y011855D01*
X017418Y011853D01*
Y01166D01*
X017315D01*
Y01134D01*
X01768D01*
Y01034D01*
X012326Y01034D01*
X01229Y010375D01*
X01229Y016715D01*
X012325Y01675D01*
X01429D01*
X01768Y01332D01*
D02*
G37*
%LPC*%
G36*
X0171Y012303D02*
X017088Y012301D01*
X017035Y012265D01*
X016999Y012212D01*
X016997Y0122D01*
X0171D01*
Y012303D01*
D02*
G37*
G36*
X013083Y012217D02*
X01298D01*
Y012114D01*
X012992Y012116D01*
X013045Y012151D01*
X013081Y012204D01*
X013083Y012217D01*
D02*
G37*
G36*
X014839Y01237D02*
X01471D01*
Y012241D01*
X014732Y012246D01*
X014793Y012287D01*
X014834Y012348D01*
X014839Y01237D01*
D02*
G37*
G36*
X01461D02*
X014481D01*
X014486Y012348D01*
X014527Y012287D01*
X014588Y012246D01*
X01461Y012241D01*
Y01237D01*
D02*
G37*
G36*
X017185Y01166D02*
X01705D01*
Y01155D01*
X017185D01*
Y01166D01*
D02*
G37*
G36*
X01695D02*
X016815D01*
Y01155D01*
X01695D01*
Y01166D01*
D02*
G37*
G36*
X016914Y012612D02*
X016558D01*
Y012051D01*
X016508Y012041D01*
X016455Y012005D01*
X016419Y011952D01*
X016407Y01189D01*
X016419Y011828D01*
X016455Y011775D01*
X016508Y011739D01*
X01657Y011727D01*
X016632Y011739D01*
X016685Y011775D01*
X016721Y011828D01*
X016733Y01189D01*
X016732Y011894D01*
X016815Y011977D01*
X01684Y012013D01*
X016841Y012019D01*
X016914D01*
Y012612D01*
D02*
G37*
G36*
X01288Y012217D02*
X012777D01*
X012779Y012204D01*
X012815Y012151D01*
X012868Y012116D01*
X01288Y012114D01*
Y012217D01*
D02*
G37*
G36*
X0171Y0121D02*
X016997D01*
X016999Y012088D01*
X017035Y012035D01*
X017088Y011999D01*
X0171Y011997D01*
Y0121D01*
D02*
G37*
G36*
X01288Y01242D02*
X012868Y012418D01*
X012815Y012382D01*
X012779Y012329D01*
X012777Y012317D01*
X01288D01*
Y01242D01*
D02*
G37*
G36*
X017288Y012974D02*
X01716D01*
Y012728D01*
X017288D01*
Y012974D01*
D02*
G37*
G36*
X01706D02*
X016932D01*
Y012728D01*
X01706D01*
Y012974D01*
D02*
G37*
G36*
X01256Y012923D02*
X012548Y012921D01*
X012495Y012885D01*
X012459Y012832D01*
X012457Y01282D01*
X01256D01*
Y012923D01*
D02*
G37*
G36*
X01459Y01303D02*
X014461D01*
X014466Y013008D01*
X014507Y012947D01*
X014568Y012906D01*
X01459Y012901D01*
Y01303D01*
D02*
G37*
G36*
X01266Y012923D02*
Y01282D01*
X012763D01*
X012761Y012832D01*
X012725Y012885D01*
X012672Y012921D01*
X01266Y012923D01*
D02*
G37*
G36*
X01461Y012599D02*
X014588Y012594D01*
X014527Y012553D01*
X014486Y012492D01*
X014481Y01247D01*
X01461D01*
Y012599D01*
D02*
G37*
G36*
X01298Y01242D02*
Y012317D01*
X013083D01*
X013081Y012329D01*
X013045Y012382D01*
X012992Y012418D01*
X01298Y01242D01*
D02*
G37*
G36*
X01471Y012599D02*
Y01247D01*
X014839D01*
X014834Y012492D01*
X014793Y012553D01*
X014732Y012594D01*
X01471Y012599D01*
D02*
G37*
G36*
X012763Y01272D02*
X01266D01*
Y012617D01*
X012672Y012619D01*
X012725Y012655D01*
X012761Y012708D01*
X012763Y01272D01*
D02*
G37*
G36*
X01256D02*
X012457D01*
X012459Y012708D01*
X012495Y012655D01*
X012548Y012619D01*
X01256Y012617D01*
Y01272D01*
D02*
G37*
G36*
X016815Y011474D02*
X016801Y011459D01*
X016789Y011442D01*
X016747Y011413D01*
X016706Y011352D01*
X016701Y01133D01*
X017059D01*
X017064Y011301D01*
X017096Y01134D01*
X017185D01*
Y01145D01*
X016815D01*
Y011474D01*
D02*
G37*
G36*
X01313Y010919D02*
X013108Y010914D01*
X013047Y010873D01*
X013006Y010812D01*
X013001Y01079D01*
X01313D01*
Y010919D01*
D02*
G37*
G36*
X014888Y010845D02*
X014785D01*
Y010741D01*
X014797Y010744D01*
X01485Y010779D01*
X014885Y010832D01*
X014888Y010845D01*
D02*
G37*
G36*
X01323Y010919D02*
Y01079D01*
X013359D01*
X013354Y010812D01*
X013313Y010873D01*
X013252Y010914D01*
X01323Y010919D01*
D02*
G37*
G36*
X01531Y010898D02*
X015207D01*
Y010795D01*
X015219Y010797D01*
X015272Y010833D01*
X015308Y010885D01*
X01531Y010898D01*
D02*
G37*
G36*
X015107D02*
X015004D01*
X015006Y010885D01*
X015042Y010833D01*
X015094Y010797D01*
X015107Y010795D01*
Y010898D01*
D02*
G37*
G36*
X013359Y01069D02*
X01323D01*
Y010561D01*
X013252Y010566D01*
X013313Y010607D01*
X013354Y010668D01*
X013359Y01069D01*
D02*
G37*
G36*
X01313D02*
X013001D01*
X013006Y010668D01*
X013047Y010607D01*
X013108Y010566D01*
X01313Y010561D01*
Y01069D01*
D02*
G37*
G36*
X01427Y01076D02*
X014167D01*
X014169Y010748D01*
X014205Y010695D01*
X014258Y010659D01*
X01427Y010657D01*
Y01076D01*
D02*
G37*
G36*
X014685Y010845D02*
X014581D01*
X014584Y010832D01*
X014619Y010779D01*
X014672Y010744D01*
X014685Y010741D01*
Y010845D01*
D02*
G37*
G36*
X014473Y01076D02*
X01437D01*
Y010657D01*
X014382Y010659D01*
X014435Y010695D01*
X014471Y010748D01*
X014473Y01076D01*
D02*
G37*
G36*
X0158Y01095D02*
X015697D01*
X015699Y010938D01*
X015735Y010885D01*
X015788Y010849D01*
X0158Y010847D01*
Y01095D01*
D02*
G37*
G36*
X0159Y011153D02*
Y01105D01*
X016003D01*
X016001Y011062D01*
X015965Y011115D01*
X015912Y011151D01*
X0159Y011153D01*
D02*
G37*
G36*
X0158D02*
X015788Y011151D01*
X015735Y011115D01*
X015699Y011062D01*
X015697Y01105D01*
X0158D01*
Y011153D01*
D02*
G37*
G36*
X016333Y011546D02*
X016245Y011529D01*
X016171Y011479D01*
X016121Y011405D01*
X016104Y011317D01*
X016121Y011229D01*
X016171Y011155D01*
X016245Y011105D01*
X016333Y011088D01*
X016421Y011105D01*
X016495Y011155D01*
X016545Y011229D01*
X016562Y011317D01*
X016545Y011405D01*
X016495Y011479D01*
X016421Y011529D01*
X016333Y011546D01*
D02*
G37*
G36*
X017059Y01123D02*
X01693D01*
Y011101D01*
X016952Y011106D01*
X017013Y011147D01*
X017054Y011208D01*
X017059Y01123D01*
D02*
G37*
G36*
X01683D02*
X016701D01*
X016706Y011208D01*
X016747Y011147D01*
X016808Y011106D01*
X01683Y011101D01*
Y01123D01*
D02*
G37*
G36*
X01427Y010963D02*
X014258Y010961D01*
X014205Y010925D01*
X014169Y010872D01*
X014167Y01086D01*
X01427D01*
Y010963D01*
D02*
G37*
G36*
X016003Y01095D02*
X0159D01*
Y010847D01*
X015912Y010849D01*
X015965Y010885D01*
X016001Y010938D01*
X016003Y01095D01*
D02*
G37*
G36*
X01437Y010963D02*
Y01086D01*
X014473D01*
X014471Y010872D01*
X014435Y010925D01*
X014382Y010961D01*
X01437Y010963D01*
D02*
G37*
G36*
X015107Y011101D02*
X015094Y011099D01*
X015042Y011063D01*
X015006Y01101D01*
X015004Y010998D01*
X015107D01*
Y011101D01*
D02*
G37*
G36*
X0173Y011269D02*
X017228Y011254D01*
X017167Y011213D01*
X017126Y011152D01*
X017111Y01108D01*
X017126Y011008D01*
X017167Y010947D01*
X017228Y010906D01*
X0173Y010891D01*
X017372Y010906D01*
X017433Y010947D01*
X017474Y011008D01*
X017489Y01108D01*
X017474Y011152D01*
X017433Y011213D01*
X017372Y011254D01*
X0173Y011269D01*
D02*
G37*
G36*
X014819Y01303D02*
X01469D01*
Y012901D01*
X014712Y012906D01*
X014773Y012947D01*
X014814Y013008D01*
X014819Y01303D01*
D02*
G37*
G36*
X013773Y01515D02*
X01367D01*
Y015047D01*
X013682Y015049D01*
X013735Y015085D01*
X013771Y015138D01*
X013773Y01515D01*
D02*
G37*
G36*
X01357D02*
X013467D01*
X013469Y015138D01*
X013505Y015085D01*
X013558Y015049D01*
X01357Y015047D01*
Y01515D01*
D02*
G37*
G36*
X014797Y015162D02*
X014784Y01516D01*
X014731Y015125D01*
X014696Y015072D01*
X014693Y015059D01*
X014797D01*
Y015162D01*
D02*
G37*
G36*
X01357Y015353D02*
X013558Y015351D01*
X013505Y015315D01*
X013469Y015262D01*
X013467Y01525D01*
X01357D01*
Y015353D01*
D02*
G37*
G36*
X014897Y015162D02*
Y015059D01*
X015D01*
X014997Y015072D01*
X014962Y015125D01*
X014909Y01516D01*
X014897Y015162D01*
D02*
G37*
G36*
X01448Y014873D02*
X014468Y014871D01*
X014415Y014835D01*
X014379Y014782D01*
X014377Y01477D01*
X01448D01*
Y014873D01*
D02*
G37*
G36*
X01286Y014763D02*
Y01466D01*
X012963D01*
X012961Y014672D01*
X012925Y014725D01*
X012872Y014761D01*
X01286Y014763D01*
D02*
G37*
G36*
X01458Y014873D02*
Y01477D01*
X014683D01*
X014681Y014782D01*
X014645Y014835D01*
X014592Y014871D01*
X01458Y014873D01*
D02*
G37*
G36*
X014797Y014959D02*
X014693D01*
X014696Y014947D01*
X014731Y014894D01*
X014784Y014859D01*
X014797Y014856D01*
Y014959D01*
D02*
G37*
G36*
X01557Y015033D02*
X015508Y015021D01*
X015455Y014985D01*
X015419Y014932D01*
X015407Y01487D01*
X015386Y014849D01*
X015372Y014851D01*
X015309Y014839D01*
X015304Y014836D01*
X015283Y01485D01*
X015271Y014912D01*
X015235Y014965D01*
X015182Y015001D01*
X01512Y015013D01*
X015058Y015001D01*
X015056Y015D01*
X015045Y015002D01*
X015008Y015018D01*
X01501Y015009D01*
X015Y014959D01*
X014897D01*
Y014856D01*
X014909Y014859D01*
X01491Y014859D01*
X014921Y014857D01*
X014959Y014842D01*
X014969Y014788D01*
X015005Y014735D01*
X015058Y014699D01*
X01512Y014687D01*
X015182Y014699D01*
X015187Y014703D01*
X015209Y014688D01*
X015221Y014626D01*
X015256Y014573D01*
X015305Y01454D01*
Y013885D01*
X015266Y013854D01*
X015261Y013855D01*
X015155D01*
X014495Y014515D01*
X014518Y014559D01*
X01448Y014567D01*
Y01467D01*
X014377D01*
X014367Y01472D01*
X014374Y014756D01*
X014324D01*
X014321Y014772D01*
X014285Y014825D01*
X014232Y014861D01*
X01417Y014873D01*
X014108Y014861D01*
X014055Y014825D01*
X014019Y014772D01*
X014007Y01471D01*
X014019Y014648D01*
X014055Y014595D01*
X014108Y014559D01*
X01417Y014547D01*
X014198Y014552D01*
X014971Y013779D01*
X014965Y013747D01*
X014973Y013706D01*
X014997Y013671D01*
Y013666D01*
X014973Y013631D01*
X014965Y01359D01*
X014973Y013549D01*
X014997Y013514D01*
Y013508D01*
X014973Y013473D01*
X014965Y013432D01*
X014973Y013391D01*
X014997Y013356D01*
Y013351D01*
X014973Y013316D01*
X014965Y013275D01*
X014973Y013234D01*
X014997Y013199D01*
Y013193D01*
X014973Y013158D01*
X014965Y013117D01*
X014973Y013076D01*
X014997Y013041D01*
Y013036D01*
X014973Y013001D01*
X014965Y01296D01*
X014973Y012919D01*
X014997Y012884D01*
Y012878D01*
X014973Y012844D01*
X014965Y012802D01*
X014973Y012761D01*
X014997Y012727D01*
Y012721D01*
X014973Y012686D01*
X014965Y012645D01*
X014973Y012604D01*
X014997Y012569D01*
Y012563D01*
X014973Y012529D01*
X014965Y012487D01*
X014973Y012446D01*
X014997Y012412D01*
Y012406D01*
X014973Y012371D01*
X014965Y01233D01*
X014973Y012289D01*
X014982Y012275D01*
X014677Y01197D01*
X014657Y01194D01*
X01465Y011905D01*
Y011543D01*
X014635Y011528D01*
X014615Y011499D01*
X014608Y011464D01*
Y011361D01*
X014585Y011345D01*
X014549Y011292D01*
X014537Y01123D01*
X014549Y011168D01*
X014585Y011115D01*
X014638Y011079D01*
X014639Y011079D01*
X014649Y01103D01*
X014619Y01101D01*
X014584Y010957D01*
X014581Y010945D01*
X014888D01*
X014885Y010957D01*
X01485Y01101D01*
X014797Y011045D01*
X014795Y011046D01*
X014786Y011095D01*
X014815Y011115D01*
X014851Y011168D01*
X014863Y01123D01*
X014851Y011292D01*
X014815Y011345D01*
X014792Y011361D01*
Y011426D01*
X014807Y01144D01*
X014827Y01147D01*
X014834Y011505D01*
X014834Y011505D01*
X014834Y011505D01*
Y011505D01*
Y011867D01*
X015065Y012098D01*
X015113Y012088D01*
X015118Y012086D01*
Y011542D01*
X015112Y011541D01*
X015059Y011505D01*
X015024Y011452D01*
X015012Y01139D01*
X015024Y011328D01*
X015059Y011275D01*
X015112Y011239D01*
X015175Y011227D01*
X015209Y011192D01*
X015207Y01118D01*
X015214Y011142D01*
X015179Y011107D01*
X015207Y011101D01*
Y010998D01*
X01531D01*
X015312Y010986D01*
X015348Y011021D01*
X01537Y011017D01*
X015432Y011029D01*
X015485Y011065D01*
X015521Y011118D01*
X015532Y011172D01*
X015573Y0112D01*
X01559Y011197D01*
X015652Y011209D01*
X015705Y011245D01*
X015741Y011298D01*
X015753Y01136D01*
X015741Y011422D01*
X015728Y011441D01*
Y012643D01*
X015721Y012678D01*
X015702Y012708D01*
X015542Y012867D01*
X015513Y012887D01*
X015478Y012894D01*
X015478Y012928D01*
X015602Y013053D01*
X016322Y013772D01*
X01635Y013767D01*
X016412Y013779D01*
X016465Y013815D01*
X016501Y013868D01*
X016513Y01393D01*
X016501Y013992D01*
X016465Y014045D01*
X016412Y014081D01*
X01635Y014093D01*
X016288Y014081D01*
X016235Y014045D01*
X016199Y013992D01*
X016187Y01393D01*
X016192Y013902D01*
X015903Y013613D01*
X015857Y013632D01*
Y014554D01*
X015881Y014569D01*
X015916Y014622D01*
X015928Y014685D01*
X015916Y014747D01*
X015881Y0148D01*
X015828Y014835D01*
X015765Y014848D01*
X015757Y014846D01*
X015733Y01487D01*
X015721Y014932D01*
X015685Y014985D01*
X015632Y015021D01*
X01557Y015033D01*
D02*
G37*
G36*
X01367Y015353D02*
Y01525D01*
X013773D01*
X013771Y015262D01*
X013735Y015315D01*
X013682Y015351D01*
X01367Y015353D01*
D02*
G37*
G36*
X013049Y01572D02*
X01292D01*
Y015591D01*
X012942Y015596D01*
X013003Y015637D01*
X013044Y015698D01*
X013049Y01572D01*
D02*
G37*
G36*
X01282D02*
X012691D01*
X012696Y015698D01*
X012737Y015637D01*
X012798Y015596D01*
X01282Y015591D01*
Y01572D01*
D02*
G37*
G36*
Y015949D02*
X012798Y015944D01*
X012737Y015903D01*
X012696Y015842D01*
X012691Y01582D01*
X01282D01*
Y015949D01*
D02*
G37*
G36*
X01356Y016629D02*
X013488Y016614D01*
X013427Y016573D01*
X013386Y016512D01*
X013371Y01644D01*
X013386Y016368D01*
X013427Y016307D01*
X013488Y016266D01*
X01356Y016251D01*
X013632Y016266D01*
X013693Y016307D01*
X013734Y016368D01*
X013749Y01644D01*
X013734Y016512D01*
X013693Y016573D01*
X013632Y016614D01*
X01356Y016629D01*
D02*
G37*
G36*
X01292Y015949D02*
Y01582D01*
X013049D01*
X013044Y015842D01*
X013003Y015903D01*
X012942Y015944D01*
X01292Y015949D01*
D02*
G37*
G36*
X015178Y0154D02*
X015075D01*
Y015297D01*
X015087Y015299D01*
X01514Y015335D01*
X015176Y015388D01*
X015178Y0154D01*
D02*
G37*
G36*
X014975D02*
X014872D01*
X014874Y015388D01*
X01491Y015335D01*
X014962Y015299D01*
X014975Y015297D01*
Y0154D01*
D02*
G37*
G36*
Y015603D02*
X014962Y015601D01*
X01491Y015565D01*
X014874Y015512D01*
X014872Y0155D01*
X014975D01*
Y015603D01*
D02*
G37*
G36*
X01332Y015939D02*
X013248Y015924D01*
X013187Y015883D01*
X013146Y015822D01*
X013131Y01575D01*
X013146Y015678D01*
X013187Y015617D01*
X013248Y015576D01*
X01332Y015561D01*
X013392Y015576D01*
X013453Y015617D01*
X013494Y015678D01*
X013509Y01575D01*
X013494Y015822D01*
X013453Y015883D01*
X013392Y015924D01*
X01332Y015939D01*
D02*
G37*
G36*
X015075Y015603D02*
Y0155D01*
X015178D01*
X015176Y015512D01*
X01514Y015565D01*
X015087Y015601D01*
X015075Y015603D01*
D02*
G37*
G36*
X01276Y014763D02*
X012748Y014761D01*
X012695Y014725D01*
X012659Y014672D01*
X012657Y01466D01*
X01276D01*
Y014763D01*
D02*
G37*
G36*
X016923Y01351D02*
X01682D01*
Y013407D01*
X016832Y013409D01*
X016885Y013445D01*
X016921Y013498D01*
X016923Y01351D01*
D02*
G37*
G36*
X01672D02*
X016617D01*
X016619Y013498D01*
X016655Y013445D01*
X016708Y013409D01*
X01672Y013407D01*
Y01351D01*
D02*
G37*
G36*
X01456Y01363D02*
X014431D01*
X014436Y013608D01*
X014477Y013547D01*
X014538Y013506D01*
X01456Y013501D01*
Y01363D01*
D02*
G37*
G36*
X01672Y013713D02*
X016708Y013711D01*
X016655Y013675D01*
X016619Y013622D01*
X016617Y01361D01*
X01672D01*
Y013713D01*
D02*
G37*
G36*
X014789Y01363D02*
X01466D01*
Y013501D01*
X014682Y013506D01*
X014743Y013547D01*
X014784Y013608D01*
X014789Y01363D01*
D02*
G37*
G36*
X01706Y013321D02*
X016932D01*
Y013074D01*
X01706D01*
Y013321D01*
D02*
G37*
G36*
X0164Y013339D02*
X016328Y013324D01*
X016267Y013283D01*
X016226Y013222D01*
X016211Y01315D01*
X016226Y013078D01*
X016267Y013017D01*
X016328Y012976D01*
X0164Y012961D01*
X016472Y012976D01*
X016533Y013017D01*
X016574Y013078D01*
X016589Y01315D01*
X016574Y013222D01*
X016533Y013283D01*
X016472Y013324D01*
X0164Y013339D01*
D02*
G37*
G36*
X017288Y013321D02*
X01716D01*
Y013074D01*
X017288D01*
Y013321D01*
D02*
G37*
G36*
X01469Y013259D02*
Y01313D01*
X014819D01*
X014814Y013152D01*
X014773Y013213D01*
X014712Y013254D01*
X01469Y013259D01*
D02*
G37*
G36*
X01459D02*
X014568Y013254D01*
X014507Y013213D01*
X014466Y013152D01*
X014461Y01313D01*
X01459D01*
Y013259D01*
D02*
G37*
G36*
X01682Y013713D02*
Y01361D01*
X016923D01*
X016921Y013622D01*
X016885Y013675D01*
X016832Y013711D01*
X01682Y013713D01*
D02*
G37*
G36*
X012653Y014143D02*
Y01404D01*
X012756D01*
X012754Y014052D01*
X012719Y014105D01*
X012666Y014141D01*
X012653Y014143D01*
D02*
G37*
G36*
X012553D02*
X012541Y014141D01*
X012488Y014105D01*
X012452Y014052D01*
X01245Y01404D01*
X012553D01*
Y014143D01*
D02*
G37*
G36*
X01276Y01456D02*
X012657D01*
X012659Y014548D01*
X012695Y014495D01*
X012748Y014459D01*
X01276Y014457D01*
Y01456D01*
D02*
G37*
G36*
X014683Y01467D02*
X01458D01*
Y014567D01*
X014592Y014569D01*
X014645Y014605D01*
X014681Y014658D01*
X014683Y01467D01*
D02*
G37*
G36*
X012963Y01456D02*
X01286D01*
Y014457D01*
X012872Y014459D01*
X012925Y014495D01*
X012961Y014548D01*
X012963Y01456D01*
D02*
G37*
G36*
X01466Y013859D02*
Y01373D01*
X014789D01*
X014784Y013752D01*
X014743Y013813D01*
X014682Y013854D01*
X01466Y013859D01*
D02*
G37*
G36*
X01456D02*
X014538Y013854D01*
X014477Y013813D01*
X014436Y013752D01*
X014431Y01373D01*
X01456D01*
Y013859D01*
D02*
G37*
G36*
X01367Y014863D02*
X013608Y014851D01*
X013555Y014815D01*
X013519Y014762D01*
X013507Y0147D01*
X013519Y014638D01*
X013555Y014585D01*
X013578Y014569D01*
Y01443D01*
X013578Y01443D01*
X013578D01*
X013585Y014395D01*
X013605Y014365D01*
X014008Y013962D01*
Y013855D01*
X014006D01*
X013964Y013846D01*
X01393Y013823D01*
X013906Y013788D01*
X013898Y013747D01*
X013843Y013736D01*
X013565Y014015D01*
X013535Y014035D01*
X0135Y014042D01*
X013178D01*
X013163Y01406D01*
X013151Y014122D01*
X013115Y014175D01*
X013062Y014211D01*
X013Y014223D01*
X012938Y014211D01*
X012885Y014175D01*
X012849Y014122D01*
X012837Y01406D01*
X012849Y013998D01*
X012885Y013945D01*
X012913Y013926D01*
X012915Y013915D01*
X012915Y013915D01*
X012915Y013915D01*
X012908Y013871D01*
D01*
X012908D01*
D01*
D01*
X012908Y013871D01*
D01*
X012855Y013835D01*
X012819Y013782D01*
X012807Y01372D01*
X012807Y01372D01*
X012807Y01372D01*
X0128Y013683D01*
X012738Y013671D01*
X012685Y013635D01*
X012649Y013582D01*
X012637Y01352D01*
X012649Y013458D01*
X012685Y013405D01*
X012738Y013369D01*
X0128Y013357D01*
X012862Y013369D01*
X012869Y013362D01*
X012865Y01334D01*
X012857Y013312D01*
X012798Y013301D01*
X012745Y013265D01*
X012709Y013212D01*
X012697Y01315D01*
X012709Y013088D01*
X012745Y013035D01*
X012798Y012999D01*
X012841Y012991D01*
X012869Y012949D01*
X012867Y01294D01*
X012879Y012878D01*
X012915Y012825D01*
X012968Y012789D01*
X01303Y012777D01*
X013092Y012789D01*
X013145Y012825D01*
X013161Y012848D01*
X013292D01*
X013718Y012423D01*
X013718D01*
X013718Y012423D01*
X013718Y012423D01*
Y012423D01*
X013747Y012403D01*
X013783Y012396D01*
X0139D01*
Y012225D01*
X014075D01*
X014296Y012005D01*
Y011422D01*
X014238Y011411D01*
X014185Y011375D01*
X014149Y011322D01*
X014137Y01126D01*
X014149Y011198D01*
X014185Y011145D01*
X014238Y011109D01*
X0143Y011097D01*
X014362Y011109D01*
X014415Y011145D01*
X014451Y011198D01*
X014459Y011237D01*
X014472Y011257D01*
X014473Y011263D01*
X014479Y011293D01*
Y012043D01*
X014472Y012078D01*
X014452Y012107D01*
X0143Y01226D01*
Y012435D01*
X0143D01*
X014294Y012446D01*
X014302Y012487D01*
X014294Y012529D01*
X01427Y012563D01*
Y012569D01*
X014294Y012604D01*
X014302Y012645D01*
X014294Y012686D01*
X01427Y012721D01*
Y012727D01*
X014294Y012761D01*
X014302Y012802D01*
X014294Y012844D01*
X01427Y012878D01*
Y012884D01*
X014294Y012919D01*
X014302Y01296D01*
X014294Y013001D01*
X01427Y013036D01*
Y013041D01*
X014294Y013076D01*
X014302Y013117D01*
X014294Y013158D01*
X01427Y013193D01*
Y013199D01*
X014294Y013234D01*
X014302Y013275D01*
X014294Y013316D01*
X01427Y013351D01*
Y013356D01*
X014294Y013391D01*
X014302Y013432D01*
X014294Y013473D01*
X01427Y013508D01*
Y013514D01*
X014294Y013549D01*
X014302Y01359D01*
X014294Y013631D01*
X01427Y013666D01*
Y013671D01*
X014294Y013706D01*
X014302Y013747D01*
X014294Y013788D01*
X01427Y013823D01*
X014236Y013846D01*
X014194Y013855D01*
X014192D01*
Y014D01*
X014185Y014035D01*
X014165Y014065D01*
X013762Y014468D01*
Y014569D01*
X013785Y014585D01*
X013821Y014638D01*
X013833Y0147D01*
X013821Y014762D01*
X013785Y014815D01*
X013732Y014851D01*
X01367Y014863D01*
D02*
G37*
G36*
X012756Y01394D02*
X012653D01*
Y013837D01*
X012666Y013839D01*
X012719Y013875D01*
X012754Y013928D01*
X012756Y01394D01*
D02*
G37*
G36*
X012553D02*
X01245D01*
X012452Y013928D01*
X012488Y013875D01*
X012541Y013839D01*
X012553Y013837D01*
Y01394D01*
D02*
G37*
%LPD*%
D10*
X017Y0115D02*
D03*
X0175D02*
D03*
D26*
X01753Y01227D02*
G03*
X017484Y012316I-000046J0D01*
G01*
X0175Y0115D02*
X01753Y01153D01*
Y01197D01*
X01659Y01191D02*
X016736Y012056D01*
Y012316D01*
X01688Y01128D02*
Y01138D01*
X017Y0115D01*
X01753Y01197D02*
Y01227D01*
D27*
X01299Y01374D02*
X01346D01*
X01297Y01372D02*
X01299Y01374D01*
X01281Y01353D02*
X01341D01*
X0128Y01352D02*
X01281Y01353D01*
X01287Y01314D02*
X01334D01*
X01306Y01333D02*
X01332D01*
X0135Y01395D02*
X01386Y01359D01*
X01334Y01314D02*
X013835Y012645D01*
X01332Y01333D02*
X013848Y012802D01*
X01341Y01353D02*
X013665Y013275D01*
X01333Y01294D02*
X013783Y012487D01*
X01303Y01294D02*
X01333D01*
X013665Y013275D02*
X0141D01*
X015167Y013117D02*
X015537D01*
X01538Y01296D02*
X015537Y013117D01*
X015167Y01296D02*
X01538D01*
X014742Y011505D02*
Y011905D01*
X0147Y011464D02*
X014742Y011505D01*
X0147Y01123D02*
Y011464D01*
X0143Y01126D02*
X014355D01*
X014387Y011293D01*
X015637Y01136D02*
Y012643D01*
X01537Y01118D02*
Y01119D01*
Y01112D02*
Y01118D01*
Y01119D02*
X01539Y01121D01*
Y01203D01*
X015517Y012157D01*
X01521Y012087D02*
X015397Y012274D01*
X01521Y01145D02*
Y012087D01*
X01515Y01139D02*
X01521Y01145D01*
X015537Y013117D02*
X01635Y01393D01*
X015167Y013275D02*
X015445D01*
X015765Y013595D01*
Y014685D01*
X01557Y01364D02*
Y01487D01*
X015362Y013432D02*
X01557Y01364D01*
X015167Y013432D02*
X015362D01*
X015167Y01359D02*
X015174Y013597D01*
X01532D01*
X015397Y013673D01*
Y014663D01*
X015372Y014688D02*
X015397Y014663D01*
X01367Y01443D02*
X0141Y014D01*
Y013747D02*
Y014D01*
X01386Y01359D02*
X0141D01*
X01346Y01374D02*
X013768Y013432D01*
X0141D01*
X013848Y012802D02*
X0141D01*
X013835Y012645D02*
X0141D01*
X01286Y01315D02*
X01287Y01314D01*
X013783Y012487D02*
X0141D01*
Y01233D02*
X014387Y012043D01*
Y011293D02*
Y012043D01*
X014742Y011905D02*
X015167Y01233D01*
X015295Y012487D02*
X015397Y012386D01*
X015167Y012487D02*
X015295D01*
X015397Y012274D02*
Y012386D01*
X015478Y012802D02*
X015637Y012643D01*
X015397Y01264D02*
X015517Y01252D01*
Y012157D02*
Y01252D01*
X015167Y012645D02*
X015172Y01264D01*
X015397D01*
X015167Y012802D02*
X015478D01*
X01537Y01112D02*
X0154Y01115D01*
X01367Y01443D02*
Y0147D01*
X013Y01395D02*
Y01406D01*
Y01395D02*
X0135D01*
X01417Y01471D02*
X015133Y013747D01*
D31*
X01427Y02062D02*
D03*
D32*
X01327D02*
D03*
D33*
X014735Y010895D02*
D03*
X015157Y010948D02*
D03*
X0147Y01123D02*
D03*
X01537Y01118D02*
D03*
X01657Y01189D02*
D03*
X01753Y01197D02*
D03*
X0144Y0173D02*
D03*
X01386Y01727D02*
D03*
X01864Y01052D02*
D03*
X01833Y01079D02*
D03*
X01367Y0147D02*
D03*
X01971Y01507D02*
D03*
Y01416D02*
D03*
X01899Y01424D02*
D03*
X019Y01516D02*
D03*
X01728Y01547D02*
D03*
X01616Y01584D02*
D03*
X01541Y01661D02*
D03*
X01483Y0172D02*
D03*
X01563Y01731D02*
D03*
X01532Y01759D02*
D03*
X01297Y01372D02*
D03*
X013Y01406D02*
D03*
X0128Y01352D02*
D03*
X01306Y01333D02*
D03*
X01303Y01294D02*
D03*
X01286Y01315D02*
D03*
X0143Y01126D02*
D03*
X01432Y01081D02*
D03*
X01585Y011D02*
D03*
X01711Y01299D02*
D03*
X01677Y01356D02*
D03*
X01362Y0152D02*
D03*
X01281Y01461D02*
D03*
X012603Y01399D02*
D03*
X01261Y01277D02*
D03*
X01293Y012267D02*
D03*
X01715Y01215D02*
D03*
X01635Y01393D02*
D03*
X01557Y01487D02*
D03*
X015765Y014685D02*
D03*
X01685Y0174D02*
D03*
X01417Y01471D02*
D03*
X01559Y01136D02*
D03*
X015175Y01139D02*
D03*
X015372Y014688D02*
D03*
X015025Y01545D02*
D03*
X01512Y01485D02*
D03*
X014847Y015009D02*
D03*
X01453Y01472D02*
D03*
D34*
X01688Y01128D02*
D03*
X0173Y01108D02*
D03*
X01346Y01873D02*
D03*
X01356Y01644D02*
D03*
X019Y01312D02*
D03*
X01464Y01308D02*
D03*
X01461Y01368D02*
D03*
X01466Y01242D02*
D03*
X01885Y01765D02*
D03*
X01815D02*
D03*
X01885Y0183D02*
D03*
X0182D02*
D03*
X0164Y01315D02*
D03*
X0191Y02015D02*
D03*
X0203Y01935D02*
D03*
X0201Y01695D02*
D03*
X01957Y0111D02*
D03*
X01976Y01308D02*
D03*
X01541Y01803D02*
D03*
Y01878D02*
D03*
X0191Y01935D02*
D03*
X01955Y02015D02*
D03*
X01332Y01575D02*
D03*
X01287Y01577D02*
D03*
X01318Y01074D02*
D03*
X0198Y01673D02*
D03*
X01546Y02076D02*
D03*
X01354Y01957D02*
D03*
X01553Y02009D02*
D03*
D35*
X01828Y01126D02*
D03*
X0175Y02089D02*
D03*
X016333Y011317D02*
D03*
X0163Y0186D02*
D03*
Y0177D02*
D03*
X01667Y02035D02*
D03*
X01975Y01895D02*
D03*
X0171Y0188D02*
D03*
X01725Y01645D02*
D03*
X0182Y01575D02*
D03*
X01905Y0161D02*
D03*
X01955Y01615D02*
D03*
X0166Y01695D02*
D03*
X018Y01625D02*
D03*
X0186Y01605D02*
D03*
X0163Y0182D02*
D03*
D42*
X017484Y012316D02*
D03*
X016736D02*
D03*
X01711Y013024D02*
D03*
D43*
X015167Y013747D02*
D03*
Y01359D02*
D03*
Y013432D02*
D03*
Y013275D02*
D03*
Y013117D02*
D03*
Y01296D02*
D03*
Y012802D02*
D03*
Y012645D02*
D03*
Y012487D02*
D03*
Y01233D02*
D03*
X0141Y013747D02*
D03*
Y01359D02*
D03*
Y013432D02*
D03*
Y013275D02*
D03*
Y013117D02*
D03*
Y01296D02*
D03*
Y012802D02*
D03*
Y012645D02*
D03*
Y012487D02*
D03*
D44*
Y01233D02*
D03*
M02*
