%FSTAX24Y24*%
%MOIN*%
G70*
G01*
G75*
G04 Layer_Color=8388736*
%ADD10R,0.0250X0.0200*%
%ADD11R,0.0200X0.0250*%
%ADD12R,0.0098X0.0217*%
%ADD13O,0.0110X0.0335*%
%ADD14O,0.0335X0.0110*%
%ADD15R,0.2008X0.2008*%
%ADD16R,0.0472X0.0394*%
%ADD17R,0.0472X0.0394*%
%ADD18R,0.0945X0.0295*%
%ADD19R,0.0236X0.0197*%
%ADD20R,0.0157X0.0276*%
%ADD21R,0.0276X0.0157*%
%ADD22R,0.1457X0.1457*%
%ADD23O,0.0335X0.0118*%
%ADD24O,0.0118X0.0335*%
%ADD25R,0.0276X0.0354*%
%ADD26C,0.0100*%
%ADD27C,0.0060*%
%ADD28C,0.0080*%
%ADD29C,0.0200*%
%ADD30C,0.0150*%
%ADD31C,0.0591*%
%ADD32R,0.0591X0.0591*%
%ADD33C,0.0200*%
%ADD34C,0.0250*%
%ADD35C,0.0330*%
%ADD36C,0.0400*%
%ADD37C,0.0300*%
%ADD38C,0.0590*%
%ADD39C,0.0300*%
%ADD40C,0.0350*%
%ADD41C,0.0400*%
%ADD42R,0.0236X0.0472*%
%ADD43O,0.0280X0.0091*%
%ADD44R,0.0280X0.0091*%
%ADD45R,0.0310X0.0260*%
%ADD46R,0.0260X0.0310*%
%ADD47R,0.0158X0.0277*%
%ADD48O,0.0170X0.0395*%
%ADD49O,0.0395X0.0170*%
%ADD50R,0.2068X0.2068*%
%ADD51R,0.0532X0.0454*%
%ADD52R,0.0532X0.0454*%
%ADD53R,0.1005X0.0355*%
%ADD54R,0.0296X0.0257*%
%ADD55R,0.0217X0.0336*%
%ADD56R,0.0336X0.0217*%
%ADD57R,0.1517X0.1517*%
%ADD58O,0.0395X0.0178*%
%ADD59O,0.0178X0.0395*%
%ADD60R,0.0336X0.0414*%
%ADD61C,0.0651*%
%ADD62R,0.0651X0.0651*%
%ADD63C,0.0260*%
%ADD64C,0.0310*%
%ADD65C,0.0390*%
D45*
X01716Y01184D02*
D03*
X01666D02*
D03*
X01338Y01054D02*
D03*
X01388D02*
D03*
X01365Y01095D02*
D03*
X01315D02*
D03*
X01912Y013D02*
D03*
X01962D02*
D03*
X01942Y0112D02*
D03*
X01892D02*
D03*
X01695Y01145D02*
D03*
X01645D02*
D03*
X0176Y02075D02*
D03*
X0181D02*
D03*
X017Y0186D02*
D03*
X0165D02*
D03*
X017Y0182D02*
D03*
X0165D02*
D03*
X01695Y0178D02*
D03*
X01645D02*
D03*
X0173Y0162D02*
D03*
X0178D02*
D03*
X01655Y0123D02*
D03*
X01705D02*
D03*
D46*
X01321Y01511D02*
D03*
Y01561D02*
D03*
X01277D02*
D03*
Y01511D02*
D03*
X01356Y01813D02*
D03*
Y01863D02*
D03*
X01531Y01868D02*
D03*
Y01818D02*
D03*
X0168Y0202D02*
D03*
Y0197D02*
D03*
X019Y0195D02*
D03*
Y02D02*
D03*
X0204Y01875D02*
D03*
Y01925D02*
D03*
X0202Y01705D02*
D03*
Y01755D02*
D03*
X01945Y0195D02*
D03*
Y02D02*
D03*
X0171Y01715D02*
D03*
Y01665D02*
D03*
X01562Y02021D02*
D03*
Y02071D02*
D03*
D47*
X020006Y017965D02*
D03*
X020203D02*
D03*
X0204D02*
D03*
X020006Y0183D02*
D03*
X020203D02*
D03*
X0204D02*
D03*
D48*
X0136Y0117D02*
D03*
X013797D02*
D03*
X013994D02*
D03*
X014191D02*
D03*
X014387D02*
D03*
X014584D02*
D03*
X014781D02*
D03*
X014978D02*
D03*
X015175D02*
D03*
X015372D02*
D03*
X015568D02*
D03*
X015765D02*
D03*
Y014377D02*
D03*
X015568D02*
D03*
X015372D02*
D03*
X015175D02*
D03*
X014978D02*
D03*
X014781D02*
D03*
X014584D02*
D03*
X014387D02*
D03*
X014191D02*
D03*
X013994D02*
D03*
X013797D02*
D03*
X0136D02*
D03*
D49*
X016021Y011956D02*
D03*
Y012153D02*
D03*
Y01235D02*
D03*
Y012546D02*
D03*
Y012743D02*
D03*
Y01294D02*
D03*
Y013137D02*
D03*
Y013334D02*
D03*
Y013531D02*
D03*
Y013728D02*
D03*
Y013924D02*
D03*
Y014121D02*
D03*
X013344D02*
D03*
Y013924D02*
D03*
Y013728D02*
D03*
Y013531D02*
D03*
Y013334D02*
D03*
Y013137D02*
D03*
Y01294D02*
D03*
Y012743D02*
D03*
Y012546D02*
D03*
Y01235D02*
D03*
Y012153D02*
D03*
Y011956D02*
D03*
D50*
X014683Y013039D02*
D03*
D51*
X018119Y0197D02*
D03*
Y020212D02*
D03*
X01745D02*
D03*
D52*
Y0197D02*
D03*
D53*
X0221Y020708D02*
D03*
Y01935D02*
D03*
D54*
X021197Y0183D02*
D03*
X020803D02*
D03*
D55*
X018864Y012504D02*
D03*
X019376D02*
D03*
Y011696D02*
D03*
X01912D02*
D03*
X018864D02*
D03*
D56*
X013956Y018124D02*
D03*
Y018636D02*
D03*
X014764D02*
D03*
Y01838D02*
D03*
Y018124D02*
D03*
D57*
X01855Y01795D02*
D03*
D58*
X017585Y018442D02*
D03*
Y018245D02*
D03*
Y018048D02*
D03*
Y017655D02*
D03*
Y017261D02*
D03*
X019515Y017852D02*
D03*
Y018048D02*
D03*
Y018245D02*
D03*
Y018442D02*
D03*
Y018639D02*
D03*
X017585Y017852D02*
D03*
Y017458D02*
D03*
Y018639D02*
D03*
X019515Y017261D02*
D03*
Y017458D02*
D03*
Y017655D02*
D03*
D59*
X017861Y016985D02*
D03*
X019239Y018915D02*
D03*
X019042D02*
D03*
X018845D02*
D03*
X018255D02*
D03*
X018058D02*
D03*
Y016985D02*
D03*
X018255D02*
D03*
X018452D02*
D03*
X018648D02*
D03*
X018845D02*
D03*
X019042D02*
D03*
X019239D02*
D03*
X017861Y018915D02*
D03*
X018648D02*
D03*
X018452D02*
D03*
D60*
X013675Y01971D02*
D03*
X014265D02*
D03*
D61*
X01427Y02062D02*
D03*
D62*
X01327D02*
D03*
D63*
X014735Y010895D02*
D03*
X015157Y010948D02*
D03*
X0147Y01123D02*
D03*
X01537Y01118D02*
D03*
X01657Y01189D02*
D03*
X01753Y01197D02*
D03*
X0144Y0173D02*
D03*
X01386Y01727D02*
D03*
X01864Y01052D02*
D03*
X01833Y01079D02*
D03*
X01367Y0147D02*
D03*
X01971Y01507D02*
D03*
Y01416D02*
D03*
X01899Y01424D02*
D03*
X019Y01516D02*
D03*
X01728Y01547D02*
D03*
X01616Y01584D02*
D03*
X01541Y01661D02*
D03*
X01483Y0172D02*
D03*
X01563Y01731D02*
D03*
X01532Y01759D02*
D03*
X01297Y01372D02*
D03*
X013Y01406D02*
D03*
X0128Y01352D02*
D03*
X01306Y01333D02*
D03*
X01303Y01294D02*
D03*
X01286Y01315D02*
D03*
X0143Y01126D02*
D03*
X01432Y01081D02*
D03*
X01585Y011D02*
D03*
X01711Y01299D02*
D03*
X01677Y01356D02*
D03*
X01362Y0152D02*
D03*
X01281Y01461D02*
D03*
X012603Y01399D02*
D03*
X01261Y01277D02*
D03*
X01293Y012267D02*
D03*
X01715Y01215D02*
D03*
X01635Y01393D02*
D03*
X01557Y01487D02*
D03*
X015765Y014685D02*
D03*
X01685Y0174D02*
D03*
X01417Y01471D02*
D03*
X01559Y01136D02*
D03*
X015175Y01139D02*
D03*
X015372Y014688D02*
D03*
X015025Y01545D02*
D03*
X01512Y01485D02*
D03*
X014847Y015009D02*
D03*
X01453Y01472D02*
D03*
D64*
X01688Y01128D02*
D03*
X0173Y01108D02*
D03*
X01346Y01873D02*
D03*
X01356Y01644D02*
D03*
X019Y01312D02*
D03*
X01464Y01308D02*
D03*
X01461Y01368D02*
D03*
X01466Y01242D02*
D03*
X01885Y01765D02*
D03*
X01815D02*
D03*
X01885Y0183D02*
D03*
X0182D02*
D03*
X0164Y01315D02*
D03*
X0191Y02015D02*
D03*
X0203Y01935D02*
D03*
X0201Y01695D02*
D03*
X01957Y0111D02*
D03*
X01976Y01308D02*
D03*
X01541Y01803D02*
D03*
Y01878D02*
D03*
X0191Y01935D02*
D03*
X01955Y02015D02*
D03*
X01332Y01575D02*
D03*
X01287Y01577D02*
D03*
X01318Y01074D02*
D03*
X0198Y01673D02*
D03*
X01546Y02076D02*
D03*
X01354Y01957D02*
D03*
X01553Y02009D02*
D03*
D65*
X01828Y01126D02*
D03*
X0175Y02089D02*
D03*
X016333Y011317D02*
D03*
X0163Y0186D02*
D03*
Y0177D02*
D03*
X01667Y02035D02*
D03*
X01975Y01895D02*
D03*
X0171Y0188D02*
D03*
X01725Y01645D02*
D03*
X0182Y01575D02*
D03*
X01905Y0161D02*
D03*
X01955Y01615D02*
D03*
X0166Y01695D02*
D03*
X018Y01625D02*
D03*
X0186Y01605D02*
D03*
X0163Y0182D02*
D03*
M02*
