%FSTAX24Y24*%
%MOIN*%
%SFA1B1*%

%IPPOS*%
%ADD45R,0.031000X0.026000*%
%ADD61C,0.065100*%
%ADD62R,0.065100X0.065100*%
%ADD63C,0.026000*%
%ADD64C,0.031000*%
%ADD65C,0.039000*%
%ADD66R,0.029600X0.053200*%
%ADD67O,0.034000X0.015100*%
%ADD68R,0.034000X0.015100*%
%LN16_chan-1*%
%LPD*%
G54D45*
X017Y0115D03*
X0175D03*
G54D61*
X01427Y02062D03*
G54D62*
X01327Y02062D03*
G54D63*
X014735Y010895D03*
X015157Y010948D03*
X0147Y01123D03*
X01537Y01118D03*
X01657Y01189D03*
X01753Y01197D03*
X0144Y0173D03*
X01386Y01727D03*
X01864Y01052D03*
X01833Y01079D03*
X01367Y0147D03*
X01971Y01507D03*
Y01416D03*
X01899Y01424D03*
X019Y01516D03*
X01728Y01547D03*
X01616Y01584D03*
X01541Y01661D03*
X01483Y0172D03*
X01563Y01731D03*
X01532Y01759D03*
X01297Y01372D03*
X013Y01406D03*
X0128Y01352D03*
X01306Y01333D03*
X01303Y01294D03*
X01286Y01315D03*
X0143Y01126D03*
X01432Y01081D03*
X01585Y011D03*
X01711Y01299D03*
X01677Y01356D03*
X01362Y0152D03*
X01281Y01461D03*
X012603Y01399D03*
X01261Y01277D03*
X01293Y012267D03*
X01715Y01215D03*
X01635Y01393D03*
X01557Y01487D03*
X015765Y014685D03*
X01685Y0174D03*
X01417Y01471D03*
X01559Y01136D03*
X015175Y01139D03*
X015372Y014688D03*
X015025Y01545D03*
X01512Y01485D03*
X014847Y015009D03*
X01453Y01472D03*
G54D64*
X01688Y01128D03*
X0173Y01108D03*
X01346Y01873D03*
X01356Y01644D03*
X019Y01312D03*
X01464Y01308D03*
X01461Y01368D03*
X01466Y01242D03*
X01885Y01765D03*
X01815D03*
X01885Y0183D03*
X0182D03*
X0164Y01315D03*
X0191Y02015D03*
X0203Y01935D03*
X0201Y01695D03*
X01957Y0111D03*
X01976Y01308D03*
X01541Y01803D03*
Y01878D03*
X0191Y01935D03*
X01955Y02015D03*
X01332Y01575D03*
X01287Y01577D03*
X01318Y01074D03*
X0198Y01673D03*
X01546Y02076D03*
X01354Y01957D03*
X01553Y02009D03*
G54D65*
X01828Y01126D03*
X0175Y02089D03*
X016333Y011317D03*
X0163Y0186D03*
Y0177D03*
X01667Y02035D03*
X01975Y01895D03*
X0171Y0188D03*
X01725Y01645D03*
X0182Y01575D03*
X01905Y0161D03*
X01955Y01615D03*
X0166Y01695D03*
X018Y01625D03*
X0186Y01605D03*
X0163Y0182D03*
G54D66*
X017484Y012316D03*
X016736D03*
X01711Y013024D03*
G54D67*
X015167Y013747D03*
Y01359D03*
Y013432D03*
Y013275D03*
Y013117D03*
Y01296D03*
Y012802D03*
Y012645D03*
Y012487D03*
Y01233D03*
X0141Y013747D03*
Y01359D03*
Y013432D03*
Y013275D03*
Y013117D03*
Y01296D03*
Y012802D03*
Y012645D03*
Y012487D03*
G54D68*
X0141Y01233D03*
M02*