%FSTAX24Y24*%
%MOIN*%
%SFA1B1*%

%IPPOS*%
%ADD10R,0.025000X0.020000*%
%ADD26C,0.010000*%
%ADD27C,0.006000*%
%ADD31C,0.059100*%
%ADD32R,0.059100X0.059100*%
%ADD33C,0.020000*%
%ADD34C,0.025000*%
%ADD35C,0.033000*%
%ADD42R,0.023600X0.047200*%
%ADD43O,0.028000X0.009100*%
%ADD44R,0.028000X0.009100*%
%LN16_chan-1*%
%LPD*%
G36*
X01768Y01332D02*
Y012612D01*
X017662*
X017306*
Y012292*
X017297Y012287*
X017262Y012268*
X017212Y012301*
X0172Y012303*
Y01215*
Y011997*
X017212Y011999*
X017265Y012035*
X017306Y012087*
Y012019*
X017337*
X017369Y011981*
X017367Y01197*
X017379Y011908*
X017415Y011855*
X017418Y011853*
Y01166*
X017315*
Y01134*
X01768*
Y01034*
X012326*
X01229Y010375*
Y016715*
X012325Y01675*
X01429*
X01768Y01332*
G37*
%LN16_chan-2*%
%LPC*%
G36*
X0171Y012303D02*
X017088Y012301D01*
X017035Y012265*
X016999Y012212*
X016997Y0122*
X0171*
Y012303*
G37*
G36*
X013083Y012217D02*
X01298D01*
Y012114*
X012992Y012116*
X013045Y012151*
X013081Y012204*
X013083Y012217*
G37*
G36*
X014839Y01237D02*
X01471D01*
Y012241*
X014732Y012246*
X014793Y012287*
X014834Y012348*
X014839Y01237*
G37*
G36*
X01461D02*
X014481D01*
X014486Y012348*
X014527Y012287*
X014588Y012246*
X01461Y012241*
Y01237*
G37*
G36*
X017185Y01166D02*
X01705D01*
Y01155*
X017185*
Y01166*
G37*
G36*
X01695D02*
X016815D01*
Y01155*
X01695*
Y01166*
G37*
G36*
X016914Y012612D02*
X016558D01*
Y012051*
X016508Y012041*
X016455Y012005*
X016419Y011952*
X016407Y01189*
X016419Y011828*
X016455Y011775*
X016508Y011739*
X01657Y011727*
X016632Y011739*
X016685Y011775*
X016721Y011828*
X016733Y01189*
X016732Y011894*
X016815Y011977*
X01684Y012013*
X016841Y012019*
X016914*
Y012612*
G37*
G36*
X01288Y012217D02*
X012777D01*
X012779Y012204*
X012815Y012151*
X012868Y012116*
X01288Y012114*
Y012217*
G37*
G36*
X0171Y0121D02*
X016997D01*
X016999Y012088*
X017035Y012035*
X017088Y011999*
X0171Y011997*
Y0121*
G37*
G36*
X01288Y01242D02*
X012868Y012418D01*
X012815Y012382*
X012779Y012329*
X012777Y012317*
X01288*
Y01242*
G37*
G36*
X017288Y012974D02*
X01716D01*
Y012728*
X017288*
Y012974*
G37*
G36*
X01706D02*
X016932D01*
Y012728*
X01706*
Y012974*
G37*
G36*
X01256Y012923D02*
X012548Y012921D01*
X012495Y012885*
X012459Y012832*
X012457Y01282*
X01256*
Y012923*
G37*
G36*
X01459Y01303D02*
X014461D01*
X014466Y013008*
X014507Y012947*
X014568Y012906*
X01459Y012901*
Y01303*
G37*
G36*
X01266Y012923D02*
Y01282D01*
X012763*
X012761Y012832*
X012725Y012885*
X012672Y012921*
X01266Y012923*
G37*
G36*
X01461Y012599D02*
X014588Y012594D01*
X014527Y012553*
X014486Y012492*
X014481Y01247*
X01461*
Y012599*
G37*
G36*
X01298Y01242D02*
Y012317D01*
X013083*
X013081Y012329*
X013045Y012382*
X012992Y012418*
X01298Y01242*
G37*
G36*
X01471Y012599D02*
Y01247D01*
X014839*
X014834Y012492*
X014793Y012553*
X014732Y012594*
X01471Y012599*
G37*
G36*
X012763Y01272D02*
X01266D01*
Y012617*
X012672Y012619*
X012725Y012655*
X012761Y012708*
X012763Y01272*
G37*
G36*
X01256D02*
X012457D01*
X012459Y012708*
X012495Y012655*
X012548Y012619*
X01256Y012617*
Y01272*
G37*
G36*
X016815Y011474D02*
X016801Y011459D01*
X016789Y011442*
X016747Y011413*
X016706Y011352*
X016701Y01133*
X017059*
X017064Y011301*
X017096Y01134*
X017185*
Y01145*
X016815*
Y011474*
G37*
G36*
X01313Y010919D02*
X013108Y010914D01*
X013047Y010873*
X013006Y010812*
X013001Y01079*
X01313*
Y010919*
G37*
G36*
X014888Y010845D02*
X014785D01*
Y010741*
X014797Y010744*
X01485Y010779*
X014885Y010832*
X014888Y010845*
G37*
G36*
X01323Y010919D02*
Y01079D01*
X013359*
X013354Y010812*
X013313Y010873*
X013252Y010914*
X01323Y010919*
G37*
G36*
X01531Y010898D02*
X015207D01*
Y010795*
X015219Y010797*
X015272Y010833*
X015308Y010885*
X01531Y010898*
G37*
G36*
X015107D02*
X015004D01*
X015006Y010885*
X015042Y010833*
X015094Y010797*
X015107Y010795*
Y010898*
G37*
G36*
X013359Y01069D02*
X01323D01*
Y010561*
X013252Y010566*
X013313Y010607*
X013354Y010668*
X013359Y01069*
G37*
G36*
X01313D02*
X013001D01*
X013006Y010668*
X013047Y010607*
X013108Y010566*
X01313Y010561*
Y01069*
G37*
G36*
X01427Y01076D02*
X014167D01*
X014169Y010748*
X014205Y010695*
X014258Y010659*
X01427Y010657*
Y01076*
G37*
G36*
X014685Y010845D02*
X014581D01*
X014584Y010832*
X014619Y010779*
X014672Y010744*
X014685Y010741*
Y010845*
G37*
G36*
X014473Y01076D02*
X01437D01*
Y010657*
X014382Y010659*
X014435Y010695*
X014471Y010748*
X014473Y01076*
G37*
G36*
X0158Y01095D02*
X015697D01*
X015699Y010938*
X015735Y010885*
X015788Y010849*
X0158Y010847*
Y01095*
G37*
G36*
X0159Y011153D02*
Y01105D01*
X016003*
X016001Y011062*
X015965Y011115*
X015912Y011151*
X0159Y011153*
G37*
G36*
X0158D02*
X015788Y011151D01*
X015735Y011115*
X015699Y011062*
X015697Y01105*
X0158*
Y011153*
G37*
G36*
X016333Y011546D02*
X016245Y011529D01*
X016171Y011479*
X016121Y011405*
X016104Y011317*
X016121Y011229*
X016171Y011155*
X016245Y011105*
X016333Y011088*
X016421Y011105*
X016495Y011155*
X016545Y011229*
X016562Y011317*
X016545Y011405*
X016495Y011479*
X016421Y011529*
X016333Y011546*
G37*
G36*
X017059Y01123D02*
X01693D01*
Y011101*
X016952Y011106*
X017013Y011147*
X017054Y011208*
X017059Y01123*
G37*
G36*
X01683D02*
X016701D01*
X016706Y011208*
X016747Y011147*
X016808Y011106*
X01683Y011101*
Y01123*
G37*
G36*
X01427Y010963D02*
X014258Y010961D01*
X014205Y010925*
X014169Y010872*
X014167Y01086*
X01427*
Y010963*
G37*
G36*
X016003Y01095D02*
X0159D01*
Y010847*
X015912Y010849*
X015965Y010885*
X016001Y010938*
X016003Y01095*
G37*
G36*
X01437Y010963D02*
Y01086D01*
X014473*
X014471Y010872*
X014435Y010925*
X014382Y010961*
X01437Y010963*
G37*
G36*
X015107Y011101D02*
X015094Y011099D01*
X015042Y011063*
X015006Y01101*
X015004Y010998*
X015107*
Y011101*
G37*
G36*
X0173Y011269D02*
X017228Y011254D01*
X017167Y011213*
X017126Y011152*
X017111Y01108*
X017126Y011008*
X017167Y010947*
X017228Y010906*
X0173Y010891*
X017372Y010906*
X017433Y010947*
X017474Y011008*
X017489Y01108*
X017474Y011152*
X017433Y011213*
X017372Y011254*
X0173Y011269*
G37*
G36*
X014819Y01303D02*
X01469D01*
Y012901*
X014712Y012906*
X014773Y012947*
X014814Y013008*
X014819Y01303*
G37*
G36*
X013773Y01515D02*
X01367D01*
Y015047*
X013682Y015049*
X013735Y015085*
X013771Y015138*
X013773Y01515*
G37*
G36*
X01357D02*
X013467D01*
X013469Y015138*
X013505Y015085*
X013558Y015049*
X01357Y015047*
Y01515*
G37*
G36*
X014797Y015162D02*
X014784Y01516D01*
X014731Y015125*
X014696Y015072*
X014693Y015059*
X014797*
Y015162*
G37*
G36*
X01357Y015353D02*
X013558Y015351D01*
X013505Y015315*
X013469Y015262*
X013467Y01525*
X01357*
Y015353*
G37*
G36*
X014897Y015162D02*
Y015059D01*
X015*
X014997Y015072*
X014962Y015125*
X014909Y01516*
X014897Y015162*
G37*
G36*
X01448Y014873D02*
X014468Y014871D01*
X014415Y014835*
X014379Y014782*
X014377Y01477*
X01448*
Y014873*
G37*
G36*
X01286Y014763D02*
Y01466D01*
X012963*
X012961Y014672*
X012925Y014725*
X012872Y014761*
X01286Y014763*
G37*
G36*
X01458Y014873D02*
Y01477D01*
X014683*
X014681Y014782*
X014645Y014835*
X014592Y014871*
X01458Y014873*
G37*
G36*
X014797Y014959D02*
X014693D01*
X014696Y014947*
X014731Y014894*
X014784Y014859*
X014797Y014856*
Y014959*
G37*
G36*
X01557Y015033D02*
X015508Y015021D01*
X015455Y014985*
X015419Y014932*
X015407Y01487*
X015386Y014849*
X015372Y014851*
X015309Y014839*
X015304Y014836*
X015283Y01485*
X015271Y014912*
X015235Y014965*
X015182Y015001*
X01512Y015013*
X015058Y015001*
X015056Y015*
X015045Y015002*
X015008Y015018*
X01501Y015009*
X015Y014959*
X014897*
Y014856*
X014909Y014859*
X01491*
X014921Y014857*
X014959Y014842*
X014969Y014788*
X015005Y014735*
X015058Y014699*
X01512Y014687*
X015182Y014699*
X015187Y014703*
X015209Y014688*
X015221Y014626*
X015256Y014573*
X015305Y01454*
Y013885*
X015266Y013854*
X015261Y013855*
X015155*
X014495Y014515*
X014518Y014559*
X01448Y014567*
Y01467*
X014377*
X014367Y01472*
X014374Y014756*
X014324*
X014321Y014772*
X014285Y014825*
X014232Y014861*
X01417Y014873*
X014108Y014861*
X014055Y014825*
X014019Y014772*
X014007Y01471*
X014019Y014648*
X014055Y014595*
X014108Y014559*
X01417Y014547*
X014198Y014552*
X014971Y013779*
X014965Y013747*
X014973Y013706*
X014997Y013671*
Y013666*
X014973Y013631*
X014965Y01359*
X014973Y013549*
X014997Y013514*
Y013508*
X014973Y013473*
X014965Y013432*
X014973Y013391*
X014997Y013356*
Y013351*
X014973Y013316*
X014965Y013275*
X014973Y013234*
X014997Y013199*
Y013193*
X014973Y013158*
X014965Y013117*
X014973Y013076*
X014997Y013041*
Y013036*
X014973Y013001*
X014965Y01296*
X014973Y012919*
X014997Y012884*
Y012878*
X014973Y012844*
X014965Y012802*
X014973Y012761*
X014997Y012727*
Y012721*
X014973Y012686*
X014965Y012645*
X014973Y012604*
X014997Y012569*
Y012563*
X014973Y012529*
X014965Y012487*
X014973Y012446*
X014997Y012412*
Y012406*
X014973Y012371*
X014965Y01233*
X014973Y012289*
X014982Y012275*
X014677Y01197*
X014657Y01194*
X01465Y011905*
Y011543*
X014635Y011528*
X014615Y011499*
X014608Y011464*
Y011361*
X014585Y011345*
X014549Y011292*
X014537Y01123*
X014549Y011168*
X014585Y011115*
X014638Y011079*
X014639*
X014649Y01103*
X014619Y01101*
X014584Y010957*
X014581Y010945*
X014888*
X014885Y010957*
X01485Y01101*
X014797Y011045*
X014795Y011046*
X014786Y011095*
X014815Y011115*
X014851Y011168*
X014863Y01123*
X014851Y011292*
X014815Y011345*
X014792Y011361*
Y011426*
X014807Y01144*
X014827Y01147*
X014834Y011505*
Y011867*
X015065Y012098*
X015113Y012088*
X015118Y012086*
Y011542*
X015112Y011541*
X015059Y011505*
X015024Y011452*
X015012Y01139*
X015024Y011328*
X015059Y011275*
X015112Y011239*
X015175Y011227*
X015209Y011192*
X015207Y01118*
X015214Y011142*
X015179Y011107*
X015207Y011101*
Y010998*
X01531*
X015312Y010986*
X015348Y011021*
X01537Y011017*
X015432Y011029*
X015485Y011065*
X015521Y011118*
X015532Y011172*
X015573Y0112*
X01559Y011197*
X015652Y011209*
X015705Y011245*
X015741Y011298*
X015753Y01136*
X015741Y011422*
X015728Y011441*
Y012643*
X015721Y012678*
X015702Y012708*
X015542Y012867*
X015513Y012887*
X015478Y012894*
Y012928*
X015602Y013053*
X016322Y013772*
X01635Y013767*
X016412Y013779*
X016465Y013815*
X016501Y013868*
X016513Y01393*
X016501Y013992*
X016465Y014045*
X016412Y014081*
X01635Y014093*
X016288Y014081*
X016235Y014045*
X016199Y013992*
X016187Y01393*
X016192Y013902*
X015903Y013613*
X015857Y013632*
Y014554*
X015881Y014569*
X015916Y014622*
X015928Y014685*
X015916Y014747*
X015881Y0148*
X015828Y014835*
X015765Y014848*
X015757Y014846*
X015733Y01487*
X015721Y014932*
X015685Y014985*
X015632Y015021*
X01557Y015033*
G37*
G36*
X01367Y015353D02*
Y01525D01*
X013773*
X013771Y015262*
X013735Y015315*
X013682Y015351*
X01367Y015353*
G37*
G36*
X013049Y01572D02*
X01292D01*
Y015591*
X012942Y015596*
X013003Y015637*
X013044Y015698*
X013049Y01572*
G37*
G36*
X01282D02*
X012691D01*
X012696Y015698*
X012737Y015637*
X012798Y015596*
X01282Y015591*
Y01572*
G37*
G36*
Y015949D02*
X012798Y015944D01*
X012737Y015903*
X012696Y015842*
X012691Y01582*
X01282*
Y015949*
G37*
G36*
X01356Y016629D02*
X013488Y016614D01*
X013427Y016573*
X013386Y016512*
X013371Y01644*
X013386Y016368*
X013427Y016307*
X013488Y016266*
X01356Y016251*
X013632Y016266*
X013693Y016307*
X013734Y016368*
X013749Y01644*
X013734Y016512*
X013693Y016573*
X013632Y016614*
X01356Y016629*
G37*
G36*
X01292Y015949D02*
Y01582D01*
X013049*
X013044Y015842*
X013003Y015903*
X012942Y015944*
X01292Y015949*
G37*
G36*
X015178Y0154D02*
X015075D01*
Y015297*
X015087Y015299*
X01514Y015335*
X015176Y015388*
X015178Y0154*
G37*
G36*
X014975D02*
X014872D01*
X014874Y015388*
X01491Y015335*
X014962Y015299*
X014975Y015297*
Y0154*
G37*
G36*
Y015603D02*
X014962Y015601D01*
X01491Y015565*
X014874Y015512*
X014872Y0155*
X014975*
Y015603*
G37*
G36*
X01332Y015939D02*
X013248Y015924D01*
X013187Y015883*
X013146Y015822*
X013131Y01575*
X013146Y015678*
X013187Y015617*
X013248Y015576*
X01332Y015561*
X013392Y015576*
X013453Y015617*
X013494Y015678*
X013509Y01575*
X013494Y015822*
X013453Y015883*
X013392Y015924*
X01332Y015939*
G37*
G36*
X015075Y015603D02*
Y0155D01*
X015178*
X015176Y015512*
X01514Y015565*
X015087Y015601*
X015075Y015603*
G37*
G36*
X01276Y014763D02*
X012748Y014761D01*
X012695Y014725*
X012659Y014672*
X012657Y01466*
X01276*
Y014763*
G37*
G36*
X016923Y01351D02*
X01682D01*
Y013407*
X016832Y013409*
X016885Y013445*
X016921Y013498*
X016923Y01351*
G37*
G36*
X01672D02*
X016617D01*
X016619Y013498*
X016655Y013445*
X016708Y013409*
X01672Y013407*
Y01351*
G37*
G36*
X01456Y01363D02*
X014431D01*
X014436Y013608*
X014477Y013547*
X014538Y013506*
X01456Y013501*
Y01363*
G37*
G36*
X01672Y013713D02*
X016708Y013711D01*
X016655Y013675*
X016619Y013622*
X016617Y01361*
X01672*
Y013713*
G37*
G36*
X014789Y01363D02*
X01466D01*
Y013501*
X014682Y013506*
X014743Y013547*
X014784Y013608*
X014789Y01363*
G37*
G36*
X01706Y013321D02*
X016932D01*
Y013074*
X01706*
Y013321*
G37*
G36*
X0164Y013339D02*
X016328Y013324D01*
X016267Y013283*
X016226Y013222*
X016211Y01315*
X016226Y013078*
X016267Y013017*
X016328Y012976*
X0164Y012961*
X016472Y012976*
X016533Y013017*
X016574Y013078*
X016589Y01315*
X016574Y013222*
X016533Y013283*
X016472Y013324*
X0164Y013339*
G37*
G36*
X017288Y013321D02*
X01716D01*
Y013074*
X017288*
Y013321*
G37*
G36*
X01469Y013259D02*
Y01313D01*
X014819*
X014814Y013152*
X014773Y013213*
X014712Y013254*
X01469Y013259*
G37*
G36*
X01459D02*
X014568Y013254D01*
X014507Y013213*
X014466Y013152*
X014461Y01313*
X01459*
Y013259*
G37*
G36*
X01682Y013713D02*
Y01361D01*
X016923*
X016921Y013622*
X016885Y013675*
X016832Y013711*
X01682Y013713*
G37*
G36*
X012653Y014143D02*
Y01404D01*
X012756*
X012754Y014052*
X012719Y014105*
X012666Y014141*
X012653Y014143*
G37*
G36*
X012553D02*
X012541Y014141D01*
X012488Y014105*
X012452Y014052*
X01245Y01404*
X012553*
Y014143*
G37*
G36*
X01276Y01456D02*
X012657D01*
X012659Y014548*
X012695Y014495*
X012748Y014459*
X01276Y014457*
Y01456*
G37*
G36*
X014683Y01467D02*
X01458D01*
Y014567*
X014592Y014569*
X014645Y014605*
X014681Y014658*
X014683Y01467*
G37*
G36*
X012963Y01456D02*
X01286D01*
Y014457*
X012872Y014459*
X012925Y014495*
X012961Y014548*
X012963Y01456*
G37*
G36*
X01466Y013859D02*
Y01373D01*
X014789*
X014784Y013752*
X014743Y013813*
X014682Y013854*
X01466Y013859*
G37*
G36*
X01456D02*
X014538Y013854D01*
X014477Y013813*
X014436Y013752*
X014431Y01373*
X01456*
Y013859*
G37*
G36*
X01367Y014863D02*
X013608Y014851D01*
X013555Y014815*
X013519Y014762*
X013507Y0147*
X013519Y014638*
X013555Y014585*
X013578Y014569*
Y01443*
X013585Y014395*
X013605Y014365*
X014008Y013962*
Y013855*
X014006*
X013964Y013846*
X01393Y013823*
X013906Y013788*
X013898Y013747*
X013843Y013736*
X013565Y014015*
X013535Y014035*
X0135Y014042*
X013178*
X013163Y01406*
X013151Y014122*
X013115Y014175*
X013062Y014211*
X013Y014223*
X012938Y014211*
X012885Y014175*
X012849Y014122*
X012837Y01406*
X012849Y013998*
X012885Y013945*
X012913Y013926*
X012915Y013915*
X012908Y013871*
X012855Y013835*
X012819Y013782*
X012807Y01372*
X0128Y013683*
X012738Y013671*
X012685Y013635*
X012649Y013582*
X012637Y01352*
X012649Y013458*
X012685Y013405*
X012738Y013369*
X0128Y013357*
X012862Y013369*
X012869Y013362*
X012865Y01334*
X012857Y013312*
X012798Y013301*
X012745Y013265*
X012709Y013212*
X012697Y01315*
X012709Y013088*
X012745Y013035*
X012798Y012999*
X012841Y012991*
X012869Y012949*
X012867Y01294*
X012879Y012878*
X012915Y012825*
X012968Y012789*
X01303Y012777*
X013092Y012789*
X013145Y012825*
X013161Y012848*
X013292*
X013718Y012423*
X013747Y012403*
X013783Y012396*
X0139*
Y012225*
X014075*
X014296Y012005*
Y011422*
X014238Y011411*
X014185Y011375*
X014149Y011322*
X014137Y01126*
X014149Y011198*
X014185Y011145*
X014238Y011109*
X0143Y011097*
X014362Y011109*
X014415Y011145*
X014451Y011198*
X014459Y011237*
X014472Y011257*
X014473Y011263*
X014479Y011293*
Y012043*
X014472Y012078*
X014452Y012107*
X0143Y01226*
Y012435*
X014294Y012446*
X014302Y012487*
X014294Y012529*
X01427Y012563*
Y012569*
X014294Y012604*
X014302Y012645*
X014294Y012686*
X01427Y012721*
Y012727*
X014294Y012761*
X014302Y012802*
X014294Y012844*
X01427Y012878*
Y012884*
X014294Y012919*
X014302Y01296*
X014294Y013001*
X01427Y013036*
Y013041*
X014294Y013076*
X014302Y013117*
X014294Y013158*
X01427Y013193*
Y013199*
X014294Y013234*
X014302Y013275*
X014294Y013316*
X01427Y013351*
Y013356*
X014294Y013391*
X014302Y013432*
X014294Y013473*
X01427Y013508*
Y013514*
X014294Y013549*
X014302Y01359*
X014294Y013631*
X01427Y013666*
Y013671*
X014294Y013706*
X014302Y013747*
X014294Y013788*
X01427Y013823*
X014236Y013846*
X014194Y013855*
X014192*
Y014*
X014185Y014035*
X014165Y014065*
X013762Y014468*
Y014569*
X013785Y014585*
X013821Y014638*
X013833Y0147*
X013821Y014762*
X013785Y014815*
X013732Y014851*
X01367Y014863*
G37*
G36*
X012756Y01394D02*
X012653D01*
Y013837*
X012666Y013839*
X012719Y013875*
X012754Y013928*
X012756Y01394*
G37*
G36*
X012553D02*
X01245D01*
X012452Y013928*
X012488Y013875*
X012541Y013839*
X012553Y013837*
Y01394*
G37*
%LN16_chan-3*%
%LPD*%
G54D10*
X017Y0115D03*
X0175D03*
G54D26*
X01753Y01227D02*
D01*
D01*
G75*
G03X017484Y012316I-000046J0D01*
G74*G01*
X0175Y0115D02*
X01753Y01153D01*
Y01197*
X01659Y01191D02*
X016736Y012056D01*
Y012316*
X01688Y01128D02*
Y01138D01*
X017Y0115*
X01753Y01197D02*
Y01227D01*
G54D27*
X01299Y01374D02*
X01346D01*
X01297Y01372D02*
X01299Y01374D01*
X01281Y01353D02*
X01341D01*
X0128Y01352D02*
X01281Y01353D01*
X01287Y01314D02*
X01334D01*
X01306Y01333D02*
X01332D01*
X0135Y01395D02*
X01386Y01359D01*
X01334Y01314D02*
X013835Y012645D01*
X01332Y01333D02*
X013848Y012802D01*
X01341Y01353D02*
X013665Y013275D01*
X01333Y01294D02*
X013783Y012487D01*
X01303Y01294D02*
X01333D01*
X013665Y013275D02*
X0141D01*
X015167Y013117D02*
X015537D01*
X01538Y01296D02*
X015537Y013117D01*
X015167Y01296D02*
X01538D01*
X014742Y011505D02*
Y011905D01*
X0147Y011464D02*
X014742Y011505D01*
X0147Y01123D02*
Y011464D01*
X0143Y01126D02*
X014355D01*
X014387Y011293*
X015637Y01136D02*
Y012643D01*
X01537Y01118D02*
Y01119D01*
Y01112D02*
Y01118D01*
Y01119D02*
X01539Y01121D01*
Y01203*
X015517Y012157*
X01521Y012087D02*
X015397Y012274D01*
X01521Y01145D02*
Y012087D01*
X01515Y01139D02*
X01521Y01145D01*
X015537Y013117D02*
X01635Y01393D01*
X015167Y013275D02*
X015445D01*
X015765Y013595*
Y014685*
X01557Y01364D02*
Y01487D01*
X015362Y013432D02*
X01557Y01364D01*
X015167Y013432D02*
X015362D01*
X015167Y01359D02*
X015174Y013597D01*
X01532*
X015397Y013673*
Y014663*
X015372Y014688D02*
X015397Y014663D01*
X01367Y01443D02*
X0141Y014D01*
Y013747D02*
Y014D01*
X01386Y01359D02*
X0141D01*
X01346Y01374D02*
X013768Y013432D01*
X0141*
X013848Y012802D02*
X0141D01*
X013835Y012645D02*
X0141D01*
X01286Y01315D02*
X01287Y01314D01*
X013783Y012487D02*
X0141D01*
Y01233D02*
X014387Y012043D01*
Y011293D02*
Y012043D01*
X014742Y011905D02*
X015167Y01233D01*
X015295Y012487D02*
X015397Y012386D01*
X015167Y012487D02*
X015295D01*
X015397Y012274D02*
Y012386D01*
X015478Y012802D02*
X015637Y012643D01*
X015397Y01264D02*
X015517Y01252D01*
Y012157D02*
Y01252D01*
X015167Y012645D02*
X015172Y01264D01*
X015397*
X015167Y012802D02*
X015478D01*
X01537Y01112D02*
X0154Y01115D01*
X01367Y01443D02*
Y0147D01*
X013Y01395D02*
Y01406D01*
Y01395D02*
X0135D01*
X01417Y01471D02*
X015133Y013747D01*
G54D31*
X01427Y02062D03*
G54D32*
X01327Y02062D03*
G54D33*
X014735Y010895D03*
X015157Y010948D03*
X0147Y01123D03*
X01537Y01118D03*
X01657Y01189D03*
X01753Y01197D03*
X0144Y0173D03*
X01386Y01727D03*
X01864Y01052D03*
X01833Y01079D03*
X01367Y0147D03*
X01971Y01507D03*
Y01416D03*
X01899Y01424D03*
X019Y01516D03*
X01728Y01547D03*
X01616Y01584D03*
X01541Y01661D03*
X01483Y0172D03*
X01563Y01731D03*
X01532Y01759D03*
X01297Y01372D03*
X013Y01406D03*
X0128Y01352D03*
X01306Y01333D03*
X01303Y01294D03*
X01286Y01315D03*
X0143Y01126D03*
X01432Y01081D03*
X01585Y011D03*
X01711Y01299D03*
X01677Y01356D03*
X01362Y0152D03*
X01281Y01461D03*
X012603Y01399D03*
X01261Y01277D03*
X01293Y012267D03*
X01715Y01215D03*
X01635Y01393D03*
X01557Y01487D03*
X015765Y014685D03*
X01685Y0174D03*
X01417Y01471D03*
X01559Y01136D03*
X015175Y01139D03*
X015372Y014688D03*
X015025Y01545D03*
X01512Y01485D03*
X014847Y015009D03*
X01453Y01472D03*
G54D34*
X01688Y01128D03*
X0173Y01108D03*
X01346Y01873D03*
X01356Y01644D03*
X019Y01312D03*
X01464Y01308D03*
X01461Y01368D03*
X01466Y01242D03*
X01885Y01765D03*
X01815D03*
X01885Y0183D03*
X0182D03*
X0164Y01315D03*
X0191Y02015D03*
X0203Y01935D03*
X0201Y01695D03*
X01957Y0111D03*
X01976Y01308D03*
X01541Y01803D03*
Y01878D03*
X0191Y01935D03*
X01955Y02015D03*
X01332Y01575D03*
X01287Y01577D03*
X01318Y01074D03*
X0198Y01673D03*
X01546Y02076D03*
X01354Y01957D03*
X01553Y02009D03*
G54D35*
X01828Y01126D03*
X0175Y02089D03*
X016333Y011317D03*
X0163Y0186D03*
Y0177D03*
X01667Y02035D03*
X01975Y01895D03*
X0171Y0188D03*
X01725Y01645D03*
X0182Y01575D03*
X01905Y0161D03*
X01955Y01615D03*
X0166Y01695D03*
X018Y01625D03*
X0186Y01605D03*
X0163Y0182D03*
G54D42*
X017484Y012316D03*
X016736D03*
X01711Y013024D03*
G54D43*
X015167Y013747D03*
Y01359D03*
Y013432D03*
Y013275D03*
Y013117D03*
Y01296D03*
Y012802D03*
Y012645D03*
Y012487D03*
Y01233D03*
X0141Y013747D03*
Y01359D03*
Y013432D03*
Y013275D03*
Y013117D03*
Y01296D03*
Y012802D03*
Y012645D03*
Y012487D03*
G54D44*
X0141Y01233D03*
M02*