%FSTAX24Y24*%
%MOIN*%
%SFA1B1*%

%IPPOS*%
%ADD45R,0.031000X0.026000*%
%ADD46R,0.026000X0.031000*%
%ADD47R,0.015800X0.027700*%
%ADD48O,0.017000X0.039500*%
%ADD49O,0.039500X0.017000*%
%ADD50R,0.206800X0.206800*%
%ADD51R,0.053200X0.045400*%
%ADD52R,0.053200X0.045400*%
%ADD53R,0.100500X0.035500*%
%ADD54R,0.029600X0.025700*%
%ADD55R,0.021700X0.033600*%
%ADD56R,0.033600X0.021700*%
%ADD57R,0.151700X0.151700*%
%ADD58O,0.039500X0.017800*%
%ADD59O,0.017800X0.039500*%
%ADD60R,0.033600X0.041400*%
%ADD61C,0.065100*%
%ADD62R,0.065100X0.065100*%
%ADD63C,0.026000*%
%ADD64C,0.031000*%
%ADD65C,0.039000*%
%LN16_chan-1*%
%LPD*%
G54D45*
X01716Y01184D03*
X01666D03*
X01338Y01054D03*
X01388D03*
X01365Y01095D03*
X01315D03*
X01912Y013D03*
X01962D03*
X01942Y0112D03*
X01892D03*
X01695Y01145D03*
X01645D03*
X0176Y02075D03*
X0181D03*
X017Y0186D03*
X0165D03*
X017Y0182D03*
X0165D03*
X01695Y0178D03*
X01645D03*
X0173Y0162D03*
X0178D03*
X01655Y0123D03*
X01705D03*
G54D46*
X01321Y01511D03*
Y01561D03*
X01277D03*
Y01511D03*
X01356Y01813D03*
Y01863D03*
X01531Y01868D03*
Y01818D03*
X0168Y0202D03*
Y0197D03*
X019Y0195D03*
Y02D03*
X0204Y01875D03*
Y01925D03*
X0202Y01705D03*
Y01755D03*
X01945Y0195D03*
Y02D03*
X0171Y01715D03*
Y01665D03*
X01562Y02021D03*
Y02071D03*
G54D47*
X020006Y017965D03*
X020203D03*
X0204D03*
X020006Y0183D03*
X020203D03*
X0204D03*
G54D48*
X0136Y0117D03*
X013797D03*
X013994D03*
X014191D03*
X014387D03*
X014584D03*
X014781D03*
X014978D03*
X015175D03*
X015372D03*
X015568D03*
X015765D03*
Y014377D03*
X015568D03*
X015372D03*
X015175D03*
X014978D03*
X014781D03*
X014584D03*
X014387D03*
X014191D03*
X013994D03*
X013797D03*
X0136D03*
G54D49*
X016021Y011956D03*
Y012153D03*
Y01235D03*
Y012546D03*
Y012743D03*
Y01294D03*
Y013137D03*
Y013334D03*
Y013531D03*
Y013728D03*
Y013924D03*
Y014121D03*
X013344D03*
Y013924D03*
Y013728D03*
Y013531D03*
Y013334D03*
Y013137D03*
Y01294D03*
Y012743D03*
Y012546D03*
Y01235D03*
Y012153D03*
Y011956D03*
G54D50*
X014683Y013039D03*
G54D51*
X018119Y0197D03*
Y020212D03*
X01745D03*
G54D52*
X01745Y0197D03*
G54D53*
X0221Y020708D03*
Y01935D03*
G54D54*
X021197Y0183D03*
X020803D03*
G54D55*
X018864Y012504D03*
X019376D03*
Y011696D03*
X01912D03*
X018864D03*
G54D56*
X013956Y018124D03*
Y018636D03*
X014764D03*
Y01838D03*
Y018124D03*
G54D57*
X01855Y01795D03*
G54D58*
X017585Y018442D03*
Y018245D03*
Y018048D03*
Y017655D03*
Y017261D03*
X019515Y017852D03*
Y018048D03*
Y018245D03*
Y018442D03*
Y018639D03*
X017585Y017852D03*
Y017458D03*
Y018639D03*
X019515Y017261D03*
Y017458D03*
Y017655D03*
G54D59*
X017861Y016985D03*
X019239Y018915D03*
X019042D03*
X018845D03*
X018255D03*
X018058D03*
Y016985D03*
X018255D03*
X018452D03*
X018648D03*
X018845D03*
X019042D03*
X019239D03*
X017861Y018915D03*
X018648D03*
X018452D03*
G54D60*
X013675Y01971D03*
X014265D03*
G54D61*
X01427Y02062D03*
G54D62*
X01327Y02062D03*
G54D63*
X014735Y010895D03*
X015157Y010948D03*
X0147Y01123D03*
X01537Y01118D03*
X01657Y01189D03*
X01753Y01197D03*
X0144Y0173D03*
X01386Y01727D03*
X01864Y01052D03*
X01833Y01079D03*
X01367Y0147D03*
X01971Y01507D03*
Y01416D03*
X01899Y01424D03*
X019Y01516D03*
X01728Y01547D03*
X01616Y01584D03*
X01541Y01661D03*
X01483Y0172D03*
X01563Y01731D03*
X01532Y01759D03*
X01297Y01372D03*
X013Y01406D03*
X0128Y01352D03*
X01306Y01333D03*
X01303Y01294D03*
X01286Y01315D03*
X0143Y01126D03*
X01432Y01081D03*
X01585Y011D03*
X01711Y01299D03*
X01677Y01356D03*
X01362Y0152D03*
X01281Y01461D03*
X012603Y01399D03*
X01261Y01277D03*
X01293Y012267D03*
X01715Y01215D03*
X01635Y01393D03*
X01557Y01487D03*
X015765Y014685D03*
X01685Y0174D03*
X01417Y01471D03*
X01559Y01136D03*
X015175Y01139D03*
X015372Y014688D03*
X015025Y01545D03*
X01512Y01485D03*
X014847Y015009D03*
X01453Y01472D03*
G54D64*
X01688Y01128D03*
X0173Y01108D03*
X01346Y01873D03*
X01356Y01644D03*
X019Y01312D03*
X01464Y01308D03*
X01461Y01368D03*
X01466Y01242D03*
X01885Y01765D03*
X01815D03*
X01885Y0183D03*
X0182D03*
X0164Y01315D03*
X0191Y02015D03*
X0203Y01935D03*
X0201Y01695D03*
X01957Y0111D03*
X01976Y01308D03*
X01541Y01803D03*
Y01878D03*
X0191Y01935D03*
X01955Y02015D03*
X01332Y01575D03*
X01287Y01577D03*
X01318Y01074D03*
X0198Y01673D03*
X01546Y02076D03*
X01354Y01957D03*
X01553Y02009D03*
G54D65*
X01828Y01126D03*
X0175Y02089D03*
X016333Y011317D03*
X0163Y0186D03*
Y0177D03*
X01667Y02035D03*
X01975Y01895D03*
X0171Y0188D03*
X01725Y01645D03*
X0182Y01575D03*
X01905Y0161D03*
X01955Y01615D03*
X0166Y01695D03*
X018Y01625D03*
X0186Y01605D03*
X0163Y0182D03*
M02*