%FSLAX24Y24*%
%MOIN*%
G70*
G01*
G75*
G04 Layer_Physical_Order=1*
G04 Layer_Color=255*
%ADD10R,0.0250X0.0200*%
%ADD11R,0.0200X0.0250*%
%ADD12R,0.0098X0.0217*%
%ADD13O,0.0110X0.0335*%
%ADD14O,0.0335X0.0110*%
%ADD15R,0.2008X0.2008*%
%ADD16R,0.0472X0.0394*%
%ADD17R,0.0472X0.0394*%
%ADD18R,0.0945X0.0295*%
%ADD19R,0.0236X0.0197*%
%ADD20R,0.0157X0.0276*%
%ADD21R,0.0276X0.0157*%
%ADD22R,0.1457X0.1457*%
%ADD23O,0.0335X0.0118*%
%ADD24O,0.0118X0.0335*%
%ADD25R,0.0276X0.0354*%
%ADD26C,0.0100*%
%ADD27C,0.0060*%
%ADD28C,0.0080*%
%ADD29C,0.0200*%
%ADD30C,0.0150*%
%ADD31C,0.0591*%
%ADD32R,0.0591X0.0591*%
%ADD33C,0.0200*%
%ADD34C,0.0250*%
%ADD35C,0.0330*%
G36*
X20710Y19504D02*
Y18458D01*
X20625D01*
Y18412D01*
X20512D01*
Y18565D01*
X20560D01*
Y18935D01*
X20240D01*
Y18565D01*
X20288D01*
Y18468D01*
X20253D01*
Y18300D01*
X20153D01*
Y18468D01*
X19897D01*
Y18357D01*
X19767D01*
X19735Y18396D01*
X19735Y18396D01*
X19733Y18392D01*
X19514D01*
Y18492D01*
X19733D01*
X19709Y18528D01*
Y18553D01*
X19735Y18593D01*
X19744Y18639D01*
X19735Y18685D01*
X19748Y18719D01*
X19750Y18721D01*
Y18721D01*
X19838Y18738D01*
X19912Y18788D01*
X19962Y18862D01*
X19979Y18950D01*
X19962Y19038D01*
X19912Y19112D01*
X19838Y19162D01*
X19750Y19179D01*
X19662Y19162D01*
X19588Y19112D01*
X19538Y19038D01*
X19521Y18950D01*
X19538Y18862D01*
X19566Y18820D01*
X19506Y18760D01*
X19406D01*
X19393Y18758D01*
X19358Y18793D01*
X19360Y18806D01*
Y18952D01*
X19529Y19121D01*
X19529Y19121D01*
X19554Y19157D01*
X19562Y19200D01*
Y19315D01*
X19610D01*
Y19685D01*
X19290D01*
Y19485D01*
X19242Y19470D01*
X19233Y19483D01*
X19172Y19524D01*
X19160Y19527D01*
Y19685D01*
X18840D01*
Y19499D01*
X18766Y19425D01*
X18742Y19388D01*
X18733Y19345D01*
X18733Y19345D01*
Y19167D01*
X18694Y19135D01*
X18648Y19144D01*
X18602Y19135D01*
X18563Y19109D01*
X18537D01*
X18498Y19135D01*
X18485Y19177D01*
X18629Y19321D01*
X18654Y19357D01*
X18662Y19400D01*
X18662Y19400D01*
Y20000D01*
X18662Y20000D01*
X18654Y20043D01*
X18629Y20079D01*
X18629Y20079D01*
X18417Y20291D01*
X18416Y20292D01*
Y20469D01*
X18211D01*
Y20590D01*
X18285D01*
Y20910D01*
X17915D01*
Y20590D01*
X18028D01*
Y20469D01*
X17823D01*
Y19955D01*
Y19750D01*
X18119D01*
Y19650D01*
X17823D01*
Y19551D01*
X17788Y19536D01*
X17746Y19564D01*
Y19955D01*
Y20162D01*
X17154D01*
Y19955D01*
Y19812D01*
X16960D01*
Y19885D01*
X16640D01*
Y19515D01*
X16960D01*
Y19588D01*
X17154D01*
Y19443D01*
X17548D01*
X17812Y19180D01*
X17807Y19130D01*
X17775Y19109D01*
X17749Y19069D01*
X17740Y19023D01*
Y18806D01*
X17742Y18793D01*
X17707Y18758D01*
X17694Y18760D01*
X17477D01*
X17431Y18751D01*
X17391Y18725D01*
X17365Y18685D01*
X17356Y18639D01*
X17362Y18606D01*
X17318Y18583D01*
X17263Y18638D01*
X17312Y18712D01*
X17329Y18800D01*
X17312Y18888D01*
X17262Y18962D01*
X17188Y19012D01*
X17100Y19029D01*
X17012Y19012D01*
X16938Y18962D01*
X16888Y18888D01*
X16871Y18800D01*
X16871Y18799D01*
X16839Y18760D01*
X16815D01*
Y18440D01*
X17144D01*
X17177Y18406D01*
X17158Y18360D01*
X16815D01*
Y18040D01*
X17095D01*
X17114Y17994D01*
X17080Y17960D01*
X16765D01*
Y17640D01*
X17045D01*
X17064Y17594D01*
X17012Y17542D01*
X16926D01*
X16912Y17551D01*
X16850Y17563D01*
X16788Y17551D01*
X16735Y17515D01*
X16719Y17492D01*
X16570D01*
X16535Y17485D01*
X16505Y17465D01*
X15820Y16780D01*
X14661Y17939D01*
X14680Y17985D01*
X14961D01*
Y18018D01*
X15003Y18026D01*
X15039Y18051D01*
X15056Y18068D01*
X15150D01*
Y17995D01*
X15228D01*
X15236Y17958D01*
X15277Y17897D01*
X15338Y17856D01*
X15410Y17841D01*
X15482Y17856D01*
X15543Y17897D01*
X15584Y17958D01*
X15599Y18030D01*
X15584Y18102D01*
X15543Y18163D01*
X15482Y18204D01*
X15470Y18207D01*
Y18365D01*
X15150D01*
Y18292D01*
X15010D01*
X15010Y18292D01*
X15000Y18290D01*
X14961Y18322D01*
Y18497D01*
Y18586D01*
X14566D01*
Y18497D01*
Y18471D01*
X14541Y18466D01*
X14535Y18465D01*
X14505Y18445D01*
X14418Y18358D01*
X14372Y18377D01*
Y18430D01*
X14372Y18430D01*
X14364Y18473D01*
X14339Y18509D01*
X14339Y18509D01*
X14154Y18694D01*
Y18775D01*
X13759D01*
Y18775D01*
X13755D01*
X13720Y18810D01*
Y18815D01*
X13626D01*
X13593Y18863D01*
X13532Y18904D01*
X13510Y18909D01*
Y18730D01*
X13460D01*
Y18680D01*
X13281D01*
X13286Y18658D01*
X13327Y18597D01*
X13388Y18556D01*
X13400Y18553D01*
Y18445D01*
X13510D01*
Y18630D01*
X13610D01*
Y18445D01*
X13720D01*
Y18497D01*
X13759D01*
Y18497D01*
X14034D01*
X14148Y18384D01*
Y18263D01*
X13759D01*
Y18263D01*
X13755D01*
X13720Y18298D01*
Y18315D01*
X13400D01*
Y17945D01*
X13448D01*
Y17050D01*
X12270D01*
Y21360D01*
X18811D01*
X20710Y19504D01*
D02*
G37*
G36*
X17381Y17388D02*
X17391Y17372D01*
Y17347D01*
X17367Y17311D01*
X17586D01*
Y17261D01*
X17635D01*
Y17140D01*
X17694D01*
X17707Y17142D01*
X17742Y17107D01*
X17740Y17094D01*
Y16877D01*
X17749Y16831D01*
X17769Y16800D01*
Y16360D01*
X17615D01*
Y16040D01*
X17909D01*
X17912Y16038D01*
X18000Y16021D01*
X18088Y16038D01*
X18119Y16059D01*
X18163Y16035D01*
Y15972D01*
X18112Y15962D01*
X18038Y15912D01*
X17991Y15842D01*
X16758D01*
X15950Y16650D01*
X16340Y17040D01*
X16384Y17016D01*
X16371Y16950D01*
X16388Y16862D01*
X16438Y16788D01*
X16512Y16738D01*
X16600Y16721D01*
X16688Y16738D01*
X16762Y16788D01*
X16812Y16862D01*
X16829Y16950D01*
X16836Y16958D01*
X17000D01*
X17034Y16965D01*
X17260D01*
Y17322D01*
X17331Y17393D01*
X17381Y17388D01*
D02*
G37*
G36*
X20625Y18142D02*
X20710D01*
Y10300D01*
X17980D01*
Y10488D01*
X18413D01*
X18446Y10495D01*
X18487Y10467D01*
X18489Y10458D01*
X18525Y10405D01*
X18578Y10369D01*
X18590Y10367D01*
Y10520D01*
X18640D01*
Y10570D01*
X18793D01*
X18791Y10582D01*
X18755Y10635D01*
X18702Y10671D01*
X18698Y10672D01*
X18684Y10719D01*
X18722Y10758D01*
X19020D01*
X19059Y10766D01*
X19092Y10788D01*
X19092Y10788D01*
X19092Y10788D01*
X19252Y10948D01*
X19274Y10981D01*
X19282Y11020D01*
X19282Y11020D01*
X19282Y11020D01*
Y11020D01*
Y11040D01*
X19370D01*
Y11200D01*
Y11360D01*
X19282D01*
Y11380D01*
X19274Y11419D01*
X19252Y11452D01*
X19222Y11482D01*
Y11499D01*
X19326D01*
Y11696D01*
Y11894D01*
X18725D01*
Y11499D01*
X18772D01*
Y11360D01*
X18735D01*
Y11134D01*
X18550D01*
X18492Y11172D01*
D01*
X18492Y11172D01*
X18509Y11260D01*
X18492Y11348D01*
X18442Y11422D01*
X18368Y11472D01*
X18280Y11489D01*
X18192Y11472D01*
X18118Y11422D01*
X18084Y11372D01*
X17980D01*
Y13460D01*
X17920Y13540D01*
X14410Y17050D01*
X14212D01*
Y17207D01*
X14260Y17222D01*
X14285Y17185D01*
X14338Y17149D01*
X14350Y17147D01*
Y17300D01*
Y17453D01*
X14338Y17451D01*
X14285Y17415D01*
X14260Y17378D01*
X14212Y17393D01*
Y17584D01*
X14339Y17711D01*
X14339Y17711D01*
X14364Y17747D01*
X14364Y17747D01*
X14364Y17747D01*
X14372Y17790D01*
X14372Y17790D01*
Y17903D01*
X14418Y17922D01*
X15755Y16585D01*
X15755Y16585D01*
X16655Y15685D01*
X16685Y15665D01*
X16720Y15658D01*
X17188D01*
X17202Y15610D01*
X17165Y15585D01*
X17129Y15532D01*
X17127Y15520D01*
X17433D01*
X17431Y15532D01*
X17395Y15585D01*
X17358Y15610D01*
X17372Y15658D01*
X17991D01*
X18038Y15588D01*
X18112Y15538D01*
X18200Y15521D01*
X18288Y15538D01*
X18362Y15588D01*
X18412Y15662D01*
X18429Y15750D01*
X18412Y15838D01*
X18397Y15860D01*
X18438Y15888D01*
X18512Y15838D01*
X18600Y15821D01*
X18683Y15837D01*
X19284Y15236D01*
Y13160D01*
X19181D01*
X19174Y13192D01*
X19133Y13253D01*
X19072Y13294D01*
X19000Y13309D01*
X18928Y13294D01*
X18867Y13253D01*
X18826Y13192D01*
X18811Y13120D01*
X18826Y13048D01*
X18867Y12987D01*
X18883Y12976D01*
X18888Y12926D01*
X18785Y12823D01*
X18760Y12787D01*
X18752Y12744D01*
X18752Y12744D01*
Y12701D01*
X18725D01*
Y12306D01*
X19003D01*
Y12701D01*
X19003Y12701D01*
X19003D01*
X18996Y12718D01*
X19119Y12840D01*
X19284D01*
Y12701D01*
X19237D01*
Y12306D01*
X19515D01*
Y12701D01*
X19468D01*
Y12840D01*
X19570D01*
Y13000D01*
Y13160D01*
X19468D01*
Y15274D01*
X19462Y15303D01*
X19461Y15309D01*
X19441Y15339D01*
X18930Y15850D01*
X18962Y15888D01*
X18962Y15888D01*
X19050Y15871D01*
X19138Y15888D01*
X19212Y15938D01*
X19262Y16012D01*
X19279Y16100D01*
X19262Y16188D01*
X19212Y16262D01*
X19138Y16312D01*
X19050Y16329D01*
X18976Y16315D01*
X18937Y16346D01*
Y16566D01*
X18944Y16571D01*
X18983Y16587D01*
X19337Y16233D01*
X19321Y16150D01*
X19338Y16062D01*
X19388Y15988D01*
X19462Y15938D01*
X19550Y15921D01*
X19638Y15938D01*
X19712Y15988D01*
X19762Y16062D01*
X19779Y16150D01*
X19762Y16238D01*
X19712Y16312D01*
X19638Y16362D01*
X19550Y16379D01*
X19467Y16363D01*
X19134Y16696D01*
Y16751D01*
X19178Y16775D01*
X19193Y16765D01*
X19239Y16756D01*
X19285Y16765D01*
X19325Y16791D01*
X19351Y16831D01*
X19360Y16877D01*
Y17094D01*
X19358Y17107D01*
X19393Y17142D01*
X19406Y17140D01*
X19623D01*
X19669Y17149D01*
X19709Y17175D01*
X19730Y17208D01*
X19778Y17193D01*
Y16914D01*
X19728Y16904D01*
X19667Y16863D01*
X19626Y16802D01*
X19611Y16730D01*
X19626Y16658D01*
X19667Y16597D01*
X19728Y16556D01*
X19800Y16541D01*
X19872Y16556D01*
X19933Y16597D01*
X19974Y16658D01*
X19989Y16730D01*
X19985Y16749D01*
X20026Y16777D01*
X20028Y16776D01*
X20050Y16771D01*
Y16950D01*
X20150D01*
Y16771D01*
X20172Y16776D01*
X20233Y16817D01*
X20266Y16865D01*
X20360D01*
Y17000D01*
X20200D01*
Y17050D01*
X20150D01*
Y17235D01*
X20040D01*
Y17140D01*
X19997Y17114D01*
X19962Y17133D01*
Y17459D01*
X19959Y17473D01*
X20003Y17497D01*
X20029Y17471D01*
X20029Y17471D01*
X20040Y17464D01*
Y17365D01*
X20360D01*
Y17735D01*
X20312D01*
Y17797D01*
X20509D01*
Y18132D01*
Y18188D01*
X20625D01*
Y18142D01*
D02*
G37*
%LPC*%
G36*
X17300Y16669D02*
Y16500D01*
X17469D01*
X17462Y16538D01*
X17412Y16612D01*
X17338Y16662D01*
X17300Y16669D01*
D02*
G37*
G36*
X15563Y16560D02*
X15460D01*
Y16457D01*
X15472Y16459D01*
X15525Y16495D01*
X15561Y16548D01*
X15563Y16560D01*
D02*
G37*
G36*
X17050Y16835D02*
X16940D01*
Y16700D01*
X17050D01*
Y16835D01*
D02*
G37*
G36*
X15460Y16763D02*
Y16660D01*
X15563D01*
X15561Y16672D01*
X15525Y16725D01*
X15472Y16761D01*
X15460Y16763D01*
D02*
G37*
G36*
X15360D02*
X15348Y16761D01*
X15295Y16725D01*
X15259Y16672D01*
X15257Y16660D01*
X15360D01*
Y16763D01*
D02*
G37*
G36*
X17250Y16150D02*
X17115D01*
Y16040D01*
X17250D01*
Y16150D01*
D02*
G37*
G36*
X16210Y15993D02*
Y15890D01*
X16313D01*
X16311Y15902D01*
X16275Y15955D01*
X16222Y15991D01*
X16210Y15993D01*
D02*
G37*
G36*
X16110D02*
X16098Y15991D01*
X16045Y15955D01*
X16009Y15902D01*
X16007Y15890D01*
X16110D01*
Y15993D01*
D02*
G37*
G36*
X17485Y16150D02*
X17350D01*
Y16040D01*
X17485D01*
Y16150D01*
D02*
G37*
G36*
X15360Y16560D02*
X15257D01*
X15259Y16548D01*
X15295Y16495D01*
X15348Y16459D01*
X15360Y16457D01*
Y16560D01*
D02*
G37*
G36*
X17200Y16600D02*
X16940D01*
Y16465D01*
X17008D01*
X17021Y16450D01*
X17031Y16500D01*
X17200D01*
Y16600D01*
D02*
G37*
G36*
X17469Y16400D02*
X17031D01*
X17038Y16362D01*
X17088Y16288D01*
X17115Y16270D01*
Y16250D01*
X17485D01*
Y16360D01*
X17485D01*
X17462Y16362D01*
X17462D01*
X17469Y16400D01*
D02*
G37*
G36*
X17260Y16835D02*
X17150D01*
Y16700D01*
X17260D01*
Y16835D01*
D02*
G37*
G36*
X14880Y17353D02*
Y17250D01*
X14983D01*
X14981Y17262D01*
X14945Y17315D01*
X14892Y17351D01*
X14880Y17353D01*
D02*
G37*
G36*
X14780D02*
X14768Y17351D01*
X14715Y17315D01*
X14679Y17262D01*
X14677Y17250D01*
X14780D01*
Y17353D01*
D02*
G37*
G36*
X15783Y17260D02*
X15680D01*
Y17157D01*
X15692Y17159D01*
X15745Y17195D01*
X15781Y17248D01*
X15783Y17260D01*
D02*
G37*
G36*
X15680Y17463D02*
Y17360D01*
X15783D01*
X15781Y17372D01*
X15745Y17425D01*
X15692Y17461D01*
X15680Y17463D01*
D02*
G37*
G36*
X15580D02*
X15568Y17461D01*
X15515Y17425D01*
X15479Y17372D01*
X15477Y17360D01*
X15580D01*
Y17463D01*
D02*
G37*
G36*
X14450Y17453D02*
Y17350D01*
X14553D01*
X14551Y17362D01*
X14515Y17415D01*
X14462Y17451D01*
X14450Y17453D01*
D02*
G37*
G36*
X20360Y17235D02*
X20250D01*
Y17100D01*
X20360D01*
Y17235D01*
D02*
G37*
G36*
X14983Y17150D02*
X14880D01*
Y17047D01*
X14892Y17049D01*
X14945Y17085D01*
X14981Y17138D01*
X14983Y17150D01*
D02*
G37*
G36*
X14780D02*
X14677D01*
X14679Y17138D01*
X14715Y17085D01*
X14768Y17049D01*
X14780Y17047D01*
Y17150D01*
D02*
G37*
G36*
X15580Y17260D02*
X15477D01*
X15479Y17248D01*
X15515Y17195D01*
X15568Y17159D01*
X15580Y17157D01*
Y17260D01*
D02*
G37*
G36*
X14553Y17250D02*
X14450D01*
Y17147D01*
X14462Y17149D01*
X14515Y17185D01*
X14551Y17238D01*
X14553Y17250D01*
D02*
G37*
G36*
X17535Y17211D02*
X17367D01*
X17391Y17175D01*
X17431Y17149D01*
X17477Y17140D01*
X17535D01*
Y17211D01*
D02*
G37*
G36*
X16313Y15790D02*
X16210D01*
Y15687D01*
X16222Y15689D01*
X16275Y15725D01*
X16311Y15778D01*
X16313Y15790D01*
D02*
G37*
G36*
X19660Y14110D02*
X19557D01*
X19559Y14098D01*
X19595Y14045D01*
X19648Y14009D01*
X19660Y14007D01*
Y14110D01*
D02*
G37*
G36*
X19810Y13259D02*
Y13130D01*
X19939D01*
X19934Y13152D01*
X19893Y13213D01*
X19832Y13254D01*
X19810Y13259D01*
D02*
G37*
G36*
X19939Y13030D02*
X19810D01*
Y12901D01*
X19832Y12906D01*
X19893Y12947D01*
X19934Y13008D01*
X19939Y13030D01*
D02*
G37*
G36*
X19863Y14110D02*
X19760D01*
Y14007D01*
X19772Y14009D01*
X19825Y14045D01*
X19861Y14098D01*
X19863Y14110D01*
D02*
G37*
G36*
X19660Y14313D02*
X19648Y14311D01*
X19595Y14275D01*
X19559Y14222D01*
X19557Y14210D01*
X19660D01*
Y14313D01*
D02*
G37*
G36*
X19143Y14190D02*
X19040D01*
Y14087D01*
X19052Y14089D01*
X19105Y14125D01*
X19141Y14178D01*
X19143Y14190D01*
D02*
G37*
G36*
X18940D02*
X18837D01*
X18839Y14178D01*
X18875Y14125D01*
X18928Y14089D01*
X18940Y14087D01*
Y14190D01*
D02*
G37*
G36*
X19620Y11279D02*
Y11150D01*
X19749D01*
X19744Y11172D01*
X19703Y11233D01*
X19642Y11274D01*
X19620Y11279D01*
D02*
G37*
G36*
X19749Y11050D02*
X19620D01*
Y10921D01*
X19642Y10926D01*
X19703Y10967D01*
X19744Y11028D01*
X19749Y11050D01*
D02*
G37*
G36*
X18793Y10470D02*
X18690D01*
Y10367D01*
X18702Y10369D01*
X18755Y10405D01*
X18791Y10458D01*
X18793Y10470D01*
D02*
G37*
G36*
X19605Y11360D02*
X19470D01*
Y11200D01*
Y11040D01*
X19393D01*
X19396Y11028D01*
X19437Y10967D01*
X19498Y10926D01*
X19520Y10921D01*
Y11100D01*
Y11279D01*
X19570Y11289D01*
X19605Y11282D01*
Y11360D01*
D02*
G37*
G36*
X19710Y13259D02*
X19688Y13254D01*
X19627Y13213D01*
X19591Y13160D01*
X19670D01*
Y13000D01*
Y12840D01*
X19805D01*
Y12900D01*
X19760Y12891D01*
X19710Y12901D01*
Y13080D01*
Y13259D01*
D02*
G37*
G36*
X19515Y11894D02*
X19426D01*
Y11746D01*
X19515D01*
Y11894D01*
D02*
G37*
G36*
Y11646D02*
X19426D01*
Y11499D01*
X19515D01*
Y11646D01*
D02*
G37*
G36*
X18950Y15313D02*
X18938Y15311D01*
X18885Y15275D01*
X18849Y15222D01*
X18847Y15210D01*
X18950D01*
Y15313D01*
D02*
G37*
G36*
X19760Y15223D02*
Y15120D01*
X19863D01*
X19861Y15132D01*
X19825Y15185D01*
X19772Y15221D01*
X19760Y15223D01*
D02*
G37*
G36*
X19660D02*
X19648Y15221D01*
X19595Y15185D01*
X19559Y15132D01*
X19557Y15120D01*
X19660D01*
Y15223D01*
D02*
G37*
G36*
X19050Y15313D02*
Y15210D01*
X19153D01*
X19151Y15222D01*
X19115Y15275D01*
X19062Y15311D01*
X19050Y15313D01*
D02*
G37*
G36*
X16110Y15790D02*
X16007D01*
X16009Y15778D01*
X16045Y15725D01*
X16098Y15689D01*
X16110Y15687D01*
Y15790D01*
D02*
G37*
G36*
X17433Y15420D02*
X17330D01*
Y15317D01*
X17342Y15319D01*
X17395Y15355D01*
X17431Y15408D01*
X17433Y15420D01*
D02*
G37*
G36*
X17230D02*
X17127D01*
X17129Y15408D01*
X17165Y15355D01*
X17218Y15319D01*
X17230Y15317D01*
Y15420D01*
D02*
G37*
G36*
X19040Y14393D02*
Y14290D01*
X19143D01*
X19141Y14302D01*
X19105Y14355D01*
X19052Y14391D01*
X19040Y14393D01*
D02*
G37*
G36*
X18940D02*
X18928Y14391D01*
X18875Y14355D01*
X18839Y14302D01*
X18837Y14290D01*
X18940D01*
Y14393D01*
D02*
G37*
G36*
X19760Y14313D02*
Y14210D01*
X19863D01*
X19861Y14222D01*
X19825Y14275D01*
X19772Y14311D01*
X19760Y14313D01*
D02*
G37*
G36*
X19660Y15020D02*
X19557D01*
X19559Y15008D01*
X19595Y14955D01*
X19648Y14919D01*
X19660Y14917D01*
Y15020D01*
D02*
G37*
G36*
X19153Y15110D02*
X19050D01*
Y15007D01*
X19062Y15009D01*
X19115Y15045D01*
X19151Y15098D01*
X19153Y15110D01*
D02*
G37*
G36*
X18950D02*
X18847D01*
X18849Y15098D01*
X18885Y15045D01*
X18938Y15009D01*
X18950Y15007D01*
Y15110D01*
D02*
G37*
G36*
X19863Y15020D02*
X19760D01*
Y14917D01*
X19772Y14919D01*
X19825Y14955D01*
X19861Y15008D01*
X19863Y15020D01*
D02*
G37*
G36*
X15270Y17540D02*
X15167D01*
X15169Y17528D01*
X15205Y17475D01*
X15258Y17439D01*
X15270Y17437D01*
Y17540D01*
D02*
G37*
G36*
X16620Y20300D02*
X16451D01*
X16458Y20262D01*
X16508Y20188D01*
X16582Y20138D01*
X16620Y20131D01*
Y20300D01*
D02*
G37*
G36*
X16960Y20385D02*
X16892D01*
X16899Y20350D01*
X16889Y20300D01*
X16720D01*
Y20131D01*
X16670Y20121D01*
X16640Y20127D01*
Y20015D01*
X16750D01*
Y20200D01*
X16800D01*
Y20250D01*
X16960D01*
Y20385D01*
D02*
G37*
G36*
X19290Y20185D02*
Y20185D01*
X19282D01*
X19289Y20150D01*
X19279Y20100D01*
X18921D01*
X18911Y20150D01*
X18918Y20185D01*
X18840D01*
Y20050D01*
X19160D01*
Y19973D01*
X19172Y19976D01*
X19233Y20017D01*
X19242Y20030D01*
X19290Y20015D01*
Y20050D01*
X19610D01*
Y19973D01*
X19622Y19976D01*
X19683Y20017D01*
X19724Y20078D01*
X19729Y20100D01*
X19371D01*
X19361Y20150D01*
X19368Y20185D01*
X19290D01*
D01*
X19290Y20185D01*
X19290Y20185D01*
D02*
G37*
G36*
X19050Y20329D02*
X19028Y20324D01*
X18967Y20283D01*
X18926Y20222D01*
X18921Y20200D01*
X19050D01*
Y20329D01*
D02*
G37*
G36*
X19600D02*
Y20200D01*
X19729D01*
X19724Y20222D01*
X19683Y20283D01*
X19622Y20324D01*
X19600Y20329D01*
D02*
G37*
G36*
X19500D02*
X19478Y20324D01*
X19417Y20283D01*
X19376Y20222D01*
X19371Y20200D01*
X19500D01*
Y20329D01*
D02*
G37*
G36*
X19150D02*
Y20200D01*
X19279D01*
X19274Y20222D01*
X19233Y20283D01*
X19172Y20324D01*
X19150Y20329D01*
D02*
G37*
G36*
X19400Y19950D02*
X19290D01*
Y19815D01*
X19400D01*
Y19950D01*
D02*
G37*
G36*
X19160D02*
X19050D01*
Y19815D01*
X19160D01*
Y19950D01*
D02*
G37*
G36*
X18950D02*
X18840D01*
Y19815D01*
X18950D01*
Y19950D01*
D02*
G37*
G36*
X19610D02*
X19500D01*
Y19815D01*
X19610D01*
Y19950D01*
D02*
G37*
G36*
X16960Y20150D02*
X16850D01*
Y20015D01*
X16960D01*
Y20150D01*
D02*
G37*
G36*
X15570Y20395D02*
X15460D01*
Y20265D01*
X15458Y20264D01*
X15397Y20223D01*
X15356Y20162D01*
X15351Y20140D01*
X15530D01*
Y20090D01*
X15580D01*
Y19911D01*
X15602Y19916D01*
X15663Y19957D01*
X15704Y20018D01*
X15706Y20025D01*
X15780D01*
Y20160D01*
X15620D01*
Y20210D01*
X15570D01*
Y20395D01*
D02*
G37*
G36*
X15480Y20040D02*
X15351D01*
X15356Y20018D01*
X15397Y19957D01*
X15458Y19916D01*
X15480Y19911D01*
Y20040D01*
D02*
G37*
G36*
X17785Y20700D02*
X17650D01*
Y20590D01*
X17785D01*
Y20700D01*
D02*
G37*
G36*
Y20910D02*
X17725D01*
X17729Y20890D01*
X17719Y20840D01*
X17281D01*
X17288Y20802D01*
X17338Y20728D01*
X17412Y20678D01*
X17415Y20677D01*
Y20590D01*
X17550D01*
Y20750D01*
X17600D01*
Y20800D01*
X17785D01*
Y20910D01*
D02*
G37*
G36*
X15460Y20949D02*
X15388Y20934D01*
X15327Y20893D01*
X15286Y20832D01*
X15271Y20760D01*
X15286Y20688D01*
X15327Y20627D01*
X15388Y20586D01*
X15460Y20571D01*
Y20525D01*
X15780D01*
Y20895D01*
X15591D01*
X15532Y20934D01*
X15460Y20949D01*
D02*
G37*
G36*
X13220Y20975D02*
X12915D01*
Y20670D01*
X13220D01*
Y20975D01*
D02*
G37*
G36*
X17550Y21109D02*
Y20940D01*
X17719D01*
X17712Y20978D01*
X17662Y21052D01*
X17588Y21102D01*
X17550Y21109D01*
D02*
G37*
G36*
X17450D02*
X17412Y21102D01*
X17338Y21052D01*
X17288Y20978D01*
X17281Y20940D01*
X17450D01*
Y21109D01*
D02*
G37*
G36*
X13625Y20975D02*
X13320D01*
Y20670D01*
X13625D01*
Y20975D01*
D02*
G37*
G36*
X17746Y20469D02*
X17500D01*
Y20262D01*
X17746D01*
Y20469D01*
D02*
G37*
G36*
X17400D02*
X17154D01*
Y20262D01*
X17400D01*
Y20469D01*
D02*
G37*
G36*
X15780Y20395D02*
X15670D01*
Y20260D01*
X15780D01*
Y20395D01*
D02*
G37*
G36*
X13220Y20570D02*
X12915D01*
Y20265D01*
X13220D01*
Y20570D01*
D02*
G37*
G36*
X16720Y20569D02*
Y20400D01*
X16889D01*
X16882Y20438D01*
X16832Y20512D01*
X16758Y20562D01*
X16720Y20569D01*
D02*
G37*
G36*
X16620D02*
X16582Y20562D01*
X16508Y20512D01*
X16458Y20438D01*
X16451Y20400D01*
X16620D01*
Y20569D01*
D02*
G37*
G36*
X13625Y20570D02*
X13320D01*
Y20265D01*
X13625D01*
Y20570D01*
D02*
G37*
G36*
X16685Y18360D02*
X16550D01*
Y18250D01*
X16685D01*
Y18360D01*
D02*
G37*
G36*
Y18150D02*
X16550D01*
Y18040D01*
X16685D01*
Y18150D01*
D02*
G37*
G36*
X16250D02*
X16081D01*
X16088Y18112D01*
X16138Y18038D01*
X16212Y17988D01*
X16250Y17981D01*
Y18150D01*
D02*
G37*
G36*
X16685Y18550D02*
X16550D01*
Y18440D01*
X16685D01*
Y18550D01*
D02*
G37*
G36*
X16250Y18819D02*
X16212Y18812D01*
X16138Y18762D01*
X16088Y18688D01*
X16081Y18650D01*
X16250D01*
Y18819D01*
D02*
G37*
G36*
X15360Y18959D02*
X15338Y18954D01*
X15277Y18913D01*
X15244Y18865D01*
X15150D01*
Y18730D01*
X15310D01*
Y18680D01*
X15360D01*
Y18495D01*
X15470D01*
Y18603D01*
X15482Y18606D01*
X15543Y18647D01*
X15584Y18708D01*
X15589Y18730D01*
X15410D01*
Y18780D01*
X15360D01*
Y18959D01*
D02*
G37*
G36*
X15260Y18630D02*
X15150D01*
Y18495D01*
X15260D01*
Y18630D01*
D02*
G37*
G36*
X15270Y17743D02*
X15258Y17741D01*
X15205Y17705D01*
X15169Y17652D01*
X15167Y17640D01*
X15270D01*
Y17743D01*
D02*
G37*
G36*
X16250Y17650D02*
X16081D01*
X16088Y17612D01*
X16138Y17538D01*
X16212Y17488D01*
X16250Y17481D01*
Y17650D01*
D02*
G37*
G36*
X15473Y17540D02*
X15370D01*
Y17437D01*
X15382Y17439D01*
X15435Y17475D01*
X15471Y17528D01*
X15473Y17540D01*
D02*
G37*
G36*
X15370Y17743D02*
Y17640D01*
X15473D01*
X15471Y17652D01*
X15435Y17705D01*
X15382Y17741D01*
X15370Y17743D01*
D02*
G37*
G36*
X16350Y18819D02*
Y18600D01*
X16300D01*
Y18550D01*
X16081D01*
X16088Y18512D01*
X16138Y18438D01*
X16157Y18425D01*
Y18375D01*
X16138Y18362D01*
X16088Y18288D01*
X16081Y18250D01*
X16300D01*
Y18200D01*
X16350D01*
Y17981D01*
X16300Y17971D01*
X16265Y17978D01*
Y17960D01*
Y17960D01*
D01*
Y17960D01*
X16265D01*
D01*
Y17922D01*
X16300Y17929D01*
X16350Y17919D01*
Y17700D01*
Y17481D01*
X16388Y17488D01*
X16462Y17538D01*
X16512Y17612D01*
X16517Y17640D01*
X16635D01*
Y17750D01*
X16450D01*
Y17800D01*
X16400D01*
Y17960D01*
X16432D01*
X16417Y18008D01*
X16462Y18038D01*
X16464Y18040D01*
X16450D01*
Y18200D01*
Y18360D01*
X16464D01*
X16462Y18362D01*
X16443Y18375D01*
Y18425D01*
X16462Y18438D01*
X16464Y18440D01*
X16450D01*
Y18600D01*
Y18760D01*
X16464D01*
X16462Y18762D01*
X16388Y18812D01*
X16350Y18819D01*
D02*
G37*
G36*
X16635Y17960D02*
X16500D01*
Y17850D01*
X16635D01*
Y17960D01*
D02*
G37*
G36*
X16250Y17919D02*
X16212Y17912D01*
X16138Y17862D01*
X16088Y17788D01*
X16081Y17750D01*
X16250D01*
Y17919D01*
D02*
G37*
G36*
X20250Y19529D02*
X20228Y19524D01*
X20167Y19483D01*
X20126Y19422D01*
X20121Y19400D01*
X20250D01*
Y19529D01*
D02*
G37*
G36*
X13477Y19746D02*
X13468Y19744D01*
X13407Y19703D01*
X13366Y19642D01*
X13361Y19620D01*
X13540D01*
Y19570D01*
X13590D01*
Y19391D01*
X13612Y19396D01*
X13673Y19437D01*
X13698Y19473D01*
X13625D01*
Y19660D01*
X13477D01*
Y19746D01*
D02*
G37*
G36*
X13490Y19520D02*
X13361D01*
X13366Y19498D01*
X13407Y19437D01*
X13468Y19396D01*
X13490Y19391D01*
Y19520D01*
D02*
G37*
G36*
X13873Y19660D02*
X13725D01*
Y19473D01*
X13873D01*
Y19660D01*
D02*
G37*
G36*
Y19947D02*
X13725D01*
Y19760D01*
X13873D01*
Y19947D01*
D02*
G37*
G36*
X13625D02*
X13477D01*
Y19760D01*
X13625D01*
Y19947D01*
D02*
G37*
G36*
X14270Y20978D02*
X14177Y20966D01*
X14091Y20930D01*
X14017Y20873D01*
X13960Y20799D01*
X13924Y20713D01*
X13912Y20620D01*
X13924Y20527D01*
X13960Y20441D01*
X14017Y20367D01*
X14091Y20310D01*
X14107Y20303D01*
Y19947D01*
X14067D01*
Y19473D01*
X14463D01*
Y19947D01*
X14433D01*
Y20303D01*
X14449Y20310D01*
X14523Y20367D01*
X14580Y20441D01*
X14616Y20527D01*
X14628Y20620D01*
X14616Y20713D01*
X14580Y20799D01*
X14523Y20873D01*
X14449Y20930D01*
X14363Y20966D01*
X14270Y20978D01*
D02*
G37*
G36*
X14961Y18775D02*
X14814D01*
Y18686D01*
X14961D01*
Y18775D01*
D02*
G37*
G36*
X14714D02*
X14566D01*
Y18686D01*
X14714D01*
Y18775D01*
D02*
G37*
G36*
X16685Y18760D02*
X16550D01*
Y18650D01*
X16685D01*
Y18760D01*
D02*
G37*
G36*
X13410Y18909D02*
X13388Y18904D01*
X13327Y18863D01*
X13286Y18802D01*
X13281Y18780D01*
X13410D01*
Y18909D01*
D02*
G37*
G36*
X20560Y19200D02*
X20450D01*
Y19065D01*
X20560D01*
Y19200D01*
D02*
G37*
G36*
X20350Y19529D02*
Y19350D01*
X20300D01*
Y19300D01*
X20121D01*
X20126Y19278D01*
X20167Y19217D01*
X20228Y19176D01*
X20240Y19173D01*
Y19065D01*
X20350D01*
Y19250D01*
X20400D01*
Y19300D01*
X20560D01*
Y19435D01*
X20466D01*
X20433Y19483D01*
X20372Y19524D01*
X20350Y19529D01*
D02*
G37*
G36*
X15460Y18959D02*
Y18830D01*
X15589D01*
X15584Y18852D01*
X15543Y18913D01*
X15482Y18954D01*
X15460Y18959D01*
D02*
G37*
%LPD*%
D10*
X17160Y11840D02*
D03*
X16660D02*
D03*
X13380Y10540D02*
D03*
X13880D02*
D03*
X13650Y10950D02*
D03*
X13150D02*
D03*
X19120Y13000D02*
D03*
X19620D02*
D03*
X19420Y11200D02*
D03*
X18920D02*
D03*
X16950Y11450D02*
D03*
X16450D02*
D03*
X17600Y20750D02*
D03*
X18100D02*
D03*
X17000Y18600D02*
D03*
X16500D02*
D03*
X17000Y18200D02*
D03*
X16500D02*
D03*
X16950Y17800D02*
D03*
X16450D02*
D03*
X17300Y16200D02*
D03*
X17800D02*
D03*
X16550Y12300D02*
D03*
X17050D02*
D03*
D11*
X13210Y15110D02*
D03*
Y15610D02*
D03*
X12770D02*
D03*
Y15110D02*
D03*
X13560Y18130D02*
D03*
Y18630D02*
D03*
X15310Y18680D02*
D03*
Y18180D02*
D03*
X16800Y20200D02*
D03*
Y19700D02*
D03*
X19000Y19500D02*
D03*
Y20000D02*
D03*
X20400Y18750D02*
D03*
Y19250D02*
D03*
X20200Y17050D02*
D03*
Y17550D02*
D03*
X19450Y19500D02*
D03*
Y20000D02*
D03*
X17100Y17150D02*
D03*
Y16650D02*
D03*
X15620Y20210D02*
D03*
Y20710D02*
D03*
D12*
X20006Y17965D02*
D03*
X20203D02*
D03*
X20400D02*
D03*
X20006Y18300D02*
D03*
X20203D02*
D03*
X20400D02*
D03*
D13*
X13600Y11700D02*
D03*
X13797D02*
D03*
X13994D02*
D03*
X14191D02*
D03*
X14387D02*
D03*
X14584D02*
D03*
X14781D02*
D03*
X14978D02*
D03*
X15175D02*
D03*
X15372D02*
D03*
X15568D02*
D03*
X15765D02*
D03*
Y14377D02*
D03*
X15568D02*
D03*
X15372D02*
D03*
X15175D02*
D03*
X14978D02*
D03*
X14781D02*
D03*
X14584D02*
D03*
X14387D02*
D03*
X14191D02*
D03*
X13994D02*
D03*
X13797D02*
D03*
X13600D02*
D03*
D14*
X16021Y11956D02*
D03*
Y12153D02*
D03*
Y12350D02*
D03*
Y12546D02*
D03*
Y12743D02*
D03*
Y12940D02*
D03*
Y13137D02*
D03*
Y13334D02*
D03*
Y13531D02*
D03*
Y13728D02*
D03*
Y13924D02*
D03*
Y14121D02*
D03*
X13344D02*
D03*
Y13924D02*
D03*
Y13728D02*
D03*
Y13531D02*
D03*
Y13334D02*
D03*
Y13137D02*
D03*
Y12940D02*
D03*
Y12743D02*
D03*
Y12546D02*
D03*
Y12350D02*
D03*
Y12153D02*
D03*
Y11956D02*
D03*
D15*
X14683Y13039D02*
D03*
D16*
X18119Y19700D02*
D03*
Y20212D02*
D03*
X17450D02*
D03*
D17*
Y19700D02*
D03*
D18*
X22100Y20708D02*
D03*
Y19350D02*
D03*
D19*
X21197Y18300D02*
D03*
X20803D02*
D03*
D20*
X18864Y12504D02*
D03*
X19376D02*
D03*
Y11696D02*
D03*
X19120D02*
D03*
X18864D02*
D03*
D21*
X13956Y18124D02*
D03*
Y18636D02*
D03*
X14764D02*
D03*
Y18380D02*
D03*
Y18124D02*
D03*
D22*
X18550Y17950D02*
D03*
D23*
X17585Y18442D02*
D03*
Y18245D02*
D03*
Y18048D02*
D03*
Y17655D02*
D03*
Y17261D02*
D03*
X19515Y17852D02*
D03*
Y18048D02*
D03*
Y18245D02*
D03*
Y18442D02*
D03*
Y18639D02*
D03*
X17585Y17852D02*
D03*
Y17458D02*
D03*
Y18639D02*
D03*
X19515Y17261D02*
D03*
Y17458D02*
D03*
Y17655D02*
D03*
D24*
X17861Y16985D02*
D03*
X19239Y18915D02*
D03*
X19042D02*
D03*
X18845D02*
D03*
X18255D02*
D03*
X18058D02*
D03*
Y16985D02*
D03*
X18255D02*
D03*
X18452D02*
D03*
X18648D02*
D03*
X18845D02*
D03*
X19042D02*
D03*
X19239D02*
D03*
X17861Y18915D02*
D03*
X18648D02*
D03*
X18452D02*
D03*
D25*
X13675Y19710D02*
D03*
X14265D02*
D03*
D26*
X18864Y12744D02*
X19120Y13000D01*
X17540Y11310D02*
Y12330D01*
X17000Y18600D02*
X17142D01*
X18550Y17950D02*
X19042Y18442D01*
X17863Y17263D02*
X18550Y17950D01*
X17519Y20200D02*
Y20669D01*
X16800Y20200D02*
X17519D01*
X16500Y18200D02*
Y18600D01*
Y17850D02*
Y18200D01*
X17100Y16650D02*
X17300Y16450D01*
Y16200D02*
Y16450D01*
X17160Y11840D02*
Y12190D01*
X14584Y12940D02*
X14683Y13039D01*
X14584Y11700D02*
Y12940D01*
X19515Y18048D02*
X20006D01*
X15202Y10740D02*
X18321D01*
X15157Y10785D02*
X15202Y10740D01*
X15157Y10785D02*
Y10948D01*
X14735Y10783D02*
Y10895D01*
Y10783D02*
X15078Y10440D01*
X14767Y15009D02*
X14847D01*
X14270Y15506D02*
X14767Y15009D01*
X16670Y11840D02*
X16690Y11820D01*
X16660Y11840D02*
X16670D01*
X17150Y12200D02*
X17160Y12190D01*
X16880Y11280D02*
Y11380D01*
X16021Y12153D02*
X16307D01*
X16570Y11890D01*
X17324Y12546D02*
X17540Y12330D01*
X18330Y10749D02*
Y10790D01*
X18321Y10740D02*
X18330Y10749D01*
X13940Y15384D02*
Y17190D01*
X13860Y17270D02*
X13940Y17190D01*
X14270Y15506D02*
Y17170D01*
X14400Y17300D01*
X14100Y17630D02*
X14260Y17790D01*
X14100Y15450D02*
Y17630D01*
X15078Y10440D02*
X18475D01*
X18555Y10520D02*
X18640D01*
X18475Y10440D02*
X18555Y10520D01*
X17540Y11310D02*
X17590Y11260D01*
X18280D01*
X13150Y10770D02*
X13180Y10740D01*
X13380Y10540D01*
X14260Y17790D02*
Y18430D01*
X14054Y18636D02*
X14260Y18430D01*
X13560Y16440D02*
Y18130D01*
X13150Y10770D02*
Y10950D01*
X17500Y20850D02*
X17600Y20750D01*
X17500Y20850D02*
Y20890D01*
X16670Y20330D02*
X16800Y20200D01*
X16670Y20330D02*
Y20350D01*
X19000Y13120D02*
X19120Y13000D01*
X16021Y12546D02*
X17324D01*
X19520Y11100D02*
X19570D01*
X19700Y13080D02*
X19760D01*
X16450Y17800D02*
X16500Y17850D01*
X15266Y18636D02*
X15310Y18680D01*
X14764Y18636D02*
X15266D01*
X14764Y18124D02*
X14769Y18130D01*
X14960D01*
X15010Y18180D01*
X15310D01*
X18864Y12504D02*
Y12744D01*
X19042Y18442D02*
X19515D01*
X17587Y17263D02*
X17863D01*
X17585Y17261D02*
X17587Y17263D01*
X19042Y18442D02*
Y18915D01*
X18255Y19105D02*
X18550Y19400D01*
X18255Y18915D02*
Y19105D01*
X18119Y20212D02*
X18338D01*
X18058Y18915D02*
Y19092D01*
X17450Y19700D02*
X18058Y19092D01*
X16800Y19700D02*
X17450D01*
X17519Y20669D02*
X17600Y20750D01*
X19450Y19200D02*
Y19500D01*
X19239Y18989D02*
X19450Y19200D01*
X19239Y18915D02*
Y18989D01*
X17300Y18442D02*
X17585D01*
X20200Y17962D02*
X20203Y17965D01*
X20200Y17550D02*
Y17962D01*
X20400Y18300D02*
Y18750D01*
Y18300D02*
X20753D01*
X20002Y18245D02*
X20006Y18250D01*
X19515Y18245D02*
X20002D01*
X17531Y20212D02*
X18042Y19700D01*
X18119D01*
X18845Y18915D02*
Y19345D01*
X18338Y20212D02*
X18550Y20000D01*
Y19400D02*
Y20000D01*
X19515Y18442D02*
X19742D01*
X19850Y18550D01*
X20150D01*
X20203Y18497D01*
Y18300D02*
Y18497D01*
X17142Y18600D02*
X17300Y18442D01*
X13344Y11956D02*
X13600D01*
Y11700D02*
Y11956D01*
X13994Y12350D01*
X14191Y12546D01*
X13344D02*
X14191D01*
X13344Y12350D02*
X13994D01*
X14191Y11700D02*
Y12546D01*
X13344Y12743D02*
X14387D01*
X14191Y12546D02*
X14387Y12743D01*
X14584Y12940D01*
X16021Y13137D02*
X16287D01*
X19376Y11244D02*
Y11696D01*
Y11244D02*
X19420Y11200D01*
X16021Y12350D02*
X16500D01*
X16300Y18600D02*
X16500D01*
X17000D02*
Y18700D01*
X16300Y18200D02*
X16500D01*
X16400Y17800D02*
X16450D01*
X19100Y20100D02*
Y20150D01*
X19000Y20000D02*
X19100Y20100D01*
Y19350D02*
Y19400D01*
X18845Y19345D02*
X19000Y19500D01*
X19550Y20100D02*
Y20150D01*
X17850Y16250D02*
X18000D01*
X17800Y16200D02*
X17850Y16250D01*
X17150Y12150D02*
Y12200D01*
X17050Y12300D02*
X17150Y12200D01*
X12870Y15710D02*
Y15770D01*
X19847Y17812D02*
Y17813D01*
Y17812D02*
X20109Y17550D01*
X20200D01*
X19808Y17852D02*
X19847Y17813D01*
X19515Y17852D02*
X19808D01*
X14100Y15450D02*
X14978Y14572D01*
X13940Y15384D02*
X14530Y14794D01*
Y14720D02*
Y14794D01*
D27*
X16370Y11420D02*
Y11607D01*
X16045Y11420D02*
X16370D01*
X13540Y16420D02*
X13560D01*
X13994Y13728D02*
X14683Y13039D01*
X14950Y10780D02*
Y11672D01*
X13994Y10654D02*
Y11700D01*
X18802Y11042D02*
X18920Y11159D01*
X18470Y11042D02*
X18802D01*
X18409Y10980D02*
X18470Y11042D01*
X17720Y11080D02*
X17820Y10980D01*
X18409D01*
X17300Y11080D02*
X17720D01*
X13670Y14700D02*
X13797Y14573D01*
Y14377D02*
Y14573D01*
X13130Y13930D02*
X13339D01*
X13000Y14060D02*
X13130Y13930D01*
X13030Y13720D02*
X13042Y13732D01*
X12891Y13530D02*
X13343D01*
X13344Y13531D01*
X12891D02*
X12891Y13530D01*
X12881Y13531D02*
X12891D01*
X12970Y13720D02*
X13030D01*
X12880Y13530D02*
X12881Y13531D01*
X12880Y13530D02*
X12890Y13520D01*
X13339Y13930D02*
X13344Y13924D01*
X14460Y18010D02*
Y18270D01*
X14570Y18380D01*
X14764D01*
X13560Y18130D02*
X13951D01*
X14460Y18010D02*
X15820Y16650D01*
X14950Y11672D02*
X14978Y11700D01*
X13880Y10540D02*
X13994Y10654D01*
X13650Y10950D02*
Y11340D01*
X13716Y11406D01*
X13750D01*
X14700Y11460D02*
X14781Y11541D01*
X14700Y11230D02*
Y11460D01*
X14300Y11260D02*
X14355D01*
X14387Y11293D01*
X13540Y16420D02*
X13560Y16440D01*
X15820Y16650D02*
X16570Y17400D01*
X16850D01*
X15820Y16650D02*
X16720Y15750D01*
X13956Y18636D02*
X14054D01*
X16720Y15750D02*
X18200D01*
X18920Y11159D02*
Y11200D01*
X16333Y11317D02*
Y11333D01*
X19376Y12504D02*
Y15274D01*
X18600Y16050D02*
X19376Y15274D01*
X15568Y11700D02*
X15590Y11679D01*
Y11360D02*
Y11679D01*
X16021Y11956D02*
X16370Y11607D01*
X15765Y11700D02*
X16045Y11420D01*
X13042Y13728D02*
X13344D01*
X16350Y13930D02*
X16360Y13920D01*
X16310Y13930D02*
X16350D01*
X16304Y13924D02*
X16310Y13930D01*
X16021Y13924D02*
X16304D01*
X14978Y14377D02*
Y14572D01*
X13042Y13728D02*
Y13732D01*
X13040Y13310D02*
X13060Y13330D01*
X13064Y13334D01*
X12873Y13137D02*
X13344D01*
X12860Y13150D02*
X12873Y13137D01*
X13064Y13334D02*
X13344D01*
X12830Y13120D02*
X12860Y13150D01*
X13030Y12940D02*
X13030Y12940D01*
X13344D01*
X14781Y11541D02*
Y11700D01*
X19515Y18639D02*
X19750Y18874D01*
X18864Y11256D02*
Y11696D01*
X13994Y13728D02*
Y14377D01*
X15175Y13531D02*
X16021D01*
X15175D02*
X15372Y13728D01*
X14683Y13039D02*
X15175Y13531D01*
X15372Y13728D02*
X16021D01*
X18100Y20750D02*
X18119Y20731D01*
Y20212D02*
Y20731D01*
X18845Y16305D02*
Y16985D01*
X17861Y16261D02*
Y16985D01*
X17298Y18048D02*
X17585D01*
X17050Y17800D02*
X17298Y18048D01*
X16950Y17800D02*
X17050D01*
X17581Y18250D02*
X17585Y18245D01*
X17250Y18250D02*
X17581D01*
X17200Y18200D02*
X17250Y18250D01*
X17000Y18200D02*
X17200D01*
X19042Y16658D02*
Y16985D01*
X13797Y11453D02*
Y11700D01*
X13750Y11406D02*
X13797Y11453D01*
X16287Y13137D02*
X16300Y13150D01*
X13951Y18130D02*
X13956Y18124D01*
X17100Y17150D02*
Y17292D01*
X17463Y17655D01*
X17585D01*
X17452Y17852D02*
X17585D01*
X17050Y17450D02*
X17452Y17852D01*
X16900Y17450D02*
X17050D01*
X16850Y17400D02*
X16900Y17450D01*
X18200Y15750D02*
X18255Y15805D01*
X18200Y15750D02*
X18300D01*
X17000Y17050D02*
X17100Y17150D01*
X18845Y16305D02*
X19050Y16100D01*
X19042Y16658D02*
X19550Y16150D01*
X18255Y15805D02*
Y16144D01*
X18255Y16144D01*
X18648Y16098D02*
Y16985D01*
X16700Y17050D02*
X17000D01*
X16600Y16950D02*
X16700Y17050D01*
X14387Y11293D02*
Y11700D01*
X15372Y11700D02*
X15372Y11700D01*
X15175Y11390D02*
Y11700D01*
X15372Y14377D02*
Y14688D01*
X15568Y14869D02*
X15570Y14870D01*
X15568Y14377D02*
Y14869D01*
X15765Y14377D02*
Y14685D01*
X14191Y14377D02*
Y14679D01*
X18255Y16144D02*
Y16356D01*
X18600Y16050D02*
X18648Y16098D01*
X18255Y16356D02*
Y16985D01*
Y16356D02*
X18255Y16356D01*
X13344Y14121D02*
Y14976D01*
X13210Y15110D02*
X13344Y14976D01*
X12770Y15110D02*
X13210D01*
X13320Y15720D02*
Y15750D01*
X19515Y17655D02*
X19675D01*
X19870Y17459D01*
Y16800D02*
Y17459D01*
X19800Y16730D02*
X19870Y16800D01*
X15372Y11182D02*
Y11700D01*
X15370Y11180D02*
X15372Y11182D01*
X15120Y14850D02*
X15175Y14795D01*
Y14377D02*
Y14795D01*
D28*
X14950Y10780D02*
X15140Y10590D01*
X18413D01*
X18680Y10860D02*
X19020D01*
X19180Y11020D01*
X18543Y10723D02*
X18680Y10860D01*
X18543Y10720D02*
Y10723D01*
X18413Y10590D02*
X18543Y10720D01*
X19120Y11440D02*
Y11696D01*
Y11440D02*
X19180Y11380D01*
Y11020D02*
Y11380D01*
D29*
X21900Y18300D02*
X22100Y18500D01*
X21197Y18300D02*
X21900D01*
X22100Y18500D02*
Y19350D01*
X14270Y19770D02*
Y20620D01*
X13625Y19760D02*
X13675Y19710D01*
D30*
X15510Y20710D02*
X15620D01*
X15460Y20760D02*
X15510Y20710D01*
D31*
X14270Y20620D02*
D03*
D32*
X13270D02*
D03*
D33*
X14735Y10895D02*
D03*
X15157Y10948D02*
D03*
X14700Y11230D02*
D03*
X15370Y11180D02*
D03*
X16570Y11890D02*
D03*
X17530Y11970D02*
D03*
X14400Y17300D02*
D03*
X13860Y17270D02*
D03*
X18640Y10520D02*
D03*
X18330Y10790D02*
D03*
X13670Y14700D02*
D03*
X19710Y15070D02*
D03*
Y14160D02*
D03*
X18990Y14240D02*
D03*
X19000Y15160D02*
D03*
X17280Y15470D02*
D03*
X16160Y15840D02*
D03*
X15410Y16610D02*
D03*
X14830Y17200D02*
D03*
X15630Y17310D02*
D03*
X15320Y17590D02*
D03*
X12970Y13720D02*
D03*
X13000Y14060D02*
D03*
X12800Y13520D02*
D03*
X13060Y13330D02*
D03*
X13030Y12940D02*
D03*
X12860Y13150D02*
D03*
X14300Y11260D02*
D03*
X14320Y10810D02*
D03*
X15850Y11000D02*
D03*
X17110Y12990D02*
D03*
X16770Y13560D02*
D03*
X13620Y15200D02*
D03*
X12810Y14610D02*
D03*
X12603Y13990D02*
D03*
X12610Y12770D02*
D03*
X12930Y12267D02*
D03*
X17150Y12150D02*
D03*
X16350Y13930D02*
D03*
X15570Y14870D02*
D03*
X15765Y14685D02*
D03*
X16850Y17400D02*
D03*
X14170Y14710D02*
D03*
X15590Y11360D02*
D03*
X15175Y11390D02*
D03*
X15372Y14688D02*
D03*
X15025Y15450D02*
D03*
X15120Y14850D02*
D03*
X14847Y15009D02*
D03*
X14530Y14720D02*
D03*
D34*
X16880Y11280D02*
D03*
X17300Y11080D02*
D03*
X13460Y18730D02*
D03*
X13560Y16440D02*
D03*
X19000Y13120D02*
D03*
X14640Y13080D02*
D03*
X14610Y13680D02*
D03*
X14660Y12420D02*
D03*
X18850Y17650D02*
D03*
X18150D02*
D03*
X18850Y18300D02*
D03*
X18200D02*
D03*
X16400Y13150D02*
D03*
X19100Y20150D02*
D03*
X20300Y19350D02*
D03*
X20100Y16950D02*
D03*
X19570Y11100D02*
D03*
X19760Y13080D02*
D03*
X15410Y18030D02*
D03*
Y18780D02*
D03*
X19100Y19350D02*
D03*
X19550Y20150D02*
D03*
X13320Y15750D02*
D03*
X12870Y15770D02*
D03*
X13180Y10740D02*
D03*
X19800Y16730D02*
D03*
X15460Y20760D02*
D03*
X13540Y19570D02*
D03*
X15530Y20090D02*
D03*
D35*
X18280Y11260D02*
D03*
X17500Y20890D02*
D03*
X16333Y11317D02*
D03*
X16300Y18600D02*
D03*
Y17700D02*
D03*
X16670Y20350D02*
D03*
X19750Y18950D02*
D03*
X17100Y18800D02*
D03*
X17250Y16450D02*
D03*
X18200Y15750D02*
D03*
X19050Y16100D02*
D03*
X19550Y16150D02*
D03*
X16600Y16950D02*
D03*
X18000Y16250D02*
D03*
X18600Y16050D02*
D03*
X16300Y18200D02*
D03*
M02*
