%FSLAX24Y24*%
%MOIN*%
G70*
G01*
G75*
G04 Layer_Physical_Order=4*
G04 Layer_Color=16711680*
%ADD10R,0.0250X0.0200*%
%ADD11R,0.0200X0.0250*%
%ADD12R,0.0098X0.0217*%
%ADD13O,0.0110X0.0335*%
%ADD14O,0.0335X0.0110*%
%ADD15R,0.2008X0.2008*%
%ADD16R,0.0472X0.0394*%
%ADD17R,0.0472X0.0394*%
%ADD18R,0.0945X0.0295*%
%ADD19R,0.0236X0.0197*%
%ADD20R,0.0157X0.0276*%
%ADD21R,0.0276X0.0157*%
%ADD22R,0.1457X0.1457*%
%ADD23O,0.0335X0.0118*%
%ADD24O,0.0118X0.0335*%
%ADD25R,0.0276X0.0354*%
%ADD26C,0.0100*%
%ADD27C,0.0060*%
%ADD28C,0.0080*%
%ADD29C,0.0200*%
%ADD30C,0.0150*%
%ADD31C,0.0591*%
%ADD32R,0.0591X0.0591*%
%ADD33C,0.0200*%
%ADD34C,0.0250*%
%ADD35C,0.0330*%
%ADD36C,0.0400*%
%ADD37C,0.0300*%
%ADD38R,0.2510X1.1520*%
%ADD39C,0.0590*%
%ADD40C,0.0300*%
%ADD41C,0.0350*%
%ADD42C,0.0400*%
%ADD43R,0.2570X1.1660*%
%ADD44R,0.0236X0.0472*%
%ADD45O,0.0280X0.0091*%
%ADD46R,0.0280X0.0091*%
G36*
X17680Y13320D02*
Y12612D01*
X17662D01*
Y12612D01*
X17306D01*
Y12292D01*
X17297Y12287D01*
X17262Y12268D01*
X17212Y12301D01*
X17200Y12303D01*
Y12150D01*
Y11997D01*
X17212Y11999D01*
X17265Y12035D01*
D01*
X17265Y12035D01*
X17265Y12035D01*
X17265Y12035D01*
X17265Y12035D01*
D01*
X17265Y12035D01*
X17306Y12087D01*
Y12019D01*
X17337D01*
X17369Y11981D01*
X17367Y11970D01*
X17379Y11908D01*
X17415Y11855D01*
X17418Y11853D01*
Y11660D01*
X17315D01*
Y11340D01*
X17680D01*
Y10340D01*
X12326Y10340D01*
X12290Y10375D01*
X12290Y16715D01*
X12325Y16750D01*
X14290D01*
X17680Y13320D01*
D02*
G37*
%LPC*%
G36*
X17100Y12303D02*
X17088Y12301D01*
X17035Y12265D01*
X16999Y12212D01*
X16997Y12200D01*
X17100D01*
Y12303D01*
D02*
G37*
G36*
X13083Y12217D02*
X12980D01*
Y12114D01*
X12992Y12116D01*
X13045Y12151D01*
X13081Y12204D01*
X13083Y12217D01*
D02*
G37*
G36*
X14839Y12370D02*
X14710D01*
Y12241D01*
X14732Y12246D01*
X14793Y12287D01*
X14834Y12348D01*
X14839Y12370D01*
D02*
G37*
G36*
X14610D02*
X14481D01*
X14486Y12348D01*
X14527Y12287D01*
X14588Y12246D01*
X14610Y12241D01*
Y12370D01*
D02*
G37*
G36*
X17185Y11660D02*
X17050D01*
Y11550D01*
X17185D01*
Y11660D01*
D02*
G37*
G36*
X16950D02*
X16815D01*
Y11550D01*
X16950D01*
Y11660D01*
D02*
G37*
G36*
X16914Y12612D02*
X16558D01*
Y12051D01*
X16508Y12041D01*
X16455Y12005D01*
X16419Y11952D01*
X16407Y11890D01*
X16419Y11828D01*
X16455Y11775D01*
X16508Y11739D01*
X16570Y11727D01*
X16632Y11739D01*
X16685Y11775D01*
X16721Y11828D01*
X16733Y11890D01*
X16732Y11894D01*
X16815Y11977D01*
X16840Y12013D01*
X16841Y12019D01*
X16914D01*
Y12612D01*
D02*
G37*
G36*
X12880Y12217D02*
X12777D01*
X12779Y12204D01*
X12815Y12151D01*
X12868Y12116D01*
X12880Y12114D01*
Y12217D01*
D02*
G37*
G36*
X17100Y12100D02*
X16997D01*
X16999Y12088D01*
X17035Y12035D01*
X17088Y11999D01*
X17100Y11997D01*
Y12100D01*
D02*
G37*
G36*
X12880Y12420D02*
X12868Y12418D01*
X12815Y12382D01*
X12779Y12329D01*
X12777Y12317D01*
X12880D01*
Y12420D01*
D02*
G37*
G36*
X17288Y12974D02*
X17160D01*
Y12728D01*
X17288D01*
Y12974D01*
D02*
G37*
G36*
X17060D02*
X16932D01*
Y12728D01*
X17060D01*
Y12974D01*
D02*
G37*
G36*
X12560Y12923D02*
X12548Y12921D01*
X12495Y12885D01*
X12459Y12832D01*
X12457Y12820D01*
X12560D01*
Y12923D01*
D02*
G37*
G36*
X14590Y13030D02*
X14461D01*
X14466Y13008D01*
X14507Y12947D01*
X14568Y12906D01*
X14590Y12901D01*
Y13030D01*
D02*
G37*
G36*
X12660Y12923D02*
Y12820D01*
X12763D01*
X12761Y12832D01*
X12725Y12885D01*
X12672Y12921D01*
X12660Y12923D01*
D02*
G37*
G36*
X14610Y12599D02*
X14588Y12594D01*
X14527Y12553D01*
X14486Y12492D01*
X14481Y12470D01*
X14610D01*
Y12599D01*
D02*
G37*
G36*
X12980Y12420D02*
Y12317D01*
X13083D01*
X13081Y12329D01*
X13045Y12382D01*
X12992Y12418D01*
X12980Y12420D01*
D02*
G37*
G36*
X14710Y12599D02*
Y12470D01*
X14839D01*
X14834Y12492D01*
X14793Y12553D01*
X14732Y12594D01*
X14710Y12599D01*
D02*
G37*
G36*
X12763Y12720D02*
X12660D01*
Y12617D01*
X12672Y12619D01*
X12725Y12655D01*
X12761Y12708D01*
X12763Y12720D01*
D02*
G37*
G36*
X12560D02*
X12457D01*
X12459Y12708D01*
X12495Y12655D01*
X12548Y12619D01*
X12560Y12617D01*
Y12720D01*
D02*
G37*
G36*
X16815Y11474D02*
X16801Y11459D01*
X16789Y11442D01*
X16747Y11413D01*
X16706Y11352D01*
X16701Y11330D01*
X17059D01*
X17064Y11301D01*
X17096Y11340D01*
X17185D01*
Y11450D01*
X16815D01*
Y11474D01*
D02*
G37*
G36*
X13130Y10919D02*
X13108Y10914D01*
X13047Y10873D01*
X13006Y10812D01*
X13001Y10790D01*
X13130D01*
Y10919D01*
D02*
G37*
G36*
X14888Y10845D02*
X14785D01*
Y10741D01*
X14797Y10744D01*
X14850Y10779D01*
X14885Y10832D01*
X14888Y10845D01*
D02*
G37*
G36*
X13230Y10919D02*
Y10790D01*
X13359D01*
X13354Y10812D01*
X13313Y10873D01*
X13252Y10914D01*
X13230Y10919D01*
D02*
G37*
G36*
X15310Y10898D02*
X15207D01*
Y10795D01*
X15219Y10797D01*
X15272Y10833D01*
X15308Y10885D01*
X15310Y10898D01*
D02*
G37*
G36*
X15107D02*
X15004D01*
X15006Y10885D01*
X15042Y10833D01*
X15094Y10797D01*
X15107Y10795D01*
Y10898D01*
D02*
G37*
G36*
X13359Y10690D02*
X13230D01*
Y10561D01*
X13252Y10566D01*
X13313Y10607D01*
X13354Y10668D01*
X13359Y10690D01*
D02*
G37*
G36*
X13130D02*
X13001D01*
X13006Y10668D01*
X13047Y10607D01*
X13108Y10566D01*
X13130Y10561D01*
Y10690D01*
D02*
G37*
G36*
X14270Y10760D02*
X14167D01*
X14169Y10748D01*
X14205Y10695D01*
X14258Y10659D01*
X14270Y10657D01*
Y10760D01*
D02*
G37*
G36*
X14685Y10845D02*
X14581D01*
X14584Y10832D01*
X14619Y10779D01*
X14672Y10744D01*
X14685Y10741D01*
Y10845D01*
D02*
G37*
G36*
X14473Y10760D02*
X14370D01*
Y10657D01*
X14382Y10659D01*
X14435Y10695D01*
X14471Y10748D01*
X14473Y10760D01*
D02*
G37*
G36*
X15800Y10950D02*
X15697D01*
X15699Y10938D01*
X15735Y10885D01*
X15788Y10849D01*
X15800Y10847D01*
Y10950D01*
D02*
G37*
G36*
X15900Y11153D02*
Y11050D01*
X16003D01*
X16001Y11062D01*
X15965Y11115D01*
X15912Y11151D01*
X15900Y11153D01*
D02*
G37*
G36*
X15800D02*
X15788Y11151D01*
X15735Y11115D01*
X15699Y11062D01*
X15697Y11050D01*
X15800D01*
Y11153D01*
D02*
G37*
G36*
X16333Y11546D02*
X16245Y11529D01*
X16171Y11479D01*
X16121Y11405D01*
X16104Y11317D01*
X16121Y11229D01*
X16171Y11155D01*
X16245Y11105D01*
X16333Y11088D01*
X16421Y11105D01*
X16495Y11155D01*
X16545Y11229D01*
X16562Y11317D01*
X16545Y11405D01*
X16495Y11479D01*
X16421Y11529D01*
X16333Y11546D01*
D02*
G37*
G36*
X17059Y11230D02*
X16930D01*
Y11101D01*
X16952Y11106D01*
X17013Y11147D01*
X17054Y11208D01*
X17059Y11230D01*
D02*
G37*
G36*
X16830D02*
X16701D01*
X16706Y11208D01*
X16747Y11147D01*
X16808Y11106D01*
X16830Y11101D01*
Y11230D01*
D02*
G37*
G36*
X14270Y10963D02*
X14258Y10961D01*
X14205Y10925D01*
X14169Y10872D01*
X14167Y10860D01*
X14270D01*
Y10963D01*
D02*
G37*
G36*
X16003Y10950D02*
X15900D01*
Y10847D01*
X15912Y10849D01*
X15965Y10885D01*
X16001Y10938D01*
X16003Y10950D01*
D02*
G37*
G36*
X14370Y10963D02*
Y10860D01*
X14473D01*
X14471Y10872D01*
X14435Y10925D01*
X14382Y10961D01*
X14370Y10963D01*
D02*
G37*
G36*
X15107Y11101D02*
X15094Y11099D01*
X15042Y11063D01*
X15006Y11010D01*
X15004Y10998D01*
X15107D01*
Y11101D01*
D02*
G37*
G36*
X17300Y11269D02*
X17228Y11254D01*
X17167Y11213D01*
X17126Y11152D01*
X17111Y11080D01*
X17126Y11008D01*
X17167Y10947D01*
X17228Y10906D01*
X17300Y10891D01*
X17372Y10906D01*
X17433Y10947D01*
X17474Y11008D01*
X17489Y11080D01*
X17474Y11152D01*
X17433Y11213D01*
X17372Y11254D01*
X17300Y11269D01*
D02*
G37*
G36*
X14819Y13030D02*
X14690D01*
Y12901D01*
X14712Y12906D01*
X14773Y12947D01*
X14814Y13008D01*
X14819Y13030D01*
D02*
G37*
G36*
X13773Y15150D02*
X13670D01*
Y15047D01*
X13682Y15049D01*
X13735Y15085D01*
X13771Y15138D01*
X13773Y15150D01*
D02*
G37*
G36*
X13570D02*
X13467D01*
X13469Y15138D01*
X13505Y15085D01*
X13558Y15049D01*
X13570Y15047D01*
Y15150D01*
D02*
G37*
G36*
X14797Y15162D02*
X14784Y15160D01*
X14731Y15125D01*
X14696Y15072D01*
X14693Y15059D01*
X14797D01*
Y15162D01*
D02*
G37*
G36*
X13570Y15353D02*
X13558Y15351D01*
X13505Y15315D01*
X13469Y15262D01*
X13467Y15250D01*
X13570D01*
Y15353D01*
D02*
G37*
G36*
X14897Y15162D02*
Y15059D01*
X15000D01*
X14997Y15072D01*
X14962Y15125D01*
X14909Y15160D01*
X14897Y15162D01*
D02*
G37*
G36*
X14480Y14873D02*
X14468Y14871D01*
X14415Y14835D01*
X14379Y14782D01*
X14377Y14770D01*
X14480D01*
Y14873D01*
D02*
G37*
G36*
X12860Y14763D02*
Y14660D01*
X12963D01*
X12961Y14672D01*
X12925Y14725D01*
X12872Y14761D01*
X12860Y14763D01*
D02*
G37*
G36*
X14580Y14873D02*
Y14770D01*
X14683D01*
X14681Y14782D01*
X14645Y14835D01*
X14592Y14871D01*
X14580Y14873D01*
D02*
G37*
G36*
X14797Y14959D02*
X14693D01*
X14696Y14947D01*
X14731Y14894D01*
X14784Y14859D01*
X14797Y14856D01*
Y14959D01*
D02*
G37*
G36*
X15570Y15033D02*
X15508Y15021D01*
X15455Y14985D01*
X15419Y14932D01*
X15407Y14870D01*
X15386Y14849D01*
X15372Y14851D01*
X15309Y14839D01*
X15304Y14836D01*
X15283Y14850D01*
X15271Y14912D01*
X15235Y14965D01*
X15182Y15001D01*
X15120Y15013D01*
X15058Y15001D01*
X15056Y15000D01*
X15045Y15002D01*
X15008Y15018D01*
X15010Y15009D01*
X15000Y14959D01*
X14897D01*
Y14856D01*
X14909Y14859D01*
X14910Y14859D01*
X14921Y14857D01*
X14959Y14842D01*
X14969Y14788D01*
X15005Y14735D01*
X15058Y14699D01*
X15120Y14687D01*
X15182Y14699D01*
X15187Y14703D01*
X15209Y14688D01*
X15221Y14626D01*
X15256Y14573D01*
X15305Y14540D01*
Y13885D01*
X15266Y13854D01*
X15261Y13855D01*
X15155D01*
X14495Y14515D01*
X14518Y14559D01*
X14480Y14567D01*
Y14670D01*
X14377D01*
X14367Y14720D01*
X14374Y14756D01*
X14324D01*
X14321Y14772D01*
X14285Y14825D01*
X14232Y14861D01*
X14170Y14873D01*
X14108Y14861D01*
X14055Y14825D01*
X14019Y14772D01*
X14007Y14710D01*
X14019Y14648D01*
X14055Y14595D01*
X14108Y14559D01*
X14170Y14547D01*
X14198Y14552D01*
X14971Y13779D01*
X14965Y13747D01*
X14973Y13706D01*
X14997Y13671D01*
Y13666D01*
X14973Y13631D01*
X14965Y13590D01*
X14973Y13549D01*
X14997Y13514D01*
Y13508D01*
X14973Y13473D01*
X14965Y13432D01*
X14973Y13391D01*
X14997Y13356D01*
Y13351D01*
X14973Y13316D01*
X14965Y13275D01*
X14973Y13234D01*
X14997Y13199D01*
Y13193D01*
X14973Y13158D01*
X14965Y13117D01*
X14973Y13076D01*
X14997Y13041D01*
Y13036D01*
X14973Y13001D01*
X14965Y12960D01*
X14973Y12919D01*
X14997Y12884D01*
Y12878D01*
X14973Y12844D01*
X14965Y12802D01*
X14973Y12761D01*
X14997Y12727D01*
Y12721D01*
X14973Y12686D01*
X14965Y12645D01*
X14973Y12604D01*
X14997Y12569D01*
Y12563D01*
X14973Y12529D01*
X14965Y12487D01*
X14973Y12446D01*
X14997Y12412D01*
Y12406D01*
X14973Y12371D01*
X14965Y12330D01*
X14973Y12289D01*
X14982Y12275D01*
X14677Y11970D01*
X14657Y11940D01*
X14650Y11905D01*
Y11543D01*
X14635Y11528D01*
X14615Y11499D01*
X14608Y11464D01*
Y11361D01*
X14585Y11345D01*
X14549Y11292D01*
X14537Y11230D01*
X14549Y11168D01*
X14585Y11115D01*
X14638Y11079D01*
X14639Y11079D01*
X14649Y11030D01*
X14619Y11010D01*
X14584Y10957D01*
X14581Y10945D01*
X14888D01*
X14885Y10957D01*
X14850Y11010D01*
X14797Y11045D01*
X14795Y11046D01*
X14786Y11095D01*
X14815Y11115D01*
X14851Y11168D01*
X14863Y11230D01*
X14851Y11292D01*
X14815Y11345D01*
X14792Y11361D01*
Y11426D01*
X14807Y11440D01*
X14827Y11470D01*
X14834Y11505D01*
X14834Y11505D01*
X14834Y11505D01*
Y11505D01*
Y11867D01*
X15065Y12098D01*
X15113Y12088D01*
X15118Y12086D01*
Y11542D01*
X15112Y11541D01*
X15059Y11505D01*
X15024Y11452D01*
X15012Y11390D01*
X15024Y11328D01*
X15059Y11275D01*
X15112Y11239D01*
X15175Y11227D01*
X15209Y11192D01*
X15207Y11180D01*
X15214Y11142D01*
X15179Y11107D01*
X15207Y11101D01*
Y10998D01*
X15310D01*
X15312Y10986D01*
X15348Y11021D01*
X15370Y11017D01*
X15432Y11029D01*
X15485Y11065D01*
X15521Y11118D01*
X15532Y11172D01*
X15573Y11200D01*
X15590Y11197D01*
X15652Y11209D01*
X15705Y11245D01*
X15741Y11298D01*
X15753Y11360D01*
X15741Y11422D01*
X15728Y11441D01*
Y12643D01*
X15721Y12678D01*
X15702Y12708D01*
X15542Y12867D01*
X15513Y12887D01*
X15478Y12894D01*
X15478Y12928D01*
X15602Y13053D01*
X16322Y13772D01*
X16350Y13767D01*
X16412Y13779D01*
X16465Y13815D01*
X16501Y13868D01*
X16513Y13930D01*
X16501Y13992D01*
X16465Y14045D01*
X16412Y14081D01*
X16350Y14093D01*
X16288Y14081D01*
X16235Y14045D01*
X16199Y13992D01*
X16187Y13930D01*
X16192Y13902D01*
X15903Y13613D01*
X15857Y13632D01*
Y14554D01*
X15881Y14569D01*
X15916Y14622D01*
X15928Y14685D01*
X15916Y14747D01*
X15881Y14800D01*
X15828Y14835D01*
X15765Y14848D01*
X15757Y14846D01*
X15733Y14870D01*
X15721Y14932D01*
X15685Y14985D01*
X15632Y15021D01*
X15570Y15033D01*
D02*
G37*
G36*
X13670Y15353D02*
Y15250D01*
X13773D01*
X13771Y15262D01*
X13735Y15315D01*
X13682Y15351D01*
X13670Y15353D01*
D02*
G37*
G36*
X13049Y15720D02*
X12920D01*
Y15591D01*
X12942Y15596D01*
X13003Y15637D01*
X13044Y15698D01*
X13049Y15720D01*
D02*
G37*
G36*
X12820D02*
X12691D01*
X12696Y15698D01*
X12737Y15637D01*
X12798Y15596D01*
X12820Y15591D01*
Y15720D01*
D02*
G37*
G36*
Y15949D02*
X12798Y15944D01*
X12737Y15903D01*
X12696Y15842D01*
X12691Y15820D01*
X12820D01*
Y15949D01*
D02*
G37*
G36*
X13560Y16629D02*
X13488Y16614D01*
X13427Y16573D01*
X13386Y16512D01*
X13371Y16440D01*
X13386Y16368D01*
X13427Y16307D01*
X13488Y16266D01*
X13560Y16251D01*
X13632Y16266D01*
X13693Y16307D01*
X13734Y16368D01*
X13749Y16440D01*
X13734Y16512D01*
X13693Y16573D01*
X13632Y16614D01*
X13560Y16629D01*
D02*
G37*
G36*
X12920Y15949D02*
Y15820D01*
X13049D01*
X13044Y15842D01*
X13003Y15903D01*
X12942Y15944D01*
X12920Y15949D01*
D02*
G37*
G36*
X15178Y15400D02*
X15075D01*
Y15297D01*
X15087Y15299D01*
X15140Y15335D01*
X15176Y15388D01*
X15178Y15400D01*
D02*
G37*
G36*
X14975D02*
X14872D01*
X14874Y15388D01*
X14910Y15335D01*
X14962Y15299D01*
X14975Y15297D01*
Y15400D01*
D02*
G37*
G36*
Y15603D02*
X14962Y15601D01*
X14910Y15565D01*
X14874Y15512D01*
X14872Y15500D01*
X14975D01*
Y15603D01*
D02*
G37*
G36*
X13320Y15939D02*
X13248Y15924D01*
X13187Y15883D01*
X13146Y15822D01*
X13131Y15750D01*
X13146Y15678D01*
X13187Y15617D01*
X13248Y15576D01*
X13320Y15561D01*
X13392Y15576D01*
X13453Y15617D01*
X13494Y15678D01*
X13509Y15750D01*
X13494Y15822D01*
X13453Y15883D01*
X13392Y15924D01*
X13320Y15939D01*
D02*
G37*
G36*
X15075Y15603D02*
Y15500D01*
X15178D01*
X15176Y15512D01*
X15140Y15565D01*
X15087Y15601D01*
X15075Y15603D01*
D02*
G37*
G36*
X12760Y14763D02*
X12748Y14761D01*
X12695Y14725D01*
X12659Y14672D01*
X12657Y14660D01*
X12760D01*
Y14763D01*
D02*
G37*
G36*
X16923Y13510D02*
X16820D01*
Y13407D01*
X16832Y13409D01*
X16885Y13445D01*
X16921Y13498D01*
X16923Y13510D01*
D02*
G37*
G36*
X16720D02*
X16617D01*
X16619Y13498D01*
X16655Y13445D01*
X16708Y13409D01*
X16720Y13407D01*
Y13510D01*
D02*
G37*
G36*
X14560Y13630D02*
X14431D01*
X14436Y13608D01*
X14477Y13547D01*
X14538Y13506D01*
X14560Y13501D01*
Y13630D01*
D02*
G37*
G36*
X16720Y13713D02*
X16708Y13711D01*
X16655Y13675D01*
X16619Y13622D01*
X16617Y13610D01*
X16720D01*
Y13713D01*
D02*
G37*
G36*
X14789Y13630D02*
X14660D01*
Y13501D01*
X14682Y13506D01*
X14743Y13547D01*
X14784Y13608D01*
X14789Y13630D01*
D02*
G37*
G36*
X17060Y13321D02*
X16932D01*
Y13074D01*
X17060D01*
Y13321D01*
D02*
G37*
G36*
X16400Y13339D02*
X16328Y13324D01*
X16267Y13283D01*
X16226Y13222D01*
X16211Y13150D01*
X16226Y13078D01*
X16267Y13017D01*
X16328Y12976D01*
X16400Y12961D01*
X16472Y12976D01*
X16533Y13017D01*
X16574Y13078D01*
X16589Y13150D01*
X16574Y13222D01*
X16533Y13283D01*
X16472Y13324D01*
X16400Y13339D01*
D02*
G37*
G36*
X17288Y13321D02*
X17160D01*
Y13074D01*
X17288D01*
Y13321D01*
D02*
G37*
G36*
X14690Y13259D02*
Y13130D01*
X14819D01*
X14814Y13152D01*
X14773Y13213D01*
X14712Y13254D01*
X14690Y13259D01*
D02*
G37*
G36*
X14590D02*
X14568Y13254D01*
X14507Y13213D01*
X14466Y13152D01*
X14461Y13130D01*
X14590D01*
Y13259D01*
D02*
G37*
G36*
X16820Y13713D02*
Y13610D01*
X16923D01*
X16921Y13622D01*
X16885Y13675D01*
X16832Y13711D01*
X16820Y13713D01*
D02*
G37*
G36*
X12653Y14143D02*
Y14040D01*
X12756D01*
X12754Y14052D01*
X12719Y14105D01*
X12666Y14141D01*
X12653Y14143D01*
D02*
G37*
G36*
X12553D02*
X12541Y14141D01*
X12488Y14105D01*
X12452Y14052D01*
X12450Y14040D01*
X12553D01*
Y14143D01*
D02*
G37*
G36*
X12760Y14560D02*
X12657D01*
X12659Y14548D01*
X12695Y14495D01*
X12748Y14459D01*
X12760Y14457D01*
Y14560D01*
D02*
G37*
G36*
X14683Y14670D02*
X14580D01*
Y14567D01*
X14592Y14569D01*
X14645Y14605D01*
X14681Y14658D01*
X14683Y14670D01*
D02*
G37*
G36*
X12963Y14560D02*
X12860D01*
Y14457D01*
X12872Y14459D01*
X12925Y14495D01*
X12961Y14548D01*
X12963Y14560D01*
D02*
G37*
G36*
X14660Y13859D02*
Y13730D01*
X14789D01*
X14784Y13752D01*
X14743Y13813D01*
X14682Y13854D01*
X14660Y13859D01*
D02*
G37*
G36*
X14560D02*
X14538Y13854D01*
X14477Y13813D01*
X14436Y13752D01*
X14431Y13730D01*
X14560D01*
Y13859D01*
D02*
G37*
G36*
X13670Y14863D02*
X13608Y14851D01*
X13555Y14815D01*
X13519Y14762D01*
X13507Y14700D01*
X13519Y14638D01*
X13555Y14585D01*
X13578Y14569D01*
Y14430D01*
X13578Y14430D01*
X13578D01*
X13585Y14395D01*
X13605Y14365D01*
X14008Y13962D01*
Y13855D01*
X14006D01*
X13964Y13846D01*
X13930Y13823D01*
X13906Y13788D01*
X13898Y13747D01*
X13843Y13736D01*
X13565Y14015D01*
X13535Y14035D01*
X13500Y14042D01*
X13178D01*
X13163Y14060D01*
X13151Y14122D01*
X13115Y14175D01*
X13062Y14211D01*
X13000Y14223D01*
X12938Y14211D01*
X12885Y14175D01*
X12849Y14122D01*
X12837Y14060D01*
X12849Y13998D01*
X12885Y13945D01*
X12913Y13926D01*
X12915Y13915D01*
X12915Y13915D01*
X12915Y13915D01*
X12908Y13871D01*
D01*
X12908D01*
D01*
D01*
X12908Y13871D01*
D01*
X12855Y13835D01*
X12819Y13782D01*
X12807Y13720D01*
X12807Y13720D01*
X12807Y13720D01*
X12800Y13683D01*
X12738Y13671D01*
X12685Y13635D01*
X12649Y13582D01*
X12637Y13520D01*
X12649Y13458D01*
X12685Y13405D01*
X12738Y13369D01*
X12800Y13357D01*
X12862Y13369D01*
X12869Y13362D01*
X12865Y13340D01*
X12857Y13312D01*
X12798Y13301D01*
X12745Y13265D01*
X12709Y13212D01*
X12697Y13150D01*
X12709Y13088D01*
X12745Y13035D01*
X12798Y12999D01*
X12841Y12991D01*
X12869Y12949D01*
X12867Y12940D01*
X12879Y12878D01*
X12915Y12825D01*
X12968Y12789D01*
X13030Y12777D01*
X13092Y12789D01*
X13145Y12825D01*
X13161Y12848D01*
X13292D01*
X13718Y12423D01*
X13718D01*
X13718Y12423D01*
X13718Y12423D01*
Y12423D01*
X13747Y12403D01*
X13783Y12396D01*
X13900D01*
Y12225D01*
X14075D01*
X14296Y12005D01*
Y11422D01*
X14238Y11411D01*
X14185Y11375D01*
X14149Y11322D01*
X14137Y11260D01*
X14149Y11198D01*
X14185Y11145D01*
X14238Y11109D01*
X14300Y11097D01*
X14362Y11109D01*
X14415Y11145D01*
X14451Y11198D01*
X14459Y11237D01*
X14472Y11257D01*
X14473Y11263D01*
X14479Y11293D01*
Y12043D01*
X14472Y12078D01*
X14452Y12107D01*
X14300Y12260D01*
Y12435D01*
X14300D01*
X14294Y12446D01*
X14302Y12487D01*
X14294Y12529D01*
X14270Y12563D01*
Y12569D01*
X14294Y12604D01*
X14302Y12645D01*
X14294Y12686D01*
X14270Y12721D01*
Y12727D01*
X14294Y12761D01*
X14302Y12802D01*
X14294Y12844D01*
X14270Y12878D01*
Y12884D01*
X14294Y12919D01*
X14302Y12960D01*
X14294Y13001D01*
X14270Y13036D01*
Y13041D01*
X14294Y13076D01*
X14302Y13117D01*
X14294Y13158D01*
X14270Y13193D01*
Y13199D01*
X14294Y13234D01*
X14302Y13275D01*
X14294Y13316D01*
X14270Y13351D01*
Y13356D01*
X14294Y13391D01*
X14302Y13432D01*
X14294Y13473D01*
X14270Y13508D01*
Y13514D01*
X14294Y13549D01*
X14302Y13590D01*
X14294Y13631D01*
X14270Y13666D01*
Y13671D01*
X14294Y13706D01*
X14302Y13747D01*
X14294Y13788D01*
X14270Y13823D01*
X14236Y13846D01*
X14194Y13855D01*
X14192D01*
Y14000D01*
X14185Y14035D01*
X14165Y14065D01*
X13762Y14468D01*
Y14569D01*
X13785Y14585D01*
X13821Y14638D01*
X13833Y14700D01*
X13821Y14762D01*
X13785Y14815D01*
X13732Y14851D01*
X13670Y14863D01*
D02*
G37*
G36*
X12756Y13940D02*
X12653D01*
Y13837D01*
X12666Y13839D01*
X12719Y13875D01*
X12754Y13928D01*
X12756Y13940D01*
D02*
G37*
G36*
X12553D02*
X12450D01*
X12452Y13928D01*
X12488Y13875D01*
X12541Y13839D01*
X12553Y13837D01*
Y13940D01*
D02*
G37*
%LPD*%
D10*
X17000Y11500D02*
D03*
X17500D02*
D03*
D26*
X17530Y12270D02*
G03*
X17484Y12316I-46J0D01*
G01*
X17530Y11970D02*
Y12270D01*
X17500Y11500D02*
X17530Y11530D01*
Y11970D01*
X16590Y11910D02*
X16736Y12056D01*
Y12316D01*
X16880Y11280D02*
Y11380D01*
X17000Y11500D01*
D27*
X15637Y11360D02*
Y12643D01*
X15370Y11120D02*
X15400Y11150D01*
X15150Y11390D02*
X15210Y11450D01*
X13000Y13950D02*
X13500D01*
X12990Y13740D02*
X13460D01*
X12970Y13720D02*
X12990Y13740D01*
X12810Y13530D02*
X13410D01*
X12800Y13520D02*
X12810Y13530D01*
X12870Y13140D02*
X13340D01*
X13060Y13330D02*
X13320D01*
X13500Y13950D02*
X13860Y13590D01*
X13340Y13140D02*
X13835Y12645D01*
X13320Y13330D02*
X13848Y12802D01*
X13410Y13530D02*
X13665Y13275D01*
X13330Y12940D02*
X13783Y12487D01*
X13030Y12940D02*
X13330D01*
X13665Y13275D02*
X14100D01*
X15167Y13117D02*
X15537D01*
X15380Y12960D02*
X15537Y13117D01*
X15167Y12960D02*
X15380D01*
X14742Y11505D02*
Y11905D01*
X14700Y11464D02*
X14742Y11505D01*
X14700Y11230D02*
Y11464D01*
X14300Y11260D02*
X14355D01*
X14387Y11293D01*
X15370Y11180D02*
Y11190D01*
Y11120D02*
Y11180D01*
Y11190D02*
X15390Y11210D01*
Y12030D01*
X15517Y12157D01*
X15210Y12087D02*
X15397Y12274D01*
X15210Y11450D02*
Y12087D01*
X15537Y13117D02*
X16350Y13930D01*
X15167Y13275D02*
X15445D01*
X15765Y13595D01*
Y14685D01*
X15570Y13640D02*
Y14870D01*
X15362Y13432D02*
X15570Y13640D01*
X15167Y13432D02*
X15362D01*
X15167Y13590D02*
X15174Y13597D01*
X15320D01*
X15397Y13673D01*
Y14663D01*
X15372Y14688D02*
X15397Y14663D01*
X13670Y14430D02*
X14100Y14000D01*
Y13747D02*
Y14000D01*
X13860Y13590D02*
X14100D01*
X13460Y13740D02*
X13768Y13432D01*
X14100D01*
X13848Y12802D02*
X14100D01*
X13835Y12645D02*
X14100D01*
X12860Y13150D02*
X12870Y13140D01*
X13783Y12487D02*
X14100D01*
Y12330D02*
X14387Y12043D01*
Y11293D02*
Y12043D01*
X14742Y11905D02*
X15167Y12330D01*
X15295Y12487D02*
X15397Y12386D01*
X15167Y12487D02*
X15295D01*
X15397Y12274D02*
Y12386D01*
X15478Y12802D02*
X15637Y12643D01*
X15397Y12640D02*
X15517Y12520D01*
Y12157D02*
Y12520D01*
X15167Y12645D02*
X15172Y12640D01*
X15397D01*
X15167Y12802D02*
X15478D01*
X13670Y14430D02*
Y14700D01*
X13000Y13950D02*
Y14060D01*
X14170Y14710D02*
X15133Y13747D01*
D31*
X14270Y20620D02*
D03*
D32*
X13270D02*
D03*
D33*
X14735Y10895D02*
D03*
X15157Y10948D02*
D03*
X14700Y11230D02*
D03*
X15370Y11180D02*
D03*
X16570Y11890D02*
D03*
X17530Y11970D02*
D03*
X14400Y17300D02*
D03*
X13860Y17270D02*
D03*
X18640Y10520D02*
D03*
X18330Y10790D02*
D03*
X13670Y14700D02*
D03*
X19710Y15070D02*
D03*
Y14160D02*
D03*
X18990Y14240D02*
D03*
X19000Y15160D02*
D03*
X17280Y15470D02*
D03*
X16160Y15840D02*
D03*
X15410Y16610D02*
D03*
X14830Y17200D02*
D03*
X15630Y17310D02*
D03*
X15320Y17590D02*
D03*
X12970Y13720D02*
D03*
X13000Y14060D02*
D03*
X12800Y13520D02*
D03*
X13060Y13330D02*
D03*
X13030Y12940D02*
D03*
X12860Y13150D02*
D03*
X14300Y11260D02*
D03*
X14320Y10810D02*
D03*
X15850Y11000D02*
D03*
X17110Y12990D02*
D03*
X16770Y13560D02*
D03*
X13620Y15200D02*
D03*
X12810Y14610D02*
D03*
X12603Y13990D02*
D03*
X12610Y12770D02*
D03*
X12930Y12267D02*
D03*
X17150Y12150D02*
D03*
X16350Y13930D02*
D03*
X15570Y14870D02*
D03*
X15765Y14685D02*
D03*
X16850Y17400D02*
D03*
X14170Y14710D02*
D03*
X15590Y11360D02*
D03*
X15175Y11390D02*
D03*
X15372Y14688D02*
D03*
X15025Y15450D02*
D03*
X15120Y14850D02*
D03*
X14847Y15009D02*
D03*
X14530Y14720D02*
D03*
D34*
X16880Y11280D02*
D03*
X17300Y11080D02*
D03*
X13460Y18730D02*
D03*
X13560Y16440D02*
D03*
X19000Y13120D02*
D03*
X14640Y13080D02*
D03*
X14610Y13680D02*
D03*
X14660Y12420D02*
D03*
X18850Y17650D02*
D03*
X18150D02*
D03*
X18850Y18300D02*
D03*
X18200D02*
D03*
X16400Y13150D02*
D03*
X19100Y20150D02*
D03*
X20300Y19350D02*
D03*
X20100Y16950D02*
D03*
X19570Y11100D02*
D03*
X19760Y13080D02*
D03*
X15410Y18030D02*
D03*
Y18780D02*
D03*
X19100Y19350D02*
D03*
X19550Y20150D02*
D03*
X13320Y15750D02*
D03*
X12870Y15770D02*
D03*
X13180Y10740D02*
D03*
X19800Y16730D02*
D03*
X15460Y20760D02*
D03*
X13540Y19570D02*
D03*
X15530Y20090D02*
D03*
D35*
X18280Y11260D02*
D03*
X17500Y20890D02*
D03*
X16333Y11317D02*
D03*
X16300Y18600D02*
D03*
Y17700D02*
D03*
X16670Y20350D02*
D03*
X19750Y18950D02*
D03*
X17100Y18800D02*
D03*
X17250Y16450D02*
D03*
X18200Y15750D02*
D03*
X19050Y16100D02*
D03*
X19550Y16150D02*
D03*
X16600Y16950D02*
D03*
X18000Y16250D02*
D03*
X18600Y16050D02*
D03*
X16300Y18200D02*
D03*
D44*
X17484Y12316D02*
D03*
X16736D02*
D03*
X17110Y13024D02*
D03*
D45*
X15167Y13747D02*
D03*
Y13590D02*
D03*
Y13432D02*
D03*
Y13275D02*
D03*
Y13117D02*
D03*
Y12960D02*
D03*
Y12802D02*
D03*
Y12645D02*
D03*
Y12487D02*
D03*
Y12330D02*
D03*
X14100Y13747D02*
D03*
Y13590D02*
D03*
Y13432D02*
D03*
Y13275D02*
D03*
Y13117D02*
D03*
Y12960D02*
D03*
Y12802D02*
D03*
Y12645D02*
D03*
Y12487D02*
D03*
D46*
Y12330D02*
D03*
M02*
