%FSTAX24Y24*%
%MOIN*%
%SFA1B1*%

%IPPOS*%
%ADD10R,0.027600X0.035400*%
%ADD11R,0.020000X0.025000*%
%ADD12O,0.033500X0.011800*%
%ADD13O,0.011800X0.033500*%
%ADD14R,0.145700X0.145700*%
%ADD15R,0.025000X0.020000*%
%ADD16R,0.027600X0.015700*%
%ADD17R,0.015700X0.027600*%
%ADD18R,0.023600X0.019700*%
%ADD19R,0.094500X0.029500*%
%ADD20R,0.047200X0.039400*%
%ADD21R,0.047200X0.039400*%
%ADD22R,0.200800X0.200800*%
%ADD23O,0.033500X0.011000*%
%ADD24O,0.011000X0.033500*%
%ADD25R,0.009800X0.021700*%
%ADD26C,0.010000*%
%ADD27C,0.006000*%
%ADD28C,0.008000*%
%ADD29C,0.020000*%
%ADD30C,0.015000*%
%ADD31R,0.059100X0.059100*%
%ADD32C,0.059100*%
%ADD33C,0.020000*%
%ADD34C,0.025000*%
%ADD35C,0.033000*%
%LN16_chan-1*%
%LPD*%
G36*
X02063Y02136D02*
X020656Y018489D01*
X020625Y018458*
Y018412*
X020512*
Y018565*
X02056*
Y018935*
X02024*
Y018565*
X020288*
Y018468*
X020253*
Y0183*
X020153*
Y018468*
X019897*
Y018357*
X019767*
X019735Y018396*
X019733Y018392*
X019514*
Y018492*
X019733*
X019709Y018528*
Y018553*
X019735Y018593*
X019744Y018639*
X019735Y018685*
X019748Y018719*
X01975Y018721*
X019838Y018738*
X019912Y018788*
X019962Y018862*
X019979Y01895*
X019962Y019038*
X019912Y019112*
X019838Y019162*
X01975Y019179*
X019662Y019162*
X019588Y019112*
X019538Y019038*
X019521Y01895*
X019538Y018862*
X019566Y01882*
X019506Y01876*
X019406*
X019393Y018758*
X019358Y018793*
X01936Y018806*
Y018952*
X019529Y019121*
X019554Y019157*
X019562Y0192*
Y019315*
X01961*
Y019685*
X01929*
Y019485*
X019242Y01947*
X019233Y019483*
X019172Y019524*
X01916Y019527*
Y019685*
X01884*
Y019499*
X018766Y019425*
X018742Y019388*
X018733Y019345*
Y019167*
X018694Y019135*
X018648Y019144*
X018602Y019135*
X018563Y019109*
X018537*
X018498Y019135*
X018485Y019177*
X018629Y019321*
X018654Y019357*
X018662Y0194*
Y02*
X018654Y020043*
X018629Y020079*
X018417Y020291*
X018416Y020292*
Y020469*
X018211*
Y02059*
X018285*
Y02091*
X017915*
Y02059*
X018028*
Y020469*
X017823*
Y019955*
Y01975*
X018119*
Y01965*
X017823*
Y019551*
X017788Y019536*
X017746Y019564*
Y019955*
Y020162*
X017154*
Y019955*
Y019812*
X01696*
Y019885*
X01664*
Y019515*
X01696*
Y019588*
X017154*
Y019443*
X017548*
X017812Y01918*
X017807Y01913*
X017775Y019109*
X017749Y019069*
X01774Y019023*
Y018806*
X017742Y018793*
X017707Y018758*
X017694Y01876*
X017477*
X017431Y018751*
X017391Y018725*
X017365Y018685*
X017356Y018639*
X017362Y018606*
X017318Y018583*
X017263Y018638*
X017312Y018712*
X017329Y0188*
X017312Y018888*
X017262Y018962*
X017188Y019012*
X0171Y019029*
X017012Y019012*
X016938Y018962*
X016888Y018888*
X016871Y0188*
Y018799*
X016839Y01876*
X016815*
Y01844*
X017144*
X017177Y018406*
X017158Y01836*
X016815*
Y01804*
X017095*
X017114Y017994*
X01708Y01796*
X016765*
Y01764*
X017045*
X017064Y017594*
X017012Y017542*
X016926*
X016912Y017551*
X01685Y017563*
X016788Y017551*
X016735Y017515*
X016719Y017492*
X01657*
X016535Y017485*
X016505Y017465*
X01582Y01678*
X014661Y017939*
X01468Y017985*
X014961*
Y018018*
X015003Y018026*
X015039Y018051*
X015056Y018068*
X01515*
Y017995*
X015228*
X015236Y017958*
X015277Y017897*
X015338Y017856*
X01541Y017841*
X015482Y017856*
X015543Y017897*
X015584Y017958*
X015599Y01803*
X015584Y018102*
X015543Y018163*
X015482Y018204*
X01547Y018207*
Y018365*
X01515*
Y018292*
X01501*
X015Y01829*
X014961Y018322*
Y018497*
Y018586*
X014566*
Y018497*
Y018471*
X014541Y018466*
X014535Y018465*
X014505Y018445*
X014418Y018358*
X014372Y018377*
Y01843*
X014364Y018473*
X014339Y018509*
X014154Y018694*
Y018775*
X013759*
X013755*
X01372Y01881*
Y018815*
X013626*
X013593Y018863*
X013532Y018904*
X01351Y018909*
Y01873*
X01346*
Y01868*
X013281*
X013286Y018658*
X013327Y018597*
X013388Y018556*
X0134Y018553*
Y018445*
X01351*
Y01863*
X01361*
Y018445*
X01372*
Y018497*
X013759*
X014034*
X014148Y018384*
Y018263*
X013759*
X013755*
X01372Y018298*
Y018315*
X0134*
Y017945*
X013448*
Y01708*
X012*
X01199Y021335*
X012025Y02137*
X02063Y02136*
G37*
G36*
X017381Y017388D02*
X017391Y017372D01*
Y017347*
X017367Y017311*
X017586*
Y017261*
X017635*
Y01714*
X017694*
X017707Y017142*
X017742Y017107*
X01774Y017094*
Y016877*
X017749Y016831*
X017769Y0168*
Y01636*
X017615*
Y01604*
X017909*
X017912Y016038*
X018Y016021*
X018088Y016038*
X018119Y016059*
X018163Y016035*
Y015972*
X018112Y015962*
X018038Y015912*
X017991Y015842*
X016758*
X01595Y01665*
X01634Y01704*
X016384Y017016*
X016371Y01695*
X016388Y016862*
X016438Y016788*
X016512Y016738*
X0166Y016721*
X016688Y016738*
X016762Y016788*
X016812Y016862*
X016829Y01695*
X016836Y016958*
X017*
X017034Y016965*
X01726*
Y017322*
X017331Y017393*
X017381Y017388*
G37*
G36*
X020625Y018142D02*
X020659D01*
X02073Y010216*
X020694Y01018*
X01798Y0102*
Y010488*
X018413*
X018446Y010495*
X018487Y010467*
X018489Y010458*
X018525Y010405*
X018578Y010369*
X01859Y010367*
Y01052*
X01864*
Y01057*
X018793*
X018791Y010582*
X018755Y010635*
X018702Y010671*
X018698Y010672*
X018684Y010719*
X018722Y010758*
X01902*
X019059Y010766*
X019092Y010788*
X019252Y010948*
X019274Y010981*
X019282Y01102*
Y01104*
X01937*
Y0112*
Y01136*
X019282*
Y01138*
X019274Y011419*
X019252Y011452*
X019222Y011482*
Y011499*
X019326*
Y011696*
Y011894*
X018725*
Y011499*
X018772*
Y01136*
X018735*
Y011134*
X01855*
X018492Y011172*
X018509Y01126*
X018492Y011348*
X018442Y011422*
X018368Y011472*
X01828Y011489*
X018192Y011472*
X018118Y011422*
X018084Y011372*
X01798*
Y01347*
X01797*
X01443Y01708*
X014212*
Y017207*
X01426Y017222*
X014285Y017185*
X014338Y017149*
X01435Y017147*
Y0173*
Y017453*
X014338Y017451*
X014285Y017415*
X01426Y017378*
X014212Y017393*
Y017584*
X014339Y017711*
X014364Y017747*
X014372Y01779*
Y017903*
X014418Y017922*
X015755Y016585*
X016655Y015685*
X016685Y015665*
X01672Y015658*
X017188*
X017202Y01561*
X017165Y015585*
X017129Y015532*
X017127Y01552*
X017433*
X017431Y015532*
X017395Y015585*
X017358Y01561*
X017372Y015658*
X017991*
X018038Y015588*
X018112Y015538*
X0182Y015521*
X018288Y015538*
X018362Y015588*
X018412Y015662*
X018429Y01575*
X018412Y015838*
X018397Y01586*
X018438Y015888*
X018512Y015838*
X0186Y015821*
X018683Y015837*
X019284Y015236*
Y01316*
X019181*
X019174Y013192*
X019133Y013253*
X019072Y013294*
X019Y013309*
X018928Y013294*
X018867Y013253*
X018826Y013192*
X018811Y01312*
X018826Y013048*
X018867Y012987*
X018883Y012976*
X018888Y012926*
X018785Y012823*
X01876Y012787*
X018752Y012744*
Y012701*
X018725*
Y012306*
X019003*
Y012701*
X018996Y012718*
X019119Y01284*
X019284*
Y012701*
X019237*
Y012306*
X019515*
Y012701*
X019468*
Y01284*
X01957*
Y013*
Y01316*
X019468*
Y015274*
X019462Y015303*
X019461Y015309*
X019441Y015339*
X01893Y01585*
X018962Y015888*
X01905Y015871*
X019138Y015888*
X019212Y015938*
X019262Y016012*
X019279Y0161*
X019262Y016188*
X019212Y016262*
X019138Y016312*
X01905Y016329*
X018976Y016315*
X018937Y016346*
Y016566*
X018944Y016571*
X018983Y016587*
X019337Y016233*
X019321Y01615*
X019338Y016062*
X019388Y015988*
X019462Y015938*
X01955Y015921*
X019638Y015938*
X019712Y015988*
X019762Y016062*
X019779Y01615*
X019762Y016238*
X019712Y016312*
X019638Y016362*
X01955Y016379*
X019467Y016363*
X019134Y016696*
Y016751*
X019178Y016775*
X019193Y016765*
X019239Y016756*
X019285Y016765*
X019325Y016791*
X019351Y016831*
X01936Y016877*
Y017094*
X019358Y017107*
X019393Y017142*
X019406Y01714*
X019623*
X019669Y017149*
X019709Y017175*
X01973Y017208*
X019778Y017193*
Y016914*
X019728Y016904*
X019667Y016863*
X019626Y016802*
X019611Y01673*
X019626Y016658*
X019667Y016597*
X019728Y016556*
X0198Y016541*
X019872Y016556*
X019933Y016597*
X019974Y016658*
X019989Y01673*
X019985Y016749*
X020026Y016777*
X020028Y016776*
X02005Y016771*
Y01695*
X02015*
Y016771*
X020172Y016776*
X020233Y016817*
X020266Y016865*
X02036*
Y017*
X0202*
Y01705*
X02015*
Y017235*
X02004*
Y01714*
X019997Y017114*
X019962Y017133*
Y017459*
X019959Y017473*
X020003Y017497*
X020029Y017471*
X02004Y017464*
Y017365*
X02036*
Y017735*
X020312*
Y017797*
X020509*
Y018132*
Y018188*
X020625*
Y018142*
G37*
%LN16_chan-2*%
%LPC*%
G36*
X0173Y016669D02*
Y0165D01*
X017469*
X017462Y016538*
X017412Y016612*
X017338Y016662*
X0173Y016669*
G37*
G36*
X015563Y01656D02*
X01546D01*
Y016457*
X015472Y016459*
X015525Y016495*
X015561Y016548*
X015563Y01656*
G37*
G36*
X01705Y016835D02*
X01694D01*
Y0167*
X01705*
Y016835*
G37*
G36*
X01546Y016763D02*
Y01666D01*
X015563*
X015561Y016672*
X015525Y016725*
X015472Y016761*
X01546Y016763*
G37*
G36*
X01536D02*
X015348Y016761D01*
X015295Y016725*
X015259Y016672*
X015257Y01666*
X01536*
Y016763*
G37*
G36*
X01725Y01615D02*
X017115D01*
Y01604*
X01725*
Y01615*
G37*
G36*
X01621Y015993D02*
Y01589D01*
X016313*
X016311Y015902*
X016275Y015955*
X016222Y015991*
X01621Y015993*
G37*
G36*
X01611D02*
X016098Y015991D01*
X016045Y015955*
X016009Y015902*
X016007Y01589*
X01611*
Y015993*
G37*
G36*
X017485Y01615D02*
X01735D01*
Y01604*
X017485*
Y01615*
G37*
G36*
X01536Y01656D02*
X015257D01*
X015259Y016548*
X015295Y016495*
X015348Y016459*
X01536Y016457*
Y01656*
G37*
G36*
X0172Y0166D02*
X01694D01*
Y016465*
X017008*
X017021Y01645*
X017031Y0165*
X0172*
Y0166*
G37*
G36*
X017469Y0164D02*
X017031D01*
X017038Y016362*
X017088Y016288*
X017115Y01627*
Y01625*
X017485*
Y01636*
X017462Y016362*
X017469Y0164*
G37*
G36*
X01726Y016835D02*
X01715D01*
Y0167*
X01726*
Y016835*
G37*
G36*
X01488Y017353D02*
Y01725D01*
X014983*
X014981Y017262*
X014945Y017315*
X014892Y017351*
X01488Y017353*
G37*
G36*
X01478D02*
X014768Y017351D01*
X014715Y017315*
X014679Y017262*
X014677Y01725*
X01478*
Y017353*
G37*
G36*
X015783Y01726D02*
X01568D01*
Y017157*
X015692Y017159*
X015745Y017195*
X015781Y017248*
X015783Y01726*
G37*
G36*
X01568Y017463D02*
Y01736D01*
X015783*
X015781Y017372*
X015745Y017425*
X015692Y017461*
X01568Y017463*
G37*
G36*
X01558D02*
X015568Y017461D01*
X015515Y017425*
X015479Y017372*
X015477Y01736*
X01558*
Y017463*
G37*
G36*
X01445Y017453D02*
Y01735D01*
X014553*
X014551Y017362*
X014515Y017415*
X014462Y017451*
X01445Y017453*
G37*
G36*
X02036Y017235D02*
X02025D01*
Y0171*
X02036*
Y017235*
G37*
G36*
X014983Y01715D02*
X01488D01*
Y017047*
X014892Y017049*
X014945Y017085*
X014981Y017138*
X014983Y01715*
G37*
G36*
X01478D02*
X014677D01*
X014679Y017138*
X014715Y017085*
X014768Y017049*
X01478Y017047*
Y01715*
G37*
G36*
X01558Y01726D02*
X015477D01*
X015479Y017248*
X015515Y017195*
X015568Y017159*
X01558Y017157*
Y01726*
G37*
G36*
X014553Y01725D02*
X01445D01*
Y017147*
X014462Y017149*
X014515Y017185*
X014551Y017238*
X014553Y01725*
G37*
G36*
X017535Y017211D02*
X017367D01*
X017391Y017175*
X017431Y017149*
X017477Y01714*
X017535*
Y017211*
G37*
G36*
X016313Y01579D02*
X01621D01*
Y015687*
X016222Y015689*
X016275Y015725*
X016311Y015778*
X016313Y01579*
G37*
G36*
X01966Y01411D02*
X019557D01*
X019559Y014098*
X019595Y014045*
X019648Y014009*
X01966Y014007*
Y01411*
G37*
G36*
X01981Y013259D02*
Y01313D01*
X019939*
X019934Y013152*
X019893Y013213*
X019832Y013254*
X01981Y013259*
G37*
G36*
X019939Y01303D02*
X01981D01*
Y012901*
X019832Y012906*
X019893Y012947*
X019934Y013008*
X019939Y01303*
G37*
G36*
X019863Y01411D02*
X01976D01*
Y014007*
X019772Y014009*
X019825Y014045*
X019861Y014098*
X019863Y01411*
G37*
G36*
X01966Y014313D02*
X019648Y014311D01*
X019595Y014275*
X019559Y014222*
X019557Y01421*
X01966*
Y014313*
G37*
G36*
X019143Y01419D02*
X01904D01*
Y014087*
X019052Y014089*
X019105Y014125*
X019141Y014178*
X019143Y01419*
G37*
G36*
X01894D02*
X018837D01*
X018839Y014178*
X018875Y014125*
X018928Y014089*
X01894Y014087*
Y01419*
G37*
G36*
X01962Y011279D02*
Y01115D01*
X019749*
X019744Y011172*
X019703Y011233*
X019642Y011274*
X01962Y011279*
G37*
G36*
X019749Y01105D02*
X01962D01*
Y010921*
X019642Y010926*
X019703Y010967*
X019744Y011028*
X019749Y01105*
G37*
G36*
X018793Y01047D02*
X01869D01*
Y010367*
X018702Y010369*
X018755Y010405*
X018791Y010458*
X018793Y01047*
G37*
G36*
X019605Y01136D02*
X01947D01*
Y0112*
Y01104*
X019393*
X019396Y011028*
X019437Y010967*
X019498Y010926*
X01952Y010921*
Y0111*
Y011279*
X01957Y011289*
X019605Y011282*
Y01136*
G37*
G36*
X01971Y013259D02*
X019688Y013254D01*
X019627Y013213*
X019591Y01316*
X01967*
Y013*
Y01284*
X019805*
Y0129*
X01976Y012891*
X01971Y012901*
Y01308*
Y013259*
G37*
G36*
X019515Y011894D02*
X019426D01*
Y011746*
X019515*
Y011894*
G37*
G36*
Y011646D02*
X019426D01*
Y011499*
X019515*
Y011646*
G37*
G36*
X01895Y015313D02*
X018938Y015311D01*
X018885Y015275*
X018849Y015222*
X018847Y01521*
X01895*
Y015313*
G37*
G36*
X01976Y015223D02*
Y01512D01*
X019863*
X019861Y015132*
X019825Y015185*
X019772Y015221*
X01976Y015223*
G37*
G36*
X01966D02*
X019648Y015221D01*
X019595Y015185*
X019559Y015132*
X019557Y01512*
X01966*
Y015223*
G37*
G36*
X01905Y015313D02*
Y01521D01*
X019153*
X019151Y015222*
X019115Y015275*
X019062Y015311*
X01905Y015313*
G37*
G36*
X01611Y01579D02*
X016007D01*
X016009Y015778*
X016045Y015725*
X016098Y015689*
X01611Y015687*
Y01579*
G37*
G36*
X017433Y01542D02*
X01733D01*
Y015317*
X017342Y015319*
X017395Y015355*
X017431Y015408*
X017433Y01542*
G37*
G36*
X01723D02*
X017127D01*
X017129Y015408*
X017165Y015355*
X017218Y015319*
X01723Y015317*
Y01542*
G37*
G36*
X01904Y014393D02*
Y01429D01*
X019143*
X019141Y014302*
X019105Y014355*
X019052Y014391*
X01904Y014393*
G37*
G36*
X01894D02*
X018928Y014391D01*
X018875Y014355*
X018839Y014302*
X018837Y01429*
X01894*
Y014393*
G37*
G36*
X01976Y014313D02*
Y01421D01*
X019863*
X019861Y014222*
X019825Y014275*
X019772Y014311*
X01976Y014313*
G37*
G36*
X01966Y01502D02*
X019557D01*
X019559Y015008*
X019595Y014955*
X019648Y014919*
X01966Y014917*
Y01502*
G37*
G36*
X019153Y01511D02*
X01905D01*
Y015007*
X019062Y015009*
X019115Y015045*
X019151Y015098*
X019153Y01511*
G37*
G36*
X01895D02*
X018847D01*
X018849Y015098*
X018885Y015045*
X018938Y015009*
X01895Y015007*
Y01511*
G37*
G36*
X019863Y01502D02*
X01976D01*
Y014917*
X019772Y014919*
X019825Y014955*
X019861Y015008*
X019863Y01502*
G37*
G36*
X01527Y01754D02*
X015167D01*
X015169Y017528*
X015205Y017475*
X015258Y017439*
X01527Y017437*
Y01754*
G37*
G36*
X01662Y0203D02*
X016451D01*
X016458Y020262*
X016508Y020188*
X016582Y020138*
X01662Y020131*
Y0203*
G37*
G36*
X01696Y020385D02*
X016892D01*
X016899Y02035*
X016889Y0203*
X01672*
Y020131*
X01667Y020121*
X01664Y020127*
Y020015*
X01675*
Y0202*
X0168*
Y02025*
X01696*
Y020385*
G37*
G36*
X01929Y020185D02*
D01*
X019282*
X019289Y02015*
X019279Y0201*
X018921*
X018911Y02015*
X018918Y020185*
X01884*
Y02005*
X01916*
Y019973*
X019172Y019976*
X019233Y020017*
X019242Y02003*
X01929Y020015*
Y02005*
X01961*
Y019973*
X019622Y019976*
X019683Y020017*
X019724Y020078*
X019729Y0201*
X019371*
X019361Y02015*
X019368Y020185*
X01929*
G37*
G36*
X01905Y020329D02*
X019028Y020324D01*
X018967Y020283*
X018926Y020222*
X018921Y0202*
X01905*
Y020329*
G37*
G36*
X0196D02*
Y0202D01*
X019729*
X019724Y020222*
X019683Y020283*
X019622Y020324*
X0196Y020329*
G37*
G36*
X0195D02*
X019478Y020324D01*
X019417Y020283*
X019376Y020222*
X019371Y0202*
X0195*
Y020329*
G37*
G36*
X01915D02*
Y0202D01*
X019279*
X019274Y020222*
X019233Y020283*
X019172Y020324*
X01915Y020329*
G37*
G36*
X0194Y01995D02*
X01929D01*
Y019815*
X0194*
Y01995*
G37*
G36*
X01916D02*
X01905D01*
Y019815*
X01916*
Y01995*
G37*
G36*
X01895D02*
X01884D01*
Y019815*
X01895*
Y01995*
G37*
G36*
X01961D02*
X0195D01*
Y019815*
X01961*
Y01995*
G37*
G36*
X01696Y02015D02*
X01685D01*
Y020015*
X01696*
Y02015*
G37*
G36*
X01557Y020395D02*
X01546D01*
Y020265*
X015458Y020264*
X015397Y020223*
X015356Y020162*
X015351Y02014*
X01553*
Y02009*
X01558*
Y019911*
X015602Y019916*
X015663Y019957*
X015704Y020018*
X015706Y020025*
X01578*
Y02016*
X01562*
Y02021*
X01557*
Y020395*
G37*
G36*
X01548Y02004D02*
X015351D01*
X015356Y020018*
X015397Y019957*
X015458Y019916*
X01548Y019911*
Y02004*
G37*
G36*
X017785Y0207D02*
X01765D01*
Y02059*
X017785*
Y0207*
G37*
G36*
Y02091D02*
X017725D01*
X017729Y02089*
X017719Y02084*
X017281*
X017288Y020802*
X017338Y020728*
X017412Y020678*
X017415Y020677*
Y02059*
X01755*
Y02075*
X0176*
Y0208*
X017785*
Y02091*
G37*
G36*
X01546Y020949D02*
X015388Y020934D01*
X015327Y020893*
X015286Y020832*
X015271Y02076*
X015286Y020688*
X015327Y020627*
X015388Y020586*
X01546Y020571*
Y020525*
X01578*
Y020895*
X015591*
X015532Y020934*
X01546Y020949*
G37*
G36*
X01322Y020975D02*
X012915D01*
Y02067*
X01322*
Y020975*
G37*
G36*
X01755Y021109D02*
Y02094D01*
X017719*
X017712Y020978*
X017662Y021052*
X017588Y021102*
X01755Y021109*
G37*
G36*
X01745D02*
X017412Y021102D01*
X017338Y021052*
X017288Y020978*
X017281Y02094*
X01745*
Y021109*
G37*
G36*
X013625Y020975D02*
X01332D01*
Y02067*
X013625*
Y020975*
G37*
G36*
X017746Y020469D02*
X0175D01*
Y020262*
X017746*
Y020469*
G37*
G36*
X0174D02*
X017154D01*
Y020262*
X0174*
Y020469*
G37*
G36*
X01578Y020395D02*
X01567D01*
Y02026*
X01578*
Y020395*
G37*
G36*
X01322Y02057D02*
X012915D01*
Y020265*
X01322*
Y02057*
G37*
G36*
X01672Y020569D02*
Y0204D01*
X016889*
X016882Y020438*
X016832Y020512*
X016758Y020562*
X01672Y020569*
G37*
G36*
X01662D02*
X016582Y020562D01*
X016508Y020512*
X016458Y020438*
X016451Y0204*
X01662*
Y020569*
G37*
G36*
X013625Y02057D02*
X01332D01*
Y020265*
X013625*
Y02057*
G37*
G36*
X016685Y01836D02*
X01655D01*
Y01825*
X016685*
Y01836*
G37*
G36*
Y01815D02*
X01655D01*
Y01804*
X016685*
Y01815*
G37*
G36*
X01625D02*
X016081D01*
X016088Y018112*
X016138Y018038*
X016212Y017988*
X01625Y017981*
Y01815*
G37*
G36*
X016685Y01855D02*
X01655D01*
Y01844*
X016685*
Y01855*
G37*
G36*
X01625Y018819D02*
X016212Y018812D01*
X016138Y018762*
X016088Y018688*
X016081Y01865*
X01625*
Y018819*
G37*
G36*
X01536Y018959D02*
X015338Y018954D01*
X015277Y018913*
X015244Y018865*
X01515*
Y01873*
X01531*
Y01868*
X01536*
Y018495*
X01547*
Y018603*
X015482Y018606*
X015543Y018647*
X015584Y018708*
X015589Y01873*
X01541*
Y01878*
X01536*
Y018959*
G37*
G36*
X01526Y01863D02*
X01515D01*
Y018495*
X01526*
Y01863*
G37*
G36*
X01527Y017743D02*
X015258Y017741D01*
X015205Y017705*
X015169Y017652*
X015167Y01764*
X01527*
Y017743*
G37*
G36*
X01625Y01765D02*
X016081D01*
X016088Y017612*
X016138Y017538*
X016212Y017488*
X01625Y017481*
Y01765*
G37*
G36*
X015473Y01754D02*
X01537D01*
Y017437*
X015382Y017439*
X015435Y017475*
X015471Y017528*
X015473Y01754*
G37*
G36*
X01537Y017743D02*
Y01764D01*
X015473*
X015471Y017652*
X015435Y017705*
X015382Y017741*
X01537Y017743*
G37*
G36*
X01635Y018819D02*
Y0186D01*
X0163*
Y01855*
X016081*
X016088Y018512*
X016138Y018438*
X016157Y018425*
Y018375*
X016138Y018362*
X016088Y018288*
X016081Y01825*
X0163*
Y0182*
X01635*
Y017981*
X0163Y017971*
X016265Y017978*
Y01796*
Y017922*
X0163Y017929*
X01635Y017919*
Y0177*
Y017481*
X016388Y017488*
X016462Y017538*
X016512Y017612*
X016517Y01764*
X016635*
Y01775*
X01645*
Y0178*
X0164*
Y01796*
X016432*
X016417Y018008*
X016462Y018038*
X016464Y01804*
X01645*
Y0182*
Y01836*
X016464*
X016462Y018362*
X016443Y018375*
Y018425*
X016462Y018438*
X016464Y01844*
X01645*
Y0186*
Y01876*
X016464*
X016462Y018762*
X016388Y018812*
X01635Y018819*
G37*
G36*
X016635Y01796D02*
X0165D01*
Y01785*
X016635*
Y01796*
G37*
G36*
X01625Y017919D02*
X016212Y017912D01*
X016138Y017862*
X016088Y017788*
X016081Y01775*
X01625*
Y017919*
G37*
G36*
X02025Y019529D02*
X020228Y019524D01*
X020167Y019483*
X020126Y019422*
X020121Y0194*
X02025*
Y019529*
G37*
G36*
X013477Y019746D02*
X013468Y019744D01*
X013407Y019703*
X013366Y019642*
X013361Y01962*
X01354*
Y01957*
X01359*
Y019391*
X013612Y019396*
X013673Y019437*
X013698Y019473*
X013625*
Y01966*
X013477*
Y019746*
G37*
G36*
X01349Y01952D02*
X013361D01*
X013366Y019498*
X013407Y019437*
X013468Y019396*
X01349Y019391*
Y01952*
G37*
G36*
X013873Y01966D02*
X013725D01*
Y019473*
X013873*
Y01966*
G37*
G36*
Y019947D02*
X013725D01*
Y01976*
X013873*
Y019947*
G37*
G36*
X013625D02*
X013477D01*
Y01976*
X013625*
Y019947*
G37*
G36*
X01427Y020978D02*
X014177Y020966D01*
X014091Y02093*
X014017Y020873*
X01396Y020799*
X013924Y020713*
X013912Y02062*
X013924Y020527*
X01396Y020441*
X014017Y020367*
X014091Y02031*
X014107Y020303*
Y019947*
X014067*
Y019473*
X014463*
Y019947*
X014433*
Y020303*
X014449Y02031*
X014523Y020367*
X01458Y020441*
X014616Y020527*
X014628Y02062*
X014616Y020713*
X01458Y020799*
X014523Y020873*
X014449Y02093*
X014363Y020966*
X01427Y020978*
G37*
G36*
X014961Y018775D02*
X014814D01*
Y018686*
X014961*
Y018775*
G37*
G36*
X014714D02*
X014566D01*
Y018686*
X014714*
Y018775*
G37*
G36*
X016685Y01876D02*
X01655D01*
Y01865*
X016685*
Y01876*
G37*
G36*
X01341Y018909D02*
X013388Y018904D01*
X013327Y018863*
X013286Y018802*
X013281Y01878*
X01341*
Y018909*
G37*
G36*
X02056Y0192D02*
X02045D01*
Y019065*
X02056*
Y0192*
G37*
G36*
X02035Y019529D02*
Y01935D01*
X0203*
Y0193*
X020121*
X020126Y019278*
X020167Y019217*
X020228Y019176*
X02024Y019173*
Y019065*
X02035*
Y01925*
X0204*
Y0193*
X02056*
Y019435*
X020466*
X020433Y019483*
X020372Y019524*
X02035Y019529*
G37*
G36*
X01546Y018959D02*
Y01883D01*
X015589*
X015584Y018852*
X015543Y018913*
X015482Y018954*
X01546Y018959*
G37*
%LN16_chan-3*%
%LPD*%
G54D10*
X014265Y01971D03*
X013675D03*
G54D11*
X01562Y02071D03*
Y02021D03*
X0171Y01665D03*
Y01715D03*
X01945Y02D03*
Y0195D03*
X0202Y01755D03*
Y01705D03*
X0204Y01925D03*
Y01875D03*
X019Y02D03*
Y0195D03*
X0168Y0197D03*
Y0202D03*
X01531Y01818D03*
Y01868D03*
X01356Y01863D03*
Y01813D03*
X01277Y01511D03*
Y01561D03*
X01321D03*
Y01511D03*
G54D12*
X019515Y017655D03*
Y017458D03*
Y017261D03*
X017585Y018639D03*
Y017458D03*
Y017852D03*
X019515Y018639D03*
Y018442D03*
Y018245D03*
Y018048D03*
Y017852D03*
X017585Y017261D03*
Y017655D03*
Y018048D03*
Y018245D03*
Y018442D03*
G54D13*
X018452Y018915D03*
X018648D03*
X017861D03*
X019239Y016985D03*
X019042D03*
X018845D03*
X018648D03*
X018452D03*
X018255D03*
X018058D03*
Y018915D03*
X018255D03*
X018845D03*
X019042D03*
X019239D03*
X017861Y016985D03*
G54D14*
X01855Y01795D03*
G54D15*
X01705Y0123D03*
X01655D03*
X0178Y0162D03*
X0173D03*
X01645Y0178D03*
X01695D03*
X0165Y0182D03*
X017D03*
X0165Y0186D03*
X017D03*
X0181Y02075D03*
X0176D03*
X01645Y01145D03*
X01695D03*
X01892Y0112D03*
X01942D03*
X01962Y013D03*
X01912D03*
X01315Y01095D03*
X01365D03*
X01388Y01054D03*
X01338D03*
X01666Y01184D03*
X01716D03*
G54D16*
X014764Y018124D03*
Y01838D03*
Y018636D03*
X013956D03*
Y018124D03*
G54D17*
X018864Y011696D03*
X01912D03*
X019376D03*
Y012504D03*
X018864D03*
G54D18*
X020803Y0183D03*
X021197D03*
G54D19*
X0221Y01935D03*
Y020708D03*
G54D20*
X01745Y020212D03*
X018119D03*
Y0197D03*
G54D21*
X01745Y0197D03*
G54D22*
X014683Y013039D03*
G54D23*
X013344Y011956D03*
Y012153D03*
Y01235D03*
Y012546D03*
Y012743D03*
Y01294D03*
Y013137D03*
Y013334D03*
Y013531D03*
Y013728D03*
Y013924D03*
Y014121D03*
X016021D03*
Y013924D03*
Y013728D03*
Y013531D03*
Y013334D03*
Y013137D03*
Y01294D03*
Y012743D03*
Y012546D03*
Y01235D03*
Y012153D03*
Y011956D03*
G54D24*
X0136Y014377D03*
X013797D03*
X013994D03*
X014191D03*
X014387D03*
X014584D03*
X014781D03*
X014978D03*
X015175D03*
X015372D03*
X015568D03*
X015765D03*
Y0117D03*
X015568D03*
X015372D03*
X015175D03*
X014978D03*
X014781D03*
X014584D03*
X014387D03*
X014191D03*
X013994D03*
X013797D03*
X0136D03*
G54D25*
X0204Y0183D03*
X020203D03*
X020006D03*
X0204Y017965D03*
X020203D03*
X020006D03*
G54D26*
X01855Y01795D02*
X019042Y018442D01*
X017863Y017263D02*
X01855Y01795D01*
X017519Y0202D02*
Y020669D01*
X0168Y0202D02*
X017519D01*
X0165Y0182D02*
Y0186D01*
Y01785D02*
Y0182D01*
X0171Y01665D02*
X0173Y01645D01*
Y0162D02*
Y01645D01*
X01716Y01184D02*
Y01219D01*
X014584Y01294D02*
X014683Y013039D01*
X014584Y0117D02*
Y01294D01*
X01453Y01472D02*
Y014794D01*
X01394Y015384D02*
X01453Y014794D01*
X0141Y01545D02*
X014978Y014572D01*
X018864Y012744D02*
X01912Y013D01*
X01754Y01131D02*
Y01233D01*
X017Y0186D02*
X017142D01*
X019515Y017852D02*
X019808D01*
X019847Y017813*
X020109Y01755D02*
X0202D01*
X019847Y017812D02*
X020109Y01755D01*
X019847Y017812D02*
Y017813D01*
X01287Y01571D02*
Y01577D01*
X01705Y0123D02*
X01715Y0122D01*
Y01215D02*
Y0122D01*
X0178Y0162D02*
X01785Y01625D01*
X018*
X01955Y0201D02*
Y02015D01*
X018845Y019345D02*
X019Y0195D01*
X0191Y01935D02*
Y0194D01*
X019Y02D02*
X0191Y0201D01*
Y02015*
X0164Y0178D02*
X01645D01*
X0163Y0182D02*
X0165D01*
X017Y0186D02*
Y0187D01*
X0163Y0186D02*
X0165D01*
X016021Y01235D02*
X0165D01*
X019376Y011244D02*
X01942Y0112D01*
X019376Y011244D02*
Y011696D01*
X016021Y013137D02*
X016287D01*
X014387Y012743D02*
X014584Y01294D01*
X014191Y012546D02*
X014387Y012743D01*
X013344D02*
X014387D01*
X014191Y0117D02*
Y012546D01*
X013344Y01235D02*
X013994D01*
X013344Y012546D02*
X014191D01*
X013994Y01235D02*
X014191Y012546D01*
X0136Y011956D02*
X013994Y01235D01*
X0136Y0117D02*
Y011956D01*
X013344D02*
X0136D01*
X017142Y0186D02*
X0173Y018442D01*
X020203Y0183D02*
Y018497D01*
X02015Y01855D02*
X020203Y018497D01*
X01985Y01855D02*
X02015D01*
X019742Y018442D02*
X01985Y01855D01*
X019515Y018442D02*
X019742D01*
X01855Y0194D02*
Y02D01*
X018338Y020212D02*
X01855Y02D01*
X018845Y018915D02*
Y019345D01*
X018042Y0197D02*
X018119D01*
X017531Y020212D02*
X018042Y0197D01*
X019515Y018245D02*
X020002D01*
X020006Y01825*
X0204Y0183D02*
X020753D01*
X0204D02*
Y01875D01*
X0202Y01755D02*
Y017962D01*
X020203Y017965*
X0173Y018442D02*
X017585D01*
X019239Y018915D02*
Y018989D01*
X01945Y0192*
Y0195*
X017519Y020669D02*
X0176Y02075D01*
X0168Y0197D02*
X01745D01*
X018058Y019092*
Y018915D02*
Y019092D01*
X018119Y020212D02*
X018338D01*
X018255Y018915D02*
Y019105D01*
X01855Y0194*
X019042Y018442D02*
Y018915D01*
X017585Y017261D02*
X017587Y017263D01*
X017863*
X019042Y018442D02*
X019515D01*
Y018048D02*
X020006D01*
X018864Y012504D02*
Y012744D01*
X01501Y01818D02*
X01531D01*
X01496Y01813D02*
X01501Y01818D01*
X014769Y01813D02*
X01496D01*
X014764Y018124D02*
X014769Y01813D01*
X014764Y018636D02*
X015266D01*
X01531Y01868*
X01645Y0178D02*
X0165Y01785D01*
X0197Y01308D02*
X01976D01*
X01952Y0111D02*
X01957D01*
X016021Y012546D02*
X017324D01*
X019Y01312D02*
X01912Y013D01*
X01667Y02033D02*
Y02035D01*
Y02033D02*
X0168Y0202D01*
X0175Y02085D02*
Y02089D01*
Y02085D02*
X0176Y02075D01*
X01315Y01077D02*
Y01095D01*
X01356Y01644D02*
Y01813D01*
X014054Y018636D02*
X01426Y01843D01*
Y01779D02*
Y01843D01*
X0148Y010718D02*
Y010842D01*
X01481Y010852*
Y01095*
X0148Y01096D02*
X01481Y01095D01*
X01318Y01074D02*
X01338Y01054D01*
X01315Y01077D02*
X01318Y01074D01*
X01759Y01126D02*
X01828D01*
X01754Y01131D02*
X01759Y01126D01*
X01509Y010852D02*
Y01103D01*
X018475Y01044D02*
X018555Y01052D01*
X01864*
X015078Y01044D02*
X018475D01*
X0148Y010718D02*
X015078Y01044D01*
X0141Y01545D02*
Y01763D01*
X01426Y01779*
X01427Y01717D02*
X0144Y0173D01*
X01427Y015506D02*
Y01717D01*
Y015506D02*
X014833Y014943D01*
X01386Y01727D02*
X01394Y01719D01*
Y015384D02*
Y01719D01*
X01509Y010852D02*
X015202Y01074D01*
X018321*
X01833Y010749*
Y01079*
X017324Y012546D02*
X01754Y01233D01*
X016307Y012153D02*
X01657Y01189D01*
X016021Y012153D02*
X016307D01*
X01688Y01128D02*
Y01138D01*
X01715Y0122D02*
X01716Y01219D01*
X01666Y01184D02*
X01667D01*
X01669Y01182*
X01188Y0101D02*
Y02156D01*
Y0101D02*
X02314D01*
Y02156*
X01188D02*
X02314D01*
G54D27*
X013994Y013728D02*
X014683Y013039D01*
X015175Y014377D02*
Y014795D01*
X01512Y01485D02*
X015175Y014795D01*
X01495Y01078D02*
Y011672D01*
X01537Y01118D02*
X015372Y011182D01*
Y0117*
X0198Y01673D02*
X01987Y0168D01*
Y017459*
X019675Y017655D02*
X01987Y017459D01*
X019515Y017655D02*
X019675D01*
X01332Y01572D02*
Y01575D01*
X01277Y01511D02*
X01321D01*
X013344Y014976*
Y014121D02*
Y014976D01*
X018255Y016356D02*
D01*
Y016985D01*
X0186Y01605D02*
X018648Y016098D01*
X018255Y016144D02*
Y016356D01*
X014191Y014377D02*
Y014679D01*
X015765Y014377D02*
Y014685D01*
X015568Y014377D02*
Y014869D01*
X01557Y01487*
X015372Y014377D02*
Y014688D01*
X015175Y01139D02*
Y0117D01*
X015372D02*
D01*
X014387Y011293D02*
Y0117D01*
X0166Y01695D02*
X0167Y01705D01*
X017*
X018648Y016098D02*
Y016985D01*
X018255Y016144D02*
D01*
Y015805D02*
Y016144D01*
X019042Y016658D02*
X01955Y01615D01*
X018845Y016305D02*
X01905Y0161D01*
X017Y01705D02*
X0171Y01715D01*
X0182Y01575D02*
X0183D01*
X0182D02*
X018255Y015805D01*
X01685Y0174D02*
X0169Y01745D01*
X01705*
X017452Y017852*
X017585*
X017463Y017655D02*
X017585D01*
X0171Y017292D02*
X017463Y017655D01*
X0171Y01715D02*
Y017292D01*
X013951Y01813D02*
X013956Y018124D01*
X016287Y013137D02*
X0163Y01315D01*
X01375Y011406D02*
X013797Y011453D01*
X013994Y010654D02*
Y0117D01*
X013797Y011453D02*
Y0117D01*
X019042Y016658D02*
Y016985D01*
X017Y0182D02*
X0172D01*
X01725Y01825*
X017581*
X017585Y018245*
X01695Y0178D02*
X01705D01*
X017298Y018048*
X017585*
X017861Y016261D02*
Y016985D01*
X018845Y016305D02*
Y016985D01*
X018119Y020212D02*
Y020731D01*
X0181Y02075D02*
X018119Y020731D01*
X015372Y013728D02*
X016021D01*
X014683Y013039D02*
X015175Y013531D01*
X015372Y013728*
X015175Y013531D02*
X016021D01*
X013994Y013728D02*
Y014377D01*
X018864Y011256D02*
Y011696D01*
X019515Y018639D02*
X01975Y018874D01*
X014781Y011541D02*
Y0117D01*
X01303Y01294D02*
X013344D01*
X01303D02*
D01*
X01283Y01312D02*
X01286Y01315D01*
X013064Y013334D02*
X013344D01*
X01286Y01315D02*
X012873Y013137D01*
X013344*
X01306Y01333D02*
X013064Y013334D01*
X01304Y01331D02*
X01306Y01333D01*
X013042Y013728D02*
Y013732D01*
X014978Y014377D02*
Y014572D01*
X016021Y013924D02*
X016304D01*
X01631Y01393*
X01635*
X01636Y01392*
X013042Y013728D02*
X013344D01*
X015765Y0117D02*
X016045Y01142D01*
X016021Y011956D02*
X01637Y011607D01*
X01559Y01136D02*
Y011679D01*
X015568Y0117D02*
X01559Y011679D01*
X0186Y01605D02*
X019376Y015274D01*
Y012504D02*
Y015274D01*
X016333Y011317D02*
Y011333D01*
X01892Y011159D02*
Y0112D01*
X01672Y01575D02*
X0182D01*
X013956Y018636D02*
X014054D01*
X01582Y01665D02*
X01672Y01575D01*
X01657Y0174D02*
X01685D01*
X01582Y01665D02*
X01657Y0174D01*
X01354Y01642D02*
X01356Y01644D01*
X014355Y01126D02*
X014387Y011293D01*
X0143Y01126D02*
X014355D01*
X0147Y01123D02*
Y01146D01*
X014781Y011541*
X013716Y011406D02*
X01375D01*
X01365Y01134D02*
X013716Y011406D01*
X01365Y01095D02*
Y01134D01*
X01388Y01054D02*
X013994Y010654D01*
X01495Y011672D02*
X014978Y0117D01*
X01446Y01801D02*
X01582Y01665D01*
X01356Y01813D02*
X013951D01*
X01457Y01838D02*
X014764D01*
X01446Y01827D02*
X01457Y01838D01*
X01446Y01801D02*
Y01827D01*
X013339Y01393D02*
X013344Y013924D01*
X01288Y01353D02*
X01289Y01352D01*
X01288Y01353D02*
X012881Y013531D01*
X01297Y01372D02*
X01303D01*
X012881Y013531D02*
X012891D01*
Y01353*
X013343D02*
X013344Y013531D01*
X012891Y01353D02*
X013343D01*
X01303Y01372D02*
X013042Y013732D01*
X013Y01406D02*
X01313Y01393D01*
X013339*
X013797Y014377D02*
Y014573D01*
X01367Y0147D02*
X013797Y014573D01*
X0173Y01108D02*
X01772D01*
X01354Y01642D02*
X01356D01*
X01637Y01142D02*
Y011607D01*
X016045Y01142D02*
X01637D01*
X01782Y01098D02*
X018409D01*
X01772Y01108D02*
X01782Y01098D01*
X018409D02*
X01847Y011042D01*
X018802*
X01892Y011159*
G54D28*
X01495Y01078D02*
X01514Y01059D01*
X01918Y01102D02*
Y01138D01*
X01912Y01144D02*
X01918Y01138D01*
X01912Y01144D02*
Y011696D01*
X01514Y01059D02*
X018413D01*
X018543Y01072*
Y010723*
X01868Y01086*
X01902D02*
X01918Y01102D01*
X01868Y01086D02*
X01902D01*
G54D29*
X013625Y01976D02*
X013675Y01971D01*
X01427Y01977D02*
Y02062D01*
X0221Y0185D02*
Y01935D01*
X021197Y0183D02*
X0219D01*
X0221Y0185*
G54D30*
X01546Y02076D02*
X01551Y02071D01*
X01562*
G54D31*
X01327Y02062D03*
G54D32*
X01427Y02062D03*
G54D33*
X01453Y01472D03*
X014833Y014943D03*
X01512Y01485D03*
X01498Y0153D03*
X015372Y014688D03*
X01509Y01103D03*
X015175Y01139D03*
X0148Y01096D03*
X01559Y01136D03*
X01417Y01471D03*
X01685Y0174D03*
X015765Y014685D03*
X01557Y01487D03*
X01635Y01393D03*
X01537Y01118D03*
X01715Y01215D03*
X01293Y012267D03*
X01261Y01277D03*
X012603Y01399D03*
X01281Y01461D03*
X01362Y0152D03*
X01677Y01356D03*
X01711Y01299D03*
X01585Y011D03*
X01432Y01081D03*
X0143Y01126D03*
X0147Y01123D03*
X01286Y01315D03*
X01303Y01294D03*
X01306Y01333D03*
X0128Y01352D03*
X013Y01406D03*
X01297Y01372D03*
X01532Y01759D03*
X01563Y01731D03*
X01483Y0172D03*
X01541Y01661D03*
X01616Y01584D03*
X01728Y01547D03*
X019Y01516D03*
X01899Y01424D03*
X01971Y01416D03*
Y01507D03*
X01367Y0147D03*
X01833Y01079D03*
X01864Y01052D03*
X01386Y01727D03*
X0144Y0173D03*
X01753Y01197D03*
X01657Y01189D03*
G54D34*
X01553Y02009D03*
X01354Y01957D03*
X01546Y02076D03*
X0198Y01673D03*
X01318Y01074D03*
X01287Y01577D03*
X01332Y01575D03*
X01955Y02015D03*
X0191Y01935D03*
X01541Y01878D03*
Y01803D03*
X01976Y01308D03*
X01957Y0111D03*
X0201Y01695D03*
X0203Y01935D03*
X0191Y02015D03*
X0164Y01315D03*
X0182Y0183D03*
X01885D03*
X01815Y01765D03*
X01885D03*
X01466Y01242D03*
X01461Y01368D03*
X01464Y01308D03*
X019Y01312D03*
X01356Y01644D03*
X01346Y01873D03*
X0173Y01108D03*
X01688Y01128D03*
G54D35*
X0163Y0182D03*
X0186Y01605D03*
X018Y01625D03*
X0166Y01695D03*
X01955Y01615D03*
X01905Y0161D03*
X0182Y01575D03*
X01725Y01645D03*
X0171Y0188D03*
X01975Y01895D03*
X01667Y02035D03*
X0163Y0177D03*
Y0186D03*
X016333Y011317D03*
X0175Y02089D03*
X01828Y01126D03*
M02*