%FSTAX24Y24*%
%MOIN*%
%SFA1B1*%

%IPPOS*%
%ADD26C,0.010000*%
%ADD36C,0.040000*%
%ADD37C,0.030000*%
%ADD38C,0.055400*%
%ADD39C,0.030000*%
%ADD40C,0.035000*%
%ADD41C,0.040000*%
%LN16_chan-1*%
%LPD*%
G54D26*
X01188Y0101D02*
Y02156D01*
Y0101D02*
X02314D01*
Y02156*
X01188D02*
X02314D01*
G54D36*
X01209Y01015D02*
X0121Y01017D01*
X01213Y01014*
X02319*
X02316Y01017D02*
X02319Y01014D01*
X02316Y01017D02*
Y02154D01*
X02314Y02156D02*
X02316Y02154D01*
X01226Y02156D02*
X02314D01*
X01209Y02139D02*
X01226Y02156D01*
X01209Y01015D02*
Y02139D01*
G54D37*
X01207Y0169D02*
X01435D01*
X0177Y01355D02*
X01783Y01336D01*
X01435Y0169D02*
X0177Y01355D01*
X01783Y01011D02*
Y01336D01*
G54D38*
X01327Y02062D03*
G54D39*
X01453Y01472D03*
X014833Y014943D03*
X01498Y0153D03*
X015372Y014688D03*
X01509Y01103D03*
X015175Y01139D03*
X0148Y01096D03*
X01559Y01136D03*
X01417Y01471D03*
X01685Y0174D03*
X015765Y014685D03*
X01557Y01487D03*
X01635Y01393D03*
X01537Y01118D03*
X01715Y01215D03*
X01293Y012267D03*
X01261Y01277D03*
X012603Y01399D03*
X01281Y01461D03*
X01362Y0152D03*
X01677Y01356D03*
X01711Y01299D03*
X01585Y011D03*
X01432Y01081D03*
X0143Y01126D03*
X0147Y01123D03*
X01286Y01315D03*
X01303Y01294D03*
X01306Y01333D03*
X0128Y01352D03*
X013Y01406D03*
X01297Y01372D03*
X01532Y01759D03*
X01563Y01731D03*
X01483Y0172D03*
X01541Y01661D03*
X01616Y01584D03*
X01728Y01547D03*
X019Y01516D03*
X01899Y01424D03*
X01971Y01416D03*
Y01507D03*
X01367Y0147D03*
X01833Y01079D03*
X01864Y01052D03*
X01386Y01727D03*
X0144Y0173D03*
X01753Y01197D03*
X01657Y01189D03*
G54D40*
X01553Y02009D03*
X01354Y01957D03*
X01318Y01074D03*
X01287Y01577D03*
X01955Y02015D03*
X01541Y01878D03*
X01976Y01308D03*
X01957Y0111D03*
X0201Y01695D03*
X0203Y01935D03*
X0191Y02015D03*
X0182Y0183D03*
X01885D03*
X01815Y01765D03*
X01885D03*
X01466Y01242D03*
X01461Y01368D03*
X01464Y01308D03*
X01346Y01873D03*
X01688Y01128D03*
G54D41*
X0163Y0182D03*
X0186Y01605D03*
X0166Y01695D03*
X01955Y01615D03*
X01905Y0161D03*
X0182Y01575D03*
X01725Y01645D03*
X01667Y02035D03*
X0163Y0177D03*
Y0186D03*
X0175Y02089D03*
M02*