%FSTAX24Y24*%
%MOIN*%
%SFA1B1*%

%IPPOS*%
%AMD18*
4,1,8,-0.011800,0.002000,-0.011800,-0.002000,-0.009800,-0.003900,0.009800,-0.003900,0.011800,-0.002000,0.011800,0.002000,0.009800,0.003900,-0.009800,0.003900,-0.011800,0.002000,0.0*
%
%AMD20*
4,1,8,-0.002000,-0.011800,0.002000,-0.011800,0.003900,-0.009800,0.003900,0.009800,0.002000,0.011800,-0.002000,0.011800,-0.003900,0.009800,-0.003900,-0.009800,-0.002000,-0.011800,0.0*
%
%AMD22*
4,1,8,-0.013800,0.002000,-0.013800,-0.002000,-0.011800,-0.003900,0.011800,-0.003900,0.013800,-0.002000,0.013800,0.002000,0.011800,0.003900,-0.011800,0.003900,-0.013800,0.002000,0.0*
1,1,0.003940,-0.011800,0.002000*
1,1,0.003940,-0.011800,-0.002000*
1,1,0.003940,0.011800,-0.002000*
1,1,0.003940,0.011800,0.002000*
%
%ADD10R,0.094490X0.029530*%
%ADD11R,0.020000X0.025000*%
%ADD12R,0.059060X0.019690*%
%ADD13O,0.029530X0.011810*%
%ADD14O,0.011810X0.029530*%
%ADD15R,0.110240X0.110240*%
%ADD16R,0.047240X0.039370*%
%ADD17R,0.047240X0.039370*%
G04~CAMADD=18~4~0.0~0.0~78.7~236.2~0.0~19.7~0~0.0~0.0~0.0~0.0~0~0.0~0.0~0.0~0.0~0~0.0~0.0~0.0~90.0~236.0~78.0*
%ADD18D18*%
%ADD19O,0.027560X0.007870*%
G04~CAMADD=20~4~0.0~0.0~78.7~236.2~0.0~19.7~0~0.0~0.0~0.0~0.0~0~0.0~0.0~0.0~0.0~0~0.0~0.0~0.0~180.0~78.0~236.0*
%ADD20D20*%
%ADD21O,0.007870X0.027560*%
G04~CAMADD=22~8~0.0~0.0~78.7~275.6~19.7~0.0~15~0.0~0.0~0.0~0.0~0~0.0~0.0~0.0~0.0~0~0.0~0.0~0.0~90.0~276.0~80.0*
%ADD22D22*%
%ADD23R,0.009840X0.021650*%
%ADD24R,0.025000X0.020000*%
%ADD25R,0.023620X0.019690*%
%ADD26C,0.010000*%
%ADD27C,0.020000*%
%ADD28C,0.008000*%
%ADD29C,0.006000*%
%ADD30C,0.009000*%
%ADD31C,0.012000*%
%ADD32C,0.085320*%
%ADD33C,0.022000*%
%ADD34C,0.056000*%
%LNogs_headstage-1*%
%LPD*%
G36*
X06169Y0221D02*
D01*
X0617Y02209*
Y02147*
X06172*
X06242Y02077*
Y01955*
X062705Y019264*
X062686Y019218*
X06236*
Y019659*
Y019685*
Y019685*
Y01969*
Y019695*
Y01972*
Y01989*
X06192*
Y01972*
Y019695*
Y019685*
Y019248*
Y019195*
X06192*
Y019019*
X061865*
Y019248*
X061579*
X061547Y019286*
X061558Y019342*
X061544Y019412*
X061533Y019429*
X061769Y019665*
X061793Y019701*
X061802Y019744*
Y02098*
X061793Y021022*
X061769Y021059*
X061629Y021199*
X061592Y021223*
X06155Y021232*
Y021232*
X06109*
X06108Y021286*
X061042Y021342*
X060986Y02138*
X06092Y021393*
X060853Y02138*
X060797Y021342*
X060759Y021286*
X060746Y02122*
X060759Y021153*
X060797Y021097*
X060849Y021062*
X060834Y021015*
X06076*
Y020708*
X060633Y020582*
X060587Y020601*
Y020684*
X06058Y020719*
X06056Y020749*
X060525Y020783*
Y021278*
X060241*
Y02133*
X060395*
Y02177*
X05993*
X059905*
X0599*
X059895*
X059869*
X0597*
Y021549*
Y02133*
X059895*
X059905*
X05993*
X060058*
Y021278*
X05955*
Y020961*
X05945*
Y021278*
X059143*
Y021195*
X05912*
X059108*
X05895*
Y020949*
X0589*
Y0209*
X05868*
Y02073*
Y020705*
Y020695*
Y020205*
X05912*
X059143Y020181*
Y020133*
X059687*
X059902Y019917*
X059897Y019867*
X059878Y019855*
X059839Y019795*
X059825Y019726*
Y019548*
X059829Y019521*
X059801Y019524*
X059624*
X059554Y01951*
X059494Y019471*
X059455Y019412*
X059441Y019342*
X05945Y019296*
X059418Y019257*
X059345*
Y01937*
X059212*
Y0195*
X059203Y019542*
X059179Y019579*
X05907Y019687*
X059073Y0197*
X05906Y019766*
X059022Y019822*
X058966Y01986*
X0589Y019873*
X058833Y01986*
X058777Y019822*
X058739Y019766*
X058726Y0197*
X058739Y019633*
X058777Y019577*
X058833Y019539*
X0589Y019526*
X058912Y019529*
X058987Y019453*
Y01937*
X05888*
X058855*
X05885*
X058845*
X058819*
X05865*
Y019149*
X0586*
Y0191*
X058355*
Y01893*
Y01883*
X0586*
Y01873*
X058355*
Y01856*
Y0185*
X0586*
Y0184*
X058355*
Y01823*
Y01815*
X0586*
Y0181*
X05865*
Y01788*
X058829*
X058853Y017835*
X058819Y017786*
X058806Y01772*
X058819Y017653*
X058857Y017597*
X058913Y017559*
X05898Y017546*
X059046Y017559*
X059102Y017597*
X05914Y017653*
X059153Y01772*
X05914Y017786*
X059118Y017818*
X059164Y017865*
X059174Y01788*
X059345*
Y018194*
X05942Y01827*
X05947Y018265*
X059494Y018228*
X059554Y018189*
X059624Y018175*
X059662*
Y018358*
X059762*
Y018175*
X059801*
X059828Y018179*
X059825Y018151*
Y017974*
X059839Y017904*
X059878Y017844*
X059887Y017838*
Y017745*
X05976*
Y017552*
X05968*
X059637Y017543*
X0596Y017519*
X059542Y017461*
X059532Y017462*
X059476Y0175*
X05941Y017513*
X059343Y0175*
X059287Y017462*
X059249Y017406*
X059236Y01734*
X059249Y017273*
X059287Y017217*
X059343Y017179*
X05941Y017166*
X059476Y017179*
X059532Y017217*
X059539Y017227*
X05958*
X059622Y017236*
X059659Y01726*
X059713Y017315*
X05976Y017296*
Y01728*
Y017255*
Y017245*
Y01705*
X0602*
Y017219*
Y017245*
Y017245*
Y01725*
Y017255*
Y01728*
Y017344*
X060246Y017364*
X060713Y016896*
X060706Y01686*
X060719Y016793*
X060757Y016737*
X060813Y016699*
X06088Y016686*
X060946Y016699*
X061002Y016737*
X06104Y016793*
X061053Y01686*
X06104Y016926*
X061002Y016982*
X060946Y01702*
X060945Y017025*
X060992Y017057*
X06103Y017113*
X061032Y017125*
X06108Y017139*
X061875Y016344*
X061905Y016324*
X061911Y016323*
X06194Y016317*
X062961*
X062988Y016277*
X063044Y016239*
X06311Y016226*
X063176Y016239*
X063233Y016277*
X06327Y016333*
X063283Y0164*
X06327Y016466*
X063268Y016469*
X06328Y016486*
X063346Y016499*
X063402Y016537*
X06344Y016593*
X063453Y01666*
X06344Y016726*
X063434Y016734*
X063458Y016778*
X063542*
X063748Y016572*
Y014988*
X063552Y014791*
X060998*
X059949Y01584*
X059919Y01586*
X059884Y015867*
X059851*
X059784Y015935*
X059593*
X059467*
X059449Y015917*
X059433*
Y015967*
X059399*
Y016066*
X059387Y016128*
X059383Y016133*
Y016205*
X059354*
X059328Y016231*
Y016253*
X059321Y016288*
X059301Y016318*
X059272Y016337*
X059236Y016344*
X05904*
X059004Y016337*
X058994Y01633*
X058941*
X058898Y016322*
X058862Y016298*
X058753Y016189*
X058458*
X058085*
Y016295*
X058062*
X05804Y01634*
X058047Y016348*
X058081Y016431*
X058092Y01652*
X058081Y016608*
X058047Y016691*
X057992Y016762*
X057921Y016817*
X057838Y016851*
X05775Y016862*
X057661Y016851*
X057578Y016817*
X057507Y016762*
X057453Y016691*
X057418Y016608*
X057407Y01652*
X057418Y016431*
X057453Y016348*
X057459Y01634*
X057437Y016295*
X057254*
Y015858*
X057571*
X057574Y015808*
X057527Y015802*
X057394Y015747*
X05728Y015659*
X057192Y015545*
X057137Y015412*
X057118Y01527*
X057137Y015127*
X057192Y014994*
X05728Y01488*
X057394Y014792*
X057527Y014737*
X057574Y014731*
X057571Y014681*
X057254*
Y014244*
X058085*
Y01435*
X05818*
X058222Y014359*
X058259Y014383*
X058583Y014707*
X05914*
X059182Y014716*
X059219Y01474*
X059281Y014802*
X059329Y014788*
X05933Y014783*
X059354Y014747*
X059415Y014686*
X059396Y01464*
X05931*
X059285*
X05928*
X059275*
X059249*
X05908*
Y014419*
Y0142*
X059275*
X059285*
X05931*
X059396*
X059415Y014153*
X059363Y014102*
X057116*
X057012Y014206*
Y017003*
X057177Y017169*
X05719Y017166*
X057256Y017179*
X057312Y017217*
X05735Y017273*
X057363Y01734*
X05735Y017406*
X057312Y017462*
X057256Y0175*
X05719Y017513*
X057123Y0175*
X057067Y017462*
X057029Y017406*
X057016Y01734*
X057019Y017327*
X05682Y017129*
X056796Y017092*
X056787Y01705*
Y01416*
X056796Y014117*
X05682Y01408*
X05699Y01391*
X057027Y013886*
X05707Y013877*
X05941*
X059452Y013886*
X059489Y01391*
X059609Y01403*
X059633Y014067*
X059642Y01411*
Y0142*
X059775*
Y01464*
X059808Y014653*
X05985Y014626*
Y014295*
X06029*
Y014785*
Y014795*
Y015174*
X060336Y015194*
X060895Y014635*
X060924Y014615*
X06096Y014608*
X06359*
X063625Y014615*
X063654Y014635*
X063904Y014885*
X063924Y014914*
X063925Y01492*
X063931Y01495*
Y01661*
X063924Y016645*
X063904Y016674*
X063644Y016934*
X063615Y016954*
X06358Y016961*
X062607*
X062592Y017009*
X062609Y01702*
X062747Y017159*
X06276Y017156*
X062826Y017169*
X062882Y017207*
X06292Y017263*
X062933Y01733*
X06292Y017396*
X062882Y017452*
X062826Y01749*
X06276Y017503*
X062693Y01749*
X062637Y017452*
X062599Y017396*
X062586Y01733*
X062589Y017317*
X062483Y017212*
X061896*
X061674Y017433*
Y017449*
X06168Y017455*
X06168*
X06185*
Y0177*
X061899*
Y01775*
X06212*
Y017919*
Y017945*
Y017945*
Y01795*
Y017955*
Y01798*
Y018445*
X062132Y018457*
X062259*
Y018791*
Y018897*
X062315*
Y018781*
X06272*
Y01787*
X063086Y017503*
X064473*
Y01381*
X056546*
X056527Y013856*
X056596Y013924*
Y02211*
X061685*
X06169Y0221*
G37*
G36*
X058427Y015948D02*
Y01585D01*
Y01563*
Y01545*
Y01528*
X058436Y015237*
X05846Y0152*
X058497Y015176*
X058518Y015172*
X058565Y015125*
X058594Y015105*
X05863Y015098*
X05888*
Y015031*
X058933Y014978*
X058914Y014932*
X058537*
X058494Y014923*
X058457Y014899*
X058133Y014575*
X058085*
Y014681*
X057768*
X057765Y014731*
X057812Y014737*
X057945Y014792*
X058059Y01488*
X058147Y014994*
X058202Y015127*
X058221Y01527*
X058202Y015412*
X058147Y015545*
X058059Y015659*
X057945Y015747*
X057812Y015802*
X057765Y015808*
X057768Y015858*
X058085*
Y015964*
X058411*
X058427Y015948*
G37*
%LNogs_headstage-2*%
%LPC*%
G36*
X0628Y01574D02*
X062686D01*
X062689Y015723*
X062727Y015667*
X062783Y015629*
X0628Y015626*
Y01574*
G37*
G36*
X06296Y01404D02*
X062846D01*
X062849Y014023*
X062887Y013967*
X062943Y013929*
X06296Y013926*
Y01404*
G37*
G36*
X063013Y01574D02*
X0629D01*
Y015626*
X062916Y015629*
X062972Y015667*
X06301Y015723*
X063013Y01574*
G37*
G36*
X0629Y015953D02*
Y01584D01*
X063013*
X06301Y015856*
X062972Y015912*
X062916Y01595*
X0629Y015953*
G37*
G36*
X0628D02*
X062783Y01595D01*
X062727Y015912*
X062689Y015856*
X062686Y01584*
X0628*
Y015953*
G37*
G36*
X06306Y014253D02*
Y01414D01*
X063173*
X06317Y014156*
X063132Y014212*
X063076Y01425*
X06306Y014253*
G37*
G36*
X06296D02*
X062943Y01425D01*
X062887Y014212*
X062849Y014156*
X062846Y01414*
X06296*
Y014253*
G37*
G36*
X05898Y01437D02*
X058785D01*
Y0142*
X05898*
Y01437*
G37*
G36*
Y01464D02*
X058785D01*
Y01447*
X05898*
Y01464*
G37*
G36*
X063173Y01404D02*
X06306D01*
Y013926*
X063076Y013929*
X063132Y013967*
X06317Y014023*
X063173Y01404*
G37*
G36*
X059513Y016205D02*
X059483D01*
Y016017*
X059593*
Y016126*
X059513Y016205*
G37*
G36*
X06236Y020185D02*
X06219D01*
Y01999*
X06236*
Y020185*
G37*
G36*
X06209D02*
X06192D01*
Y01999*
X06209*
Y020185*
G37*
G36*
X05885Y021195D02*
X05868D01*
Y021*
X05885*
Y021195*
G37*
G36*
X0596Y02177D02*
X059405D01*
Y0216*
X0596*
Y02177*
G37*
G36*
Y0215D02*
X059405D01*
Y02133*
X0596*
Y0215*
G37*
G36*
X05855Y01937D02*
X058355D01*
Y0192*
X05855*
Y01937*
G37*
G36*
X05993Y01695D02*
X05976D01*
Y016755*
X05993*
Y01695*
G37*
G36*
X0585Y016982D02*
X058411Y016971D01*
X058328Y016937*
X058257Y016882*
X058203Y016811*
X058168Y016728*
X058157Y01664*
X058168Y016551*
X058203Y016468*
X058257Y016397*
X058328Y016343*
X058411Y016308*
X0585Y016297*
X058588Y016308*
X058671Y016343*
X058742Y016397*
X058797Y016468*
X058831Y016551*
X058842Y01664*
X058831Y016728*
X058797Y016811*
X058742Y016882*
X058671Y016937*
X058588Y016971*
X0585Y016982*
G37*
G36*
X0602Y01695D02*
X06003D01*
Y016755*
X0602*
Y01695*
G37*
G36*
X05855Y01805D02*
X058355D01*
Y01788*
X05855*
Y01805*
G37*
G36*
X06212Y01765D02*
X06195D01*
Y017455*
X06212*
Y01765*
G37*
%LNogs_headstage-3*%
%LPD*%
G54D10*
X063947Y021338D03*
Y01998D03*
G54D11*
X05998Y017D03*
Y0175D03*
X0589Y02045D03*
Y02095D03*
X06098Y02077D03*
Y02027D03*
X06214Y01994D03*
Y01944D03*
X0619Y0182D03*
Y0177D03*
X06138Y02025D03*
Y02075D03*
X06007Y01454D03*
Y01504D03*
G54D12*
X05767Y014462D03*
Y016077D03*
G54D13*
X061287Y018357D03*
X059712Y019342D03*
X061287D03*
Y019145D03*
Y018948D03*
Y018751D03*
Y018554D03*
X059712Y018357D03*
Y018554D03*
Y018751D03*
Y018948D03*
Y019145D03*
G54D14*
X060007Y019637D03*
X060992Y018062D03*
X060795D03*
X060598D03*
X060401D03*
X060204D03*
Y019637D03*
X060401D03*
X060598D03*
X060795D03*
X060992D03*
X060007Y018062D03*
G54D15*
X0605Y01885D03*
G54D16*
X060169Y02045D03*
Y020961D03*
X0595D03*
G54D17*
X0595Y02045D03*
G54D18*
X058848Y015381D03*
Y015775D03*
X059625D03*
Y015381D03*
G54D19*
X058848Y015578D03*
G54D20*
X05904Y015967D03*
X059433D03*
Y01519D03*
X05904D03*
G54D21*
X059236Y015967D03*
Y01519D03*
G54D22*
X059625Y015578D03*
G54D23*
X061696Y018685D03*
X061893D03*
X06209D03*
X061696Y01902D03*
X061893D03*
X06209D03*
G54D24*
X05965Y02155D03*
X06015D03*
X0591Y01915D03*
X0586D03*
Y01878D03*
X0591D03*
Y01845D03*
X0586D03*
Y0181D03*
X0591D03*
X05903Y01442D03*
X05953D03*
G54D25*
X062946Y019D03*
X062553D03*
G54D26*
X06Y0175D02*
Y018054D01*
X05994Y01744D02*
X06Y0175D01*
X058458Y016077D02*
X0588D01*
X058941Y016218*
X05904*
X05707Y01399D02*
X05941D01*
X0569Y01416D02*
X05707Y01399D01*
X0569Y01416D02*
Y01705D01*
X05767Y016077D02*
X058458D01*
X0569Y01705D02*
X05719Y01734D01*
X05953Y01411D02*
Y01442D01*
X05941Y01399D02*
X05953Y01411D01*
X06253Y0171D02*
X06276Y01733D01*
X06185Y0171D02*
X06253D01*
X05818Y014462D02*
X058537Y01482D01*
X05767Y014462D02*
X05818D01*
X058458Y016077D02*
X05854Y015995D01*
Y01585D02*
Y015995D01*
X061893Y018206D02*
Y018685D01*
X06138Y01757D02*
X06185Y0171D01*
X06138Y01757D02*
Y018265D01*
X061287Y018357D02*
X06138Y018265D01*
Y020025D02*
Y02025D01*
X060992Y019637D02*
X06138Y020025D01*
X06098Y02101D02*
X06109Y02112D01*
X06098Y02101D02*
Y02116D01*
Y02077D02*
Y02101D01*
X061287Y019342D02*
X06169Y019744D01*
Y02098*
X06155Y02112D02*
X06169Y02098D01*
X06109Y02112D02*
X06155D01*
X06092Y02122D02*
X06098Y02116D01*
X0607Y02049D02*
X06098Y02077D01*
X0607Y020108D02*
Y02049D01*
X060598Y020007D02*
X0607Y020108D01*
X060598Y019637D02*
Y020007D01*
X058537Y01482D02*
X05914D01*
X059236Y014916*
X05953Y01442D02*
Y01473D01*
X059433Y014826D02*
X05953Y01473D01*
X05854Y01528D02*
Y01545D01*
Y01563*
Y01585*
X05958Y01734D02*
X05968Y01744D01*
X05941Y01734D02*
X05958D01*
X05968Y01744D02*
X05994D01*
X06Y018054D02*
X060007Y018062D01*
X0591Y01915D02*
Y0195D01*
X0589Y0197D02*
X0591Y0195D01*
Y01915D02*
X059104Y019145D01*
X059712*
G54D27*
X063947Y019277D02*
Y01998D01*
X06367Y019D02*
X063947Y019277D01*
X062946Y019D02*
X06367D01*
G54D28*
X06098Y02035D02*
X06138Y02075D01*
X06098Y02027D02*
Y02035D01*
X061622Y018477D02*
X061893Y018206D01*
X06209Y01902D02*
Y01939D01*
X061605Y018477D02*
X061622D01*
X061528Y018554D02*
X061605Y018477D01*
X06098Y02002D02*
Y02027D01*
X060795Y019835D02*
X06098Y02002D01*
X060795Y019637D02*
Y019835D01*
X059236Y014916D02*
Y01519D01*
X0586Y01878D02*
Y01915D01*
Y01845D02*
Y01878D01*
Y0181D02*
Y01845D01*
X0618Y01926D02*
Y0196D01*
X06214Y01994*
X06209Y01939D02*
X06214Y01944D01*
X061893Y01902D02*
Y019166D01*
X0618Y01926D02*
X061893Y019166D01*
X06156Y01926D02*
X0618D01*
X061445Y019145D02*
X06156Y01926D01*
X061287Y019145D02*
X061445D01*
X061287Y018554D02*
X061528D01*
X06162Y018751D02*
X061706Y018665D01*
X061287Y018751D02*
X06162D01*
X061287Y018948D02*
X061654D01*
X060795Y019145D02*
X061287D01*
X060795D02*
Y019637D01*
X059712Y018357D02*
X060007D01*
G54D29*
X063101Y016409D02*
X06311Y0164D01*
X06288Y016409D02*
X063101D01*
X05904Y016218D02*
Y016253D01*
Y015967D02*
Y016218D01*
Y016253D02*
X059236D01*
Y015967D02*
Y016253D01*
X05898Y01781D02*
X0591Y01793D01*
X05898Y01778D02*
Y01781D01*
X05892Y01772D02*
X05898Y01778D01*
X059378Y018948D02*
X059712D01*
X05921Y01878D02*
X059378Y018948D01*
X0591Y01878D02*
X05921D01*
X06183Y01687D02*
X06358D01*
X060992Y017707D02*
X06183Y01687D01*
X06358D02*
X06384Y01661D01*
Y01495D02*
Y01661D01*
X060992Y017707D02*
Y018062D01*
X06184Y01668D02*
X06328D01*
X060795Y017724D02*
X06184Y01668D01*
X060795Y017724D02*
Y018062D01*
X060169Y020961D02*
X060394Y020736D01*
X059625Y015381D02*
X059778D01*
X05982Y01534*
Y01479D02*
Y01534D01*
Y01479D02*
X06007Y01454D01*
Y01504D02*
Y01539D01*
X059881Y015578D02*
X06007Y01539D01*
X059625Y015578D02*
X059881D01*
X05854Y01528D02*
X05863Y01519D01*
X05904*
X05854Y01545D02*
X058608Y015381D01*
X058848*
X05854Y01563D02*
X058591Y015578D01*
X058848*
X05854Y01585D02*
X058614Y015775D01*
X058848*
X059625D02*
X059884D01*
X06096Y0147*
X06359*
X06384Y01495*
X0591Y01793D02*
Y0181D01*
X060204Y017535D02*
X06088Y01686D01*
X060401Y017648D02*
X06087Y01718D01*
X060204Y017535D02*
Y018062D01*
X05902Y01802D02*
X0591Y0181D01*
X060401Y017648D02*
Y018062D01*
X06194Y016409D02*
X06288D01*
X060598Y017751D02*
X06194Y016409D01*
X060598Y017751D02*
Y018062D01*
X061654Y018948D02*
X061706Y019D01*
X0591Y0181D02*
X05912D01*
X059575Y018554*
X059712*
X059551Y018751D02*
X059712D01*
X05955Y01875D02*
X059551Y018751D01*
X059455Y01875D02*
X05955D01*
X059155Y01845D02*
X059455Y01875D01*
X0591Y01845D02*
X059155D01*
X060007Y018357D02*
X0605Y01885D01*
X059548Y020961D02*
X06006Y02045D01*
X0595Y020961D02*
X059548D01*
X06006Y02045D02*
X060169D01*
X060204Y019637D02*
Y019895D01*
X06015Y01995D02*
X060204Y019895D01*
X06Y01995D02*
X06015D01*
X0595Y02045D02*
X06Y01995D01*
X0589Y02045D02*
X0595D01*
X06015Y020981D02*
X060169Y020961D01*
X060401Y019637D02*
Y020069D01*
X060495Y020163*
Y020684*
X060442Y020736D02*
X060495Y020684D01*
X060394Y020736D02*
X060442D01*
X06015Y020981D02*
Y02155D01*
X05965Y0212D02*
Y02155D01*
X0595Y02105D02*
X05965Y0212D01*
X0595Y020961D02*
Y02105D01*
X059488Y02095D02*
X0595Y020961D01*
X0589Y02095D02*
X059488D01*
G54D30*
X059433Y014826D02*
Y01519D01*
G54D31*
X062533Y01902D02*
X062553Y019D01*
X06209Y01902D02*
X062533D01*
G54D32*
X05767Y01527D03*
G54D33*
X05719Y01734D03*
X06285Y01579D03*
X06301Y01409D03*
X06311Y0164D03*
X06276Y01733D03*
X06328Y01666D03*
X05898Y01772D03*
X06092Y02122D03*
X06087Y01718D03*
X06088Y01686D03*
X0589Y0197D03*
X05941Y01734D03*
G54D34*
X0585Y01664D03*
X05775Y01652D03*
M02*