%FSTAX24Y24*%
%MOIN*%
%SFA1B1*%

%IPPOS*%
%ADD11R,0.020000X0.025000*%
%ADD24R,0.025000X0.020000*%
%ADD26C,0.010000*%
%ADD28C,0.008000*%
%ADD29C,0.006000*%
%ADD32C,0.085320*%
%ADD33C,0.022000*%
%ADD34C,0.056000*%
%ADD35R,0.025590X0.043310*%
%ADD36R,0.033470X0.051180*%
%ADD37R,0.007870X0.005910*%
%ADD38R,0.005910X0.007870*%
%LNogs_headstage-1*%
%LPD*%
G36*
X0617Y02147D02*
X06172D01*
X06242Y02077*
Y01955*
X06272Y01925*
Y01787*
X063086Y017503*
X06466*
Y013784*
X064649Y01378*
X05667*
X05666Y01379*
Y022026*
X056701Y02207*
X0617*
Y02147*
G37*
%LNogs_headstage-2*%
%LPC*%
G36*
X064372Y015084D02*
X063876D01*
Y014411*
X064011*
Y01434*
X06397*
X063945*
X06394*
X063935*
X063909*
X06374*
Y014119*
Y0139*
X063935*
X063945*
X06397*
X064435*
Y01434*
X064236*
Y014411*
X064372*
Y015084*
G37*
G36*
X06364Y01434D02*
X063445D01*
Y01417*
X06364*
Y01434*
G37*
G36*
X06298Y015455D02*
X06281D01*
Y01526*
X06298*
Y015455*
G37*
G36*
X05767Y015821D02*
X057527Y015802D01*
X057394Y015747*
X05728Y015659*
X057192Y015545*
X057137Y015412*
X057118Y01527*
X057137Y015127*
X057192Y014994*
X05728Y01488*
X057394Y014792*
X057527Y014737*
X05767Y014718*
X057812Y014737*
X057945Y014792*
X058059Y01488*
X058147Y014994*
X058202Y015127*
X058221Y01527*
X058202Y015412*
X058147Y015545*
X058059Y015659*
X057945Y015747*
X057812Y015802*
X05767Y015821*
G37*
G36*
X06306Y014253D02*
Y01414D01*
X063173*
X06317Y014156*
X063132Y014212*
X063076Y01425*
X06306Y014253*
G37*
G36*
X06296Y01404D02*
X062846D01*
X062849Y014023*
X062887Y013967*
X062943Y013929*
X06296Y013926*
Y01404*
G37*
G36*
X06364Y01407D02*
X063445D01*
Y0139*
X06364*
Y01407*
G37*
G36*
X06296Y014253D02*
X062943Y01425D01*
X062887Y014212*
X062849Y014156*
X062846Y01414*
X06296*
Y014253*
G37*
G36*
X063173Y01404D02*
X06306D01*
Y013926*
X063076Y013929*
X063132Y013967*
X06317Y014023*
X063173Y01404*
G37*
G36*
X0628Y01574D02*
X062686D01*
X062689Y015723*
X062727Y015667*
X062783Y015629*
X0628Y015626*
Y01574*
G37*
G36*
X06371Y01657D02*
X063515D01*
Y0164*
X06371*
Y01657*
G37*
G36*
X06328Y016833D02*
X063213Y01682D01*
X063157Y016782*
X063119Y016726*
X063106Y01666*
X063119Y016593*
X063122Y01659*
X06311Y016573*
X063044Y01656*
X062988Y016522*
X06295Y016466*
X062937Y0164*
X06295Y016333*
X062988Y016277*
X063044Y016239*
X06311Y016226*
X063176Y016239*
X063233Y016277*
X06327Y016333*
X063283Y0164*
X06327Y016466*
X063268Y016469*
X06328Y016486*
X063346Y016499*
X063402Y016537*
X06344Y016593*
X063453Y01666*
X06344Y016726*
X063402Y016782*
X063346Y01682*
X06328Y016833*
G37*
G36*
X06011Y016715D02*
X05994D01*
Y01652*
X06011*
Y016715*
G37*
G36*
X06092Y021393D02*
X060853Y02138D01*
X060797Y021342*
X06079Y021332*
X06042*
Y021332*
X060377Y021323*
X06034Y021299*
X058912Y01987*
X0589Y019873*
X058833Y01986*
X058777Y019822*
X058739Y019766*
X058726Y0197*
X058729Y019687*
X05856Y019519*
X058536Y019482*
X058527Y01944*
Y017722*
X05746*
X057417Y017713*
X05738Y017689*
X057202Y01751*
X05719Y017513*
X057123Y0175*
X057067Y017462*
X057029Y017406*
X057016Y01734*
X057029Y017273*
X057067Y017217*
X057123Y017179*
X05719Y017166*
X057256Y017179*
X057312Y017217*
X05735Y017273*
X057363Y01734*
X05736Y017352*
X057506Y017497*
X058593*
X05883Y01726*
X058867Y017236*
X05891Y017227*
X05928*
X059287Y017217*
X059343Y017179*
X05941Y017166*
X059476Y017179*
X059532Y017217*
X05957Y017273*
X059583Y01734*
X05957Y017406*
X059532Y017462*
X059476Y0175*
X05941Y017513*
X059343Y0175*
X059287Y017462*
X05928Y017452*
X058956*
X058893Y017515*
X058917Y017559*
X05898Y017546*
X059046Y017559*
X059102Y017597*
X05914Y017653*
X059153Y01772*
X05914Y017786*
X059102Y017842*
X059046Y01788*
X05898Y017893*
X058913Y01788*
X058857Y017842*
X058819Y017786*
X058806Y01772*
X058819Y017657*
X058795Y017644*
X058752Y017669*
Y019393*
X058887Y019529*
X0589Y019526*
X058966Y019539*
X059022Y019577*
X05906Y019633*
X059073Y0197*
X05907Y019712*
X060466Y021107*
X06079*
X060797Y021097*
X060853Y021059*
X06092Y021046*
X060932Y021049*
X061897Y020083*
Y01807*
X061906Y018027*
X06193Y01799*
X062587Y017333*
X062586Y01733*
X062599Y017263*
X062637Y017207*
X062693Y017169*
X06276Y017156*
X062763Y017157*
X06278Y01714*
X062817Y017116*
X06286Y017107*
X063783*
X064147Y016743*
Y01657*
X064015*
X064005*
X06381*
Y016349*
X06376*
Y0163*
X063515*
Y016185*
X063507Y016183*
X06347Y016159*
X06334Y016029*
X063128*
Y015355*
X0637*
Y015692*
X0638*
Y015355*
X064372*
Y016029*
X064214*
X064203Y016045*
X064158Y01609*
X064198Y01613*
X064505*
Y01657*
X064372*
Y01679*
X064363Y016832*
X064339Y016869*
X063909Y017299*
X063872Y017323*
X06383Y017332*
X062932*
X06292Y017396*
X062882Y017452*
X062826Y01749*
X06276Y017503*
X062739Y017499*
X062122Y018116*
Y02013*
X062113Y020172*
X062089Y020209*
X06109Y021207*
X061093Y02122*
X06108Y021286*
X061042Y021342*
X060986Y02138*
X06092Y021393*
G37*
G36*
X06038Y016715D02*
X06021D01*
Y01652*
X06038*
Y016715*
G37*
G36*
X0628Y015953D02*
X062783Y01595D01*
X062727Y015912*
X062689Y015856*
X062686Y01584*
X0628*
Y015953*
G37*
G36*
X063013Y01574D02*
X0629D01*
Y015626*
X062916Y015629*
X062972Y015667*
X06301Y015723*
X063013Y01574*
G37*
G36*
X06087Y017353D02*
X060803Y01734D01*
X060747Y017302*
X060709Y017246*
X060696Y01718*
X060709Y017113*
X060747Y017057*
X060771Y017041*
Y016991*
X060757Y016982*
X060719Y016926*
X060706Y01686*
X060719Y016793*
X060757Y016737*
X060813Y016699*
X06088Y016686*
X060946Y016699*
X061002Y016737*
X06104Y016793*
X061045Y016818*
X061202*
X06133Y01669*
Y016481*
X06095*
X06092Y016475*
X060914Y016474*
X060885Y016454*
X060802Y016372*
X060783Y016342*
X06078Y016329*
X060718*
Y016169*
X06068*
Y016329*
X060714*
X060567Y016477*
X060534Y016499*
X060495Y016507*
X06038*
Y01642*
X05994*
Y016385*
X059893Y016366*
X059184Y017074*
X059155Y017094*
X05912Y017101*
X05816*
X058124Y017094*
X058095Y017074*
X057861Y016841*
X057838Y016851*
X05775Y016862*
X057661Y016851*
X057578Y016817*
X057507Y016762*
X057453Y016691*
X057418Y016608*
X057407Y01652*
X057418Y016431*
X057453Y016348*
X057507Y016277*
X057578Y016223*
X057661Y016188*
X05775Y016177*
X057838Y016188*
X057921Y016223*
X057992Y016277*
X058047Y016348*
X058081Y016431*
X058092Y01652*
X058081Y016608*
X058047Y016691*
X058014Y016734*
X058188Y016908*
X058237Y0169*
X05825Y016873*
X058203Y016811*
X058168Y016728*
X058157Y01664*
X058168Y016551*
X058203Y016468*
X058257Y016397*
X058328Y016343*
X058411Y016308*
X0585Y016297*
X058588Y016308*
X058671Y016343*
X058742Y016397*
X058797Y016468*
X058805Y016488*
X059282*
X059758Y016012*
Y01588*
X059765Y015844*
X059785Y015815*
X059967Y015632*
X059997Y015612*
X060032Y015605*
X060373*
Y015548*
Y01541*
Y015391*
X060355Y015363*
X060348Y015328*
Y01465*
X060355Y014614*
X060375Y014585*
X060515Y014445*
Y01411*
X060916*
X06092Y014089*
X06094Y014059*
X061045Y013955*
X061074Y013935*
X06111Y013928*
X06156*
X061562Y013928*
X061564Y013928*
X061579Y013932*
X061595Y013935*
X061597Y013936*
X061599Y013937*
X061611Y013946*
X061624Y013955*
X061626Y013957*
X061628Y013958*
X061751Y014095*
X061965*
X061972Y014088*
X062001Y014068*
X062037Y014061*
X062362*
X062398Y014068*
X062427Y014088*
X062584Y014245*
X062604Y014274*
X062611Y01431*
Y014465*
X06298*
Y014621*
X062984Y014625*
X063015Y014655*
X063128*
Y014411*
X063623*
Y015084*
X063128*
Y014839*
X06298*
Y014955*
Y014965*
Y01516*
X062759*
Y015209*
X06271*
Y015455*
X062611*
Y01604*
X062605Y016069*
X062604Y016075*
X062584Y016104*
X06251Y016179*
Y016645*
X062254*
X06177Y017129*
Y017345*
X06133*
Y017191*
X061041*
X06103Y017246*
X060992Y017302*
X060936Y01734*
X06087Y017353*
G37*
G36*
X0629Y015953D02*
Y01584D01*
X063013*
X06301Y015856*
X062972Y015912*
X062916Y01595*
X0629Y015953*
G37*
%LNogs_headstage-3*%
%LPD*%
G36*
X062428Y015115D02*
X06227D01*
Y014869*
X06217*
Y015115*
X062229*
X06185Y015494*
X061817Y015516*
X061778Y015523*
X061637*
Y015571*
Y015603*
X062117*
X062152Y01561*
X062182Y01563*
X062207Y015655*
X062428*
Y015115*
G37*
G54D11*
X06276Y01471D03*
Y01521D03*
X06155Y0166D03*
Y0171D03*
X06016Y01647D03*
Y01597D03*
X06185Y01484D03*
Y01434D03*
X06222Y01487D03*
Y01437D03*
X06198Y01641D03*
Y01591D03*
X06229Y0164D03*
Y0159D03*
G54D24*
X06369Y01412D03*
X06419D03*
X06376Y01635D03*
X06426D03*
X06076Y01433D03*
X06126D03*
X06078Y01476D03*
X06128D03*
G54D26*
X06201Y01807D02*
X06286Y01722D01*
X05746Y01761D02*
X05864D01*
X05719Y01734D02*
X05746Y01761D01*
X06383Y01722D02*
X06426Y01679D01*
X06286Y01722D02*
X06383D01*
X06092Y02122D02*
X06201Y02013D01*
Y01807D02*
Y02013D01*
X06042Y02122D02*
X06092D01*
X0589Y0197D02*
X06042Y02122D01*
X05864Y01761D02*
X05891Y01734D01*
X05864Y01761D02*
Y01944D01*
X0589Y0197*
X05891Y01734D02*
X05941D01*
X06401Y01608D02*
X064124Y015966D01*
X06401Y01608D02*
X06402D01*
X06355D02*
X06401D01*
X06402D02*
Y01611D01*
X06426Y01635*
Y01679*
X064124Y014186D02*
X06419Y01412D01*
X064124Y014186D02*
Y014747D01*
Y015692D02*
Y015966D01*
X063376Y015906D02*
X06355Y01608D01*
X063376Y015692D02*
Y015906D01*
G54D28*
X06222Y01487D02*
Y01498D01*
X061778Y015422D02*
X06222Y01498D01*
X061478Y015422D02*
X061778D01*
X063689Y014119D02*
X06369Y01412D01*
X06126Y01474D02*
X06128Y01476D01*
X06126Y01433D02*
Y01474D01*
X061143Y015422D02*
X061478D01*
X061143D02*
Y015559D01*
Y015225D02*
Y015422D01*
X06128Y01476D02*
Y01497D01*
X061143Y015106D02*
X06128Y01497D01*
X061143Y015106D02*
Y015225D01*
X061005Y015697D02*
X061143Y015559D01*
X06016Y01647D02*
X060225Y016405D01*
X060495*
X06073Y01617*
X061281Y015973D02*
Y01617D01*
X061005Y015697D02*
X061281Y015973D01*
X06073D02*
X061005Y015697D01*
X06073Y015973D02*
Y01617D01*
X060867Y015559D02*
X061005Y015697D01*
X060867Y015225D02*
Y015559D01*
X060533D02*
X060867D01*
G54D29*
X05912Y01701D02*
X06016Y01597D01*
X05773Y01658D02*
X05816Y01701D01*
X05912*
X0585Y01662D02*
Y01664D01*
X05846Y01658D02*
X0585Y01662D01*
X05773Y01652D02*
Y01658D01*
X05846D02*
X05932D01*
X05773Y01652D02*
X05775D01*
X06252Y01469D02*
X06292D01*
X062977Y014747*
X063376*
X06252Y01469D02*
Y01604D01*
Y01431D02*
Y01469D01*
X06241Y01615D02*
X06252Y01604D01*
X062362Y014152D02*
X06252Y01431D01*
X062037Y014152D02*
X062362D01*
X06185Y01434D02*
X062037Y014152D01*
X0616Y01615D02*
X06241D01*
X061478Y016272D02*
X0616Y01615D01*
X06229Y015867D02*
Y0159D01*
X062117Y015695D02*
X06229Y015867D01*
X06148Y015695D02*
X062117D01*
X06229Y0164D02*
Y01648D01*
X06167Y0171D02*
X06229Y01648D01*
X06155Y0171D02*
X06167D01*
X061281Y015225D02*
X061464D01*
X06185Y01484*
Y01474D02*
X06222Y01437D01*
X06185Y01474D02*
Y01484D01*
X05932Y01658D02*
X05985Y01605D01*
Y01588D02*
Y01605D01*
X06044Y015328D02*
X060533Y015422D01*
X06044Y01465D02*
Y015328D01*
Y01465D02*
X06076Y01433D01*
X06156Y01402D02*
X06185Y01434D01*
X06111Y01402D02*
X06156D01*
X061005Y014124D02*
X06111Y01402D01*
X061005Y014124D02*
Y015225D01*
X06073Y01481D02*
X06078Y01476D01*
X06073Y01481D02*
Y015225D01*
X05985Y01588D02*
X060032Y015697D01*
X060303*
X060294Y015706D02*
X060303Y015697D01*
X060533*
X061143Y016378D02*
X061155Y01639D01*
X06136*
X06095D02*
X061155D01*
X061143Y01617D02*
Y016378D01*
X060867Y01617D02*
Y016307D01*
X06095Y01639*
X06136D02*
X061478Y016272D01*
Y015973D02*
Y016272D01*
X06016Y01597D02*
X060294Y015835D01*
X060533*
X061478Y015697D02*
X06148Y015695D01*
X061478Y015835D02*
X061715D01*
X06179Y01591*
X06198*
X06091Y01683D02*
X06099Y01691D01*
X06179Y0166D02*
X06198Y01641D01*
X06155Y0166D02*
X06179D01*
X06124Y01691D02*
X06155Y0166D01*
X06099Y01691D02*
X06124D01*
X06095Y0171D02*
X06155D01*
G54D32*
X05767Y01527D03*
G54D33*
X05719Y01734D03*
X06285Y01579D03*
X06301Y01409D03*
X06311Y0164D03*
X06276Y01733D03*
X06328Y01666D03*
X05898Y01772D03*
X06092Y02122D03*
X06087Y01718D03*
X06088Y01686D03*
X0589Y0197D03*
X05941Y01734D03*
G54D34*
X0585Y01664D03*
X05775Y01652D03*
G54D35*
X063376Y015692D03*
X06375D03*
X064124D03*
Y014747D03*
X063376D03*
G54D36*
X061005Y015697D03*
G54D37*
X060533Y015973D03*
Y015835D03*
Y015697D03*
Y015559D03*
Y015422D03*
X061478D03*
Y015559D03*
Y015697D03*
Y015835D03*
Y015973D03*
G54D38*
X06073Y015225D03*
X060867D03*
X061005D03*
X061143D03*
X061281D03*
Y01617D03*
X061143D03*
X061005D03*
X060867D03*
X06073D03*
M02*