%FSLAX25Y25*%
%MOIN*%
G70*
G01*
G75*
G04 Layer_Physical_Order=2*
G04 Layer_Color=16711680*
%ADD10R,0.11024X0.11024*%
%ADD11O,0.02953X0.01181*%
%ADD12O,0.01181X0.02953*%
%ADD13R,0.02362X0.01969*%
%ADD14R,0.02500X0.02000*%
%ADD15R,0.02000X0.02500*%
%ADD16R,0.00984X0.02165*%
G04:AMPARAMS|DCode=17|XSize=7.87mil|YSize=23.62mil|CornerRadius=0mil|HoleSize=0mil|Usage=FLASHONLY|Rotation=180.000|XOffset=0mil|YOffset=0mil|HoleType=Round|Shape=Octagon|*
%AMOCTAGOND17*
4,1,8,0.00197,-0.01181,-0.00197,-0.01181,-0.00394,-0.00984,-0.00394,0.00984,-0.00197,0.01181,0.00197,0.01181,0.00394,0.00984,0.00394,-0.00984,0.00197,-0.01181,0.0*
%
%ADD17OCTAGOND17*%

%ADD18O,0.00787X0.02756*%
G04:AMPARAMS|DCode=19|XSize=7.87mil|YSize=23.62mil|CornerRadius=0mil|HoleSize=0mil|Usage=FLASHONLY|Rotation=90.000|XOffset=0mil|YOffset=0mil|HoleType=Round|Shape=Octagon|*
%AMOCTAGOND19*
4,1,8,-0.01181,-0.00197,-0.01181,0.00197,-0.00984,0.00394,0.00984,0.00394,0.01181,0.00197,0.01181,-0.00197,0.00984,-0.00394,-0.00984,-0.00394,-0.01181,-0.00197,0.0*
%
%ADD19OCTAGOND19*%

G04:AMPARAMS|DCode=20|XSize=7.87mil|YSize=27.56mil|CornerRadius=1.97mil|HoleSize=0mil|Usage=FLASHONLY|Rotation=90.000|XOffset=0mil|YOffset=0mil|HoleType=Round|Shape=RoundedRectangle|*
%AMROUNDEDRECTD20*
21,1,0.00787,0.02362,0,0,90.0*
21,1,0.00394,0.02756,0,0,90.0*
1,1,0.00394,0.01181,0.00197*
1,1,0.00394,0.01181,-0.00197*
1,1,0.00394,-0.01181,-0.00197*
1,1,0.00394,-0.01181,0.00197*
%
%ADD20ROUNDEDRECTD20*%
%ADD21O,0.02756X0.00787*%
%ADD22R,0.04724X0.03937*%
%ADD23R,0.04724X0.03937*%
%ADD24R,0.09449X0.02953*%
%ADD25R,0.07205X0.11260*%
%ADD26R,0.02874X0.04961*%
%ADD27C,0.01000*%
%ADD28C,0.00600*%
%ADD29C,0.00800*%
%ADD30C,0.01200*%
%ADD31C,0.00900*%
%ADD32C,0.02000*%
%ADD33C,0.01500*%
%ADD34C,0.02500*%
%ADD35C,0.05600*%
%ADD36C,0.02200*%
%ADD37R,0.02953X0.09449*%
%ADD38R,0.02559X0.04331*%
%ADD39R,0.01575X0.04134*%
%ADD40R,0.20079X0.20079*%
%ADD41O,0.03347X0.01102*%
%ADD42O,0.01102X0.03347*%
G36*
X599019Y139302D02*
X600914D01*
Y137406D01*
X601050Y136723D01*
X601438Y136144D01*
X602017Y135757D01*
X602700Y135621D01*
X603383Y135757D01*
X603684Y135958D01*
X603985Y135757D01*
X604669Y135621D01*
X605352Y135757D01*
X605653Y135958D01*
X605954Y135757D01*
X606637Y135621D01*
X607320Y135757D01*
X607621Y135958D01*
X607922Y135757D01*
X608605Y135621D01*
X608862Y135672D01*
X609248Y135355D01*
Y133300D01*
X608650D01*
Y129000D01*
X608450D01*
Y128126D01*
X605149D01*
X598325Y134949D01*
Y139046D01*
X598712Y139363D01*
X599019Y139302D01*
D02*
G37*
G36*
X633100Y139050D02*
X633574D01*
Y132349D01*
X628551Y127325D01*
X627400D01*
Y128450D01*
D01*
Y128450D01*
X627400Y128450D01*
Y128550D01*
X627400D01*
Y133450D01*
X623300D01*
Y133850D01*
X620525D01*
X619773Y134601D01*
Y135355D01*
X620160Y135672D01*
X620416Y135621D01*
X621100Y135757D01*
X621401Y135958D01*
X621702Y135757D01*
X622385Y135621D01*
X623068Y135757D01*
X623369Y135958D01*
X623670Y135757D01*
X624354Y135621D01*
X625037Y135757D01*
X625616Y136144D01*
X626003Y136723D01*
X626139Y137406D01*
Y139302D01*
X628035D01*
X628718Y139438D01*
X629297Y139825D01*
X629474Y140090D01*
X629964Y140187D01*
X630115Y140087D01*
X630400Y140030D01*
Y139050D01*
X632100D01*
Y141501D01*
X633100D01*
Y139050D01*
D02*
G37*
G36*
X577350Y194300D02*
X575250D01*
Y189900D01*
X575611D01*
Y189207D01*
X575153D01*
Y187550D01*
X573000D01*
Y187750D01*
X570499D01*
X570045Y188053D01*
X569746Y188112D01*
Y189400D01*
X570450D01*
Y193800D01*
X568450D01*
Y197000D01*
X568450D01*
Y197017D01*
X568804Y197371D01*
X577350D01*
Y194300D01*
D02*
G37*
G36*
X617000Y214700D02*
X617200D01*
X624200Y207700D01*
Y195500D01*
X627200Y192500D01*
Y178700D01*
X630867Y175033D01*
X654900D01*
Y170449D01*
X654422Y170303D01*
X654214Y170614D01*
X653519Y171078D01*
X653200Y171142D01*
Y169099D01*
Y167058D01*
X653519Y167122D01*
X654214Y167586D01*
X654422Y167897D01*
X654900Y167751D01*
Y141400D01*
X653370D01*
Y142110D01*
X654320D01*
Y148841D01*
X649361D01*
Y142110D01*
X650311D01*
Y141400D01*
X650304D01*
X650304Y141400D01*
Y141400D01*
X650050Y141400D01*
X650050D01*
X650000D01*
X649950D01*
X649696Y141400D01*
X649696Y141400D01*
Y141400D01*
X648000D01*
Y139199D01*
Y137000D01*
X649950D01*
Y137000D01*
X650050D01*
X650304Y137000D01*
X650304Y137000D01*
Y137000D01*
X654900D01*
Y119379D01*
X654769Y119322D01*
Y119322D01*
X654769Y119322D01*
X554931D01*
X554800Y119444D01*
Y202600D01*
X593900D01*
Y204550D01*
X594700D01*
Y207001D01*
X595700D01*
Y204550D01*
X597400D01*
Y204600D01*
X598400D01*
Y206801D01*
X599400D01*
Y204607D01*
X599392Y204600D01*
X598740D01*
X598931Y204138D01*
X595324Y200531D01*
X587700D01*
X587187Y200429D01*
X565100D01*
X564515Y200313D01*
X564019Y199981D01*
X561037Y197000D01*
X558550D01*
Y194513D01*
X557619Y193581D01*
X557287Y193085D01*
X557171Y192500D01*
Y187350D01*
X556500D01*
Y182450D01*
X556500Y182450D01*
X556500Y182350D01*
X556500D01*
Y177450D01*
X557171D01*
Y176300D01*
X557287Y175715D01*
X557619Y175219D01*
X559519Y173319D01*
X560015Y172987D01*
X560015Y172987D01*
X560015Y172987D01*
D01*
X560015Y172987D01*
X560015Y172987D01*
X560600Y172871D01*
X563800D01*
X564385Y172987D01*
X564881Y173319D01*
X566281Y174719D01*
X566613Y175215D01*
X566729Y175800D01*
Y175893D01*
X568477D01*
X568668Y175431D01*
X563787Y170550D01*
X561200D01*
Y169429D01*
X560300D01*
X560113Y169392D01*
X559600Y169494D01*
X558722Y169319D01*
X557978Y168822D01*
X557481Y168078D01*
X557306Y167200D01*
X557481Y166322D01*
X557978Y165578D01*
X558722Y165080D01*
X559600Y164906D01*
X560478Y165080D01*
X560759Y165268D01*
X561200Y165033D01*
Y163600D01*
X565600D01*
Y165296D01*
X565600Y165296D01*
D01*
D01*
X565600Y165550D01*
Y165557D01*
Y165600D01*
X565600Y165650D01*
X565600Y165904D01*
X565600Y165904D01*
X565600D01*
Y168037D01*
X569840Y172278D01*
X570338Y172229D01*
X570567Y171886D01*
X571262Y171422D01*
X571581Y171358D01*
Y173401D01*
X572581D01*
Y171358D01*
X572503Y171343D01*
X572739Y170902D01*
X567219Y165381D01*
X566887Y164885D01*
X566771Y164300D01*
Y145400D01*
X566771Y145400D01*
X566771D01*
X566887Y144815D01*
X567219Y144319D01*
X571519Y140019D01*
X572015Y139687D01*
X572600Y139571D01*
X590316D01*
X590378Y139478D01*
X591122Y138980D01*
X592000Y138806D01*
X592878Y138980D01*
X593622Y139478D01*
X594119Y140222D01*
X594294Y141100D01*
X594119Y141978D01*
X593622Y142722D01*
X592878Y143219D01*
X592000Y143394D01*
X591122Y143219D01*
X590378Y142722D01*
X590316Y142629D01*
X573234D01*
X569829Y146034D01*
Y163666D01*
X577934Y171771D01*
X592759D01*
X593281Y171422D01*
X594100Y171259D01*
X594919Y171422D01*
X595614Y171886D01*
X596078Y172581D01*
X596211Y173248D01*
X597381Y174419D01*
X597713Y174915D01*
X597829Y175500D01*
Y189671D01*
X608300D01*
Y188804D01*
X608300Y188804D01*
X608300D01*
X608300Y188550D01*
Y188450D01*
X608300Y188450D01*
X608300Y188450D01*
Y183550D01*
X612700D01*
Y188196D01*
X612700Y188196D01*
D01*
D01*
X612700Y188450D01*
Y188457D01*
Y188500D01*
X612700Y188550D01*
X612700Y188804D01*
X612700Y188804D01*
X612700D01*
Y189671D01*
X618571D01*
Y180700D01*
X618687Y180115D01*
X619019Y179619D01*
X625050Y173587D01*
X624858Y173126D01*
X616449D01*
X613137Y176437D01*
X612707Y176725D01*
X612200Y176825D01*
X612000D01*
Y177950D01*
X607600D01*
Y176825D01*
X606198D01*
X606119Y176878D01*
X605300Y177041D01*
X604481Y176878D01*
X603786Y176414D01*
X603322Y175719D01*
X603159Y174900D01*
X603322Y174081D01*
X603557Y173728D01*
X603386Y173614D01*
X602922Y172919D01*
X602759Y172100D01*
X602922Y171281D01*
X603386Y170586D01*
X604081Y170122D01*
X604900Y169959D01*
X605719Y170122D01*
X606414Y170586D01*
X606540Y170774D01*
X607600D01*
Y168490D01*
X607481Y168313D01*
X607213Y168093D01*
X606637Y168208D01*
X605954Y168072D01*
X605653Y167870D01*
X605352Y168072D01*
X604669Y168208D01*
X603985Y168072D01*
X603684Y167870D01*
X603383Y168072D01*
X602700Y168208D01*
X602017Y168072D01*
X601438Y167685D01*
X601050Y167105D01*
X600914Y166422D01*
Y164526D01*
X599019D01*
X598336Y164391D01*
X597756Y164004D01*
X597369Y163424D01*
X597233Y162741D01*
X597369Y162058D01*
X597570Y161757D01*
X597369Y161456D01*
X597233Y160772D01*
X597369Y160089D01*
X597570Y159788D01*
X597369Y159487D01*
X597277Y159023D01*
X596799Y158878D01*
X593926Y161751D01*
Y167700D01*
X593825Y168207D01*
X593537Y168637D01*
X592137Y170037D01*
X591707Y170325D01*
X591200Y170425D01*
X580600D01*
X580093Y170325D01*
X579663Y170037D01*
X578517Y168892D01*
X578492Y168902D01*
X577500Y169033D01*
X576508Y168902D01*
X575584Y168519D01*
X574790Y167910D01*
X574181Y167116D01*
X573798Y166192D01*
X573667Y165200D01*
X573798Y164208D01*
X574181Y163284D01*
X574790Y162490D01*
X575584Y161881D01*
X576508Y161498D01*
X577500Y161367D01*
X578492Y161498D01*
X579416Y161881D01*
X580210Y162490D01*
X580819Y163284D01*
X581202Y164208D01*
X581333Y165200D01*
X581202Y166192D01*
X580819Y167116D01*
X580677Y167302D01*
X581149Y167774D01*
X582697D01*
X582918Y167326D01*
X582681Y167016D01*
X582298Y166092D01*
X582167Y165100D01*
X582298Y164108D01*
X582681Y163184D01*
X583290Y162390D01*
X584084Y161781D01*
X585008Y161398D01*
X586000Y161267D01*
X586992Y161398D01*
X587583Y161643D01*
X597264Y151961D01*
X597306Y151934D01*
X597369Y151613D01*
X597369D01*
X597369Y151613D01*
X597333Y151430D01*
X598064D01*
X598336Y151249D01*
X599019Y151113D01*
X600142D01*
Y150747D01*
X599019D01*
X598336Y150611D01*
X598064Y150430D01*
X597333D01*
X597369Y150247D01*
X597154Y150186D01*
X597154D01*
X596724Y149899D01*
X596063Y149237D01*
X595775Y148807D01*
X595675Y148300D01*
Y134400D01*
X595775Y133893D01*
X596063Y133463D01*
X596063Y133463D01*
X596063Y133463D01*
X603663Y125863D01*
X603663Y125863D01*
X603663D01*
X603663Y125863D01*
X603663D01*
X603663Y125863D01*
Y125863D01*
Y125863D01*
D01*
D01*
X603663D01*
Y125863D01*
X604093Y125575D01*
X604600Y125475D01*
X608450D01*
Y124600D01*
X612094D01*
X612175Y124193D01*
X612463Y123763D01*
X613463Y122763D01*
X613893Y122475D01*
X614400Y122374D01*
X622900D01*
X623407Y122475D01*
X623837Y122763D01*
X624624Y123550D01*
X627400D01*
Y124674D01*
X629100D01*
X629607Y124775D01*
X630037Y125063D01*
X630037Y125063D01*
X630037Y125063D01*
X635837Y130863D01*
X636125Y131293D01*
X636226Y131800D01*
X636226Y131800D01*
X636226Y131800D01*
Y131800D01*
Y136498D01*
X636612Y136816D01*
X636900Y136758D01*
Y138799D01*
Y140842D01*
X636612Y140784D01*
X636226Y141102D01*
Y144050D01*
X641880D01*
Y142110D01*
X646839D01*
Y148841D01*
X641880D01*
Y146701D01*
X636226D01*
Y151350D01*
X636267Y151400D01*
X639450D01*
Y153175D01*
X641037Y154763D01*
X641325Y155193D01*
X641383Y155485D01*
X641880Y155436D01*
Y151559D01*
X647600D01*
Y154925D01*
X648600D01*
Y151559D01*
X654320D01*
Y158290D01*
X653223D01*
X652922Y158741D01*
X651781Y159881D01*
X651285Y160213D01*
X650700Y160329D01*
X646100D01*
X645889Y160502D01*
Y161200D01*
X645792Y161688D01*
X645773Y161785D01*
X645441Y162281D01*
X644529Y163193D01*
Y164100D01*
X645450D01*
X645450Y164100D01*
Y164100D01*
X645450D01*
X645550D01*
X645804Y164100D01*
X645804Y164100D01*
Y164100D01*
X647500D01*
Y166299D01*
Y168500D01*
X645804D01*
X645804Y168500D01*
Y168500D01*
X645550Y168500D01*
X645500D01*
X645450D01*
X645196Y168500D01*
X645196Y168500D01*
Y168500D01*
X644136D01*
X644081Y168581D01*
X639381Y173281D01*
X638885Y173613D01*
X638300Y173729D01*
X629656D01*
X629578Y174119D01*
X629114Y174814D01*
X628419Y175278D01*
X627600Y175441D01*
X627535Y175428D01*
X621629Y181333D01*
Y191700D01*
Y201300D01*
X621513Y201885D01*
X621181Y202381D01*
X611336Y212227D01*
X611178Y213019D01*
X610714Y213714D01*
X610019Y214178D01*
X609200Y214341D01*
X608381Y214178D01*
X607686Y213714D01*
X607222Y213019D01*
X607059Y212200D01*
X607222Y211381D01*
X607686Y210686D01*
X607740Y210650D01*
X607787Y210415D01*
X608119Y209919D01*
X608615Y209587D01*
X609200Y209471D01*
X609672Y209565D01*
X618571Y200666D01*
Y192729D01*
X612700D01*
Y193450D01*
X608300D01*
Y192729D01*
X596934D01*
X595236Y194427D01*
X595078Y195219D01*
X594614Y195914D01*
X593919Y196378D01*
X593100Y196541D01*
X592281Y196378D01*
X591586Y195914D01*
X591122Y195219D01*
X590959Y194400D01*
X591122Y193581D01*
X591586Y192886D01*
X592281Y192422D01*
X593073Y192264D01*
X594771Y190567D01*
Y176134D01*
X594165Y175528D01*
X594100Y175541D01*
X593281Y175378D01*
X592586Y174914D01*
X592529Y174829D01*
X590893D01*
X590748Y175308D01*
X591314Y175686D01*
X591778Y176381D01*
X591941Y177200D01*
X591778Y178019D01*
X591314Y178714D01*
X590619Y179178D01*
X589800Y179341D01*
X589287Y179239D01*
X588900Y179556D01*
Y182650D01*
D01*
Y182650D01*
X588900Y182650D01*
Y182750D01*
X588900D01*
Y187650D01*
X587929D01*
Y194400D01*
X587813Y194985D01*
X587481Y195481D01*
X587250Y195713D01*
Y196287D01*
X588232Y197269D01*
X596000D01*
X596624Y197393D01*
X597154Y197747D01*
X597154Y197747D01*
X597154Y197747D01*
X604007Y204600D01*
X606350D01*
Y209000D01*
X605100D01*
Y209816D01*
X605850D01*
Y214184D01*
X597400D01*
Y214450D01*
X595057D01*
X593900Y215607D01*
Y220590D01*
X617000D01*
Y214700D01*
D02*
G37*
%LPC*%
G36*
X637900Y140842D02*
Y139300D01*
X639442D01*
X639378Y139619D01*
X638914Y140314D01*
X638219Y140778D01*
X637900Y140842D01*
D02*
G37*
G36*
X639442Y138300D02*
X637900D01*
Y136758D01*
X638219Y136822D01*
X638914Y137286D01*
X639378Y137981D01*
X639442Y138300D01*
D02*
G37*
G36*
X647000Y138700D02*
X645050D01*
Y137000D01*
X647000D01*
Y138700D01*
D02*
G37*
G36*
Y141400D02*
X645050D01*
Y139700D01*
X647000D01*
Y141400D01*
D02*
G37*
G36*
X650601Y168886D02*
X650284Y168500D01*
X648500D01*
Y166800D01*
X650450D01*
Y167826D01*
X650928Y167971D01*
X651186Y167586D01*
X651881Y167122D01*
X652200Y167058D01*
Y168600D01*
X650658D01*
X650601Y168886D01*
D02*
G37*
G36*
X652200Y171142D02*
X651881Y171078D01*
X651186Y170614D01*
X650722Y169919D01*
X650658Y169600D01*
X652200D01*
Y171142D01*
D02*
G37*
G36*
X650450Y165800D02*
X648500D01*
Y164100D01*
X650450D01*
Y165800D01*
D02*
G37*
G36*
X562900Y162600D02*
X561200D01*
Y160650D01*
X562900D01*
Y162600D01*
D02*
G37*
G36*
X565600D02*
X563900D01*
Y160650D01*
X565600D01*
Y162600D01*
D02*
G37*
%LPD*%
D13*
X599532Y212000D02*
D03*
X603469D02*
D03*
D14*
X614000Y81100D02*
D03*
X609000D02*
D03*
X632000Y153600D02*
D03*
X637000D02*
D03*
X632100Y157500D02*
D03*
X637100D02*
D03*
X616100Y131100D02*
D03*
X611100D02*
D03*
X615900Y126800D02*
D03*
X610900D02*
D03*
X643000Y166300D02*
D03*
X648000D02*
D03*
X652500Y139200D02*
D03*
X647500D02*
D03*
X566000Y194800D02*
D03*
X561000D02*
D03*
X563000Y191600D02*
D03*
X568000D02*
D03*
X603900Y206800D02*
D03*
X598900D02*
D03*
X582700Y192100D02*
D03*
X577700D02*
D03*
X584800Y196000D02*
D03*
X579800D02*
D03*
D15*
X610500Y186000D02*
D03*
Y191000D02*
D03*
X621100Y131400D02*
D03*
Y126400D02*
D03*
X625200Y126000D02*
D03*
Y131000D02*
D03*
X609800Y170500D02*
D03*
Y175500D02*
D03*
X632600Y141500D02*
D03*
Y146500D02*
D03*
X558700Y184900D02*
D03*
Y179900D02*
D03*
X570800Y185300D02*
D03*
Y180300D02*
D03*
X595200Y212000D02*
D03*
Y207000D02*
D03*
X574000Y185100D02*
D03*
Y180100D02*
D03*
X586700Y185200D02*
D03*
Y180200D02*
D03*
D27*
X559600Y167200D02*
X560300Y167900D01*
X563300D01*
X570800Y175400D01*
Y180300D01*
X571000Y185100D02*
X574000D01*
X612542Y150930D02*
X613527Y151914D01*
X600141Y150930D02*
X612542D01*
X612542Y138528D02*
Y150930D01*
X620100Y180700D02*
X628600Y172200D01*
X594100Y173300D02*
X596300Y175500D01*
X577300Y173300D02*
X594100D01*
X628401Y148961D02*
X630000Y147363D01*
X626913Y148961D02*
X628401D01*
X630700Y141500D02*
X632600D01*
X630000Y142200D02*
X630700Y141500D01*
X630000Y142200D02*
Y147363D01*
X628600Y172200D02*
X638300D01*
X631450Y157500D02*
X632100D01*
X628817Y154867D02*
X631450Y157500D01*
X626913Y154867D02*
X628817D01*
X631298Y152898D02*
X632000Y153600D01*
X626913Y152898D02*
X631298D01*
X644360Y157060D02*
Y161200D01*
X643000Y162560D02*
X644360Y161200D01*
X643000Y166300D02*
Y167500D01*
Y162560D02*
Y166300D01*
X638300Y172200D02*
X643000Y167500D01*
X644360Y157060D02*
X646100Y158800D01*
X644360Y154924D02*
Y157060D01*
X616100Y131100D02*
X616479Y131480D01*
Y138528D01*
X651840Y154924D02*
Y157660D01*
Y139860D02*
Y145476D01*
Y139860D02*
X652500Y139200D01*
X646100Y158800D02*
X650700D01*
X651840Y157660D01*
X609200Y212200D02*
X620100Y201300D01*
X609200Y211000D02*
Y212200D01*
X568300Y145400D02*
X572600Y141100D01*
X568300Y145400D02*
Y164300D01*
X577300Y173300D01*
X599532Y212000D02*
X599532Y212000D01*
X603469Y207231D02*
X603900Y206800D01*
X584800Y196000D02*
X587700Y198900D01*
X565100D02*
X587700D01*
X561000Y194800D02*
X565100Y198900D01*
X558700Y192500D02*
X561000Y194800D01*
X558700Y184900D02*
Y192500D01*
X562641Y179160D02*
Y186640D01*
Y191241D01*
X563000Y191600D01*
X565200Y186640D02*
X565350Y186790D01*
Y194150D01*
X566000Y194800D01*
X567759Y186640D02*
Y191359D01*
X568000Y191600D01*
X558700Y176300D02*
Y179900D01*
Y176300D02*
X560600Y174400D01*
X563800D01*
X565200Y175800D01*
Y179160D01*
X567759D02*
X569660D01*
X570800Y180300D01*
X567759Y186640D02*
X569460D01*
X570800Y185300D01*
X574000Y185100D02*
X576301D01*
X577141Y185940D01*
Y191541D01*
X577700Y192100D01*
X579800Y196000D02*
X580050Y195750D01*
Y186290D02*
Y195750D01*
X579700Y185940D02*
X580050Y186290D01*
X582259Y185940D02*
Y191659D01*
X582700Y192100D01*
X584800Y196000D02*
X586400Y194400D01*
Y185500D02*
Y194400D01*
Y185500D02*
X586700Y185200D01*
X582259Y178460D02*
Y185940D01*
X579700Y175100D02*
Y178460D01*
Y175100D02*
X586000D01*
X586700Y175800D01*
Y180200D01*
X593100Y194400D02*
X596300Y191200D01*
Y175500D02*
Y191200D01*
X619600D01*
X620100Y191700D01*
Y180700D02*
Y191700D01*
Y201300D01*
X572600Y141100D02*
X592000D01*
X616479Y148961D02*
X626913D01*
X616479Y138528D02*
Y148961D01*
X610574Y154867D02*
Y165300D01*
X618448Y156835D02*
Y165300D01*
X610574Y154867D02*
X613527Y151914D01*
D28*
X586000Y165100D02*
X598202Y152898D01*
X600141D01*
X577300Y165200D02*
Y165800D01*
X591200Y169100D02*
X592600Y167700D01*
Y161202D02*
Y167700D01*
X580600Y169100D02*
X591200D01*
X577300Y165800D02*
X580600Y169100D01*
X644260Y145376D02*
X644360Y145476D01*
X634900Y145376D02*
X644260D01*
X609800Y170500D02*
Y171100D01*
X608800Y172100D02*
X609800Y171100D01*
X604900Y172100D02*
X608800D01*
X605300Y174900D02*
X605900Y175500D01*
X609800D01*
Y170500D02*
X610200Y170100D01*
X626000D01*
X626900Y169200D01*
X609800Y175500D02*
X612200D01*
X604600Y126800D02*
X610900D01*
X597000Y134400D02*
X604600Y126800D01*
X597000Y134400D02*
Y148300D01*
X597661Y148961D01*
X600141D01*
X613300Y168500D02*
X617100D01*
X612542Y167743D02*
X613300Y168500D01*
X612542Y165300D02*
Y167743D01*
X616479Y165300D02*
Y167879D01*
X617100Y168500D01*
X625477D01*
X632527Y161450D01*
X634350Y151900D02*
X634900Y151350D01*
X634350Y151900D02*
Y161200D01*
Y151150D02*
Y151900D01*
X633776Y146500D02*
X634900Y145376D01*
Y151350D01*
X632600Y146500D02*
X633776D01*
X633028Y169200D02*
X635900Y166328D01*
X626900Y169200D02*
X633028D01*
X627272Y170800D02*
X634000D01*
X626272Y171800D02*
X627272Y170800D01*
X612200Y175500D02*
X615900Y171800D01*
X626272D01*
X634000Y170800D02*
X640100Y164700D01*
Y155700D02*
Y164700D01*
X638000Y153600D02*
X640100Y155700D01*
X637000Y153600D02*
X638000D01*
X635900Y158700D02*
Y166328D01*
Y158700D02*
X637100Y157500D01*
X632527Y161450D02*
X634100D01*
X629486Y158409D02*
X632527Y161450D01*
X629486Y158203D02*
Y158409D01*
X628636Y157353D02*
X629486Y158203D01*
X627430Y157353D02*
X628636D01*
X626913Y156835D02*
X627430Y157353D01*
X634100Y161450D02*
X634350Y161200D01*
X634900Y131800D02*
Y145376D01*
X629100Y126000D02*
X634900Y131800D01*
X625200Y126000D02*
X629100D01*
X622900Y123700D02*
X625200Y126000D01*
X614400Y123700D02*
X622900D01*
X624800Y131400D02*
X625200Y131000D01*
X621100Y131400D02*
X624800D01*
X618448Y134052D02*
X621100Y131400D01*
X618448Y134052D02*
Y138528D01*
X613400Y133300D02*
X614511Y134411D01*
X613400Y124700D02*
Y133300D01*
Y124700D02*
X614400Y123700D01*
X614511Y134411D02*
Y138528D01*
X610574Y131626D02*
Y138528D01*
Y131626D02*
X611100Y131100D01*
X577300Y165200D02*
X577500D01*
X584600Y165800D02*
X585000Y166200D01*
Y166400D01*
X595200Y207000D02*
X595400Y206800D01*
X595200Y207000D02*
X598700D01*
X598900Y206800D01*
X592600Y161202D02*
X598935Y154867D01*
X600141D01*
D29*
X572081Y173400D02*
X577141Y178460D01*
X620700Y126800D02*
X621100Y126400D01*
X615900Y126800D02*
X620700D01*
X615900D02*
Y130900D01*
X647499Y139199D02*
X647500Y139200D01*
X575640Y178460D02*
X577141D01*
X574000Y180100D02*
X575640Y178460D01*
X572000Y173400D02*
X572081D01*
X610900Y126800D02*
X611500D01*
D30*
X586600Y212000D02*
X595200D01*
X599532D01*
X603469Y207231D02*
Y212000D01*
X596000Y198900D02*
X603900Y206800D01*
X587700Y198900D02*
X596000D01*
D34*
X559600Y167200D02*
D03*
X592000Y141100D02*
D03*
D35*
X586000Y165100D02*
D03*
X577500Y165200D02*
D03*
D36*
X594100Y173400D02*
D03*
X609200Y212200D02*
D03*
X589800Y177200D02*
D03*
X632800Y166600D02*
D03*
X627600Y173300D02*
D03*
X637400Y138800D02*
D03*
X652700Y169100D02*
D03*
X593100Y194400D02*
D03*
X572081Y173400D02*
D03*
X605300Y174900D02*
D03*
X604900Y172100D02*
D03*
X633900Y163900D02*
D03*
D37*
X573017Y212000D02*
D03*
X586600D02*
D03*
D38*
X644360Y145476D02*
D03*
X651840D02*
D03*
Y154924D02*
D03*
X648100D02*
D03*
X644360D02*
D03*
D39*
X577141Y185940D02*
D03*
X579700D02*
D03*
X582259D02*
D03*
Y178460D02*
D03*
X579700D02*
D03*
X577141D02*
D03*
X562641Y186640D02*
D03*
X565200D02*
D03*
X567759D02*
D03*
Y179160D02*
D03*
X565200D02*
D03*
X562641D02*
D03*
D40*
X613527Y151914D02*
D03*
D41*
X600141Y162741D02*
D03*
Y160772D02*
D03*
Y158804D02*
D03*
Y156835D02*
D03*
Y154867D02*
D03*
Y152898D02*
D03*
Y150930D02*
D03*
Y148961D02*
D03*
Y146993D02*
D03*
Y145024D02*
D03*
Y143056D02*
D03*
Y141087D02*
D03*
X626913D02*
D03*
Y143056D02*
D03*
Y145024D02*
D03*
Y146993D02*
D03*
Y148961D02*
D03*
Y150930D02*
D03*
Y152898D02*
D03*
Y154867D02*
D03*
Y156835D02*
D03*
Y158804D02*
D03*
Y160772D02*
D03*
Y162741D02*
D03*
D42*
X602700Y138528D02*
D03*
X604669D02*
D03*
X606637D02*
D03*
X608605D02*
D03*
X610574D02*
D03*
X612542D02*
D03*
X614511D02*
D03*
X616479D02*
D03*
X618448D02*
D03*
X620416D02*
D03*
X622385D02*
D03*
X624354D02*
D03*
Y165300D02*
D03*
X622385D02*
D03*
X620416D02*
D03*
X618448D02*
D03*
X616479D02*
D03*
X614511D02*
D03*
X612542D02*
D03*
X610574D02*
D03*
X608605D02*
D03*
X606637D02*
D03*
X604669D02*
D03*
X602700D02*
D03*
M02*
